<?xml version="1.0" encoding="UTF-8"?>
<svg id="Layer_1" data-name="Layer 1" xmlns="http://www.w3.org/2000/svg" xmlns:xlink="http://www.w3.org/1999/xlink" viewBox="0 0 416 59">
  <defs>
    <style>
      .cls-1 {
        fill: url(#linear-gradient);
        opacity: .76;
      }

      .cls-1, .cls-2 {
        stroke-width: 0px;
      }

      .cls-2 {
        fill: #232824;
      }
    </style>
    <linearGradient id="linear-gradient" x1="294.52" y1="50.81" x2="386.79" y2="-2.47" gradientUnits="userSpaceOnUse">
      <stop offset="0" stop-color="#eae731"/>
      <stop offset=".08" stop-color="#e7e731"/>
      <stop offset=".12" stop-color="#dee833"/>
      <stop offset=".16" stop-color="#cfe936"/>
      <stop offset=".2" stop-color="#bbec3b"/>
      <stop offset=".23" stop-color="#a0ef41"/>
      <stop offset=".26" stop-color="#7ef348"/>
      <stop offset=".29" stop-color="#57f751"/>
      <stop offset=".32" stop-color="#2afc5b"/>
      <stop offset=".33" stop-color="#19ff5f"/>
      <stop offset=".58" stop-color="#f0a"/>
      <stop offset=".67" stop-color="#be25bf"/>
      <stop offset=".79" stop-color="#6d54da"/>
      <stop offset=".89" stop-color="#3277ee"/>
      <stop offset=".96" stop-color="#0d8cfa"/>
      <stop offset="1" stop-color="#0095ff"/>
    </linearGradient>
  </defs>
  <g>
    <path class="cls-2" d="M44.68,16.49c-2.19-1.91-5.3-2.86-9.33-2.86h-12.4c-1.62,0-2.44.81-2.44,2.44v26.32c0,1.62.81,2.44,2.44,2.44h4.66c1.64,0,2.46-.81,2.46-2.44v-7.5h5.27c4.08,0,7.2-.95,9.36-2.86s3.25-4.51,3.25-7.8-1.09-5.83-3.28-7.73ZM37.27,26.81c-.61.53-1.38.8-2.32.8h-4.88v-6.23h4.88c.94,0,1.71.28,2.32.83s.91,1.33.91,2.33-.3,1.74-.91,2.27Z"/>
    <path class="cls-2" d="M72.17,23.67c-1.06-1.06-2.4-1.91-4.01-2.53s-3.37-.94-5.27-.94c-3.83,0-6.97,1.18-9.42,3.54s-3.68,5.36-3.68,9,1.25,6.75,3.76,9.14,5.74,3.59,9.69,3.59c2.05,0,4.05-.32,6.01-.97s3.43-1.5,4.39-2.54c.8-.86.77-1.72-.09-2.58l-1.92-2.02c-.31-.31-.63-.5-.96-.55s-.61-.03-.84.07-.53.28-.89.53c-1.39.98-2.89,1.48-4.5,1.48-1.47,0-2.73-.37-3.77-1.1s-1.65-1.74-1.8-3.02h14.41c.95,0,1.58-.17,1.89-.52s.46-.99.46-1.95c0-1.64-.3-3.22-.91-4.73s-1.45-2.81-2.53-3.89ZM58.86,29.9c.17-1.03.59-1.85,1.25-2.45s1.51-.9,2.54-.9,1.99.35,2.74,1.05c.59.59.96,1.36,1.1,2.3h-7.64Z"/>
    <path class="cls-2" d="M98.68,21.63c-.05-.14-.16-.27-.33-.39s-.32-.21-.45-.27-.29-.12-.49-.19c-1.14-.39-2.38-.59-3.7-.59-2.58,0-4.8,1.23-6.68,3.7v-.91c0-.78-.2-1.38-.61-1.78s-1-.61-1.78-.61h-2.93c-.77,0-1.36.2-1.77.61s-.62,1-.62,1.78v19.45c0,.78.21,1.38.62,1.78s1,.61,1.77.61h4.66c.78,0,1.38-.2,1.78-.61s.61-1,.61-1.78v-10.34c0-1.25.35-2.23,1.04-2.93s1.71-1.05,3.04-1.05c.69,0,1.57.2,2.65.59.47.17.89.15,1.28-.07s.66-.68.83-1.38l1.15-4.31c.11-.28.14-.54.08-.76s-.11-.41-.15-.55Z"/>
    <path class="cls-2" d="M114.54,29.99c-.5-.19-1.07-.38-1.71-.57s-1.15-.35-1.54-.47-.76-.25-1.12-.39-.63-.29-.8-.45-.25-.33-.25-.52c0-.23.14-.43.43-.59s.69-.23,1.21-.23c1.59,0,3.16.46,4.69,1.38.55.38,1.14.54,1.77.49s1.17-.35,1.61-.91l1.15-1.55c.59-.81.87-1.47.83-1.97s-.38-1.01-1.02-1.52c-.84-.67-2.14-1.27-3.89-1.78s-3.51-.77-5.27-.77c-3.16,0-5.67.7-7.54,2.1s-2.8,3.29-2.8,5.68c0,.75.11,1.45.32,2.1s.47,1.21.79,1.68.75.92,1.3,1.35,1.07.78,1.54,1.04,1.09.54,1.86.83,1.41.51,1.91.67,1.16.35,1.99.59c.34.11.62.2.84.28s.45.18.7.29.44.25.56.41.19.33.19.52c0,.61-.51.91-1.52.91-1.92,0-3.91-.64-5.95-1.92-.42-.28-.8-.48-1.15-.6s-.73-.12-1.16,0-.83.41-1.21.88l-1.38,1.73c-.58.73-.84,1.35-.77,1.84s.41,1.03,1.05,1.61c1.03.91,2.5,1.7,4.41,2.37s3.91,1.01,6.02,1.01c3.17,0,5.71-.7,7.63-2.1s2.87-3.34,2.87-5.82c0-1.91-.57-3.46-1.7-4.65s-2.76-2.18-4.89-2.94Z"/>
    <path class="cls-2" d="M137.35,20.2c-2.59,0-4.92.54-6.98,1.63s-3.67,2.59-4.83,4.51-1.73,4.09-1.73,6.49.58,4.57,1.73,6.49,2.77,3.43,4.83,4.51,4.39,1.63,6.98,1.63c3.92,0,7.16-1.19,9.7-3.57s3.82-5.4,3.82-9.06-1.27-6.68-3.82-9.06-5.78-3.57-9.7-3.57ZM140.37,36.13c-.8.88-1.8,1.31-3.02,1.31s-2.23-.44-3.02-1.31-1.2-1.98-1.2-3.3.4-2.43,1.2-3.3,1.8-1.31,3.02-1.31,2.23.44,3.02,1.31,1.2,1.98,1.2,3.3-.4,2.43-1.2,3.3Z"/>
    <path class="cls-2" d="M169.74,20.2c-3.12,0-5.58,1.27-7.36,3.8v-1.01c0-.78-.2-1.38-.61-1.78s-1-.61-1.78-.61h-2.93c-.77,0-1.36.2-1.77.61s-.62,1-.62,1.78v19.45c0,.78.21,1.38.62,1.78s1,.61,1.77.61h4.66c.78,0,1.38-.2,1.78-.61s.61-1,.61-1.78v-10.99c0-.95.28-1.74.83-2.36s1.3-.93,2.24-.93,1.68.31,2.24.93.83,1.4.83,2.36v10.99c0,.77.21,1.36.62,1.77s1.01.62,1.79.62h4.64c.8,0,1.41-.2,1.83-.61s.63-1,.63-1.78v-11.67c0-3.19-.93-5.75-2.8-7.68s-4.28-2.89-7.23-2.89Z"/>
    <path class="cls-2" d="M204.65,23.43c-.76-.77-1.66-1.4-2.71-1.9s-2.11-.85-3.19-1.04-2.22-.29-3.42-.29c-1.42,0-2.94.21-4.55.63s-2.95.95-4.03,1.59c-.56.34-.9.75-1.02,1.22s.01,1.13.39,1.99l.63,1.29c.66,1.41,1.68,1.76,3.07,1.05,1.48-.77,3.1-1.15,4.85-1.15,1.22,0,2.15.26,2.8.79s.97,1.27.97,2.24v.63c-1.77-.58-3.43-.87-4.99-.87-3.11,0-5.61.76-7.51,2.27s-2.85,3.51-2.85,5.98c0,2.28.87,4.12,2.61,5.51s4.04,2.09,6.9,2.09,5.3-.96,7.48-2.88c.02.72.24,1.27.68,1.66s1.02.59,1.76.59h2.23c1.62,0,2.44-.8,2.44-2.39v-11.86c0-1.56-.23-2.95-.7-4.17s-1.08-2.21-1.84-2.98ZM198.71,37.68c0,.42-.34.89-1.03,1.39s-1.55.76-2.58.76c-.95,0-1.73-.23-2.32-.69s-.89-1.06-.89-1.79.29-1.38.88-1.85,1.36-.7,2.33-.7c1.11,0,2.31.27,3.61.82v2.06Z"/>
    <path class="cls-2" d="M219.24,10.56l-4.66.87c-.83.16-1.43.41-1.82.76s-.57.91-.57,1.68v28.57c0,.78.21,1.38.62,1.78s1,.61,1.77.61h4.66c.78,0,1.38-.2,1.78-.61s.61-1,.61-1.78V12.96c0-.81-.21-1.45-.63-1.91s-1.01-.62-1.76-.48Z"/>
    <path class="cls-2" d="M231.45,6.04c-1.52,0-2.8.54-3.87,1.62s-1.59,2.38-1.59,3.91.53,2.8,1.59,3.87,2.35,1.59,3.87,1.59,2.84-.53,3.91-1.59,1.62-2.35,1.62-3.87-.54-2.84-1.62-3.91-2.38-1.62-3.91-1.62Z"/>
    <path class="cls-2" d="M233.82,20.6h-4.66c-.77,0-1.36.2-1.77.61s-.62,1-.62,1.78v19.45c0,.78.21,1.38.62,1.78s1,.61,1.77.61h4.66c.78,0,1.38-.2,1.78-.61s.61-1,.61-1.78v-19.45c0-.78-.2-1.38-.61-1.78s-1-.61-1.78-.61Z"/>
    <path class="cls-2" d="M259.34,37.63c-.16-.36-.32-.63-.5-.82s-.42-.3-.73-.35-.65.09-1.04.4c-.7.42-1.33.63-1.88.63-1.56,0-2.34-.95-2.34-2.84v-7.29h4.36c.78,0,1.39-.21,1.82-.63s.64-1.02.64-1.78v-1.97c0-.77-.21-1.36-.64-1.77s-1.04-.62-1.82-.62h-4.36v-6.09c0-.81-.21-1.45-.64-1.92s-1.03-.63-1.79-.49l-4.57.82c-.81.16-1.41.41-1.8.77s-.59.92-.59,1.69v5.23h-2.02c-.78,0-1.38.21-1.79.62s-.62,1-.62,1.77v1.97c0,.78.21,1.38.63,1.79s1.02.62,1.78.62h2.02v8.34c0,1.69.29,3.18.86,4.46s1.34,2.31,2.3,3.06,2.02,1.31,3.18,1.68,2.38.55,3.66.55,2.43-.16,3.59-.47,2.12-.75,2.88-1.31c.19-.12.34-.23.45-.3s.24-.19.39-.34.25-.29.3-.43.08-.31.08-.52-.05-.42-.16-.66l-1.62-3.8Z"/>
    <path class="cls-2" d="M287.74,21.25c-.38-.44-.97-.66-1.77-.66h-3.84c-1.41,0-2.4.8-2.98,2.39l-3.84,10.66-3.87-10.66c-.58-1.59-1.57-2.39-2.98-2.39h-4.95c-.81,0-1.41.22-1.79.66s-.41,1.02-.08,1.73l9.26,19.64-1.29,2.67c-.45.94-1.3,1.41-2.55,1.41-.62,0-1.15-.06-1.57-.19-.72-.17-1.22-.18-1.51-.02s-.51.5-.67,1.03l-.96,3.59c-.25.94.17,1.64,1.27,2.11,1.19.48,2.52.73,3.98.73,4.69,0,7.98-2.24,9.89-6.73l10.36-24.23c.31-.72.28-1.3-.11-1.73Z"/>
  </g>
  <path class="cls-1" d="M399.89,20.42c-.95-2.14-2.25-3.97-3.88-5.5-1.64-1.53-3.61-2.73-5.91-3.61s-4.77-1.31-7.39-1.31c-3.49,0-6.66.75-9.5,2.24-2.85,1.49-5.08,3.56-6.7,6.2-1.16,1.89-1.89,3.93-2.22,6.14h-7.95c-.83,0-1.47.22-1.9.65-.43.43-.65,1.07-.65,1.9v2.05c0,.85.22,1.5.65,1.95.43.45,1.07.68,1.9.68h2.73v3.23c-1.39.53-2.87.8-4.46.8-2.34,0-4.28-.79-5.84-2.37-1.55-1.58-2.33-3.63-2.33-6.15,0-2.34.76-4.3,2.28-5.87,1.52-1.58,3.39-2.37,5.61-2.37,1.67,0,3.28.48,4.83,1.43.52.32.96.53,1.31.65.36.12.74.13,1.14.04.4-.09.81-.32,1.23-.69l2.93-2.6c.65-.6.98-1.25.98-1.94s-.33-1.31-.98-1.87c-3.37-2.74-7.3-4.11-11.8-4.11-3.31,0-6.32.75-9.05,2.24s-4.88,3.56-6.45,6.21c-.27.45-.5.91-.72,1.38-.92-1.88-2.1-3.53-3.59-4.91-1.64-1.53-3.61-2.73-5.91-3.61-2.3-.88-4.77-1.31-7.39-1.31-3.49,0-6.66.75-9.5,2.24-.48.25-.94.53-1.39.82-.06-1.62-.92-2.43-2.59-2.43h-25.3c-1.75,0-2.63.87-2.63,2.6v3.03c0,.85.23,1.5.68,1.95s1.1.68,1.95.68h7.54v22.47c0,1.74.87,2.6,2.6,2.6h4.98c1.75,0,2.63-.87,2.63-2.6v-22.47h4.57c-1.44,2.52-2.17,5.32-2.17,8.39,0,2.44.48,4.73,1.43,6.88s2.25,3.98,3.89,5.5,3.62,2.72,5.92,3.61,4.77,1.33,7.39,1.33,5.08-.44,7.39-1.33c2.3-.88,4.27-2.09,5.91-3.62,1.48-1.38,2.67-3.03,3.59-4.92.88,1.9,2.03,3.55,3.46,4.94,1.58,1.52,3.47,2.72,5.69,3.61,2.21.88,4.57,1.33,7.08,1.33,1.72,0,3.36-.16,4.91-.49,1.55-.33,2.76-.66,3.63-1.01.87-.35,1.82-.79,2.86-1.33.83-.43,1.47-.91,1.9-1.42.43-.51.65-1.15.65-1.92v-.36c.46.56.94,1.09,1.47,1.58,1.64,1.52,3.62,2.72,5.92,3.61s4.77,1.33,7.39,1.33,5.08-.44,7.39-1.33,4.27-2.09,5.91-3.62c1.64-1.53,2.93-3.36,3.88-5.51s1.43-4.43,1.43-6.85-.48-4.73-1.43-6.86ZM326.65,33.05c-1.57,1.53-3.5,2.29-5.79,2.29s-4.22-.76-5.8-2.29c-1.58-1.53-2.37-3.45-2.37-5.77s.79-4.24,2.37-5.76c1.58-1.52,3.51-2.28,5.8-2.28s4.22.76,5.79,2.28c1.57,1.52,2.35,3.44,2.35,5.76s-.78,4.25-2.35,5.77ZM388.5,33.05c-1.57,1.53-3.5,2.29-5.79,2.29s-4.22-.76-5.8-2.29-2.37-3.45-2.37-5.77.79-4.24,2.37-5.76c1.58-1.52,3.51-2.28,5.8-2.28s4.22.76,5.79,2.28c1.57,1.52,2.35,3.44,2.35,5.76s-.78,4.25-2.35,5.77Z"/>
</svg>