<?xml version="1.0" encoding="UTF-8"?>
<svg id="Layer" xmlns="http://www.w3.org/2000/svg" viewBox="0 0 157.04 169.78">
  <defs>
    <style>
      .cls-1 {
        fill: #ffaf80;
      }

      .cls-1, .cls-2, .cls-3, .cls-4, .cls-5, .cls-6, .cls-7, .cls-8, .cls-9, .cls-10, .cls-11, .cls-12, .cls-13, .cls-14, .cls-15, .cls-16, .cls-17 {
        stroke-width: 0px;
      }

      .cls-2 {
        fill: #f2f2f2;
      }

      .cls-3 {
        fill: #adb0ff;
      }

      .cls-4 {
        fill: #616161;
      }

      .cls-5 {
        fill: #8f5d31;
      }

      .cls-18 {
        isolation: isolate;
      }

      .cls-6 {
        fill: #e6ab77;
      }

      .cls-7 {
        fill: #d9d9d9;
      }

      .cls-8 {
        fill: #666;
      }

      .cls-9 {
        fill: #ffa200;
      }

      .cls-10 {
        fill: #e6e6e6;
      }

      .cls-11 {
        fill: #c78750;
      }

      .cls-12 {
        fill: #ffc7a6;
      }

      .cls-13 {
        fill: gray;
      }

      .cls-14 {
        fill: #5c5c5c;
      }

      .cls-15 {
        fill: #8f93ff;
      }

      .cls-16 {
        fill: #fff;
      }

      .cls-17 {
        fill: #4d4d4d;
      }
    </style>
  </defs>
  <g>
    <g class="cls-18">
      <polygon class="cls-5" points="121.89 70.02 124.59 68.45 124.45 117.33 121.75 118.9 121.89 70.02"/>
      <polygon class="cls-6" points="39.88 22.68 42.58 21.11 124.59 68.45 121.89 70.02 39.88 22.68"/>
      <polygon class="cls-11" points="121.89 70.02 121.75 118.9 39.74 71.55 39.88 22.68 121.89 70.02"/>
      <polygon class="cls-9" points="118.13 70.09 118.01 114.51 43.49 71.48 43.62 27.07 118.13 70.09"/>
      <g>
        <path class="cls-16" d="M97.81,63.64c-.32-.02-.66-.16-1-.3-.6-.25-1.21-.49-1.81-.74.21.19,1.21,1.69,1.58,2.12-.31.17-.57.42-.82.68-.29.29-.58.58-.82.93.2.05.41.16.62.26.93.47,1.89.97,2.78,1.81,0-.29.01-.56.06-.82-.07.08-.21.08-.34.02-.13-.06-.26-.16-.4-.25-.59-.44-1.18-.86-1.77-1.26.44-.29.87-.59,1.31-.88-.27-.51-.57-1.01-.91-1.48.4.21.8.38,1.19.5.15.26.28.52.41.78,0-.45-.07-.92-.07-1.38Z"/>
        <path class="cls-16" d="M102.93,70.56c-.12-.22-1.38-2.85-1.63-3.25-.2.06-.38.16-.56.25-.32.17-1.53.79-1.73,1.06.61.48,1.28.83,1.9,1.2.63.38,1.25.74,1.87,1.08.13.07.26.14.38.16,0,0-.2-.45-.23-.5ZM102.07,69.92c-.35-.19-.69-.39-1.03-.59-.34-.2-.71-.4-1.05-.66.11-.15.78-.49.95-.58.1-.05.2-.11.31-.14.14.22.83,1.67.9,1.79.02.03.13.28.13.28-.07-.01-.14-.05-.21-.09Z"/>
        <path class="cls-16" d="M106.17,70.53c.01.17.02.34.04.51,0-.06-1.31-.71-1.43-.77-.19-.1-1.01-.54-1.23-.59.04.01.01-.64.01-.7,0,.03,1.54.99,1.89,1.17.06.03.72.38.72.38Z"/>
        <path class="cls-16" d="M103.58,70.96c-.01-.17-.02-.34-.04-.51,0,.06,1.31.71,1.43.77.19.1,1.01.54,1.23.59-.04-.01-.01.64-.01.7,0-.03-1.54-.99-1.89-1.17-.06-.03-.72-.38-.72-.38Z"/>
        <path class="cls-16" d="M109.77,70.9c-.27-.61-.94-1.52-1.43-1.51-.53,0-.94.5-1.16.99-.13.29-.21.64-.24,1.03-.03.46.03,1,.29,1.52.28.59.78,1.07,1.25,1.27.46.2.88.13,1.18-.11.32-.26.51-.72.54-1.29s-.13-1.24-.41-1.89ZM109.28,73.34c-.22.24-.55.5-.97.29-.12-.06-.22-.13-.32-.21-.69-.61-.6-1.6-.51-2.18.06-.4.19-.75.41-.98.13-.14.3-.23.51-.21.36.04.66.39.9.83.09.17.18.39.24.56.08.22.13.43.14.64.03.55-.15.97-.41,1.25Z"/>
      </g>
      <g>
        <g>
          <polygon class="cls-16" points="87.95 72.35 86.85 71.72 86.85 70.92 87.95 71.56 87.95 72.35"/>
          <polygon class="cls-16" points="91.62 74.47 88.26 72.53 88.26 71.73 91.62 73.68 91.62 74.47"/>
          <polygon class="cls-16" points="93.03 75.28 92 74.69 92 73.89 93.03 74.49 93.03 75.28"/>
          <polygon class="cls-16" points="94.53 76.15 93.5 75.56 93.5 74.76 94.53 75.35 94.53 76.15"/>
          <polygon class="cls-16" points="99.65 79.11 94.99 76.42 94.99 75.62 99.65 78.31 99.65 79.11"/>
          <polygon class="cls-16" points="106.47 83.04 100.1 79.37 100.1 78.57 106.47 82.25 106.47 83.04"/>
        </g>
        <g>
          <polygon class="cls-16" points="87.95 70.67 86.85 70.03 86.85 69.24 87.95 69.87 87.95 70.67"/>
          <polygon class="cls-16" points="92.3 73.18 91.2 72.55 91.2 71.75 92.3 72.38 92.3 73.18"/>
          <polygon class="cls-16" points="90.62 72.21 88.38 70.92 88.38 70.12 90.62 71.41 90.62 72.21"/>
          <polygon class="cls-16" points="95.57 75.07 92.72 73.42 92.72 72.63 95.57 74.27 95.57 75.07"/>
          <polygon class="cls-16" points="102.06 78.82 100.12 77.7 100.12 76.9 102.06 78.02 102.06 78.82"/>
          <polygon class="cls-16" points="99.48 77.32 96.02 75.32 96.02 74.53 99.48 76.53 99.48 77.32"/>
          <polygon class="cls-16" points="106.47 81.36 102.51 79.07 102.51 78.28 106.47 80.56 106.47 81.36"/>
        </g>
        <g>
          <polygon class="cls-16" points="88.52 69.4 86.85 68.44 86.85 67.64 88.52 68.6 88.52 69.4"/>
          <polygon class="cls-16" points="94.35 72.77 90.45 70.52 90.45 69.72 94.35 71.97 94.35 72.77"/>
          <polygon class="cls-16" points="103.37 77.97 98.75 75.31 98.75 74.51 103.37 77.18 103.37 77.97"/>
          <polygon class="cls-16" points="98.32 75.06 94.87 73.07 94.87 72.27 98.32 74.26 98.32 75.06"/>
          <polygon class="cls-16" points="106.47 79.76 105.25 79.06 105.25 78.26 106.47 78.97 106.47 79.76"/>
          <polygon class="cls-16" points="90.07 70.29 88.86 69.6 88.86 68.8 90.07 69.5 90.07 70.29"/>
          <polygon class="cls-16" points="104.75 78.77 103.76 78.2 103.76 77.4 104.75 77.98 104.75 78.77"/>
        </g>
        <g>
          <polygon class="cls-16" points="89.79 68.54 86.85 66.84 86.85 66.04 89.79 67.74 89.79 68.54"/>
          <polygon class="cls-16" points="106.47 78.17 100.93 74.97 100.93 74.17 106.47 77.37 106.47 78.17"/>
          <polygon class="cls-16" points="93.02 70.4 90.33 68.85 90.33 68.05 93.02 69.61 93.02 70.4"/>
          <polygon class="cls-16" points="95.85 72.04 93.52 70.69 93.52 69.9 95.85 71.24 95.85 72.04"/>
          <polygon class="cls-16" points="100.19 74.54 97.86 73.2 97.86 72.4 100.19 73.75 100.19 74.54"/>
          <polygon class="cls-16" points="97.42 72.94 96.4 72.35 96.4 71.56 97.42 72.15 97.42 72.94"/>
        </g>
        <g>
          <polygon class="cls-16" points="88.52 75.92 86.85 74.96 86.85 74.16 88.52 75.13 88.52 75.92"/>
          <polygon class="cls-16" points="94.35 79.29 90.45 77.04 90.45 76.24 94.35 78.5 94.35 79.29"/>
          <polygon class="cls-16" points="103.37 84.5 98.75 81.83 98.75 81.03 103.37 83.7 103.37 84.5"/>
          <polygon class="cls-16" points="98.32 81.58 94.87 79.59 94.87 78.79 98.32 80.78 98.32 81.58"/>
          <polygon class="cls-16" points="106.47 86.29 105.25 85.58 105.25 84.79 106.47 85.49 106.47 86.29"/>
          <polygon class="cls-16" points="90.07 76.82 88.86 76.12 88.86 75.32 90.07 76.02 90.07 76.82"/>
          <polygon class="cls-16" points="104.75 85.3 103.76 84.72 103.76 83.93 104.75 84.5 104.75 85.3"/>
        </g>
        <g>
          <polygon class="cls-16" points="89.79 75.06 86.85 73.36 86.85 72.57 89.79 74.27 89.79 75.06"/>
          <polygon class="cls-16" points="106.47 84.69 100.93 81.49 100.93 80.7 106.47 83.89 106.47 84.69"/>
          <polygon class="cls-16" points="93.02 76.93 90.33 75.37 90.33 74.58 93.02 76.13 93.02 76.93"/>
          <polygon class="cls-16" points="95.85 78.56 93.52 77.22 93.52 76.42 95.85 77.77 95.85 78.56"/>
          <polygon class="cls-16" points="100.19 81.07 97.86 79.72 97.86 78.92 100.19 80.27 100.19 81.07"/>
          <polygon class="cls-16" points="97.42 79.47 96.4 78.88 96.4 78.08 97.42 78.67 97.42 79.47"/>
        </g>
      </g>
      <g>
        <g>
          <polygon class="cls-16" points="95.05 89.86 93.95 89.23 93.95 88.43 95.05 89.07 95.05 89.86"/>
          <polygon class="cls-16" points="98.72 91.99 95.36 90.04 95.36 89.25 98.72 91.19 98.72 91.99"/>
          <polygon class="cls-16" points="100.13 92.8 99.1 92.2 99.1 91.41 100.13 92 100.13 92.8"/>
          <polygon class="cls-16" points="101.63 93.66 100.6 93.07 100.6 92.27 101.63 92.87 101.63 93.66"/>
          <polygon class="cls-16" points="106.76 96.62 102.09 93.93 102.09 93.13 106.76 95.83 106.76 96.62"/>
          <polygon class="cls-16" points="113.57 100.56 107.2 96.88 107.2 96.08 113.57 99.76 113.57 100.56"/>
        </g>
        <g>
          <polygon class="cls-16" points="95.05 88.18 93.95 87.54 93.95 86.75 95.05 87.38 95.05 88.18"/>
          <polygon class="cls-16" points="99.4 90.69 98.3 90.06 98.3 89.26 99.4 89.9 99.4 90.69"/>
          <polygon class="cls-16" points="97.72 89.72 95.48 88.43 95.48 87.63 97.72 88.92 97.72 89.72"/>
          <polygon class="cls-16" points="102.67 92.58 99.83 90.94 99.83 90.14 102.67 91.78 102.67 92.58"/>
          <polygon class="cls-16" points="109.16 96.33 107.22 95.21 107.22 94.41 109.16 95.53 109.16 96.33"/>
          <polygon class="cls-16" points="106.58 94.84 103.12 92.84 103.12 92.04 106.58 94.04 106.58 94.84"/>
          <polygon class="cls-16" points="113.57 98.87 109.61 96.59 109.61 95.79 113.57 98.08 113.57 98.87"/>
        </g>
        <g>
          <polygon class="cls-16" points="95.62 86.91 93.95 85.95 93.95 85.15 95.62 86.12 95.62 86.91"/>
          <polygon class="cls-16" points="101.46 90.28 97.55 88.03 97.55 87.23 101.46 89.49 101.46 90.28"/>
          <polygon class="cls-16" points="110.47 95.49 105.85 92.82 105.85 92.02 110.47 94.69 110.47 95.49"/>
          <polygon class="cls-16" points="105.42 92.57 101.97 90.58 101.97 89.78 105.42 91.77 105.42 92.57"/>
          <polygon class="cls-16" points="113.57 97.27 112.35 96.57 112.35 95.78 113.57 96.48 113.57 97.27"/>
          <polygon class="cls-16" points="97.17 87.81 95.96 87.11 95.96 86.31 97.17 87.01 97.17 87.81"/>
          <polygon class="cls-16" points="111.86 96.29 110.86 95.71 110.86 94.92 111.86 95.49 111.86 96.29"/>
        </g>
        <g>
          <polygon class="cls-16" points="96.89 86.05 93.95 84.35 93.95 83.56 96.89 85.26 96.89 86.05"/>
          <polygon class="cls-16" points="113.57 95.68 108.03 92.48 108.03 91.68 113.57 94.88 113.57 95.68"/>
          <polygon class="cls-16" points="100.12 87.91 97.43 86.36 97.43 85.57 100.12 87.12 100.12 87.91"/>
          <polygon class="cls-16" points="102.95 89.55 100.62 88.21 100.62 87.41 102.95 88.75 102.95 89.55"/>
          <polygon class="cls-16" points="107.29 92.05 104.96 90.71 104.96 89.91 107.29 91.26 107.29 92.05"/>
          <polygon class="cls-16" points="104.52 90.46 103.5 89.87 103.5 89.07 104.52 89.66 104.52 90.46"/>
        </g>
        <g>
          <polygon class="cls-16" points="95.62 93.44 93.95 92.47 93.95 91.68 95.62 92.64 95.62 93.44"/>
          <polygon class="cls-16" points="101.46 96.81 97.55 94.55 97.55 93.76 101.46 96.01 101.46 96.81"/>
          <polygon class="cls-16" points="110.47 102.01 105.85 99.34 105.85 98.55 110.47 101.21 110.47 102.01"/>
          <polygon class="cls-16" points="105.42 99.09 101.97 97.1 101.97 96.31 105.42 98.3 105.42 99.09"/>
          <polygon class="cls-16" points="113.57 103.8 112.35 103.1 112.35 102.3 113.57 103 113.57 103.8"/>
          <polygon class="cls-16" points="97.17 94.33 95.96 93.63 95.96 92.84 97.17 93.54 97.17 94.33"/>
          <polygon class="cls-16" points="111.86 102.81 110.86 102.24 110.86 101.44 111.86 102.01 111.86 102.81"/>
        </g>
        <g>
          <polygon class="cls-16" points="96.89 92.58 93.95 90.88 93.95 90.08 96.89 91.78 96.89 92.58"/>
          <polygon class="cls-16" points="113.57 102.2 108.03 99 108.03 98.21 113.57 101.41 113.57 102.2"/>
          <polygon class="cls-16" points="100.12 94.44 97.43 92.89 97.43 92.09 100.12 93.64 100.12 94.44"/>
          <polygon class="cls-16" points="102.95 96.07 100.62 94.73 100.62 93.93 102.95 95.28 102.95 96.07"/>
          <polygon class="cls-16" points="107.29 98.58 104.96 97.23 104.96 96.44 107.29 97.78 107.29 98.58"/>
          <polygon class="cls-16" points="104.52 96.98 103.5 96.39 103.5 95.6 104.52 96.18 104.52 96.98"/>
        </g>
      </g>
      <polygon class="cls-5" points="44.91 70.72 45.03 27.89 43.62 27.07 43.49 71.48 118.01 114.51 118.01 112.93 44.91 70.72"/>
      <polygon class="cls-6" points="43.49 71.48 44.91 70.72 118.01 112.93 118.01 114.51 43.49 71.48"/>
    </g>
    <g class="cls-18">
      <polygon class="cls-5" points="118.01 112.93 118.01 114.5 118 114.5 114.74 116.4 114.74 114.83 116.64 113.72 118.01 112.93"/>
      <path class="cls-11" d="M113.1,114.83l-18.04-10.41c-.23-.13-.34-.31-.34-.48v1.56c0,.17.11.35.34.48l18.04,10.41c.45.26,1.19.26,1.64,0v-1.56c-.45.26-1.18.26-1.63,0Z"/>
      <path class="cls-6" d="M118.02,111.6v1.33s-1.37.79-1.37.79l-1.9,1.11c-.45.26-1.19.26-1.64,0l-18.04-10.41c-.45-.26-.46-.69,0-.95l1.91-1.11,2.51-1.46,18.53,10.7Z"/>
    </g>
    <g>
      <polygon class="cls-11" points="112.95 112.93 106.02 108.93 107.42 108.12 114.36 112.12 112.95 112.93"/>
      <g class="cls-18">
        <path class="cls-16" d="M107.86,107.45c-.11-.06-.26-.05-.43.04-.33.19-.6.66-.6,1.05,0,.19.07.32.18.39l5.48,3.19c-.11-.06-.18-.2-.18-.39,0-.39.27-.85.6-1.05.17-.1.32-.11.43-.04l-5.48-3.19Z"/>
        <path class="cls-10" d="M112.91,110.68c.34-.19.61-.04.61.35,0,.38-.27.85-.6,1.05-.33.19-.61.04-.61-.35,0-.39.27-.85.6-1.05Z"/>
      </g>
    </g>
  </g>
  <g>
    <g>
      <polygon class="cls-2" points="119.04 148.36 38.5 101.85 41.34 100.21 121.89 146.72 119.04 148.36"/>
      <path class="cls-2" d="M64.48,125.39c4.97,2.87,4.99,7.52.06,10.39-4.94,2.87-12.97,2.87-17.94,0-4.97-2.87-5-7.52-.06-10.39,4.94-2.87,12.97-2.87,17.94,0Z"/>
      <path class="cls-1" d="M52.04,65.4c-.19-.66-.68-1.22-1.31-1.49-.55-.24-1.14-.22-1.7-.06-.45.13-.71.38-1.07.67-.92.76-1.9,1.46-2.93,2.07-.33.2-.66.38-1,.56-.1-.22-.2-.44-.3-.65-.31-.68-2.89-5.49-3.09-5.91-.29-.61-.49-1.27-.77-1.89-.18-.39-.28-.78-.55-1.14-.36-.48-.82-.86-1.21-1.31-.45-.51-.8-1.09-1.24-1.6-.11-.13-.27-.27-.43-.21-.17.06-.2.29-.17.46.11.68.64,1.24.74,1.92,0,.05.01.11-.02.14-.03.03-.08.03-.13.03-.51,0-1.04-.02-1.51-.22-.32-.14-.6-.36-.88-.57-.47-.35-.95-.68-1.45-.98-.32-.19-.68-.38-1.04-.28-.09.27.09.55.29.75.2.2.43.4.49.67-.4-.3-.86-.5-1.35-.6-.13-.03-.3-.03-.37.08-.06.1-.01.23.04.34.1.21.2.43.31.64.12.25.26.52.51.62.2.08.45.05.59.21.06.06.09.14.12.21.12.24.34.42.55.59.33.27.67.54,1.06.69.37.14.78.17,1.17.25,1.35.28,2.79,1.05,3.26,2.44.25.74.32,1.52.43,2.29.22,1.63.58,3.24,1.07,4.81.25.81.54,1.61.92,2.37.07.14.15.28.26.39.28.24.74.32,1.09.32,1.8.03,3.55-.54,5.22-1.23,1.01-.41,2.02-.88,2.85-1.58.84-.7,1.49-1.67,1.62-2.76.04-.35.02-.72-.08-1.06Z"/>
      <path class="cls-15" d="M49.33,127.84c-.51.49-1.03.95-1.46,1.51-.43.55-.77,1.2-.82,1.9-.03.34.04.79.21,1.1.2.34.72.46,1.07.51.82.11,1.67-.09,2.4-.48.73-.39,1.36-.96,1.89-1.59.34-.4.65-.84,1.1-1.11.59-.35,1.34-.36,1.93-.72.72-.43,1.06-1.31,1.07-2.15,0-.84-.27-1.65-.54-2.44.05.15-.3.36-.41.39-.26.08-.34-.12-.52-.27-.3-.26-.67-.46-1.07-.51-.26-.03-.52,0-.78.03-.35.05-.7.14-1,.33-.27.17-.33.38-.49.63-.44.67-1.05,1.29-1.6,1.87-.32.34-.65.67-.98.99Z"/>
      <path class="cls-17" d="M56.61,108.39c.18-2.43.72-4.83,1.11-7.23.47-2.89.72-5.82.73-8.75,0-1-.05-1.99-.41-2.94-.36-.94-.32-1.84-.46-2.86-.4.23-.82.46-1.28.51-1.43.17-1.75-1.3-2.26-2.29-.22-.44-.48-.89-.91-1.14-.47-.29-1.09-.27-1.6-.04-.26.09-.44.37-.71.45-.07.02-.76.04-.68-.15-.39.9-.58,1.87-.75,2.84-.86,5.01-1.26,10.2-.53,15.23.27,1.83.53,3.65.79,5.48.07.45,1.33,8.29,1.73,11.93.19,1.76.27,3.52.31,5.3.03,1.36,2.88,1.23,3.79.96.3-.09.6-.22.79-.47.17-.23.22-.53.26-.81.35-2.51.79-5.08.76-7.64-.02-1.3-.17-2.58-.49-3.83-.28-1.08-.29-2.4-.26-3.51,0-.34.03-.69.05-1.03Z"/>
      <path class="cls-3" d="M52.79,61.44c-.6.25-1.17.57-1.75.89-.76.42-1.52.84-2.25,1.31-.36.23-.71.48-1.04.74-.17.13-.3.21-.37.41-.07.19-.09.4-.13.6-.14.82-.19,1.67-.1,2.5.13,1.12.54,2.22,1.27,3.06.53.62,1.22,1.08,1.93,1.48.68.39,1.41.73,2.18.87.05,0,.11.02.15-.02.06-.05.05-.14.04-.22-.28-1.69.41-3.37,1.09-4.93.69-1.56,1.4-3.22,1.18-4.92-.05-.37-.15-.74-.14-1.12,0-.2.03-.36,0-.56,0-.06,0-.57.09-.56-.66-.06-1.33.11-1.95.36-.08.03-.16.06-.24.1Z"/>
      <path class="cls-3" d="M62.72,125.39s-.06.01-.09.03c-.16.09-.21.25-.43.2-.28-.05-.52-.23-.79-.31-.4-.13-.67-.03-1.05.07-.16.04-.23,0-.35-.13-.05-.05-.25-.31-.21-.39-1.42,2.59-2.68,5.29-3.44,8.15-.12.45-.29,1.02-.07,1.46.19.39.58.66,1,.77.54.14,1.11.04,1.64-.13.9-.29,1.75-.79,2.38-1.5.63-.71,1.01-1.65.98-2.6,0-.25-.04-.5,0-.74.1-.48.52-.82.8-1.23.32-.47.45-1.05.44-1.61-.01-.57-.17-1.12-.39-1.64-.05-.11-.1-.22-.19-.3-.07-.06-.16-.09-.24-.09Z"/>
      <path class="cls-4" d="M63.99,110.05c-.13-.94-.1-1.94-.03-2.86.12-1.6.52-3.23.78-4.82.47-2.9.88-5.83.86-8.78,0-.94-.06-1.88-.16-2.81-.36-3.25-1.49-6.61-4.03-8.67.17.82.27,1.66.31,2.5.02.41.09.91,0,1.31-.07.34-.26.45-.58.64-1.46.85-3.11,1.5-4.78,1.35-.78-.07-1.88-.18-2.61-.43-.47-.16-1.29-1.29-1.09-1.83-.62,1.61-.86,3.36-.72,5.07.06.76.13,1.82.5,2.51.3.54.96.51,1.38.94.2.2.29.47.39.73,1.06,3.03,1.86,6.14,2.37,9.31.3,1.83.51,3.67.96,5.46.3,1.88.88,3.67,1.24,5.54.37,1.91.57,3.84.6,5.79.01.9-.45,5.12-.41,5.49.04.37.45.64.76.77.35.15.74.19,1.12.19.99-.02,2.46-.38,2.86-1.4.33-.86.51-1.85.7-2.75.61-3.03,1.06-6.11.58-9.21-.18-1.15-.59-2.22-.86-3.34-.05-.22-.09-.44-.13-.67Z"/>
      <path class="cls-15" d="M52.1,64.41c-.27.62-.5,1.26-.69,1.91-.38,1.32-.58,2.71-1.23,3.92-.6,1.12-1.58,2.07-1.87,3.31-.21.88-.03,1.78.29,2.61.28.75.85,1.41.96,2.21.13.96.23,1.93.35,2.89.05.4.09.79.08,1.19-.02.39-.09.77-.17,1.15-.27,1.44-.48,2.9-.63,4.36,0,.1-.02.19.01.29.03.1.11.18.19.26.78.75,1.8,1.19,2.82,1.55,3.37,1.19,7.13,1.64,10.51.48.52-.18,1.04-.4,1.49-.72.26-.18.49-.39.72-.59.08-.07.16-.15.2-.25.03-.09.02-.19,0-.28-.28-2.24-.57-4.47-.85-6.71-.14-1.1-.34-2.21-.42-3.31-.06-.9.47-1.82.84-2.61.68-1.45,1.14-2.99,1.48-4.55.18-.79.33-1.59.47-2.39.15-.82.32-1.4-.24-2.1-1.63-2.05-3.89-3.48-6.13-4.83-.89-.54-1.8-1.07-2.79-1.37s-2.11-.33-3.05.11c-.83.39-1.38,1.61-1.8,2.39-.19.36-.37.72-.54,1.09Z"/>
      <path class="cls-17" d="M53.35,52.1c-.36.62-.61,1.3-.81,1.97-.42,1.39-.45,2.83-.37,4.27.02.4.13.46.52.38.39-.08.76-.24,1.12-.42,1.04-.53,2-1.27,2.64-2.24.37-.56.29-1.11.3-1.76,0-.64,0-1.29,0-1.93-.02-.85.17-1.85.74-2.5-1.09,0-2.22.24-3.05.94-.43.36-.78.81-1.06,1.3Z"/>
      <path class="cls-1" d="M55.35,65.79c.11.1.31.13.44.15.32.03.65.02.97,0,1-.06,2-.22,2.93-.6.63-.26,1.22-.61,1.72-1.08.23-.21.49-.47.66-.72.13-.19-.17-.47-.25-.64-.1-.22-.17-.45-.24-.68-.45-1.41-.9-2.82-1.22-4.27.03.32-.13.64-.34.88-.22.24-.49.42-.76.6-.87.58-1.74,1.22-2.76,1.47-.21.05-.44.09-.63.19-.21.11-.24.22-.26.44-.05.55-.1,1.1-.15,1.65-.05.6-.11,1.2-.13,1.8,0,.21-.09.49-.05.69.01.05.04.09.07.12Z"/>
      <path class="cls-12" d="M59.61,59.94c1.05-.05,1.97-.75,2.63-1.51.73-.84.83-2.33.79-3.39-.04-1.14-.26-2.3-.89-3.24-.7-1.05-1.87-1.74-3.11-1.95-1.24-.21-2.54.06-3.65.66-.43.23-.84.52-1.18.88-1.24,1.31-1.6,3.33-1.55,5.07.01.45.06.92-.09,1.34-.09.25-.24.48-.31.73-.07.26-.02.57.2.72.11.07.25.09.33.19.06.07.08.17.09.27.09.7.18,1.39.27,2.09.04.29.08.6.28.82.25.28.67.33,1.05.33,1.38-.02,2.74-.48,3.87-1.28.55-.39,1.08-.92,1.12-1.58,0-.04,0-.08.03-.1.03-.03.07-.03.11-.03Z"/>
      <path class="cls-17" d="M55.15,52.85c.66.37,1.39.6,2.06.93.67.34,1.32.82,1.61,1.52.19.47.21.99.34,1.48.13.49.42,1,.91,1.13.14-.41.37-.78.69-1.08.16-.15.34-.28.54-.32.51-.11,1.02.36,1.08.88.06.52-.23,1.03-.62,1.38-.39.35-.86.59-1.31.85-.23.14-.47.29-.59.53-.08.16-.11.35-.13.53-.05.56-.02,1.13.09,1.68.03.14.02.43.13.53.12.11.35.06.5.04.45-.06.88-.25,1.28-.45,1.04-.53,2-1.27,2.64-2.24.37-.56.29-1.11.3-1.76.01-.82,0-1.65-.03-2.47-.04-.96-.14-1.93-.45-2.83-.7-2.01-2.53-3.57-4.61-3.96-2.09-.38-4.35.44-5.71,2.07-.41.49-.79,1.13-.7,1.79.18-.27.25-.53.59-.63.52-.15.96.16,1.39.4Z"/>
      <path class="cls-12" d="M68.68,74.76c-.1-.61-.21-1.23-.52-1.76-.44-.76-1.24-1.25-2.08-1.54-.37-.13-.76-.22-1.15-.16-.33.05-.64.22-.9.43-.37.3-.65.7-.82,1.15-.19.49-.12.96-.05,1.48.15,1.11.44,2.19.69,3.28.19.86.64,3.47.71,3.89,0,.05.01.12.02.18-.96.23-5.25,1.29-5.86,1.33-.59.04-.47.71-.29,1.11.09.19.2.38.35.52.19.18.45.28.69.38.68.28,1.37.56,2.1.7.66.13,1.34.14,2.02.15,1.04.01,2.1.02,3.1-.26.77-.21,1.53-.62,1.97-1.29,0,0,0-.02.01-.03.28-.44.37-.83.42-1.34.25-2.74.04-5.5-.4-8.21Z"/>
      <path class="cls-12" d="M56.35,83.79c-.51.55-.86,1.22-1.26,1.85-.29.45-.61.88-.95,1.29-.33.39-.7.78-.88,1.26-.07.18-.1.4.02.54.05.05.11.09.15.15.06.1.04.22.08.33.07.2.33.27.53.21.2-.06.36-.21.51-.35.35-.32.72-.62,1.11-.88.07.19-.13.37-.3.49-.34.24-.63.53-.88.86-.08.11-.15.27-.05.37.04.04.1.05.16.05.27.02.53-.09.78-.2.64-.28,1.32-.6,1.67-1.2.12-.2.22-.46.45-.52-.16.27-.32.53-.48.8-.08.14-.17.28-.18.44-.01.16.08.34.24.37.11.02.23-.03.33-.09.4-.25.73-.59,1.04-.95.1-.12.21-.25.27-.4.07-.16.08-.34.1-.51.06-.39.2-.76.42-1.09.18-.28.41-.53.5-.84.03-.11.05-.25.16-.3.17-.09.33.1.47.24.18.18.44.29.69.24.25-.04.47-.25.49-.51.02-.31-.23-.56-.45-.78-.17-.18-.33-.37-.48-.58-.28-.4-.53-.88-.99-1.07-.43-.18-.88,0-1.33-.08-.44-.08-.92.12-1.29.36-.23.15-.44.33-.62.52Z"/>
      <path class="cls-3" d="M62.48,68.94c-.61,1.6-.49,3.49-.23,5.14.08.49.17.98.27,1.46.1.44.16.99.35,1.41.15.33.74.31,1.06.31.5,0,.99-.09,1.47-.2.68-.16,1.35-.37,1.96-.73.58-.35,1.08-.82,1.57-1.28.24-.23.28-.42.25-.74-.08-.91-.27-1.81-.49-2.7-.36-1.46-.81-2.97-1.86-4.04-.74-.76-1.5-.84-2.48-.58-.88.23-1.56,1.16-1.87,1.97Z"/>
    </g>
    <g>
      <g class="cls-18">
        <path class="cls-17" d="M72.04,34.04s-.05.05-.1.05l-8.03.19c-.08,0-.14.03-.16.08l-4.86,8.97s.08-.08.16-.08l8.03-.19s.08-.02.1-.05l4.86-8.97Z"/>
        <path class="cls-17" d="M73.17,35.9s-.05.05-.1.05l-8.03.19-4.86,8.97,8.03-.19s.08-.02.1-.05l4.86-8.97Z"/>
        <path class="cls-13" d="M65.04,36.14c-.36,0-.79-.23-.97-.53l-.64-1.06c-.18-.3-.04-.55.31-.56l8.03-.19c.1,0,.22.06.27.15.05.08.01.15-.09.16l-8.03.19c-.16,0-.22.12-.14.25l.64,1.06c.08.14.28.24.44.24l8.03-.19c.1,0,.22.06.27.15.05.08.01.15-.09.16l-8.03.19Z"/>
        <path class="cls-8" d="M65.04,36.14c-.36,0-.79-.23-.97-.53l-.64-1.06c-.09-.15-.1-.29-.05-.39l-4.86,8.97c-.06.1-.04.24.05.39l.64,1.06c.18.3.62.54.97.53l4.86-8.97Z"/>
        <path class="cls-15" d="M60.09,40.67c-.08-.14-.1-.26-.06-.36l1.5-2.77c-.06.1-.04.24.05.39l.64,1.06c.08.13.19.24.34.33l-1.49,2.73c-.14-.09-.26-.2-.34-.33l-.64-1.06Z"/>
      </g>
      <path class="cls-2" d="M64.42,35.6l-.43-.72,7.2-.17.59.96-6.91.16c-.16,0-.35-.1-.43-.24Z"/>
    </g>
    <g>
      <g class="cls-18">
        <path class="cls-14" d="M50.8,50.2l-10.15-.85c.1-.14.12-.37.04-.52l10.15.85c.07.15.05.38-.04.52Z"/>
        <polygon class="cls-14" points="50.05 51.26 39.9 50.41 40.65 49.34 50.8 50.2 50.05 51.26"/>
        <path class="cls-14" d="M49.89,51.35l-10.15-.85c.05,0,.11-.03.16-.09l10.15.85c-.05.07-.1.1-.16.09Z"/>
        <path class="cls-13" d="M49.86,51.81l-10.15-.85c-.12-.01-.24-.1-.32-.27l10.15.85c.08.17.19.26.32.27Z"/>
        <polygon class="cls-13" points="50.84 49.68 40.69 48.83 37.13 41.21 47.29 42.06 50.84 49.68"/>
        <path class="cls-14" d="M37.26,40.83l10.15.85s-.07.02-.1.06c-.06.08-.07.23-.03.32l-10.15-.85c-.04-.09-.03-.24.03-.32.03-.04.06-.06.1-.06Z"/>
        <polygon class="cls-13" points="49.54 51.54 39.38 50.68 35.83 43.07 45.98 43.92 49.54 51.54"/>
        <polygon class="cls-17" points="39.28 50.46 49.45 51.34 49.54 51.53 39.37 50.65 39.28 50.46"/>
        <path class="cls-14" d="M35.95,42.69l10.15.85s-.07.02-.1.06c-.06.08-.07.23-.03.32l-10.15-.85c-.04-.09-.03-.24.03-.32.03-.04.06-.06.1-.06Z"/>
        <path class="cls-17" d="M45.98,43.92c-.04-.09-.03-.24.03-.32.06-.08.14-.08.19.02l3.56,7.62c.07.15.2.16.3.03l.75-1.06c.1-.14.12-.37.04-.52l-3.56-7.62c-.04-.09-.03-.24.03-.32.06-.08.14-.08.19.02l3.56,7.62c.16.34.11.86-.1,1.16l-.75,1.06c-.21.3-.51.27-.67-.06l-3.56-7.62Z"/>
      </g>
      <g>
        <path class="cls-7" d="M46.1,43.54h-.05s.67-.96.67-.96l3.28,7.02-.6.86-3.2-6.85c-.03-.05-.06-.08-.1-.07,0,0,0,0,.01,0Z"/>
        <path class="cls-15" d="M49.55,49.7h0c.53.03,1.03-.22,1.33-.65l.44-.62-.34.12.09-.63-.43.62c-.29.42-.77.66-1.28.65h-.04s.24.51.24.51Z"/>
        <polygon class="cls-2" points="46.05 43.54 37.24 42.8 37.91 41.83 46.72 42.58 46.05 43.54"/>
      </g>
    </g>
    <g>
      <g class="cls-18">
        <path class="cls-14" d="M70.56,56.83l7.17,7.24c-.16.04-.33.2-.37.36l-7.17-7.24c.04-.16.21-.32.37-.36Z"/>
        <polygon class="cls-14" points="71.83 56.51 79 63.75 77.74 64.07 70.56 56.83 71.83 56.51"/>
        <path class="cls-14" d="M72.01,56.54l7.17,7.24s-.1-.05-.18-.03l-7.17-7.24c.08-.02.14,0,.18.03Z"/>
        <path class="cls-13" d="M72.33,56.22l7.17,7.24c.09.09.11.23.07.41l-7.17-7.24c.05-.18.02-.32-.07-.41Z"/>
        <polygon class="cls-13" points="70.19 57.2 77.37 64.43 75.13 72.54 67.96 65.3 70.19 57.2"/>
        <path class="cls-14" d="M74.79,72.75l-7.17-7.24s.06.03.11.02c.1-.03.2-.13.23-.23l7.17,7.24c-.03.1-.13.2-.23.23-.05.01-.09,0-.11-.02Z"/>
        <polygon class="cls-17" points="72.39 56.63 79.57 63.87 77.33 71.97 70.16 64.74 72.39 56.63"/>
        <polygon class="cls-17" points="79.5 64.11 72.34 56.84 72.39 56.64 79.55 63.91 79.5 64.11"/>
        <path class="cls-14" d="M76.99,72.18l-7.17-7.24s.06.03.11.02c.1-.03.2-.13.23-.23l7.17,7.24c-.03.1-.13.2-.23.23-.05.01-.09,0-.11-.02Z"/>
        <path class="cls-17" d="M70.16,64.74c-.03.1-.13.2-.23.23-.1.03-.16-.03-.13-.13l2.24-8.1c.04-.16-.05-.26-.21-.22l-1.26.32c-.16.04-.33.2-.37.36l-2.24,8.1c-.03.1-.13.2-.23.23-.1.03-.16-.03-.13-.13l2.24-8.1c.1-.36.47-.72.83-.82l1.26-.32c.36-.09.57.12.47.48l-2.24,8.1Z"/>
      </g>
      <g>
        <path class="cls-7" d="M69.82,64.94l.04.04-1.13.29,2.07-7.47,1.01-.26-2.01,7.29c-.02.06,0,.1.03.12,0,0,0,0-.01,0Z"/>
        <path class="cls-3" d="M71.2,58.02h0c-.38-.36-.93-.5-1.44-.37l-.74.19.33.13-.47.42.73-.19c.49-.13,1.02,0,1.4.33l.03.03.15-.55Z"/>
        <polygon class="cls-2" points="69.86 64.98 76.08 71.26 74.94 71.56 68.73 65.27 69.86 64.98"/>
      </g>
    </g>
  </g>
</svg>