<?xml version="1.0" encoding="UTF-8"?>
<svg id="Layer" xmlns="http://www.w3.org/2000/svg" viewBox="0 0 157.04 169.78">
  <defs>
    <style>
      .cls-1 {
        fill: #ffaf80;
      }

      .cls-1, .cls-2, .cls-3, .cls-4, .cls-5, .cls-6, .cls-7, .cls-8, .cls-9, .cls-10, .cls-11, .cls-12, .cls-13 {
        stroke-width: 0px;
      }

      .cls-2 {
        fill: #f2f2f2;
      }

      .cls-3 {
        fill: #adb0ff;
      }

      .cls-4 {
        fill: #616161;
      }

      .cls-5 {
        fill: #8f5d31;
      }

      .cls-6 {
        fill: #ffbf00;
      }

      .cls-7 {
        fill: #ffd557;
      }

      .cls-14 {
        isolation: isolate;
      }

      .cls-8 {
        fill: #e6ab77;
      }

      .cls-9 {
        fill: #ffee73;
      }

      .cls-10 {
        fill: #ffa200;
      }

      .cls-11 {
        fill: #ffc7a6;
      }

      .cls-12 {
        fill: #8f93ff;
      }

      .cls-13 {
        fill: #4d4d4d;
      }
    </style>
  </defs>
  <path class="cls-2" d="M91.39,148.68c-5.26,3.04-13.81,3.02-19.1-.03-5.29-3.05-5.32-7.99-.06-11.03s13.81-3.02,19.1.03c5.29,3.05,5.32,7.99.06,11.03Z"/>
  <path class="cls-1" d="M79.92,39.42c-.1-.14-.29-.19-.46-.18-.17.02-.33.09-.48.18-.55.3-1.07.67-1.55,1.08-.05.04-.11.08-.17.06-.03-.01-.05-.04-.06-.07-.21-.35-.21-.79-.11-1.19.1-.4.28-.76.44-1.14.32-.75.54-1.53.66-2.34.06-.39.08-.82-.16-1.12-.04-.05-.1-.1-.16-.12-.1-.02-.2.03-.28.09-.65.47-.94,1.28-1.08,2.07-.07.4-.16.87-.53,1.05.04-.67.12-1.33.25-1.98.12-.58.27-1.18.07-1.74-.05-.14-.13-.28-.26-.34-.19-.09-.42.01-.58.14-.43.36-.62.93-.82,1.46-.2.53-.48,1.08-.99,1.32-.31.14-.6.16-.84.41-.24.25-.48.44-.6.78-.16.46-.24.94-.31,1.42-.15,1.06-.22,2.14-.35,3.2-.06.51-.21,1.02-.31,1.53-.39,1.98-.74,3.96-1.14,5.94-.33,1.64-.6,3.29-.69,4.96-.04.74-.05,1.49-.08,2.22-.03.69.34,1.36.6,1.98.37.88,4.19,9.93,5.49,11.36.09.09.2.2.32.18.1-.02.16-.1.22-.17.84-1.06,1.69-2.12,2.53-3.18.06-.07.12-.15.13-.24.02-.09-.02-.19-.05-.27-.73-2.03-4.59-8.52-4.6-10.14,0-1.86.85-12.5.88-13.09.2-.07.39-.17.57-.27,1.47-.82,2.85-1.8,4.12-2.91.14-.12.28-.25.36-.41s.1-.37,0-.52Z"/>
  <g>
    <path class="cls-10" d="M76.08,35.6l-4.37-3.58c-1.36-1.12-1.97-2.88-1.59-4.6.4-1.82,1.76-3.25,3.55-3.74.53-.14,1.08,0,1.47.37.4.38.56.92.45,1.45-.12.54-.51.97-1.04,1.14l-.48.15-.34-1.05.48-.15c.15-.05.27-.18.3-.33.05-.22-.07-.37-.13-.42-.06-.05-.21-.17-.43-.11-1.4.38-2.46,1.5-2.77,2.91-.29,1.31.18,2.66,1.22,3.51l4.37,3.58-.7.85Z"/>
    <g>
      <g class="cls-14">
        <path class="cls-5" d="M86.04,49.75v.81c0,.76-.51,1.52-1.51,2.11-2.02,1.17-5.29,1.17-7.32,0-1.02-.59-1.53-1.36-1.53-2.14v-.81c0,.77.51,1.55,1.53,2.14,2.03,1.17,5.31,1.17,7.32,0,1-.58,1.5-1.34,1.51-2.11Z"/>
        <path class="cls-8" d="M84.51,47.62c2.03,1.17,2.04,3.07.02,4.24-2.02,1.17-5.29,1.17-7.32,0-2.03-1.17-2.04-3.07-.02-4.24,2.02-1.17,5.3-1.17,7.33,0Z"/>
      </g>
      <g class="cls-14">
        <path class="cls-5" d="M85.44,47.6v1.7c0,.67-.45,1.35-1.34,1.86-1.78,1.04-4.68,1.04-6.48,0-.9-.52-1.35-1.21-1.35-1.89v-1.7c0,.68.45,1.37,1.36,1.89,1.79,1.04,4.69,1.04,6.48,0,.89-.51,1.33-1.19,1.33-1.86Z"/>
        <path class="cls-8" d="M84.08,45.71c1.79,1.04,1.8,2.72.02,3.75-1.78,1.04-4.68,1.04-6.48,0-1.79-1.04-1.8-2.72-.02-3.75,1.78-1.04,4.68-1.04,6.48,0Z"/>
      </g>
    </g>
    <g>
      <path class="cls-10" d="M83.4,48.92c-1.43.83-3.77.82-5.21,0-1.44-.83-1.45-2.18-.02-3.01,1.43-.83,3.77-.82,5.21,0,1.44.83,1.45,2.18.02,3.01Z"/>
      <path class="cls-7" d="M82.86,48.13c-1.14.66-3,.66-4.14,0-1.15-.66-1.15-1.73-.01-2.39,1.14-.66,3-.66,4.14,0s1.15,1.73.01,2.39Z"/>
    </g>
    <path class="cls-6" d="M82.51,46.02h0l-.17-.33c-.38-.74-.58-1.57-.56-2.41l-1,.05-1-.05c.02.84-.17,1.66-.56,2.41l-.17.33h0c-.2.36-.05.77.45,1.06.71.41,1.86.41,2.57,0,.5-.29.64-.7.44-1.06Z"/>
    <g>
      <path class="cls-10" d="M81.98,43.34c-.66.38-1.72.38-2.38,0-.66-.38-.66-1,0-1.38.66-.38,1.72-.38,2.38,0,.66.38.66,1,0,1.38Z"/>
      <path class="cls-9" d="M81.73,42.94c-.52.3-1.37.3-1.89,0-.52-.3-.53-.79,0-1.09.52-.3,1.37-.3,1.89,0,.52.3.53.79,0,1.09Z"/>
    </g>
    <g>
      <path class="cls-6" d="M82.52,42.88c-.95.55-2.5.55-3.46,0-.96-.55-.96-1.45-.01-2,.95-.55,2.5-.55,3.46,0,.96.55.96,1.45.01,2Z"/>
      <path class="cls-7" d="M82.16,42.29c-.76.44-1.99.43-2.75,0-.76-.44-.77-1.15,0-1.59.76-.44,1.99-.43,2.75,0,.76.44.77,1.15,0,1.59Z"/>
    </g>
    <g>
      <path class="cls-6" d="M87.87,25.86h-14.17v2.14c0,4.85,1.9,9.59,5.46,13.63h0c.08.11.22.22.43.31.66.29,1.74.29,2.4,0,.21-.09.35-.2.43-.32,3.56-4.04,5.45-8.78,5.45-13.62v-2.14Z"/>
      <path class="cls-10" d="M87.87,25.86v2.14c0,4.84-1.9,9.58-5.45,13.62-.08.12-.22.23-.43.32-.51.22-1.27.27-1.9.15,2.1-4.69.62-14.73.62-14.73l1.67-1.5h5.49Z"/>
      <path class="cls-7" d="M85.82,28.77c-2.77,1.6-7.26,1.59-10.05-.02-2.78-1.61-2.8-4.2-.03-5.8,2.77-1.6,7.26-1.59,10.05.02,2.78,1.61,2.8,4.2.03,5.8Z"/>
      <path class="cls-10" d="M85.29,28.46c-2.47,1.43-6.49,1.42-8.98-.02-2.49-1.44-2.5-3.76-.03-5.18,2.47-1.43,6.49-1.42,8.98.02s2.5,3.76.03,5.18Z"/>
      <path class="cls-6" d="M76.28,24.02c2.47-1.43,6.49-1.42,8.98.02,1.08.62,1.69,1.41,1.84,2.22.19-1.06-.42-2.17-1.84-2.99-2.49-1.44-6.51-1.44-8.98-.02-1.4.81-2,1.9-1.81,2.96.14-.8.75-1.58,1.81-2.2Z"/>
    </g>
    <path class="cls-6" d="M83.23,39.93h0c-.14-.27-.03-.6.24-.74l4.54-2.31c1.2-.61,1.94-1.82,1.94-3.17,0-1.45-.8-2.77-2.08-3.44-.2-.11-.38-.03-.44.01-.07.04-.23.17-.22.42,0,.15.1.28.23.36l.03.02c.22.13.3.41.17.63l-.09.15c-.13.22-.41.3-.63.17h0c-.46-.27-.78-.75-.8-1.29-.02-.58.26-1.1.75-1.39.49-.29,1.09-.27,1.59,0,1.58.86,2.56,2.5,2.59,4.29.03,1.8-1.01,3.44-2.61,4.26l-4.48,2.28c-.27.14-.6.03-.74-.24Z"/>
  </g>
  <path class="cls-12" d="M75.04,136.52c-.46.35-.91.71-1.36,1.07-.55.45-1.08.92-1.53,1.47-.19.24-.37.49-.47.78-.18.5-.25,1.44.11,1.86.29.34.76.48,1.21.55.45.06.9.06,1.34-.05,1.87-.43,3-2.45,4.83-3.02.47-.15.97-.19,1.45-.3.63-.15,1.15-.39,1.45-.98.3-.59.37-1.28.28-1.93-.13-.9-.56-1.74-1.06-2.5-.06.16-.23.51-.41.56-.15.04-.53-.04-.66-.11-.08-.04-.44-.47-.27-.56-1.72.92-3.36,1.98-4.91,3.15Z"/>
  <path class="cls-13" d="M79.41,124.78c-.58-1.82-1.18-3.7-.8-5.58.38-1.88.79-3.76,1.19-5.64.27-1.26.55-2.53.82-3.79.49-2.23.98-4.51.75-6.78-.23-2.27-1.3-4.58-3.28-5.72-1.01-.58-2.44-.2-3.31-1.15-.1-.11-.23-.25-.37-.21-.12.04-.16.19-.19.31-.45,2.57-.9,5.15-1.35,7.72-.71,4.09-1.41,8.18-1.34,12.34.04,2.41.15,4.91,1.03,7.18.62,1.6,1.25,3.2,1.87,4.8.86,2.2,1.57,4.37,2.09,6.67.19.84,1.35.74,2.05.65.98-.12,1.92-.55,2.63-1.24.13-.12.25-.27.28-.44.02-.11,0-.23-.02-.34-.47-2.54-.94-5.09-1.68-7.56-.12-.4-.25-.81-.39-1.23Z"/>
  <path class="cls-3" d="M80.12,65.59c-.06-.05-.12-.1-.17-.15-.49-.41-1.02-.77-1.58-1.08-.4-.23-1.11.05-1.51.21-.98.41-1.81,1.17-2.34,2.09-.43.76-.66,1.61-.73,2.48-.04.44-.03.89.02,1.33.04.42.07.69.43.94.55.38,1.22.6,1.7,1.08.43.44.65,1.05,1.05,1.52.05.06.12.12.2.1.05-.01.08-.06.11-.1.52-.71,1.11-1.35,1.77-1.93.71-.62,1.51-1.16,2.13-1.87.55-.63,1.14-1.68.94-2.56-.09-.38-.57-.64-.84-.89-.4-.38-.77-.79-1.18-1.16Z"/>
  <path class="cls-3" d="M83.67,147.12c-.15.53-.21,1.07-.01,1.57.28.72,1.31.66,1.96.61.79-.06,1.56-.3,2.24-.68,1.17-.66,2.09-1.73,2.67-2.94.15-.31.28-.63.48-.91.24-.32.57-.56.79-.88.49-.7.43-1.66.12-2.46-.26-.66-.71-1.29-1.38-1.56-.26-.1-.54-.14-.81-.16-.51-.03-1.06.01-1.52.25-.21.09-.34.36-.59.21-.4.46-.7,1.06-1.02,1.58-.32.52-.64,1.04-.96,1.56-.6.98-1.2,1.96-1.67,3-.12.26-.23.53-.31.8Z"/>
  <path class="cls-4" d="M91.41,140.34c-.61-2.08-1.05-4.22-1.32-6.38-.18-1.47-.29-2.98-.9-4.33-.52-1.15-1.23-2.19-1.62-3.41-.9-2.86,0-5.79.57-8.63,1.21-6.06,2.18-12.11,2.1-18.31,0-.28-.02-.6-.24-.79-.85,1.38-3.54,1.54-4.99,1.55-1.57,0-3.11-.25-4.65-.47-.68-.1-.99-.12-1.51-.64-.43-.44-.77-.97-.99-1.54-.46,1.55-.8,3.15-.99,4.76-.13,1.07-.19,2.16.03,3.21.36,1.72,1.46,3.22,2.85,4.28.17.13.36.27.45.46.08.16.08.34.09.51.1,2.62-.1,5.21-.08,7.83.01,1.35.23,5.37.29,6.03.12,1.35.38,2.49.93,3.74.41.93.92,1.8,1.35,2.72,1.62,3.52,2.7,7.28,3.86,10.97.03.1.06.2.14.27.08.08.19.1.29.13.89.19,1.85.05,2.66-.37.58-.3,1.07-.74,1.55-1.17.06-.05.11-.1.14-.17.03-.08,0-.17-.02-.25Z"/>
  <path class="cls-12" d="M76.92,70.88c-.73,2.61-.96,5.3-1.24,8.03-.06.57-.12,1.13-.18,1.7-.39,3.78-1.56,15.11-1.75,17-.1.94-.28,1.75.14,2.64.4.86,1.12,1.55,1.94,2.01,1.1.61,2.37.85,3.62.99,3.56.4,7.23.03,10.53-1.36.59-.25.54-.69.65-1.24.14-.68,2.03-11.71,2.29-14.49.22-2.34.35-4.68.36-7.03,0-1.71-.04-3.43-.17-5.13-.09-1.26-2.1-2.22-3.07-2.88-.06-.04-.12-.09-.19-.13-2.06-1.41-4.18-2.81-6.57-3.61-.59-.2-1.19-.36-1.8-.46-.46-.08-1-.27-1.46-.27-1-.01-1.81.81-2.19,1.66s-.68,1.72-.92,2.59Z"/>
  <path class="cls-1" d="M82.82,72.48c.21.05.44.06.66.06,1.43-.04,2.74-.84,3.79-1.81.26-.24.54-.54.55-.9,0-.05,0-.1-.03-.14-.03-.05-.07-.08-.11-.11-.24-.19-.86-3.14-1.18-4.28-.12.12-.22.26-.3.41-.7,1.34-2.05,2.19-3.39,2.79-.26.12-.57.16-.79.37-.19.19-.12.48-.1.72.07.81.16,1.62.27,2.43,0,.05.01.1.04.14.03.06.09.11.15.14.14.08.29.14.45.18Z"/>
  <path class="cls-11" d="M85.55,67.16c1.23.3,1.57-1.18,1.68-2.06.11-.87.2-1.75.18-2.62-.01-.67-.09-1.35-.31-1.99-.47-1.39-1.63-2.52-3.02-2.97-1.4-.45-3-.19-4.19.66-1.66,1.2-2.04,3.1-2.01,5.04.02,1.36.25,2.71.49,4.05.21,1.17.43,2.37.97,3.43.15.28.32.56.59.74.18.12.39.19.61.23,1.13.21,2.26-.33,3.23-.95.59-.37,1.18-.8,1.49-1.42.33-.65.31-1.41.29-2.13Z"/>
  <path class="cls-13" d="M79.85,60.76c.79-.05,1.57-.33,2.36-.33.1.83-.35,1.63-.43,2.46,0,.06,0,.13.03.18.04.04.1.06.15.07.47.1.94.21,1.37.44.58.31,1.05.81,1.32,1.41-.01-.03.04-.18.05-.22.03-.1.07-.2.12-.3.09-.19.2-.36.33-.52.18-.22.41-.41.69-.45.3-.03.59.13.79.36.23.26.36.6.42.94.06.34.06.69.06,1.04,0-.19.11-.43.17-.61.06-.21.13-.43.19-.64.13-.42.26-.85.37-1.28.22-.83.37-1.7.35-2.56,0-.36-.05-.72-.17-1.07-.16-.5-.49-.97-.95-1.23-.24-.13-.51-.21-.68-.42-.07-.09-.12-.2-.17-.3-.34-.67-.98-1.16-1.7-1.4s-1.49-.26-2.23-.17c-1.74.21-3.49,1.08-4.31,2.63-.2.37-.48,1.2-.12,1.57.43.44,1.44.44,2,.41Z"/>
  <path class="cls-3" d="M88.82,70.93c-.56,1.43-.72,3.02-.46,4.54.23,1.35.87,2.73,2.06,3.4.5.28.99.33,1.54.42.49.08.74.05,1.15-.29.82-.69,1.22-1.76,1.44-2.81.37-1.75.36-3.55.35-5.34,0-.07,0-.15-.03-.21-.02-.06-.06-.11-.11-.16-.84-1-2.27-1.61-3.56-1.55-.38.02-.76.05-1.11.21-.69.31-1.03,1.14-1.29,1.79Z"/>
  <path class="cls-11" d="M94.36,67.51c-.3-4.92-1.33-9.68-3.34-14.23-.78-1.76-1.64-3.47-2.53-5.17-.28-.55-.6-1.09-.74-1.7-.14-.62.08-1.09.18-1.69.23-1.32.34-2.69-.01-3.99-.36-1.3-1.18-2.44-2.11-3.42-.2-.21-.42-.43-.68-.56-.26-.13-.58-.18-.85-.05-.08.04-.16.1-.18.18-.02.06,0,.13.02.2.08.28.2.55.36.8-.34-.15-.72-.22-1.09-.2-.07,0-.15.01-.21.05-.13.08-.13.28-.07.42.21.49.85.6,1.29.9.38.26.62.68.75,1.13.12.44.14.91.14,1.37-.66-.52-1.23-1.15-1.68-1.85-.15-.24-.29-.48-.5-.67s-.49-.33-.76-.28c-.05,0-.1.03-.13.07-.05.07-.02.17.02.25.57,1.13,1.58,2.04,1.93,3.26.22.79.14,1.63.13,2.45,0,.45,0,.91.11,1.35.12.53.39,1.03.6,1.52.24.58.46,1.17.65,1.77.37,1.18.66,2.38.92,3.59.52,2.35.97,4.71,1.59,7.04.33,1.25.71,2.48,1.17,3.68,0,.43.06.87.06,1.26-.02,1.91-.24,3.81-.18,5.72.03,1.06.15,2.12.44,3.14.2.71.49,1.41,1.01,1.93.52.52,1.31.82,2.01.61.91-.28,1.39-1.27,1.58-2.2.39-1.84.24-3.84.16-5.71-.01-.32-.03-.65-.05-.97Z"/>
</svg>