<?xml version="1.0" encoding="UTF-8"?>
<svg id="Layer" xmlns="http://www.w3.org/2000/svg" viewBox="0 0 157.04 169.78">
  <defs>
    <style>
      .cls-1 {
        fill: #343434;
      }

      .cls-1, .cls-2, .cls-3, .cls-4, .cls-5, .cls-6, .cls-7, .cls-8, .cls-9, .cls-10, .cls-11, .cls-12 {
        stroke-width: 0px;
      }

      .cls-2 {
        fill: #ffaf80;
      }

      .cls-3 {
        fill: #f2f2f2;
      }

      .cls-4 {
        fill: #adb0ff;
      }

      .cls-5 {
        fill: #616161;
      }

      .cls-6 {
        fill: #bfc2ff;
      }

      .cls-7 {
        fill: #ffd557;
      }

      .cls-13 {
        isolation: isolate;
      }

      .cls-8 {
        fill: #d9d9d9;
      }

      .cls-9 {
        fill: #ffa200;
      }

      .cls-10 {
        fill: #ffc7a6;
      }

      .cls-11 {
        fill: #8f93ff;
      }

      .cls-12 {
        fill: #4d4d4d;
      }
    </style>
  </defs>
  <path class="cls-12" d="M67.49,110.08c.27,1.15.61,2.3.74,3.48.06.6.2,1.22.58,1.7.25.32.59.55.95.73.9.46,1.93.61,2.93.74.7.09,1.42.17,2.12.04.86-.16,1.61-.64,2.35-1.11.16-.74-.14-1.48-.31-2.21-.2-.89-.2-1.81-.36-2.71-.2-1.14-.65-2.22-.95-3.34-.31-1.14-.43-2.34-.57-3.51-.3-2.54-.47-5.09-.64-7.64-.08-1.3-.16-2.6-.25-3.9-.1-1.42-.21-2.86-.73-4.18-.51-1.32-1.5-2.54-2.84-2.99-.62-.21-1.3-.25-1.95-.2-1.77.14-3.4,1.63-4.75-.07-.35,4.16.33,8.57,1.02,12.66.71,4.2,1.68,8.35,2.65,12.5Z"/>
  <path class="cls-3" d="M86.85,150.09c-6.38,3.68-16.76,3.67-23.18-.04-6.42-3.71-6.45-9.7-.07-13.38,6.38-3.68,16.76-3.67,23.18.04,6.42,3.71,6.45,9.7.07,13.38Z"/>
  <path class="cls-1" d="M67.91,114.09c.01.48.23,2.44.29,2.95.12,1,.27,1.99.41,2.98.25,1.86.49,3.73.72,5.59.21,1.67.4,3.35.58,5.02.11,1.01.24,2.04.25,3.06,0,.17,0,.35-.07.51-.05.12-.14.22-.23.32-1.42,1.6-2.88,3.17-4.39,4.7-.78.79-1.65,1.67-1.97,2.77-.14.49-.13,1.13.09,1.59.25.54.98.76,1.52.83,1.16.15,2.35-.08,3.44-.51,1.09-.43,2.1-1.04,3.08-1.69,1-.66,1.99-1.37,2.7-2.33.04-.06.09-.12.15-.15.08-.04.18-.02.26,0,.5.12,1.01.53,1.48.26.51-.3.93-.78,1.33-1.21.05-.05.1-.11.13-.17.03-.08.04-.16.04-.24.02-.45,0-.91-.02-1.37-.04-.57-.11-1.14-.21-1.69-.09-.53-.47-.86-.59-1.39-.13-.56-.05-1.16.03-1.72.58-4.19.73-8.43.45-12.65-.14-2.17-.41-4.35-1.03-6.43,0,.52-.44,1.03-.85,1.29-.57.35-1.23.51-1.89.6-1.25.17-2.54.13-3.77-.14-.4-.09-.99-.22-1.25-.57-.28-.36-.4-.92-.4-1.36-.2.35-.27.76-.26,1.16Z"/>
  <path class="cls-5" d="M71.73,95.91c.21.08.44.16.59.32.11.12.18.28.24.43.45,1.14.84,2.31,1.17,3.49,1.76,6.25,1.53,13.09,4.31,19.04.09.2.19.4.34.57.36.4.94.5,1.48.55,1.05.11,2.11.14,3.15-.06,1.03-.2,2.04-.64,2.79-1.38.11-.11.22-.23.24-.38.02-.15-.04-.29-.1-.43-1.01-2.33-1.43-4.64-1.12-7.16.35-2.74.69-5.48,1.04-8.22.59-4.67.9-9.52-.49-14.02-.86.97-2,1.68-3.24,2.05-1.18.35-2.43.38-3.65.38-1.33,0-2.67,0-3.96-.32-1.38-.33-2.67-.99-4.04-1.38-.27-.08-.55-.14-.82-.1-1.51.24-1.19,2.37-.78,3.35.59,1.42,1.34,2.66,2.85,3.26Z"/>
  <path class="cls-8" d="M58.83,80.57c-.26.61-.56,1.21-.68,1.87-.34,1.79.48,3.57,1.09,5.21.05.14.11.28.2.39.26.3.73.26,1.12.21.04,0,.09-.01.13,0,.06.02.1.06.14.11.26.27.64.49,1,.37.09-.03.18-.08.27-.11.22-.07.46-.02.68-.1.21-.08.36-.28.43-.5s.06-.45.05-.68c-.04-.72-.3-1.39-.38-2.09-.08-.66-.17-1.37-.16-2.04.02-1.63.43-3.28.72-4.88.01-.07.02-.13.01-.2-.01-.08-.06-.16-.11-.23-.2-.32-.37-.67-.49-1.04-.1-.3-.1-.68-.26-.96-.16-.28-.49-.43-.81-.47-.54-.07-1.1.13-1.48.52-.51.52-.51,1.3-.65,1.98-.19.9-.46,1.78-.81,2.62Z"/>
  <path class="cls-4" d="M69.01,41.26c-2.86.64-5.05,2.68-5.58,5.82-.18,1.05-.3,2.11-.39,3.17-.31,3.66-.23,7.35-.92,10.97-.69,3.68-1.33,7.36-1.89,11.07-.2,1.33-.41,2.67-.61,4-.06.39-.35,1.12-.23,1.5.15.48.93.76,1.34.9,1.62.57,3.47.64,5.03-.08.1-.04,0-1.46-.01-1.63,0-.57,0-1.14,0-1.71.01-1.16.09-2.33.07-3.49-.01-1.01.37-2.09.58-3.09.24-1.13.47-2.26.7-3.39.44-2.15.87-4.3,1.31-6.45.03-.17.07-.34.05-.51-.02-.15-.08-.28-.14-.41-.15-.32-.34-.63-.56-.9-.31-.37-.7-.66-1.13-.86.1-.73.22-1.45.37-2.17.47-2.31,1.18-4.57,1.5-6.9.16-1.12.03-2.28.4-3.38.18-.55.45-1.07.8-1.53.19-.26.83-1.14,1.18-1.14-.65,0-1.27.08-1.87.22Z"/>
  <path class="cls-12" d="M86.63,120.43c-.11-.87-.21-1.74-.44-2.58-.21-.79-.57-1.53-.95-2.25-.03-.05-.07-.11-.13-.12-.06,0-.12.06-.12.12s.02.13.05.18c.15.33.32.69.2,1.04-.09.27-.33.46-.57.62-1.68,1.11-3.75,1.58-5.76,1.4-.43-.04-.82-.19-1.14-.5-.11-.1-.17-.52-.29-.52-.13,0-.21.31-.23.4-.07.34.04.7.05,1.04,0,.95.16,1.93.25,2.87.09.97.18,1.93.27,2.9.17,1.91.34,13.37.23,14.32-.1.9-.41,1.15-1.05,1.79-1.02,1.01-2.08,1.99-3,3.1-.53.64-1,1.33-1.38,2.07-.33.65-.82,1.51-.46,2.22.32.62,1.02.96,1.7,1.11,1.93.42,3.94-.27,5.64-1.27.69-.41,1.36-.88,1.87-1.49.43-.53.74-1.15,1.04-1.76.15-.32.53-1.42.99-1.19.14.07.28.19.43.17.08-.01.15-.06.22-.11.6-.43,1.14-.95,1.58-1.54.06-.08.12-.16.16-.26.05-.13.05-.28.05-.43-.01-.72-.03-1.45-.25-2.14-.12-.37-.39-.79-.4-1.19-.03-.76.26-1.62.39-2.37.42-2.49.78-4.99.98-7.51.19-2.44.38-4.92.16-7.36-.02-.25-.05-.51-.08-.76Z"/>
  <path class="cls-11" d="M88.71,54.66c-.05.99-.11,1.98-.14,2.97-.11,3.13-.37,6.25-.78,9.35-.15,1.15-.32,2.3-.41,3.45-.05.58-.08,1.16-.07,1.74,0,.72.06,1.44.14,2.15.14,1.16.33,2.3.49,3.46.47,3.41.59,6.87.36,10.31-.03.41-.06.83-.26,1.2-.22.42-.61.71-1,.98-5.22,3.52-12.08,3.96-18.18,2.39-.62-.16-1.25-.34-1.86-.56-.25-.09-.5-.19-.74-.29-.91-.4-1.76-.9-2.48-1.56-.24-.22-.47-.46-.59-.75-.14-.34-.14-.72-.13-1.09.09-3.57.48-7.12.86-10.67.11-.95.2-1.91.3-2.87.01-.17.03-.33.04-.5.82-9.47-1.58-19.18.6-28.53.17-.69.37-1.4.67-2.04.29-.62.66-1.19,1.18-1.67.42-.38,1.01-.57,1.54-.75.58-.19,1.18-.3,1.78-.32.57-.01,1.14.07,1.7.17.54.09,1.08.2,1.61.34.48.13.95.28,1.42.44.4.14.8.23,1.18.4,4.74,2.08,9.47,4.62,12.71,8.66.26.32.53.68.6,1.09.15.86-.49,1.65-.53,2.49Z"/>
  <path class="cls-5" d="M67.16,41.39l-1.13,1.2s4.71-.54,7.55.33l1.29-1.35c-3.89-1.07-7.7-.18-7.7-.18Z"/>
  <polygon class="cls-4" points="73.1 57.92 81.71 58.41 80.32 66.8 75.86 67.37 71.74 66.31 73.1 57.92"/>
  <polygon class="cls-6" points="73.1 57.92 72.71 60.31 75.63 61.66 77.3 61.89 81.33 60.81 81.71 58.46 73.1 57.92"/>
  <path class="cls-11" d="M77.19,60.99c0,.27-.23.48-.52.48s-.52-.22-.52-.48.23-.48.52-.48.52.22.52.48Z"/>
  <path class="cls-4" d="M66.18,54.99l-.89,6.35-1.21.34c-.17-3.01-.33-6.02-.27-9.02l2.37,2.33Z"/>
  <path class="cls-6" d="M66.18,54.99l-.7,1.65-1.65-.37c-.04-1.2-.04-2.41-.02-3.62l2.37,2.33Z"/>
  <path class="cls-4" d="M64.68,75.6l-.23,2.15-.55-.02c.11-.95.2-1.91.3-2.87.01-.17.03-.33.04-.5l.43,1.23Z"/>
  <polygon class="cls-4" points="76.64 78.83 75.82 81.44 80.75 84.23 86.75 83.66 87.45 80.69 76.64 78.83"/>
  <path class="cls-4" d="M73.5,46.66c-.39,2.17-1.02,4.32-1.64,6.38-.32,1.05-.62,2.1-.91,3.16-1.64,6.15-2.33,12.62-3.01,18.87l-.05.48c-.59,5.48-.89,11.02-.89,16.54-.25-.09-.5-.19-.74-.29.01-5.45.32-10.93.89-16.33l.05-.48c.68-6.28,1.37-12.78,3.02-18.98.29-1.07.6-2.12.92-3.18.61-2.05,1.24-4.17,1.62-6.31l.74.14Z"/>
  <path class="cls-4" d="M87.45,74.32c-2.15.6-4.32,1.05-6.64,1.45-3.92.68-8.35.51-12.25-.25l.07-2.41v-.93c3.91.76,7.95.63,11.87-.05,2.33-.41,4.62-.99,6.88-1.7-.05.58-.08,1.16-.07,1.74,0,.72.06,1.44.14,2.15Z"/>
  <path class="cls-4" d="M67.8,71.56l-3.57-2.14v4.55s1.8,1.39,3.25,1.43c1.45.05.32-3.84.32-3.84Z"/>
  <g class="cls-13">
    <path class="cls-7" d="M68.18,71.45c-.49-.29-.94-.31-1.29-.12l-.6.33c.34-.19.8-.16,1.29.12.97.57,1.7,1.96,1.63,3.09-.04.57-.26.97-.6,1.15l.6-.33c.34-.19.57-.59.6-1.15.07-1.13-.66-2.52-1.63-3.09Z"/>
    <path class="cls-9" d="M67.58,71.78c.97.57,1.7,1.96,1.63,3.09-.07,1.14-.91,1.6-1.89,1.03-.97-.57-1.7-1.96-1.63-3.09.07-1.13.91-1.59,1.88-1.02Z"/>
  </g>
  <path class="cls-2" d="M73.61,48.45c0,.16.05.32.11.47.02.05.04.1.08.13.1.09.4.04.53.04.22,0,.44,0,.66-.03.43-.03.86-.1,1.29-.19,1.28-.29,2.49-.83,3.63-1.49.76-.45,1.51-.97,2-1.7.03-.05.06-.1.07-.15,0-.09-.06-.16-.12-.23-.35-.43-.49-.98-.6-1.52-.53-2.57-.56-5.21-.49-7.83-1.4,2.81-4.26,4.85-7.37,5.25-.2.03-.41.05-.59.13-.48.23-.65.82-.69,1.34-.06.91,0,1.85-.02,2.77,0,.21,0,.42,0,.63,0,.18-.06.37.09.5.07.06.16.1.25.12.24.06.51.06.75,0,.05-.01.11-.03.16-.04.15,0,.29.1.36.23.07.13.08.29.08.44,0,.21-.03.41-.07.61-.04.17-.08.33-.08.52Z"/>
  <path class="cls-6" d="M70.92,48.92c-.13-1.39.1-2.82.66-4.1.12-.27.25-.53.43-.76.12-.16.26-.3.41-.42-.14.12-.19.56-.22.73-.04.24-.02.48-.02.73,0,.52.35,1.02.84,1.21.18.07.61.05.48.33-.18.38-2.35,2.01-2.59,2.28Z"/>
  <path class="cls-6" d="M80.58,42.87c-.77,1.1-1.89,1.93-3.11,2.49-1.22.56-2.55.86-3.88,1.05-.39.06-.35.31-.31.62.05.4.11.81.17,1.21.13.8.28,1.6.47,2.4,2.51-.76,4.93-1.82,7.18-3.16.33-.19.65-.39.95-.63.23-.18.62-.48.63-.8,0-.35-.24-.63-.44-.88-.34-.41-.55-.92-.6-1.45-.04-.38.04-.78-.04-1.15-.07-.33-.24-.64-.46-.89-.05-.06-.11-.11-.19-.11,0,0-.02,0-.02,0,0,0,0,.01,0,.02,0,.22.04.48-.01.7-.05.21-.18.4-.3.57Z"/>
  <path class="cls-10" d="M79.01,39c.02-.13,1.51-.66,1.7-.83.45-.38.81-1.06,1.11-1.56.67-1.11,1.16-2.32,1.42-3.58.39-1.9.25-3.93-.53-5.71-.29-.65-.66-1.27-1.17-1.76-.68-.65-1.58-1.04-2.5-1.2-.92-.16-1.88-.1-2.8.06-1.36.24-2.7.72-3.79,1.57-.8.61-1.45,1.43-1.83,2.36-.38.95-.69,2.06-.86,3.06-.17.98-.16,1.98-.15,2.97.02,2.32.05,4.64.13,6.96.02.58.05,1.18.33,1.68.34.62,1.02,1.01,1.71,1.13.7.12,1.41.02,2.1-.16,1.19-.31,2.33-.83,3.34-1.53.38-.26.74-.55,1.01-.91.54-.72.66-1.66.78-2.55Z"/>
  <path class="cls-12" d="M71.91,27.69c1.59.06,3.19.01,4.78-.13.06,0,.13,0,.18.03.07.06.04.17,0,.26-.43,1.09-1.21,2.1-1.21,3.27,0,.07,0,.14.04.2.04.07.12.12.19.16.84.47,1.75.97,2.17,1.83.25.51.3,1.32.81,1.66.32.21.44-.23.62-.43.23-.26.52-.48.81-.66.23-.14.47-.27.74-.27.41,0,.78.3.95.68.27.6.11,1.24-.08,1.83-.2.61-.49,1.19-.86,1.71-.03.05-.07.09-.1.14.84-.57,1.55-1.33,2.11-2.18.56-.85.98-1.79,1.29-2.76.07-.2.13-.41.21-.61.07-.17.19-.32.26-.49.07-.18.06-.43.07-.62.01-.23,0-.46-.01-.69-.07-.82-.38-1.63-.94-2.23-.39-.42-.56-.58-.59-1.15-.04-.69-.47-1.3-.98-1.78-1.3-1.22-3.15-1.72-4.94-1.72-1.75,0-3.49.45-5.03,1.29-.47.26-.93.57-1.19,1.03-.19.33-.29.82-.17,1.19.13.38.49.43.86.45Z"/>
  <g>
    <path class="cls-4" d="M78.19,32.17c-1.25-1.02-2.76-1.55-4.23-2.06-.62-.21-1.24-.42-1.85-.64l-.8-.22c-.19-.05-.39-.13-.58-.18-.18-.05-.38.03-.56.09-.94.32-1.81.85-2.59,1.47-.4.32-.79.69-1.04,1.14-.37.7-.28,1.4.26,1.97,1.47,1.55,3.73,2.15,5.86,1.98s4.14-1.02,6.02-2.01c.15-.08.31-.17.4-.31.18-.27-.02-.39-.19-.55-.24-.23-.45-.47-.7-.68Z"/>
    <path class="cls-11" d="M70.15,25.53c-.05.02-.64,1.93-1.02,3.15-.19.63.02,1.32.54,1.72,1.83,1.43,6.56,4.38,13.75,3.64.54-.05,1.01-.39,1.26-.87l1.25-2.5-15.79-5.14Z"/>
    <path class="cls-11" d="M88.51,30.31c.02-.28-.03-.56-.1-.83-.29-1.06-1-1.97-1.86-2.65s-1.86-1.16-2.88-1.57c-2.48-.99-5.1-1.58-7.7-2.17-.31.26-.24.75-.16,1.15.18.96.82,1.77,1.55,2.42.72.66.25,1.94.92,2.65.58.62,1.5,1.68,2.15,2.22.54.45,2.08.8,2.74,1.03,1.01.36,1.64-.09,2.69.07.12.02,1.15,0,1.15-.12l.6-.37c.42-.55.86-1.14.91-1.83Z"/>
    <path class="cls-4" d="M69.9,22.21c.05.47.19.94.22,1.41.02.38-.04.76-.17,1.12-.12.35-.32.67-.35,1.04-.08.8.6,1.45,1.23,1.93,3.55,2.68,7.81,4.28,12.14,5.26,1.04.24,2.13.44,3.15.12.57-.18,1.1-.52,1.49-.97-.44.29-1.02.24-1.54.17-1.32-.18-2.66-.42-3.85-1.02-2.14-1.08-3.55-3.2-4.55-5.38-.64-1.41-1.17-2.91-2.18-4.07-.62-.71-1.41-1.28-2.29-1.63-.49-.2-1.01-.33-1.53-.26-1.16.16-1.89,1.17-1.78,2.29Z"/>
  </g>
  <path class="cls-3" d="M82.96,94.03c-.08.08-.16.15-.25.22-.39.32-.57.53-.76,1.03-.4,1.06-.95,2.06-1.65,2.95-.33.42-.71.86-.77,1.39,0,.08,0,.18.04.24.08.11.23.11.36.1.61-.06,1.19-.31,1.66-.69.5-.4.52-.91.88-1.41.04-.06.11-.12.18-.11.04,0,.07.04.09.06.44.46.52,1.17.41,1.8-.12.63-.41,1.2-.65,1.79-.33.81-.56,1.66-.55,2.53,0,.14.02.3.13.38.12.09.29.05.43,0,.29-.12.55-.32.74-.57.02.1.14.15.25.15s.21-.02.31.01c.14.05.24.2.39.21.14,0,.25-.11.38-.17.18-.08.4-.03.58-.12.23-.11.3-.4.45-.61.16-.22.41-.35.59-.55.57-.63.81-1.61,1.07-2.39.31-.95.6-1.92.87-2.89.32-1.18.6-2.36.85-3.56.23-1.11.58-2.28.68-3.4.07-.75-.11-1.62-.77-1.96-.98-.5-2.72.33-3.17,1.25-.21.44-.42.89-.61,1.34-.14.33-.28.67-.47.97-.18.29-.4.54-.63.8-.35.39-.69.84-1.08,1.21Z"/>
  <path class="cls-4" d="M95.11,74.26c.01-.4,0-.8-.06-1.19-.74-4.94-1.81-9.83-3.16-14.63-.75-2.66-1.38-5.53-3.28-7.63-.48-.53-1.17-1-1.87-.84-.49.12-.86.53-1.16.94-2.48,3.37-3.11,7.45-2.17,11.49.75,3.24,2.24,6.25,3.35,9.39.31.86.58,1.74.64,2.65.06.91-.1,1.82-.26,2.71-.89,4.95-1.77,9.91-2.66,14.86-.05.25-.09.52-.01.77.05.17.16.32.27.45.88,1.06,2.26,1.57,3.62,1.45,1.43-.12,1.3-1.3,1.68-2.43.6-1.8,1.2-3.59,1.77-5.4.75-2.39,1.48-4.78,2.12-7.21.43-1.66,1.12-3.59,1.19-5.38Z"/>
  <path class="cls-5" d="M83.15,46.11l-1.66,1.26s3.42,2.19,5.04,4.67l2-1.17c-2.3-3.31-5.38-4.77-5.38-4.77Z"/>
  <path class="cls-3" d="M58.86,81.27c-.08.61-.04,1.26-.3,1.81-.22.44-.63.82-.64,1.32,0,.13.02.26.1.37.15.23.47.29.74.26.69-.07,1.3-.65,1.42-1.33.04-.25.03-.51.11-.75.14-.41.52-.69.8-1.02.39-.47.58-1.09.53-1.7-.04-.42-.21-.85-.56-1.07-.25-.16-.56-.2-.86-.17-1.08.11-1.23,1.41-1.34,2.29Z"/>
</svg>