<?xml version="1.0" encoding="UTF-8"?>
<svg id="Layer" xmlns="http://www.w3.org/2000/svg" viewBox="0 0 157.04 169.78">
  <defs>
    <style>
      .cls-1 {
        fill: #ccc;
      }

      .cls-1, .cls-2, .cls-3, .cls-4, .cls-5, .cls-6, .cls-7, .cls-8, .cls-9, .cls-10, .cls-11, .cls-12, .cls-13, .cls-14, .cls-15, .cls-16, .cls-17 {
        stroke-width: 0px;
      }

      .cls-2 {
        fill: #ffaf80;
      }

      .cls-3 {
        fill: #f2f2f2;
      }

      .cls-4 {
        fill: #adb0ff;
      }

      .cls-5 {
        fill: #616161;
      }

      .cls-6 {
        fill: #ffbf00;
      }

      .cls-18 {
        isolation: isolate;
      }

      .cls-7 {
        fill: #5940e3;
      }

      .cls-8 {
        fill: #d9d9d9;
      }

      .cls-9 {
        fill: #ffa200;
      }

      .cls-10 {
        fill: #e6e6e6;
      }

      .cls-11 {
        fill: #280dbc;
      }

      .cls-12 {
        fill: #ffc7a6;
      }

      .cls-13 {
        fill: #8f93ff;
      }

      .cls-14 {
        fill: #333;
      }

      .cls-15 {
        fill: #bfbfbf;
      }

      .cls-16 {
        fill: #fff;
      }

      .cls-17 {
        fill: #4d4d4d;
      }
    </style>
  </defs>
  <g>
    <path class="cls-3" d="M123.04,131.38c-12.07,6.97-31.71,6.93-43.86-.07-6.62-3.82-9.65-8.92-9.08-13.9.16-1.36.58-2.71,1.27-4.02,1.41-2.7,3.97-5.25,7.67-7.38,12.07-6.96,31.71-6.93,43.86.08,4.48,2.58,7.31,5.75,8.5,9.07.16.42.29.87.38,1.3,1.22,5.31-1.69,10.86-8.74,14.93Z"/>
    <path class="cls-8" d="M123.8,112.37h.03l-11.48-56.73c-1.1-5.46-5.9-9.39-11.48-9.39s-10.37,3.93-11.48,9.39l-11.36,56.14c-.98,4.01,1.21,8.24,6.58,11.34,9.03,5.22,23.64,5.24,32.61.06,5.1-2.95,7.29-6.94,6.56-10.8Z"/>
    <path class="cls-15" d="M118.82,87.61c-4.74,3.28-10.5,5.21-16.71,5.21-7.17,0-13.75-2.57-18.85-6.84l6.14-30.34c1.11-5.46,5.91-9.39,11.48-9.39s10.37,3.93,11.48,9.39l6.46,31.97Z"/>
    <g>
      <g class="cls-18">
        <path class="cls-3" d="M90.05,42.51c-.8-.46-1.91-.4-3.13.31-2.43,1.4-4.39,4.8-4.38,7.59,0,1.39.49,2.36,1.28,2.82l4.42,2.57c-.79-.46-1.28-1.43-1.28-2.82,0-2.79,1.96-6.19,4.38-7.59,1.22-.7,2.33-.77,3.13-.31l-4.42-2.57Z"/>
        <path class="cls-8" d="M91.35,45.39c2.43-1.4,4.4-.27,4.41,2.51,0,2.79-1.96,6.19-4.38,7.59-2.43,1.4-4.4.28-4.41-2.51,0-2.79,1.96-6.19,4.38-7.59Z"/>
        <path class="cls-14" d="M92.02,47.49c1.68-.97,3.05-.19,3.05,1.74,0,1.93-1.35,4.28-3.03,5.25-1.68.97-3.05.19-3.05-1.74,0-1.93,1.35-4.28,3.03-5.25Z"/>
      </g>
      <g>
        <path class="cls-8" d="M86.36,54.38c.28-.26.39-.72.26-1.29-.26-1.15-1.39-2.35-2.51-2.69-.56-.17-1.01-.09-1.29.17l-5.43,4.8c.28-.26.73-.34,1.29-.17,1.12.34,2.24,1.54,2.51,2.69.13.58.02,1.03-.26,1.29l5.43-4.8Z"/>
        <path class="cls-8" d="M81.19,57.9c.26,1.15-.43,1.8-1.55,1.46-1.12-.34-2.24-1.54-2.51-2.69-.26-1.15.43-1.8,1.55-1.46,1.12.34,2.24,1.54,2.51,2.69Z"/>
      </g>
      <g>
        <path class="cls-10" d="M82.48,59.45c0,3.17-2.82,5.74-6.3,5.74s-6.3-2.57-6.3-5.74,2.82-5.74,6.3-5.74,6.3,2.57,6.3,5.74Z"/>
        <path class="cls-3" d="M79.22,55.34c.22,1.21-1.35,2.49-3.49,2.88-2.14.38-4.06-.28-4.27-1.49-.22-1.21,1.35-2.49,3.49-2.88,2.14-.38,4.06.28,4.27,1.49Z"/>
        <path class="cls-16" d="M77.98,54.88c.15.82-.91,1.69-2.37,1.95-1.45.26-2.75-.19-2.9-1.01-.15-.82.91-1.69,2.37-1.95,1.45-.26,2.75.19,2.9,1.01Z"/>
      </g>
    </g>
    <g>
      <path class="cls-8" d="M123.87,61.13c0,12.01-9.74,21.74-21.75,21.74s-21.75-9.73-21.75-21.74c0-1.77.21-3.48.61-5.13.23-.94.52-1.86.87-2.75.97-1.84,2.71-3.58,5.24-5.04,8.24-4.75,21.65-4.73,29.95.06,3.06,1.76,4.99,3.92,5.8,6.19.09.3.18.59.26.89.51,1.84.78,3.78.78,5.78Z"/>
      <path class="cls-3" d="M94.68,76.2c1.49,3.43.02,4.76-3.28,2.96-3.3-1.8-7.18-6.04-8.67-9.47-1.49-3.43-.02-4.76,3.28-2.96,3.3,1.8,7.18,6.04,8.67,9.47Z"/>
      <path class="cls-17" d="M92.86,75.87c1.17,2.69.02,3.73-2.57,2.32-2.59-1.41-5.63-4.74-6.8-7.43-1.17-2.69-.02-3.73,2.57-2.32,2.59,1.41,5.63,4.74,6.8,7.43Z"/>
      <path class="cls-10" d="M117.12,65.55c-8.24,4.76-21.65,4.73-29.95-.05-4.52-2.61-6.59-6.09-6.2-9.49.11-.93.4-1.85.87-2.75.97-1.84,2.71-3.58,5.24-5.04,8.24-4.75,21.65-4.73,29.95.06,3.06,1.76,4.99,3.92,5.8,6.19.11.29.2.59.26.89.83,3.63-1.15,7.42-5.97,10.19Z"/>
      <path class="cls-3" d="M112.86,58.26c-5.91,3.41-15.52,3.39-21.46-.04-3.24-1.87-4.72-4.37-4.45-6.8.08-.67.28-1.33.62-1.97.69-1.32,1.94-2.57,3.75-3.61,5.91-3.41,15.52-3.39,21.46.04,2.19,1.26,3.58,2.81,4.16,4.44.08.21.14.42.19.64.6,2.6-.83,5.32-4.28,7.31Z"/>
    </g>
    <g>
      <path class="cls-14" d="M89.16,34.6h0c1.99-.32,3.68-1.63,4.48-3.48l.14-.32c.18-.41.47-.76.83-1.02l.45-.32c1.69-1.19,1.22-3.82-.78-4.35h0c-.61-.16-1.26-.08-1.81.22l-2.64,1.46c-1.89,1.04-3.18,2.92-3.48,5.06h0c-.23,1.63,1.19,3.01,2.81,2.75Z"/>
      <ellipse class="cls-8" cx="100.87" cy="40.19" rx="17.28" ry="15.73"/>
      <path class="cls-10" d="M109.23,28.94c.59,3.3-3.69,6.84-9.56,7.89-5.87,1.05-11.12-.77-11.71-4.08s3.69-6.84,9.56-7.89c5.87-1.05,11.12.77,11.71,4.08Z"/>
      <path class="cls-3" d="M105.8,27.67c.4,2.24-2.5,4.63-6.48,5.35s-7.54-.52-7.94-2.76c-.4-2.24,2.5-4.63,6.48-5.35,3.98-.71,7.54.52,7.94,2.76Z"/>
      <g class="cls-18">
        <path class="cls-3" d="M98.64,44.87l-8.9-5.14c-1.69-.98-3.19-1.14-4.11-.61l-1.52.88c.92-.54,2.42-.37,4.11.61l8.9,5.14c2.8,1.62,5.07,4.84,5.06,7.19,0,1.48-.57,2.55-1.56,3.12l1.52-.88c.98-.57,1.55-1.64,1.56-3.12,0-2.35-2.26-5.58-5.06-7.19Z"/>
        <path class="cls-1" d="M97.12,45.75c2.8,1.62,5.07,4.84,5.06,7.19,0,3.01-2.35,4.31-5.78,3.21l-.99-.32c-.9-.29-1.84-.71-2.77-1.25-.93-.54-1.87-1.2-2.77-1.95l-.99-.82c-3.42-2.85-5.75-6.85-5.74-9.86,0-2.35,2.28-2.95,5.08-1.34l8.9,5.14Z"/>
        <path class="cls-17" d="M96.47,46.1c2.39,1.38,4.33,4.13,4.32,6.15,0,2.57-2.01,3.68-4.94,2.75l-.85-.27c-.77-.25-1.57-.61-2.37-1.07-.8-.46-1.6-1.02-2.37-1.67l-.84-.7c-2.92-2.44-4.91-5.86-4.9-8.43,0-2.01,1.95-2.52,4.34-1.14l7.6,4.39Z"/>
        <g>
          <path class="cls-7" d="M89.77,47.03c0,.86-.6,1.2-1.35.77-.75-.43-1.35-1.47-1.35-2.33s.6-1.2,1.35-.77c.75.43,1.35,1.47,1.35,2.33Z"/>
          <path class="cls-11" d="M89,46.66c0,.37-.26.52-.58.33-.32-.19-.58-.63-.58-1s.26-.52.58-.33c.32.19.58.63.58,1Z"/>
        </g>
        <g>
          <path class="cls-7" d="M97.29,51.43c0,.86-.6,1.2-1.35.77s-1.35-1.47-1.35-2.33.6-1.2,1.35-.77,1.35,1.47,1.35,2.33Z"/>
          <path class="cls-11" d="M96.52,50.98c0,.37-.26.52-.58.33-.32-.19-.58-.63-.58-1s.26-.52.58-.33c.32.19.58.63.58,1Z"/>
        </g>
      </g>
      <g>
        <path class="cls-3" d="M113.41,37.55h0c-2.17,1.44-3.47,3.88-3.43,6.49v.45c.01.58-.14,1.15-.43,1.65l-.36.61c-1.36,2.31.59,5.16,3.24,4.72h0c.8-.13,1.52-.57,2.01-1.22l2.34-3.13c1.68-2.24,2.2-5.14,1.41-7.83h0c-.6-2.04-3-2.92-4.78-1.74Z"/>
        <path class="cls-14" d="M114.51,39.38h0c-1.68,1.11-2.68,3-2.65,5.01v.35c.01.45-.11.89-.33,1.27l-.28.47c-1.05,1.78.46,3.99,2.5,3.65h0c.62-.1,1.18-.44,1.56-.95l1.81-2.41c1.3-1.73,1.7-3.97,1.09-6.05h0c-.46-1.58-2.32-2.25-3.69-1.35Z"/>
      </g>
    </g>
    <g>
      <g class="cls-18">
        <path class="cls-3" d="M124.77,62.46c-.8-.46-1.91-.4-3.13.31-2.43,1.4-4.39,4.8-4.38,7.59,0,1.39.49,2.36,1.28,2.82l4.42,2.57c-.79-.46-1.28-1.43-1.28-2.82,0-2.79,1.96-6.19,4.38-7.59,1.22-.7,2.33-.77,3.13-.31l-4.42-2.57Z"/>
        <path class="cls-8" d="M126.07,65.33c2.43-1.4,4.4-.27,4.41,2.51,0,2.79-1.96,6.19-4.38,7.59-2.43,1.4-4.4.28-4.41-2.51,0-2.79,1.96-6.19,4.38-7.59Z"/>
        <path class="cls-14" d="M126.74,67.44c1.68-.97,3.05-.19,3.05,1.74,0,1.93-1.35,4.28-3.03,5.25-1.68.97-3.05.19-3.05-1.74,0-1.93,1.35-4.28,3.03-5.25Z"/>
      </g>
      <g>
        <path class="cls-10" d="M121.08,74.33c.28-.26.39-.72.26-1.29-.26-1.15-1.39-2.35-2.51-2.69-.56-.17-1.01-.09-1.29.17l-5.43,4.8c.28-.26.73-.34,1.29-.17,1.12.34,2.24,1.54,2.51,2.69.13.58.02,1.03-.26,1.29l5.43-4.8Z"/>
        <path class="cls-8" d="M115.91,77.84c.26,1.15-.43,1.8-1.55,1.46-1.12-.34-2.24-1.54-2.51-2.69-.26-1.15.43-1.8,1.55-1.46,1.12.34,2.24,1.54,2.51,2.69Z"/>
      </g>
      <g>
        <path class="cls-10" d="M117.2,79.39c0,3.17-2.82,5.74-6.3,5.74s-6.3-2.57-6.3-5.74,2.82-5.74,6.3-5.74,6.3,2.57,6.3,5.74Z"/>
        <path class="cls-3" d="M113.94,75.29c.22,1.21-1.35,2.49-3.49,2.88-2.14.38-4.06-.28-4.27-1.49-.22-1.21,1.35-2.49,3.49-2.88,2.14-.38,4.06.28,4.27,1.49Z"/>
        <path class="cls-16" d="M112.7,74.82c.15.82-.91,1.69-2.37,1.95-1.45.26-2.75-.19-2.9-1.01s.91-1.69,2.37-1.95,2.75.19,2.9,1.01Z"/>
      </g>
    </g>
    <g>
      <path class="cls-3" d="M116.45,120.7l-2.02,1.17c-1.89,1.09-3.73.59-4.39-1.19l-3.93-10.66c-.87-2.37.65-5.93,3.16-7.38l6.48-3.74c2.51-1.45,4.74-.06,4.63,2.88l-.52,13.23c-.09,2.22-1.51,4.6-3.41,5.69Z"/>
      <path class="cls-14" d="M117.52,119.28l-1.48.85c-1.38.8-2.72.43-3.2-.87l-2.87-7.78c-.64-1.73.48-4.33,2.31-5.39l4.72-2.73c1.83-1.06,3.46-.04,3.38,2.1l-.38,9.65c-.06,1.62-1.1,3.36-2.48,4.15Z"/>
    </g>
    <g>
      <path class="cls-3" d="M84.84,120.7l2.02,1.17c1.89,1.09,3.73.59,4.39-1.19l3.93-10.66c.87-2.37-.65-5.93-3.16-7.38l-6.48-3.74c-2.51-1.45-4.74-.06-4.63,2.88l.52,13.23c.09,2.22,1.51,4.6,3.41,5.69Z"/>
      <path class="cls-17" d="M83.78,119.28l1.48.85c1.38.8,2.72.43,3.2-.87l2.87-7.78c.64-1.73-.48-4.33-2.31-5.39l-4.72-2.73c-1.83-1.06-3.46-.04-3.38,2.1l.38,9.65c.06,1.62,1.1,3.36,2.48,4.15Z"/>
    </g>
  </g>
  <g>
    <path class="cls-3" d="M61.6,149.37c-7.94,4.59-20.86,4.56-28.86-.05-7.99-4.62-8.03-12.07-.09-16.66,7.94-4.59,20.86-4.56,28.86.05,7.99,4.62,8.03,12.07.09,16.66Z"/>
    <path class="cls-13" d="M46.51,134.41c.02.69.16,1.37.43,2.01.46,1.09,1.9,1.02,2.82.61.76-.34,1.41-.89,2.17-1.23,1.18-.54,2.52-.56,3.81-.5,1.29.06,2.6.19,3.87-.06.56-.11,1.11-.3,1.63-.56.7-.36.78-1.1.31-1.72-.29-.38-.73-.63-1.16-.85-2.25-1.12-4.77-1.61-7.28-1.73-.74-.03-1.49-.04-2.22.1-.64.12-1.25.34-1.88.54-.33.1-.67.2-.99.34-.3.13-.5.35-.81.19-.46.66-.64,1.63-.68,2.41,0,.16-.01.31,0,.47Z"/>
    <path class="cls-17" d="M52.15,130.2c-.05-.27-.18-.56-.26-.77-.18-.44-2.03-7.59-2.29-10.79-.31-3.92-.41-8.1-1.63-11.87-.62-1.93-1.58-3.74-2.37-5.61-1.41-3.35-2.28-6.92-3.75-10.24.18.4-.6,1.83-.87,2.13-.58.64-1.1,1.09-1.55,1.89-.64,1.13-1.32,2.26-2.25,3.17s-2.14,1.59-3.44,1.65c.42,2.04,1.67,3.8,2.49,5.72.96,2.25,1.33,4.71,2.19,7,.43,1.15,1.01,2.22,1.58,3.29.07.84.53,1.54.78,2.44.88,3.11,2.09,6.12,3.41,9.08.75,1.67,1.53,3.33,2.31,4.99.07.14.14.33.27.43.16.13.42.15.61.16,1.66.13,3.36-.56,4.46-1.81.11-.12.21-.26.27-.41.04-.13.04-.28.01-.44Z"/>
    <path class="cls-2" d="M78.36,54.65c-.07-.02-.15-.01-.2-.06-.06-.05-.06-.13-.09-.2-.07-.19-.3-.25-.5-.29-.69-.13-1.38-.25-2.06-.38-.5-.09-1.02-.18-1.53-.21-.5-.03-.98.23-1.44.4-1.14.42-2.28.86-3.41,1.3-2.26.9-4.5,1.85-6.72,2.86-4.43,2.02-8.76,4.25-12.97,6.7-.32.18-.63.37-.94.55.77.57,1.52,1.31,1.83,2.22.29.87.98,1.55,1.72,2.09,5.44-2.68,10.61-5.92,15.4-9.64.22-.17.46-.38.69-.56.32-.23.4-.24.75-.17.72.16,1.4-.12,2-.51.6-.39,1.16-.86,1.85-1.06.43-.12.87-.12,1.31-.18.44-.06.89-.18,1.2-.5.03-.03.05-.06.07-.09.02-.06,0-.12-.03-.17-.15-.29-.54-.33-.86-.35-.4-.02-.8-.03-1.2-.05-.02-.18.13-.35.29-.44s.35-.11.53-.17c.41-.12.78-.39,1.2-.47.94-.19,1.89.54,2.81.3.22-.06.44-.18.53-.39.09-.21,0-.5-.23-.56Z"/>
    <path class="cls-4" d="M31.62,145.32c.29.73.76,1.18,1.55,1.43,1.24.39,2.31,1.19,3.31,2.03.8.67,1.59,1.39,2.56,1.77.58.23,1.2.33,1.82.4,1.01.12,2.03.16,3.03.04.69-.08,1.39-.26,1.93-.69.5-.4.75-1.06.61-1.7-.13-.57-.59-.9-1-1.29-.43-.42-6.81-5.22-7.95-6.13-.56-.44-1.09-.96-1.74-1.26-.31-.14-.67-.25-1.01-.19-.32.06-.63-.28-.81-.52-.03-.04-.57.75-.8.51-.81.69-1.42,1.91-1.66,2.93-.2.83-.18,1.72.11,2.52.02.05.04.1.06.15Z"/>
    <path class="cls-5" d="M41.5,87.59c-.81-.28-1.68-.86-2.47-1.24-1.96-.97-3.8-2.22-5.91-2.87-5.63-1.73-7.63,5.29-8.85,9.39-.49,1.66-.87,3.4-.62,5.12.18,1.22.68,2.38,1.17,3.52,1.65,3.81,3.31,7.62,5.18,11.32.92,1.83,1.84,3.72,2.95,5.44.93,1.44,0,3.33-.5,4.78-.32.97-.64,1.95-.85,2.96-.27,1.36-.33,2.75-.32,4.13,0,1.9.13,3.8.25,5.7.11,1.76.23,3.52.34,5.28,0,.11.02.23.08.33.07.11.2.18.32.23,1.83.79,3.97.8,5.81.02-.05-1.85-.11-3.7.05-5.55.16-1.92,1.94-10.71,3.27-12.87.51-.83,1.02-1.44,1.15-2.43.41-3.18-.64-6.52-1.23-9.63-.64-3.4-1.29-6.81-1.94-10.21-.08-.4-.15-.8-.14-1.2.03-.96.81-1.87,1.25-2.7.6-1.14,1.19-2.3,1.73-3.47.51-1.11.98-2.23,1.39-3.38.13-.36.77-2.82,1.21-2.87-.97.09-2.38.5-3.32.18Z"/>
    <path class="cls-13" d="M51.92,62.93c-.59-1.41-1.47-2.7-2.67-3.66-.55-.44-.89-.75-1.62-.74-.78.01-1.57.26-2.26.62-1.93.99-3.53,2.85-4.89,4.51-1.29,1.57-2.43,3.25-3.54,4.94-3.68,5.62-7.09,11.43-10.2,17.39-.22.42-.45.87-.45,1.35,0,.66.41,1.24.84,1.74,3.16,3.67,8.16,5.69,12.99,5.22.64-.06,1.28-.17,1.84-.49.54-.31.95-.8,1.35-1.29,2.84-3.43,5.69-6.88,8-10.7.62-1.03,1.21-2.09,1.59-3.24.32-.97.5-1.98.6-3,.23-2.42.01-4.87-.31-7.28-.25-1.83-.56-3.68-1.27-5.38Z"/>
    <path class="cls-12" d="M64.04,57.54c.06.27.13.56.07.83-.07.33-.31.6-.54.86-.05.06-.1.12-.12.2-.02.09.02.17.05.25.25.51.72.9.89,1.44.01.05.03.1.01.14-.02.06-.08.09-.13.13-.85.49-1.78.92-2.39,1.7-.26.34-.45.72-.68,1.08-.28.42-.62.8-1,1.13-.21.17-.43.33-.69.42-.6.2-1.24-.04-1.86-.15-.88-.15-1.76-.09-2.53-.63-.17-.12-.3-.35-.55-.26-.15.05-.26.18-.36.31-.38.47-.77.95-1.15,1.42-.28.34-.64.57-1.11.56-.28,0-.55-.08-.81-.17-1.18-.39-2.32-.97-3.17-1.87-.69-.74-1.5-2.15-1.19-3.21.06-.21.23-.36.36-.53.2-.26.38-.53.56-.8.35-.53.67-1.08.96-1.65.1-.19.19-.38.24-.59.05-.2.06-.41.08-.62.07-.96.21-2.14.66-3,.18-.35.37-.67.54-1.03.19-.4.43-.79.73-1.12.66-.72,1.59-1.13,2.51-1.47,1.05-.39,2.14-.73,3.26-.72.84,0,1.67.2,2.48.44,1.07.32,2.13.74,3,1.44.61.49,1.53,1.4,1.54,2.24.01,1.1.09,2.16.33,3.25Z"/>
    <path class="cls-17" d="M50.63,50.52c-2,1.92-3.3,4.5-4.3,7.11-.04.11-.09.23-.08.35,0,.14.09.27.16.38,1.38,2.12,3.12,4,5.12,5.53,1.21.93,2.58,1.76,4.1,1.91.5.05,1.12-.07,1.26-.55.13-.47-.33-.91-.21-1.36.1-.42.65-.97.92-1.31.76-.96,1.65-1.81,2.52-2.67,1.34-1.33,2.7-2.81,3.21-4.67.47-1.73-.43-3.79-1.65-5.04-.96-.97-2.22-1.63-3.55-1.97-.83-.21-1.7-.31-2.56-.23-1.61.16-3.11.94-4.35,1.98-.2.17-.4.34-.58.52Z"/>
    <g>
      <path class="cls-6" d="M91.71,75.83c-.9-2.07-3.24-4.63-5.23-5.71-1.01-.55-1.73-.61-2.08-.28h0s-5.57,3.18-5.57,3.18l7.22,8.19,5.57-3.2s.05-.03.08-.04l.03-.02h0c.42-.3.45-1.03-.03-2.12Z"/>
      <path class="cls-9" d="M86.1,79.05c.9,2.07.01,2.87-1.98,1.79-1.99-1.08-4.33-3.64-5.23-5.71-.9-2.07-.01-2.87,1.98-1.79,1.99,1.08,4.33,3.64,5.23,5.71Z"/>
    </g>
    <path class="cls-2" d="M85.76,77.93c.27-.23.4-.62.32-.98-.02-.09-.05-.17-.13-.23-.13-.09-.3-.04-.45,0-.94.34-1.88.68-2.82,1.02-.49.18-1.03.36-1.51.16,1.05-.65,2.48-.75,3.25-1.72.18-.23.31-.51.29-.8,0-.05-.02-.11-.06-.15-.05-.04-.13-.04-.19-.03-1.74.26-3.33,1.49-5.09,1.3-.07,0-.15-.02-.2-.07-.1-.1-.04-.28.04-.4.41-.67,1.05-1.15,1.59-1.72.23-.24.45-.51.55-.82.07-.22.08-.47-.02-.67-.11-.2-.36-.34-.58-.26-.25.09-.35.38-.52.59-.15.17-.35.28-.54.39-1.04.58-1.97,1.36-2.74,2.26-.61.72-1.03,1.88-1.89,2.33-.36.19-14.73,5.13-14.82,5.17-1.12-.96-5.66-5.2-6.77-6.4-.92-.99-1.98-1.98-3.31-2.23-.91-.17-1.85.02-2.72.35-.69.26-1.36.62-1.84,1.17-.97,1.09-.67,2.51.06,3.66.39.62.98,1.17,1.46,1.72.72.84,1.44,1.69,2.27,2.43,1.52,1.36,3.36,2.33,5.1,3.3,1.41.78,3,1.1,4.61,1.19,1.68.1,3.43-.53,5-1.06,1.69-.57,11.74-5.41,12.68-5.48,1.45-.11,2.91-.12,4.33.18.57.12,1.16.29,1.71.12.28-.09.53-.26.76-.44.38-.29.74-.62,1.07-.97.23-.25.47-.56.41-.9,0-.04-.02-.08-.06-.11-.06-.03-.12,0-.18.05-.67.53-1.37,1.16-2.23,1.19-.13,0-.31-.05-.29-.18.01-.09.11-.14.2-.17.32-.1.66-.18.98-.3.8-.31,1.45-.91,2.07-1.5.15-.14.3-.29.37-.48.07-.19.02-.45-.16-.54Z"/>
    <path class="cls-4" d="M43.62,70.54c0,.05-.02.1-.03.15-.23,1.3-.2,2.62-.1,3.93.16,2.06.52,4.1,1.15,6.07.16.49.3,1.58.87,1.76.74.24,1.91-.27,2.58-.56,1.09-.46,2.11-1.08,3.11-1.71,1.28-.8,2.59-1.64,3.46-2.87.06-.09.12-.18.13-.29,0-.1-.05-.18-.09-.27-.36-.65-.73-1.28-1.07-1.94-.63-1.21-1.39-2.34-2.14-3.48-.67-1.01-1.34-2.02-2.18-2.89-.49-.51-1.06-.99-1.72-1.24-1.11-.43-2.31-.37-3.03.64-.56.78-.77,1.77-.95,2.69Z"/>
  </g>
</svg>