<?xml version="1.0" encoding="UTF-8"?>
<svg id="Layer" xmlns="http://www.w3.org/2000/svg" viewBox="0 0 157.04 169.78">
  <defs>
    <style>
      .cls-1 {
        fill: #ffaf80;
      }

      .cls-1, .cls-2, .cls-3, .cls-4, .cls-5, .cls-6, .cls-7, .cls-8, .cls-9, .cls-10, .cls-11, .cls-12, .cls-13, .cls-14, .cls-15 {
        stroke-width: 0px;
      }

      .cls-2 {
        fill: #75a7ff;
      }

      .cls-3 {
        fill: #f2f2f2;
      }

      .cls-4 {
        fill: #adb0ff;
      }

      .cls-5 {
        fill: #616161;
      }

      .cls-6 {
        fill: #ffd557;
      }

      .cls-7 {
        fill: #c4c4c4;
      }

      .cls-16 {
        isolation: isolate;
      }

      .cls-8 {
        fill: #fffeb8;
      }

      .cls-9 {
        fill: #d9d9d9;
      }

      .cls-10 {
        fill: #b8d2ff;
      }

      .cls-11 {
        fill: #ffc7a6;
      }

      .cls-12 {
        fill: #99beff;
      }

      .cls-13 {
        fill: #8f93ff;
      }

      .cls-14 {
        fill: #4085ff;
      }

      .cls-15 {
        fill: #4d4d4d;
      }
    </style>
  </defs>
  <g>
    <path class="cls-1" d="M51.75,58.97c-.55-.55-1.39-.67-2.11-.44-.91.29-1.8.65-2.71.93-1.95.61-9.38,2.04-10.01,1.8-.21-.08-.39-.27-.57-.4-.63-.44-1.29-.84-2-1.12-.36-.14-.73-.25-1.1-.35-.31-.08-.57-.22-.91-.24-.36-.02-.73.06-1.08.15-.65.16-1.28.36-1.91.58-.46.17-.93.35-1.34.62-.26.17-.52.43-.49.74,0,.07.02.13.02.2,0,.07-.05.14-.09.2-.11.17-.2.34-.22.54-.02.19.04.41.2.52.05.04.12.07.15.13.02.06,0,.12-.01.19-.06.28.12.58.4.66-.06.13-.02.29.07.4.09.11.22.18.35.23.49.18,1.02.15,1.53.17,1.19.06,2.33.42,3.49.63.58.1,1.16.17,1.75.15.26-.01.52-.08.79-.09.49-.02.94.23,1.41.31,2.9.52,5.87.35,8.8.05,1.09-.11,2.18-.24,3.25-.46.44-.09.88-.2,1.25-.44.65-.4,1.04-1.12,1.32-1.83.25-.63.45-1.29.46-1.97,0-.68-.21-1.38-.68-1.86Z"/>
    <g>
      <g class="cls-16">
        <path class="cls-14" d="M31.3,67.3c-1.25.73-3.29.73-4.55,0-.63-.37-.95-.85-.95-1.33v.28c0,.48.31.96.95,1.33,1.26.73,3.3.73,4.55,0,.62-.36.93-.83.94-1.31v-.28c0,.47-.31.95-.93,1.31Z"/>
        <path class="cls-10" d="M31.29,64.67c1.26.73,1.27,1.91.01,2.64-1.25.73-3.29.73-4.55,0-1.26-.73-1.27-1.91-.02-2.64,1.25-.73,3.29-.73,4.55,0Z"/>
      </g>
      <path class="cls-14" d="M30.06,65.82s-.02-.03-.03-.04c-.05-.07-.12-.13-.19-.18-.07-.05-.15-.1-.21-.15-.07-.06-.1-.15-.1-.24l.09-1.45c0-.06.02-.11.06-.15l.15-.2c.15-.2.24-.45.24-.71v-.06c0-.26-.11-.49-.27-.69-.04-.05-.06-.11-.06-.18v-.75c0-.14-.11-.26-.25-.28l-.47-.06-.47.06c-.14.02-.25.14-.25.28v.75c0,.07-.03.14-.07.19-.17.19-.27.44-.27.7v.04c0,.26.08.5.24.71l.15.2s.05.1.06.15l.09,1.45c0,.15-.12.26-.23.34-.11.08-.23.15-.3.27-.06.1-.06.24-.01.34.06.13.17.22.29.29.43.25,1.12.25,1.55,0,.22-.13.41-.38.27-.63Z"/>
      <g>
        <path class="cls-12" d="M33.65,56.37l-4.19.14-5.08-.33c.19,2.53,1.61,3.82,2.34,4.33.07.05.15.11.24.16.02,0,.04.02.05.03.1.05.15.08.15.08h0c1.11.53,2.74.52,3.82-.05.48-.23,2.43-1.34,2.66-4.36Z"/>
        <path class="cls-14" d="M30.63,57.83c-.97-.4-2.28-.41-3.24,0l-2.2-.39c.24,1.48,1.46,2.53,1.46,2.53h0c.11.1.25.2.4.29,1.09.63,2.85.63,3.94,0,.16-.09.3-.19.41-.3h0s1.22-1.05,1.46-2.53l-2.23.39Z"/>
        <path class="cls-10" d="M32.31,58.08c-1.81,1.04-4.74,1.04-6.56-.01-1.82-1.05-1.83-2.75-.02-3.79,1.81-1.04,4.74-1.04,6.56.01s1.83,2.75.02,3.79Z"/>
        <path class="cls-12" d="M32.74,57.79c-.13.1-.28.2-.43.29-1.81,1.04-4.74,1.04-6.56-.01-.17-.1-.32-.2-.46-.3-.09-.21-.13-.43-.12-.64.21.28.5.54.89.76,1.64.95,4.29.95,5.92.01.38-.22.67-.47.88-.74.01.21-.03.43-.12.64Z"/>
        <path class="cls-12" d="M31.99,57.9c-1.63.94-4.28.94-5.92-.01-1.64-.95-1.65-2.48-.02-3.42,1.63-.94,4.28-.94,5.92.01,1.64.95,1.65,2.48.02,3.42Z"/>
        <path class="cls-2" d="M32.74,57.79c-.16.37-.5.72-1,1.01-1.5.87-3.93.86-5.44,0-.51-.29-.85-.65-1.01-1.02.14.11.29.21.46.3,1.82,1.05,4.75,1.05,6.56.01.16-.09.3-.19.43-.29Z"/>
        <path class="cls-8" d="M32.86,57.15c-.2.27-.49.52-.88.74-1.63.94-4.28.94-5.92-.01-.39-.23-.69-.48-.89-.76.04-.54.41-1.07,1.12-1.48,1.5-.86,3.93-.86,5.44,0,.72.42,1.1.95,1.13,1.49Z"/>
      </g>
      <path class="cls-6" d="M27.78,55.55c.67.03,1.35.13,1.95.42.42.2.79.5,1.06.88.12.18.25.4.3.62.05.23-.15.38-.32.5-.06.04-.13.09-.21.08-.06,0-.11-.05-.15-.08-1.01-.84-2.19-1.47-3.44-1.85-.02,0-.05-.02-.06-.04,0-.02.01-.04.03-.06.26-.3.42-.48.84-.46Z"/>
    </g>
    <path class="cls-3" d="M69.47,128.14c8.46,4.89,8.51,12.81.1,17.69-8.41,4.89-22.08,4.89-30.55,0-8.46-4.89-8.51-12.81-.1-17.69,8.41-4.89,22.08-4.89,30.55,0Z"/>
    <path class="cls-13" d="M44.07,130.71c-.91.59-1.81,1.2-2.68,1.86-1.34,1-2.98,2.38-3.06,4.19-.03.8.26,1.58.97,2.01.53.32,1.16.44,1.78.42,1.52-.03,2.91-.81,4.18-1.64,1.27-.83,2.53-1.75,4-2.13.57-.15,1.17-.21,1.74-.36,1.08-.27,2.16-.91,2.57-1.95.23-.58.22-1.23.17-1.85-.05-.65-.16-1.31-.41-1.92-.15-.38-.59-1.45-1.13-1.28-.24.07-.55.24-.8.22-.24-.02-.43-.19-.69-.19-.2.02-.39.11-.58.18-.59.21-1.3.31-1.7-.21-.63.28-1.22.71-1.81,1.07-.6.36-1.21.73-1.8,1.1-.26.16-.51.32-.76.49Z"/>
    <path class="cls-15" d="M57.59,81.48c-.01-.28-.03-.56-.16-.8-.18-.33-.54-.52-.85-.73-1.8-1.24-2.29-3.79-4.03-5.11-.73-.56-1.63-.85-2.54-1.02-1.35-.26-3.35-.27-4.05,1.15-.94,1.91-1.15,4.09-1.31,6.22-.57,7.43-.59,14.82-.61,22.26,0,2.68.53,5.28.84,7.93.33,2.79.69,5.57,1,8.36.22,1.93.41,3.86.54,5.8.07.97.12,1.94.15,2.91.03.92-.08,1.22.8,1.66,1.95.98,4.45.74,6.18-.58.08-.06.03-.76.03-.88.02-.35.04-.7.06-1.05.04-.67.09-1.34.14-2.01.13-1.63.25-3.26.36-4.89.1-1.59.42-3.36.25-4.95-.31-2.91-1.16-5.78-1.66-8.67-.16-.9.21-1.96.38-2.85.22-1.15,2.61-10.58,3.42-14.18.64-2.81,1.18-5.68,1.06-8.56Z"/>
    <path class="cls-4" d="M45.9,50.36c-.07.25-.09.49,0,.7.52,1.18,1.59,2.11,2.84,2.44.54-1.64,1.26-3.21,2.16-4.68.58-.95,1.24-1.87,1.66-2.91.21-.51.22-1.09.41-1.6.25-.65.6-1.27,1.02-1.83-1.26.03-2.45.58-3.46,1.33-1.14.85-2.07,1.95-2.83,3.15-.43.67-.8,1.37-1.15,2.08-.17.35-.5.85-.64,1.32Z"/>
    <path class="cls-4" d="M58.69,141.69c-.03.42-.05.85-.05,1.27,0,.89.02,1.96.85,2.49.51.33,1.16.4,1.76.31,1.39-.21,2.56-1.22,3.25-2.44.69-1.22.96-2.63,1.09-4.03.09-.91.12-1.83.36-2.71.14-.51.35-1,.49-1.51.35-1.27.27-2.65-.22-3.86.05.12-.22.4-.32.43-.22.07-.3-.11-.45-.24-.33-.29-.77-.41-1.14-.63-.49-.29-.83-.61-1.45-.44-.66.18-1.09.82-1.42,1.42-.23.43-.48.8-.58,1.27-.11.54-.26,1.08-.43,1.61-.33,1.06-.73,2.11-1.04,3.18-.36,1.26-.59,2.56-.68,3.87Z"/>
    <path class="cls-5" d="M66.74,117.19c-.59-2.33-1.18-4.61-1.16-7.04.03-3.08,1.25-6.01,2.01-9,.73-2.87,1.1-5.72,1.2-8.7.17-5.1-.29-10.42-2.88-14.82-.46-.78-.99-1.54-1.71-2.09-.98-.75-2.11-.96-3.23-.48-2.1.9-4.37,1.39-6.66,1.44-.92.02-2.36.16-3.2-.26-.36-.18-1.74-1.41-1.7-1.81-.31,2.84-.17,5.74.4,8.54.25,1.19.47,3.05,1.17,4.06.63.92,2.26,1.38,3.23,1.83.17.08.35.17.46.33.11.15.13.35.15.53.19,1.67.37,3.35.56,5.02.45,4.08.91,8.17,1.36,12.25.2,1.81.22,3.6.63,5.37.44,1.9,1.02,3.77,1.46,5.68.43,1.86,1.74,14.04,1.7,14.85-.01.25-.02.52.11.73.13.21.37.31.61.39,1.77.6,3.84.25,5.31-.9.05-.04.1-.08.12-.14.02-.05.02-.11.02-.17-.04-.91.95-10.36.61-12.85-.13-.94-.36-1.86-.59-2.77Z"/>
    <path class="cls-13" d="M66.61,59.17c.37-1.49.79-2.98,1.36-4.41.26-.66.57-1.14,1.13-1.59.13-.1,1.51-1.03,1.61-.86-1.26-2.14-3.1-3.89-5.04-5.45-2.88-2.34-6.05-4.39-9.59-5.49-.88-.27-1.88-.5-2.78-.19-.89.31-1.06,1.15-1.48,1.92-.41.74-.81,1.49-1.22,2.23-.69,1.27-1.39,2.54-2.08,3.81-1.38,2.53-2.76,5.05-4.14,7.58-.5.92-1.13,1.83-1.06,2.91.07.98.42,1.94,1.03,2.71.12.15.24.3.31.47.06.16.06.33.06.5,0,3.21,0,12.82,0,14.42,0,1.52-.25,2.96.71,4.24.82,1.11,1.98,1.94,3.24,2.49,1.59.7,3.34.96,5.07,1.04,3.64.17,7.31-.45,10.69-1.79.85-.34,1.69-.72,2.5-1.15.83-.44.94-.59.88-1.51-.13-1.99-.37-3.96-.67-5.92-.78-5.29-1.82-10.69-.53-15.97Z"/>
    <path class="cls-1" d="M53.63,45.94s0,.03,0,.05c-.04.38-.22.63-.12,1.04.09.39.32.75.66.97.32.21.69.29,1.07.35,1.34.19,2.71.02,4.01-.36,1.13-.33,2.24-.83,3.06-1.68.24-.25.58-.72.43-1.1-.14-.34-.66-.59-.9-.88-.58-.7-.9-1.58-1.1-2.46-.26-1.15-.36-2.34-.75-3.45-.07,1.09-.89,1.96-1.72,2.66-.98.84-2.11,1.64-3.4,1.74-.37.03-.74,0-1.09.11.06.99-.03,2.03-.13,3.02Z"/>
    <path class="cls-15" d="M49.19,30.77c-.1.31-.17.63-.22.95-.07.47-.09.97-.06,1.45.03.56.14,1.09.02,1.65-.21.96-.94,1.61-1.18,2.55-.23.92-.17,1.92.19,2.8.21.51.61.36,1.07.26.51-.12.99-.31,1.47-.52.82-.36,1.63-.75,2.39-1.22.39-.24.76-.49,1.12-.78.21-.17.59-.36.67-.64.09-.33-.1-.9-.15-1.23-.14-.9-.29-1.79-.46-2.69-.05-.26-.1-.52-.15-.78-.11-.55-.23-1.11-.34-1.66-.17-.87-.07-1.71.18-2.56.12-.4.27-.78.47-1.15.09-.18.19-.35.3-.52.05-.08.23-.44.33-.46-1.09.23-2.1.73-3.03,1.35-.62.41-1.21.88-1.68,1.46-.42.52-.73,1.11-.94,1.74Z"/>
    <path class="cls-11" d="M59.08,42.32c.36-.31.63-.71.77-1.16.12-.4.14-.63.57-.83,1.62-.73,2.59-2.49,2.8-4.26s-.22-3.54-.75-5.23c-.2-.63-.41-1.26-.78-1.8-.55-.81-1.42-1.37-2.35-1.68-.93-.31-1.93-.37-2.91-.34-1.69.06-3.45.44-4.75,1.52-1.65,1.37-2.57,3.51-2.57,5.64,0,1.53.43,3.14-.16,4.56-.12.28-.27.55-.29.84-.02.3.16.64.46.67.11.01.22-.02.32.02.15.06.21.23.25.38.32,1.07.71,2.11,1.17,3.13.13.28.26.56.49.77.32.29.78.38,1.21.35.43-.03.84-.19,1.24-.33,1.09-.4,2.18-.81,3.27-1.21.71-.26,1.44-.54,2.02-1.03Z"/>
    <path class="cls-15" d="M53.13,32.06c.99.52,2.03.98,2.94,1.63.92.65,1.73,1.51,2.08,2.58.27.82.33,1.85,1.08,2.29.22-.88.79-1.67,1.54-2.17.34-.23.82-.39,1.14-.13.56.44.05,1.31-.3,1.71-.61.69-1.35,1.26-1.88,2.01-.86,1.23-1.05,2.89-.48,4.28.21.51.61.36,1.07.26.51-.12.99-.31,1.47-.52.82-.36,1.63-.75,2.39-1.22.39-.24.76-.49,1.12-.77.21-.17.59-.36.67-.64.09-.33-.1-.9-.15-1.24-.14-.9-.29-1.79-.46-2.69-.05-.26-.1-.52-.15-.78-.62-3.1-1.19-6.63-3.69-8.83-1.32-1.17-3.08-1.8-4.83-1.81-.89,0-1.63.09-2.47.41-.89.34-1.76.78-2.51,1.38-1.34,1.05-2.64,2.79-2.42,4.6.21-.51.51-.99.96-1.3.43-.3,1.3-.55,1.65-.03.31.47.75.74,1.24.99Z"/>
    <path class="cls-1" d="M56.27,70.24c-.41-.14-.83-.28-1.24-.43-.03-.01-.06-.02-.1-.02-.04,0-.09.03-.12.05-.73.43-1.53.81-2.38.76-.31-.02-.59-.07-.82.2-.19.21-.27.45-.07.68.17.2.42.31.68.35.26.04.52.02.78,0,.47-.04.93-.08,1.4-.08.35,0,.71.04,1.06,0,.35-.03.71-.12.99-.34.22-.18.38-.44.41-.72.03-.33-.32-.37-.58-.46Z"/>
    <g>
      <g class="cls-16">
        <path class="cls-14" d="M55.29,77.08c-1.25.73-3.29.73-4.55,0-.63-.37-.95-.85-.95-1.33v.28c0,.48.31.96.95,1.33,1.26.73,3.3.73,4.55,0,.62-.36.93-.83.94-1.31v-.28c0,.47-.31.95-.93,1.31Z"/>
        <path class="cls-10" d="M55.28,74.44c1.26.73,1.27,1.91.01,2.64-1.25.73-3.29.73-4.55,0-1.26-.73-1.27-1.91-.02-2.64,1.25-.73,3.29-.73,4.55,0Z"/>
      </g>
      <path class="cls-14" d="M54.05,75.59s-.02-.03-.03-.04c-.05-.07-.12-.13-.19-.18-.07-.05-.15-.1-.21-.15-.07-.06-.1-.15-.1-.24l.09-1.45c0-.06.02-.11.06-.15l.15-.2c.15-.2.24-.45.24-.71v-.06c0-.26-.11-.49-.27-.69-.04-.05-.06-.11-.06-.18v-.75c0-.14-.11-.26-.25-.28l-.47-.06-.47.06c-.14.02-.25.14-.25.28v.75c0,.07-.02.14-.07.19-.17.19-.27.44-.27.7v.04c0,.26.08.5.24.71l.15.2s.05.1.06.15l.09,1.45c0,.15-.12.26-.23.34-.11.08-.23.16-.3.27-.06.1-.06.24-.01.34.06.13.17.22.29.29.43.25,1.12.25,1.55,0,.22-.13.41-.38.27-.63Z"/>
      <g>
        <path class="cls-12" d="M57.64,66.14l-4.19.14-5.08-.33c.19,2.53,1.61,3.82,2.34,4.33.07.05.15.11.24.16.02,0,.04.02.05.03.1.05.15.08.15.08h0c1.11.53,2.74.52,3.82-.05.48-.23,2.43-1.34,2.66-4.36Z"/>
        <path class="cls-14" d="M54.62,67.6c-.97-.4-2.28-.41-3.24,0l-2.2-.39c.24,1.48,1.46,2.53,1.46,2.53h0c.11.1.25.2.4.29,1.09.63,2.85.63,3.94,0,.16-.09.3-.19.41-.3h0s1.22-1.05,1.46-2.53l-2.23.39Z"/>
        <path class="cls-10" d="M56.3,67.85c-1.81,1.04-4.74,1.04-6.56-.01s-1.83-2.75-.02-3.79,4.74-1.04,6.56.01c1.82,1.05,1.83,2.75.02,3.79Z"/>
        <path class="cls-12" d="M56.74,67.57c-.13.1-.28.2-.43.29-1.81,1.04-4.74,1.04-6.56-.01-.17-.1-.32-.2-.46-.3-.09-.21-.13-.43-.12-.64.21.28.5.54.89.76,1.64.95,4.29.95,5.92.01.38-.22.67-.47.88-.74.01.21-.03.43-.12.64Z"/>
        <path class="cls-12" d="M55.98,67.67c-1.63.94-4.28.94-5.92-.01-1.64-.95-1.65-2.48-.02-3.42,1.63-.94,4.28-.94,5.92.01,1.64.95,1.65,2.48.02,3.42Z"/>
        <path class="cls-2" d="M56.74,67.57c-.16.37-.5.72-1,1.01-1.5.87-3.93.86-5.44,0-.51-.29-.85-.65-1.01-1.02.14.11.29.21.46.3,1.82,1.05,4.75,1.05,6.56.01.16-.09.3-.19.43-.29Z"/>
        <path class="cls-8" d="M56.86,66.92c-.2.27-.49.52-.88.74-1.63.94-4.28.94-5.92-.01-.39-.23-.69-.48-.89-.76.04-.54.41-1.07,1.12-1.48,1.5-.86,3.93-.86,5.44,0,.72.42,1.1.95,1.13,1.49Z"/>
      </g>
      <path class="cls-6" d="M51.78,65.33c.67.03,1.35.13,1.95.42.42.2.79.5,1.06.88.12.18.25.4.3.62.05.23-.15.38-.32.5-.06.04-.13.09-.21.08-.06,0-.11-.05-.15-.09-1.01-.84-2.19-1.47-3.44-1.85-.02,0-.05-.02-.06-.04,0-.02.01-.04.03-.06.26-.3.42-.48.84-.46Z"/>
    </g>
    <path class="cls-11" d="M72.23,59.38c-.15-.64-.34-1.29-.73-1.81-.82-1.1-2.35-1.43-3.71-1.27-.55.06-1.1.2-1.55.53-.33.24-.58.58-.79.93-.41.69-.68,1.47-.78,2.27-.09.8.11,1.51.18,2.3.07.78.37,1.52.54,2.29.2.9.72,4.78.88,5.8-.21.06-.42.11-.63.17-.56.14-5.87.73-6.39.71-.09,0-.22-.02-.36-.04.02-.21.08-.43.03-.64-.08-.33-.41-.55-.74-.6-.33-.05-.67.02-1,.09-.43.09-.87.18-1.31.26-.78.14-1.56.25-2.34.34-.51.06-1.18,0-1.08.71-.21.02-.4.15-.46.36-.05.2.02.43.17.58.04.04.08.08.09.13,0,.04-.02.08-.04.12-.12.26,0,.61.26.73.12.06.27.08.34.2.03.05.04.1.05.15.11.43.57.67.97.85.7.33,1.38.68,2.04,1.08.18.11.37.22.57.29.38.14.82.12,1.19-.06.15-.07.28-.17.4-.28.51.22,1.05.36,1.58.48,3.28.74,6.77,1.09,9.96.05,1.01-.33,1.91-.84,2.3-1.85.47-1.21.63-2.51.76-3.78.39-3.75.45-7.42-.4-11.09Z"/>
    <path class="cls-4" d="M64.18,55.46c-.41,2.04-.22,4.15.09,6.21.14.95.3,1.89.56,2.81.01.04.03.09.06.12.04.03.1.03.16.03.55-.01,1.11-.02,1.66-.1,1.55-.2,3-.86,4.33-1.68.46-.29.92-.6,1.31-.98.53-.51.81-.86.63-1.61-.38-1.6-.75-3.2-1.13-4.79-.23-1-.47-2-.94-2.91-.42-.82-1.06-1.57-1.9-1.97-.84-.4-1.98.02-2.62.63-.64.61-1.15,1.37-1.53,2.17-.31.66-.53,1.36-.68,2.07Z"/>
    <path class="cls-11" d="M29.45,61.95c.13.04.27.04.41.04.28,0,.55-.03.83-.06.34-.04.68-.09,1.02-.05.82.11,1.47.77,2.27,1,.18.05.36.08.54.04.15-.03.3-.12.41-.22.43-.39.51-1.06.35-1.62-.09-.29-.24-.57-.48-.75-.21-.16-.48-.23-.75-.25s-.54.01-.8.05c-.42.05-.84.1-1.26.16-.69.09-1.38.17-2.06.33-.28.07-.69.22-.84.5-.17.31.06.73.38.84Z"/>
  </g>
  <g>
    <g>
      <path class="cls-3" d="M126.7,106.88c11.15,6.43,11.2,16.87.13,23.3-11.07,6.43-29.08,6.44-40.23,0-11.15-6.43-11.2-16.87-.13-23.3,11.07-6.44,29.08-6.44,40.23,0Z"/>
      <path class="cls-15" d="M107.72,130.44h0c-.63,0-1.14-.5-1.17-1.12l-1.27-43.99h4.88l-1.27,43.99c-.03.63-.54,1.12-1.17,1.12Z"/>
      <path class="cls-15" d="M125.15,118.98l-5.64-36.34,4.65-1.38,3.31,37.3c.08.62-.34,1.19-.95,1.3h-.02c-.61.12-1.21-.27-1.35-.88Z"/>
      <path class="cls-15" d="M87.06,118.51h-.04c-.61-.11-1.03-.69-.96-1.31l3.1-36.56,5.04.94-5.81,36.05c-.15.6-.73.98-1.34.87Z"/>
      <g class="cls-16">
        <path class="cls-7" d="M125.3,88.83c-10.23,5.95-26.88,5.95-37.18,0-5.18-2.99-7.77-6.92-7.76-10.84v4.06c-.02,3.92,2.57,7.85,7.75,10.84,10.3,5.95,26.95,5.95,37.18,0,5.09-2.96,7.63-6.82,7.64-10.7v-4.06c0,3.87-2.55,7.74-7.63,10.7Z"/>
        <path class="cls-3" d="M125.18,67.29c10.3,5.95,10.35,15.59.12,21.54-10.23,5.95-26.88,5.95-37.18,0-10.3-5.95-10.36-15.59-.12-21.54,10.24-5.95,26.88-5.95,37.19,0Z"/>
      </g>
    </g>
    <g>
      <g class="cls-16">
        <path class="cls-9" d="M114.8,66.98c1.64.95,1.65,2.49.02,3.44-1.63.95-4.29.95-5.93,0-1.64-.95-1.65-2.49-.02-3.44,1.63-.95,4.29-.95,5.93,0Z"/>
        <path class="cls-14" d="M114.13,69.45c-1.25.73-3.29.73-4.55,0-.63-.37-.95-.85-.95-1.33v.28c0,.48.31.96.95,1.33,1.26.73,3.3.73,4.55,0,.62-.36.93-.83.94-1.31v-.28c0,.47-.31.95-.93,1.31Z"/>
        <path class="cls-10" d="M114.12,66.82c1.26.73,1.27,1.91.01,2.64-1.25.73-3.29.73-4.55,0-1.26-.73-1.27-1.91-.02-2.64,1.25-.73,3.29-.73,4.55,0Z"/>
      </g>
      <path class="cls-14" d="M112.89,67.97s-.02-.03-.03-.04c-.05-.07-.12-.13-.19-.18-.07-.05-.15-.1-.21-.15-.07-.06-.1-.15-.1-.24l.09-1.45c0-.06.02-.11.06-.15l.15-.2c.15-.2.24-.45.24-.71v-.06c0-.26-.11-.49-.27-.69-.04-.05-.06-.11-.06-.18v-.75c0-.14-.11-.26-.25-.28l-.47-.06-.47.06c-.14.02-.25.14-.25.28v.75c0,.07-.02.14-.07.19-.17.19-.27.44-.27.7v.04c0,.26.08.5.24.71l.15.2s.05.1.06.15l.09,1.45c0,.15-.12.26-.23.34-.11.08-.23.15-.3.27-.06.1-.06.24-.01.34.06.13.17.22.29.29.43.25,1.12.25,1.55,0,.22-.13.41-.38.27-.63Z"/>
      <g>
        <path class="cls-12" d="M116.48,58.52l-4.19.14-5.08-.33c.19,2.53,1.61,3.82,2.34,4.33.07.05.15.11.24.16.02,0,.04.02.05.03.1.05.15.08.15.08h0c1.11.53,2.74.52,3.82-.05.48-.23,2.43-1.34,2.66-4.36Z"/>
        <path class="cls-14" d="M113.46,59.98c-.97-.4-2.28-.41-3.24,0l-2.2-.39c.24,1.48,1.46,2.53,1.46,2.53h0c.11.1.25.2.4.29,1.09.63,2.85.63,3.94,0,.16-.09.3-.19.41-.3h0s1.22-1.05,1.46-2.53l-2.23.39Z"/>
        <path class="cls-10" d="M115.14,60.23c-1.81,1.04-4.74,1.04-6.56-.01s-1.83-2.75-.02-3.79c1.81-1.04,4.74-1.04,6.56.01,1.82,1.05,1.83,2.75.02,3.79Z"/>
        <path class="cls-12" d="M115.57,59.94c-.13.1-.28.2-.43.29-1.81,1.04-4.74,1.04-6.56-.01-.17-.1-.32-.2-.46-.3-.09-.21-.13-.43-.12-.64.21.28.5.54.89.76,1.64.95,4.29.95,5.92.01.38-.22.67-.47.88-.74.01.21-.03.43-.12.64Z"/>
        <path class="cls-12" d="M114.82,60.04c-1.63.94-4.28.94-5.92-.01-1.64-.95-1.65-2.48-.02-3.42,1.63-.94,4.28-.94,5.92.01,1.64.95,1.65,2.48.02,3.42Z"/>
        <path class="cls-2" d="M115.57,59.94c-.16.37-.5.72-1,1.01-1.5.87-3.93.86-5.44,0-.51-.29-.85-.65-1.01-1.02.14.11.29.21.46.3,1.82,1.05,4.75,1.05,6.56.01.16-.09.3-.19.43-.29Z"/>
        <path class="cls-8" d="M115.69,59.3c-.2.27-.49.52-.88.74-1.63.94-4.28.94-5.92-.01-.39-.23-.69-.48-.89-.76.04-.54.41-1.07,1.12-1.48,1.5-.86,3.93-.86,5.44,0,.72.42,1.1.95,1.13,1.49Z"/>
      </g>
      <path class="cls-6" d="M110.61,57.7c.67.03,1.35.13,1.95.42.42.2.79.5,1.06.88.12.18.25.4.3.62.05.23-.15.38-.32.5-.06.04-.13.09-.21.08-.06,0-.11-.05-.15-.09-1.01-.84-2.19-1.47-3.44-1.85-.02,0-.05-.02-.06-.04,0-.02.01-.04.03-.06.26-.3.42-.48.84-.46Z"/>
    </g>
    <g>
      <g class="cls-16">
        <path class="cls-9" d="M121.63,73.6c1.64.95,1.65,2.49.02,3.44-1.63.95-4.29.95-5.93,0-1.64-.95-1.65-2.49-.02-3.44,1.63-.95,4.29-.95,5.93,0Z"/>
        <path class="cls-14" d="M120.96,76.07c-1.25.73-3.29.73-4.55,0-.63-.37-.95-.85-.95-1.33v.28c0,.48.31.96.95,1.33,1.26.73,3.3.73,4.55,0,.62-.36.93-.83.94-1.31v-.28c0,.47-.31.95-.93,1.31Z"/>
        <path class="cls-10" d="M120.95,73.44c1.26.73,1.27,1.91.01,2.64-1.25.73-3.29.73-4.55,0-1.26-.73-1.27-1.91-.02-2.64,1.25-.73,3.29-.73,4.55,0Z"/>
      </g>
      <path class="cls-14" d="M119.72,74.59s-.02-.03-.03-.04c-.05-.07-.12-.13-.19-.18-.07-.05-.15-.1-.21-.15-.07-.06-.1-.15-.1-.24l.09-1.45c0-.06.02-.11.06-.15l.15-.2c.15-.2.24-.45.24-.71v-.06c0-.26-.11-.49-.27-.69-.04-.05-.06-.11-.06-.18v-.76c0-.14-.11-.26-.25-.28l-.47-.06-.47.06c-.14.02-.25.14-.25.28v.76c0,.07-.02.14-.07.19-.17.19-.27.44-.27.7v.04c0,.26.08.5.24.71l.15.2s.05.1.06.15l.09,1.45c0,.15-.12.26-.23.34-.11.08-.23.15-.3.27-.06.1-.06.24-.01.34.06.13.17.22.29.29.43.25,1.12.25,1.55,0,.22-.13.41-.38.27-.63Z"/>
      <g>
        <path class="cls-12" d="M123.31,65.14l-4.19.14-5.08-.33c.19,2.53,1.61,3.82,2.34,4.33.07.05.15.11.24.16.02,0,.04.02.05.03.1.05.15.08.15.08h0c1.11.53,2.74.52,3.82-.05.48-.23,2.43-1.34,2.66-4.36Z"/>
        <path class="cls-14" d="M120.29,66.6c-.97-.4-2.28-.41-3.24,0l-2.2-.39c.24,1.48,1.46,2.53,1.46,2.53h0c.11.1.25.2.4.29,1.09.63,2.85.63,3.94,0,.16-.09.3-.19.41-.3h0s1.22-1.05,1.46-2.53l-2.23.39Z"/>
        <path class="cls-10" d="M121.97,66.85c-1.81,1.04-4.74,1.04-6.56-.01-1.82-1.05-1.83-2.75-.02-3.79,1.81-1.04,4.74-1.04,6.56.01s1.83,2.75.02,3.79Z"/>
        <path class="cls-12" d="M122.4,66.56c-.13.1-.28.2-.43.29-1.81,1.04-4.74,1.04-6.56-.01-.17-.1-.32-.2-.46-.3-.09-.21-.13-.43-.12-.64.21.28.5.54.89.76,1.64.95,4.29.95,5.92.01.38-.22.67-.47.88-.74.01.21-.03.43-.12.64Z"/>
        <path class="cls-12" d="M121.65,66.67c-1.63.94-4.28.94-5.92-.01-1.64-.95-1.65-2.48-.02-3.42,1.63-.94,4.28-.94,5.92.01,1.64.95,1.65,2.48.02,3.42Z"/>
        <path class="cls-2" d="M122.4,66.56c-.16.37-.5.72-1,1.01-1.5.87-3.93.86-5.44,0-.51-.29-.85-.65-1.01-1.02.14.11.29.21.46.3,1.82,1.05,4.75,1.05,6.56.01.16-.09.3-.19.43-.29Z"/>
        <path class="cls-8" d="M122.52,65.92c-.2.27-.49.52-.88.74-1.63.94-4.28.94-5.92-.01-.39-.23-.69-.48-.89-.76.04-.54.41-1.07,1.12-1.48,1.5-.86,3.93-.86,5.44,0,.72.42,1.1.95,1.13,1.49Z"/>
      </g>
      <path class="cls-6" d="M117.44,64.32c.67.03,1.35.13,1.95.42.42.2.79.5,1.06.88.12.18.25.4.3.62.05.23-.15.38-.32.5-.06.04-.13.09-.21.08-.06,0-.11-.05-.15-.08-1.01-.84-2.19-1.47-3.44-1.85-.02,0-.05-.02-.06-.04,0-.02.01-.04.03-.06.26-.3.42-.48.84-.46Z"/>
    </g>
    <g>
      <g class="cls-16">
        <path class="cls-9" d="M118.99,86.57c1.64.95,1.65,2.49.02,3.44-1.63.95-4.29.95-5.93,0-1.64-.95-1.65-2.49-.02-3.44,1.63-.95,4.29-.95,5.93,0Z"/>
        <path class="cls-14" d="M118.32,89.04c-1.25.73-3.29.73-4.55,0-.63-.37-.95-.85-.95-1.33v.28c0,.48.31.96.95,1.33,1.26.73,3.3.73,4.55,0,.62-.36.93-.83.94-1.31v-.28c0,.47-.31.95-.93,1.31Z"/>
        <path class="cls-10" d="M118.3,86.41c1.26.73,1.27,1.91.01,2.64-1.25.73-3.29.73-4.55,0-1.26-.73-1.27-1.91-.02-2.64,1.25-.73,3.29-.73,4.55,0Z"/>
      </g>
      <path class="cls-14" d="M117.07,87.56s-.02-.03-.03-.04c-.05-.07-.12-.13-.19-.18-.07-.05-.15-.1-.21-.15-.07-.06-.1-.15-.1-.24l.09-1.45c0-.06.02-.11.06-.15l.15-.2c.15-.2.24-.45.24-.71v-.06c0-.26-.11-.49-.27-.69-.04-.05-.06-.11-.06-.18v-.76c0-.14-.11-.26-.25-.28l-.47-.06-.47.06c-.14.02-.25.14-.25.28v.76c0,.07-.02.14-.07.19-.17.19-.27.44-.27.7v.04c0,.26.08.5.24.71l.15.2s.05.1.06.15l.09,1.45c0,.15-.12.26-.23.34-.11.08-.23.16-.3.27-.06.1-.06.24-.01.34.06.13.17.22.29.29.43.25,1.12.25,1.55,0,.22-.13.41-.38.27-.63Z"/>
      <g>
        <path class="cls-12" d="M120.66,78.11l-4.19.14-5.08-.33c.19,2.53,1.61,3.82,2.34,4.33.07.05.15.11.24.16.02,0,.04.02.05.03.1.05.15.08.15.08h0c1.11.53,2.74.52,3.82-.05.48-.23,2.43-1.34,2.66-4.36Z"/>
        <path class="cls-14" d="M117.65,79.57c-.97-.4-2.28-.41-3.24,0l-2.2-.39c.24,1.48,1.46,2.53,1.46,2.53h0c.11.1.25.2.4.29,1.09.63,2.85.63,3.94,0,.16-.09.3-.19.41-.3h0s1.22-1.05,1.46-2.53l-2.23.39Z"/>
        <path class="cls-10" d="M119.32,79.82c-1.81,1.04-4.74,1.04-6.56-.01-1.82-1.05-1.83-2.75-.02-3.79,1.81-1.04,4.74-1.04,6.56.01,1.82,1.05,1.83,2.75.02,3.79Z"/>
        <path class="cls-12" d="M119.76,79.53c-.13.1-.28.2-.43.29-1.81,1.04-4.74,1.04-6.56-.01-.17-.1-.32-.2-.46-.3-.09-.21-.13-.43-.12-.64.21.28.5.54.89.76,1.64.95,4.29.95,5.92.01.38-.22.67-.47.88-.74.01.21-.03.43-.12.64Z"/>
        <path class="cls-12" d="M119,79.64c-1.63.94-4.28.94-5.92-.01-1.64-.95-1.65-2.48-.02-3.42s4.28-.94,5.92.01c1.64.95,1.65,2.48.02,3.42Z"/>
        <path class="cls-2" d="M119.76,79.53c-.16.37-.5.72-1,1.01-1.5.87-3.93.86-5.44,0-.51-.29-.85-.65-1.01-1.02.14.11.29.21.46.3,1.82,1.05,4.75,1.05,6.56.01.16-.09.3-.19.43-.29Z"/>
        <path class="cls-8" d="M119.88,78.89c-.2.27-.49.52-.88.74-1.63.94-4.28.94-5.92-.01-.39-.23-.69-.48-.89-.76.04-.54.41-1.07,1.12-1.48,1.5-.86,3.93-.86,5.44,0,.72.42,1.1.95,1.13,1.49Z"/>
      </g>
      <path class="cls-6" d="M114.8,77.29c.67.03,1.35.13,1.95.42.42.2.79.5,1.06.88.12.18.25.4.3.62.05.23-.15.38-.32.5-.06.04-.13.09-.21.08-.06,0-.11-.05-.15-.08-1.01-.84-2.19-1.47-3.44-1.85-.02,0-.05-.02-.06-.04,0-.02.01-.04.03-.06.26-.3.42-.48.84-.46Z"/>
    </g>
    <g>
      <g class="cls-16">
        <path class="cls-9" d="M130.11,78.35c1.64.95,1.65,2.49.02,3.44-1.63.95-4.29.95-5.93,0s-1.65-2.49-.02-3.44c1.63-.95,4.29-.95,5.93,0Z"/>
        <path class="cls-14" d="M129.44,80.82c-1.25.73-3.29.73-4.55,0-.63-.37-.95-.85-.95-1.33v.28c0,.48.31.96.95,1.33,1.26.73,3.3.73,4.55,0,.62-.36.93-.84.94-1.31v-.28c0,.47-.31.95-.93,1.31Z"/>
        <path class="cls-10" d="M129.43,78.18c1.26.73,1.27,1.91.01,2.64-1.25.73-3.29.73-4.55,0-1.26-.73-1.27-1.91-.02-2.64,1.25-.73,3.29-.73,4.55,0Z"/>
      </g>
      <path class="cls-14" d="M128.2,79.33s-.02-.03-.03-.04c-.05-.07-.12-.13-.19-.18-.07-.05-.15-.1-.21-.15-.07-.06-.1-.15-.1-.24l.09-1.45c0-.06.02-.11.06-.15l.15-.2c.15-.2.24-.45.24-.71v-.06c0-.26-.11-.49-.27-.69-.04-.05-.06-.11-.06-.18v-.75c0-.14-.11-.26-.25-.28l-.47-.06-.47.06c-.14.02-.25.14-.25.28v.75c0,.07-.02.14-.07.19-.17.19-.27.44-.27.7v.04c0,.26.08.5.24.71l.15.2s.05.1.06.15l.09,1.45c0,.15-.12.26-.23.34-.11.08-.23.16-.3.27-.06.1-.06.24-.01.34.06.13.17.22.29.29.43.25,1.12.25,1.55,0,.22-.13.41-.38.27-.63Z"/>
      <g>
        <path class="cls-12" d="M131.79,69.88l-4.19.14-5.08-.33c.19,2.53,1.61,3.82,2.34,4.33.07.05.15.11.24.16.02,0,.04.02.05.03.1.05.15.08.15.08h0c1.11.53,2.74.52,3.82-.05.48-.23,2.43-1.34,2.66-4.36Z"/>
        <path class="cls-14" d="M128.77,71.34c-.97-.4-2.28-.41-3.24,0l-2.2-.39c.24,1.48,1.46,2.53,1.46,2.53h0c.11.1.25.2.4.29,1.09.63,2.85.63,3.94,0,.16-.09.3-.19.41-.3h0s1.22-1.05,1.46-2.53l-2.23.39Z"/>
        <path class="cls-10" d="M130.45,71.6c-1.81,1.04-4.74,1.04-6.56-.01s-1.83-2.75-.02-3.79,4.74-1.04,6.56.01c1.82,1.05,1.83,2.75.02,3.79Z"/>
        <path class="cls-12" d="M130.88,71.31c-.13.1-.28.2-.43.29-1.81,1.04-4.74,1.04-6.56-.01-.17-.1-.32-.2-.46-.3-.09-.21-.13-.43-.12-.64.21.28.5.54.89.76,1.64.95,4.29.95,5.92.01.38-.22.67-.47.88-.74.01.21-.03.43-.12.64Z"/>
        <path class="cls-12" d="M130.13,71.41c-1.63.94-4.28.94-5.92-.01-1.64-.95-1.65-2.48-.02-3.42,1.63-.94,4.28-.94,5.92.01,1.64.95,1.65,2.48.02,3.42Z"/>
        <path class="cls-2" d="M130.88,71.31c-.16.37-.5.72-1,1.01-1.5.87-3.93.86-5.44,0-.51-.29-.85-.65-1.01-1.02.14.11.29.21.46.3,1.82,1.05,4.75,1.05,6.56.01.16-.09.3-.19.43-.29Z"/>
        <path class="cls-8" d="M131,70.67c-.2.27-.49.52-.88.74-1.63.94-4.28.94-5.92-.01-.39-.23-.69-.48-.89-.76.04-.54.41-1.07,1.12-1.48,1.5-.86,3.93-.86,5.44,0,.72.42,1.1.95,1.13,1.49Z"/>
      </g>
      <path class="cls-6" d="M125.92,69.07c.67.03,1.35.13,1.95.42.42.2.79.5,1.06.88.12.18.25.4.3.62.05.23-.15.38-.32.5-.06.04-.13.09-.21.08-.06,0-.11-.05-.15-.09-1.01-.84-2.19-1.47-3.44-1.85-.02,0-.05-.02-.06-.04,0-.02.01-.04.03-.06.26-.3.42-.48.84-.46Z"/>
    </g>
    <g>
      <g class="cls-16">
        <path class="cls-9" d="M100.67,68.86c1.64.95,1.65,2.49.02,3.44-1.63.95-4.29.95-5.93,0-1.64-.95-1.65-2.49-.02-3.44,1.63-.95,4.29-.95,5.93,0Z"/>
        <path class="cls-14" d="M100,71.33c-1.25.73-3.29.73-4.55,0-.63-.37-.95-.85-.95-1.33v.28c0,.48.31.96.95,1.33,1.26.73,3.3.73,4.55,0,.62-.36.93-.83.94-1.31v-.28c0,.47-.31.95-.93,1.31Z"/>
        <path class="cls-10" d="M99.98,68.7c1.26.73,1.27,1.91.01,2.64-1.25.73-3.29.73-4.55,0-1.26-.73-1.27-1.91-.02-2.64,1.25-.73,3.29-.73,4.55,0Z"/>
      </g>
      <path class="cls-14" d="M98.76,69.85s-.02-.03-.03-.04c-.05-.07-.12-.13-.19-.18-.07-.05-.15-.1-.21-.15-.07-.06-.1-.15-.1-.24l.09-1.45c0-.06.02-.11.06-.15l.15-.2c.15-.2.24-.45.24-.71v-.06c0-.26-.11-.49-.27-.69-.04-.05-.06-.11-.06-.18v-.75c0-.14-.11-.26-.25-.28l-.47-.06-.47.06c-.14.02-.25.14-.25.28v.75c0,.07-.02.14-.07.19-.17.19-.27.44-.27.7v.04c0,.26.08.5.24.71l.15.2s.05.1.06.15l.09,1.45c0,.15-.12.26-.23.34-.11.08-.23.15-.3.27-.06.1-.06.24-.01.34.06.13.17.22.29.29.43.25,1.12.25,1.55,0,.22-.13.41-.38.27-.63Z"/>
      <g>
        <path class="cls-12" d="M102.34,60.4l-4.19.14-5.08-.33c.19,2.53,1.61,3.82,2.34,4.33.07.05.15.11.24.16.02,0,.04.02.05.03.1.05.15.08.15.08h0c1.11.53,2.74.52,3.82-.05.48-.23,2.43-1.34,2.66-4.36Z"/>
        <path class="cls-14" d="M99.33,61.86c-.97-.4-2.28-.41-3.24,0l-2.2-.39c.24,1.48,1.46,2.53,1.46,2.53h0c.11.1.25.2.4.29,1.09.63,2.85.63,3.94,0,.16-.09.3-.19.41-.3h0s1.22-1.05,1.46-2.53l-2.23.39Z"/>
        <path class="cls-10" d="M101.01,62.11c-1.81,1.04-4.74,1.04-6.56-.01-1.82-1.05-1.83-2.75-.02-3.79,1.81-1.04,4.74-1.04,6.56.01,1.82,1.05,1.83,2.75.02,3.79Z"/>
        <path class="cls-12" d="M101.44,61.82c-.13.1-.28.2-.43.29-1.81,1.04-4.74,1.04-6.56-.01-.17-.1-.32-.2-.46-.3-.09-.21-.13-.43-.12-.64.21.28.5.54.89.76,1.64.95,4.29.95,5.92.01.38-.22.67-.47.88-.74.01.21-.03.43-.12.64Z"/>
        <path class="cls-12" d="M100.68,61.92c-1.63.94-4.28.94-5.92-.01-1.64-.95-1.65-2.48-.02-3.42,1.63-.94,4.28-.94,5.92.01,1.64.95,1.65,2.48.02,3.42Z"/>
        <path class="cls-2" d="M101.44,61.82c-.16.37-.5.72-1,1.01-1.5.87-3.93.86-5.44,0-.51-.29-.85-.65-1.01-1.02.14.11.29.21.46.3,1.82,1.05,4.75,1.05,6.56.01.16-.09.3-.19.43-.29Z"/>
        <path class="cls-8" d="M101.56,61.18c-.2.27-.49.52-.88.74-1.63.94-4.28.94-5.92-.01-.39-.23-.69-.48-.89-.76.04-.54.41-1.07,1.12-1.48,1.5-.86,3.93-.86,5.44,0,.72.42,1.1.95,1.13,1.49Z"/>
      </g>
      <path class="cls-6" d="M96.48,59.58c.67.03,1.35.13,1.95.42.42.2.79.5,1.06.88.12.18.25.4.3.62.05.23-.15.38-.32.5-.06.04-.13.09-.21.08-.06,0-.11-.05-.15-.09-1.01-.84-2.19-1.47-3.44-1.85-.02,0-.05-.02-.06-.04,0-.02.01-.04.03-.06.26-.3.42-.48.84-.46Z"/>
    </g>
    <g>
      <g class="cls-16">
        <path class="cls-9" d="M93.01,79.34c1.64.95,1.65,2.49.02,3.44-1.63.95-4.29.95-5.93,0-1.64-.95-1.65-2.49-.02-3.44,1.63-.95,4.29-.95,5.93,0Z"/>
        <path class="cls-14" d="M92.34,81.81c-1.25.73-3.29.73-4.55,0-.63-.37-.95-.85-.95-1.33v.28c0,.48.31.96.95,1.33,1.26.73,3.3.73,4.55,0,.62-.36.93-.84.94-1.31v-.28c0,.47-.31.95-.93,1.31Z"/>
        <path class="cls-10" d="M92.32,79.17c1.26.73,1.27,1.91.01,2.64-1.25.73-3.29.73-4.55,0-1.26-.73-1.27-1.91-.02-2.64,1.25-.73,3.29-.73,4.55,0Z"/>
      </g>
      <path class="cls-14" d="M91.1,80.33s-.02-.03-.03-.04c-.05-.07-.12-.13-.19-.18-.07-.05-.15-.1-.21-.15-.07-.06-.1-.15-.1-.24l.09-1.45c0-.06.02-.11.06-.15l.15-.2c.15-.2.24-.45.24-.71v-.06c0-.26-.11-.49-.27-.69-.04-.05-.06-.11-.06-.18v-.75c0-.14-.11-.26-.25-.28l-.47-.06-.47.06c-.14.02-.25.14-.25.28v.75c0,.07-.03.14-.07.19-.17.19-.27.44-.27.7v.04c0,.26.08.5.24.71l.15.2s.05.1.06.15l.09,1.45c0,.15-.12.26-.23.34-.11.08-.23.15-.3.27-.06.1-.06.24-.01.34.06.13.17.22.29.29.43.25,1.12.25,1.55,0,.22-.13.41-.38.27-.63Z"/>
      <g>
        <path class="cls-12" d="M94.68,70.88l-4.19.14-5.08-.33c.19,2.53,1.61,3.82,2.34,4.33.07.05.15.11.24.16.02,0,.04.02.05.03.1.05.15.08.15.08h0c1.11.53,2.74.52,3.82-.05.48-.23,2.43-1.34,2.66-4.36Z"/>
        <path class="cls-14" d="M91.67,72.34c-.97-.4-2.28-.41-3.24,0l-2.2-.39c.24,1.48,1.46,2.53,1.46,2.53h0c.11.1.25.2.4.29,1.09.63,2.85.63,3.94,0,.16-.09.3-.19.41-.3h0s1.22-1.05,1.46-2.53l-2.23.39Z"/>
        <path class="cls-10" d="M93.35,72.59c-1.81,1.04-4.74,1.04-6.56-.01s-1.83-2.75-.02-3.79c1.81-1.04,4.74-1.04,6.56.01s1.83,2.75.02,3.79Z"/>
        <path class="cls-12" d="M93.78,72.3c-.13.1-.28.2-.43.29-1.81,1.04-4.74,1.04-6.56-.01-.17-.1-.32-.2-.46-.3-.09-.21-.13-.43-.12-.64.21.28.5.54.89.76,1.64.95,4.29.95,5.92.01.38-.22.67-.47.88-.74.01.21-.03.43-.12.64Z"/>
        <path class="cls-12" d="M93.02,72.4c-1.63.94-4.28.94-5.92-.01-1.64-.95-1.65-2.48-.02-3.42s4.28-.94,5.92.01c1.64.95,1.65,2.48.02,3.42Z"/>
        <path class="cls-2" d="M93.78,72.3c-.16.37-.5.72-1,1.01-1.5.87-3.93.86-5.44,0-.51-.29-.85-.65-1.01-1.02.14.11.29.21.46.3,1.82,1.05,4.75,1.05,6.56.01.16-.09.3-.19.43-.29Z"/>
        <path class="cls-8" d="M93.9,71.66c-.2.27-.49.52-.88.74-1.63.94-4.28.94-5.92-.01-.39-.23-.69-.48-.89-.76.04-.54.41-1.07,1.12-1.48,1.5-.86,3.93-.86,5.44,0,.72.42,1.1.95,1.13,1.49Z"/>
      </g>
      <path class="cls-6" d="M88.82,70.06c.67.03,1.35.13,1.95.42.42.2.79.5,1.06.88.12.18.25.4.3.62.05.23-.15.38-.32.5-.06.04-.13.09-.21.08-.06,0-.11-.05-.15-.09-1.01-.84-2.19-1.47-3.44-1.85-.02,0-.05-.02-.06-.04,0-.02.01-.04.03-.06.26-.3.42-.48.84-.46Z"/>
    </g>
    <g>
      <g class="cls-16">
        <path class="cls-9" d="M106.4,78.03c1.64.95,1.65,2.49.02,3.44-1.63.95-4.29.95-5.93,0-1.64-.95-1.65-2.49-.02-3.44,1.63-.95,4.29-.95,5.93,0Z"/>
        <path class="cls-14" d="M105.73,80.5c-1.25.73-3.29.73-4.55,0-.63-.37-.95-.85-.95-1.33v.28c0,.48.31.96.95,1.33,1.26.73,3.3.73,4.55,0,.62-.36.93-.83.94-1.31v-.28c0,.47-.31.95-.93,1.31Z"/>
        <path class="cls-10" d="M105.71,77.86c1.26.73,1.27,1.91.01,2.64-1.25.73-3.29.73-4.55,0-1.26-.73-1.27-1.91-.02-2.64,1.25-.73,3.29-.73,4.55,0Z"/>
      </g>
      <path class="cls-14" d="M104.49,79.02s-.02-.03-.03-.04c-.05-.07-.12-.13-.19-.18-.07-.05-.15-.1-.21-.15-.07-.06-.1-.15-.1-.24l.09-1.45c0-.06.02-.11.06-.15l.15-.2c.15-.2.24-.45.24-.71v-.06c0-.26-.11-.49-.27-.69-.04-.05-.06-.11-.06-.18v-.75c0-.14-.11-.26-.25-.28l-.47-.06-.47.06c-.14.02-.25.14-.25.28v.75c0,.07-.03.14-.07.19-.17.19-.27.44-.27.7v.04c0,.26.08.5.24.71l.15.2s.05.1.06.15l.09,1.45c0,.15-.12.26-.23.34-.11.08-.23.16-.3.27-.06.1-.06.24-.01.34.06.13.17.22.29.29.43.25,1.12.25,1.55,0,.22-.13.41-.38.27-.63Z"/>
      <g>
        <path class="cls-12" d="M108.08,69.56l-4.19.14-5.08-.33c.19,2.53,1.61,3.82,2.34,4.33.07.05.15.11.24.16.02,0,.04.02.05.03.1.05.15.08.15.08h0c1.11.53,2.74.52,3.82-.05.48-.23,2.43-1.34,2.66-4.36Z"/>
        <path class="cls-14" d="M105.06,71.02c-.97-.4-2.28-.41-3.24,0l-2.2-.39c.24,1.48,1.46,2.53,1.46,2.53h0c.11.1.25.2.4.29,1.09.63,2.85.63,3.94,0,.16-.09.3-.19.41-.3h0s1.22-1.05,1.46-2.53l-2.23.39Z"/>
        <path class="cls-10" d="M106.74,71.28c-1.81,1.04-4.74,1.04-6.56-.01s-1.83-2.75-.02-3.79c1.81-1.04,4.74-1.04,6.56.01,1.82,1.05,1.83,2.75.02,3.79Z"/>
        <path class="cls-12" d="M107.17,70.99c-.13.1-.28.2-.43.29-1.81,1.04-4.74,1.04-6.56-.01-.17-.1-.32-.2-.46-.3-.09-.21-.13-.43-.12-.64.21.28.5.54.89.76,1.64.95,4.29.95,5.92.01.38-.22.67-.47.88-.74.01.21-.03.43-.12.64Z"/>
        <path class="cls-12" d="M106.41,71.09c-1.63.94-4.28.94-5.92-.01-1.64-.95-1.65-2.48-.02-3.42,1.63-.94,4.28-.94,5.92.01,1.64.95,1.65,2.48.02,3.42Z"/>
        <path class="cls-2" d="M107.17,70.99c-.16.37-.5.72-1,1.01-1.5.87-3.93.86-5.44,0-.51-.29-.85-.65-1.01-1.02.14.11.29.21.46.3,1.82,1.05,4.75,1.05,6.56.01.16-.09.3-.19.43-.29Z"/>
        <path class="cls-8" d="M107.29,70.35c-.2.27-.49.52-.88.74-1.63.94-4.28.94-5.92-.01-.39-.23-.69-.48-.89-.76.04-.54.41-1.07,1.12-1.48,1.5-.86,3.93-.86,5.44,0,.72.42,1.1.95,1.13,1.49Z"/>
      </g>
      <path class="cls-6" d="M102.21,68.75c.67.03,1.35.13,1.95.42.42.2.79.5,1.06.88.12.18.25.4.3.62.05.23-.15.38-.32.5-.06.04-.13.09-.21.08-.06,0-.11-.05-.15-.08-1.01-.84-2.19-1.47-3.44-1.85-.02,0-.05-.02-.06-.04,0-.02.01-.04.03-.06.26-.3.42-.48.84-.46Z"/>
    </g>
    <g>
      <g class="cls-16">
        <path class="cls-9" d="M108.24,87c1.64.95,1.65,2.49.02,3.44-1.63.95-4.29.95-5.93,0-1.64-.95-1.65-2.49-.02-3.44,1.63-.95,4.29-.95,5.93,0Z"/>
        <path class="cls-14" d="M107.56,89.47c-1.25.73-3.29.73-4.55,0-.63-.37-.95-.85-.95-1.33v.28c0,.48.31.96.95,1.33,1.26.73,3.3.73,4.55,0,.62-.36.93-.84.94-1.31v-.28c0,.47-.31.95-.93,1.31Z"/>
        <path class="cls-10" d="M107.55,86.83c1.26.73,1.27,1.91.01,2.64-1.25.73-3.29.73-4.55,0-1.26-.73-1.27-1.91-.02-2.64,1.25-.73,3.29-.73,4.55,0Z"/>
      </g>
      <path class="cls-14" d="M106.32,87.99s-.02-.03-.03-.04c-.05-.07-.12-.13-.19-.18-.07-.05-.15-.1-.21-.15-.07-.06-.1-.15-.1-.24l.09-1.45c0-.06.02-.11.06-.15l.15-.2c.15-.2.24-.45.24-.71v-.06c0-.26-.11-.49-.27-.69-.04-.05-.06-.11-.06-.18v-.76c0-.14-.11-.26-.25-.28l-.47-.06-.47.06c-.14.02-.25.14-.25.28v.76c0,.07-.02.14-.07.19-.17.19-.27.44-.27.7v.04c0,.26.08.5.24.71l.15.2s.05.1.06.15l.09,1.45c0,.15-.12.26-.23.34-.11.08-.23.15-.3.27-.06.1-.06.24-.01.34.06.13.17.22.29.29.43.25,1.12.25,1.55,0,.22-.13.41-.38.27-.63Z"/>
      <g>
        <path class="cls-12" d="M109.91,78.54l-4.19.14-5.08-.33c.19,2.53,1.61,3.82,2.34,4.33.07.05.15.11.24.16.02,0,.04.02.05.03.1.05.15.08.15.08h0c1.11.53,2.74.52,3.82-.05.48-.23,2.43-1.34,2.66-4.36Z"/>
        <path class="cls-14" d="M106.89,79.99c-.97-.4-2.28-.41-3.24,0l-2.2-.39c.24,1.48,1.46,2.53,1.46,2.53h0c.11.1.25.2.4.29,1.09.63,2.85.63,3.94,0,.16-.09.3-.19.41-.3h0s1.22-1.05,1.46-2.53l-2.23.39Z"/>
        <path class="cls-10" d="M108.57,80.25c-1.81,1.04-4.74,1.04-6.56-.01-1.82-1.05-1.83-2.75-.02-3.79,1.81-1.04,4.74-1.04,6.56.01s1.83,2.75.02,3.79Z"/>
        <path class="cls-12" d="M109,79.96c-.13.1-.28.2-.43.29-1.81,1.04-4.74,1.04-6.56-.01-.17-.1-.32-.2-.46-.3-.09-.21-.13-.43-.12-.64.21.28.5.54.89.76,1.64.95,4.29.95,5.92.01.38-.22.67-.47.88-.74.01.21-.03.43-.12.64Z"/>
        <path class="cls-12" d="M108.25,80.06c-1.63.94-4.28.94-5.92-.01s-1.65-2.48-.02-3.42,4.28-.94,5.92.01c1.64.95,1.65,2.48.02,3.42Z"/>
        <path class="cls-2" d="M109,79.96c-.16.37-.5.72-1,1.01-1.5.87-3.93.86-5.44,0-.51-.29-.85-.65-1.01-1.02.14.11.29.21.46.3,1.82,1.05,4.75,1.05,6.56.01.16-.09.3-.19.43-.29Z"/>
        <path class="cls-8" d="M109.12,79.32c-.2.27-.49.52-.88.74-1.63.94-4.28.94-5.92-.01-.39-.23-.69-.48-.89-.76.04-.54.41-1.07,1.12-1.48,1.5-.86,3.93-.86,5.44,0,.72.42,1.1.95,1.13,1.49Z"/>
      </g>
      <path class="cls-6" d="M104.04,77.72c.67.03,1.35.13,1.95.42.42.2.79.5,1.06.88.12.18.25.4.3.62.05.23-.15.38-.32.5-.06.04-.13.09-.21.08-.06,0-.11-.05-.15-.08-1.01-.84-2.19-1.47-3.44-1.85-.02,0-.05-.02-.06-.04,0-.02.01-.04.03-.06.26-.3.42-.48.84-.46Z"/>
    </g>
  </g>
</svg>