<?xml version="1.0" encoding="UTF-8"?>
<svg id="Layer" xmlns="http://www.w3.org/2000/svg" viewBox="0 0 157.04 169.78">
  <defs>
    <style>
      .cls-1 {
        fill: #ffaf80;
      }

      .cls-1, .cls-2, .cls-3, .cls-4, .cls-5, .cls-6, .cls-7, .cls-8, .cls-9 {
        stroke-width: 0px;
      }

      .cls-2 {
        fill: #f2f2f2;
      }

      .cls-3 {
        fill: #adb0ff;
      }

      .cls-4 {
        fill: #ffbf00;
      }

      .cls-5 {
        fill: #ffd557;
      }

      .cls-6 {
        fill: #e6e6e6;
      }

      .cls-7 {
        fill: #ffc7a6;
      }

      .cls-8 {
        fill: #8f93ff;
      }

      .cls-9 {
        fill: #4d4d4d;
      }
    </style>
  </defs>
  <path class="cls-2" d="M99.74,140.37c-9.68,5.59-25.43,5.56-35.18-.06-9.74-5.63-9.79-14.72-.11-20.31,9.68-5.59,25.43-5.56,35.18.06,9.74,5.63,9.79,14.72.11,20.31Z"/>
  <path class="cls-1" d="M71.26,50.63c-.7-.73-1.7-1.16-2.72-1.17l-.56.1c-2.19,1.25-4.64,2.04-7.15,2.35-.13-.2-2.89-4.32-3.26-6.5-.06-.34-.12-.71-.39-.93-.17-.14-.39-.18-.61-.22-.31-.06-.61-.12-.92-.18-.21-.04-.43-.08-.63-.03-.68.18-.97,1.22-1.03,1.81-.1,1.04-.17,2.08-.16,3.12,0,.59.03,1.17.09,1.76.19,1.87.72,3.73,1.74,5.31.32.49.67.89,1.12,1.28.76.66,1.86.93,2.84,1.01,1.2.11,2.32.13,3.52,0,1.46-.17,2.91-.4,4.34-.7,1.11-.23,2.22-.5,3.28-.93.14-.06.29-.12.4-.23.07-.07.12-.16.17-.25.5-.87.94-1.82.98-2.83.04-1.01-.35-2.03-1.05-2.77Z"/>
  <path class="cls-1" d="M82.18,88.88c-.12-1.37-.56-2.77-1.55-3.72-1.03-.99-2.53-1.36-3.96-1.4-.93-.02-1.7.05-2.36.74-2.28,2.42-4.57,4.85-6.41,7.62-.7,1.06-1.28,2.16-1.77,3.32-.57,1.34-.15,2.92.23,4.24.45,1.55.94,3.1,1.46,4.64,0,.02.02.04.02.06,1.58,4.62,3.49,9.33,3.11,14.2,1.54,1.19,3.82,1.32,5.48.31.17-.1.34-.23.43-.41.12-.23.08-.51.05-.76-.19-1.51-.08-3.05.04-4.57.05-.64.1-1.29.15-1.93.12-1.57.24-3.14.1-4.71-.08-.97-.25-1.92-.47-2.86-.13-.59-.27-1.17-.42-1.76-.23-.94-.48-1.88-.85-2.76,1.64-2.57,3.64-4.92,5.91-6.97.45-.41.92-.81,1.25-1.33-.39-.56-.4-1.3-.46-1.98Z"/>
  <path class="cls-8" d="M70.93,118.21c-2.62.92-5.21,1.95-7.54,3.45-.54.34-1.07.72-1.43,1.25-.82,1.23-.06,2.61,1.22,3.08,1.42.53,3.04.19,4.41-.47.68-.33,1.34-.73,2.05-.98,1.08-.39,2.25-.44,3.39-.37.81.05,1.62.16,2.42.06,1.26-.15,2.36-.9,2.61-2.2.1-.54.07-1.11-.03-1.65-.18-1.06-.58-2.09-1.26-2.92.06.07-.11.31-.16.36-.16.17-.23.16-.41.07-.34-.18-.63-.46-.97-.64-.3-.16-.68-.04-.99.04-.32.08-.66.03-.97.13-.78.26-1.57.53-2.35.8Z"/>
  <path class="cls-6" d="M77.11,111.24c-.06.64-.1,1.29-.15,1.93-.12,1.52-.23,3.06-.04,4.57.03.26.07.54-.05.76-.1.19-.27.31-.43.41-1.67,1.01-3.95.88-5.48-.31.38-4.87-1.53-9.58-3.11-14.2,0-.02-.02-.04-.02-.06,1.89.61,3.93.74,5.89.37,1.05-.2,2.09-.55,3.04-1.04.22.94.39,1.89.47,2.86.14,1.57.02,3.14-.1,4.71Z"/>
  <path class="cls-3" d="M65.58,120.52c-.08.06-.21.13-.21.24.01.38.89.26,1.1.24.68-.08,1.35-.3,1.99-.53,1.12-.4,2.22-.86,3.3-1.36.11-.05.22-.1.3-.19.32-.35,0-.79-.27-1.03-.33-.29-.57-.32-.97-.14-1.01.46-1.99.98-2.97,1.5-.56.29-2.08,1.13-2.27,1.27Z"/>
  <path class="cls-8" d="M77.24,109.27c-1.45.49-3.01.88-4.65.97-.23.02-.46.02-.68.02-.75,0-1.47-.06-2.17-.21-.27-.93-.58-1.84-.89-2.75,1.06.43,2.29.62,3.61.54,1.56-.09,3.09-.5,4.77-1.12.06.85.06,1.71,0,2.55Z"/>
  <path class="cls-8" d="M77.02,112.36c-.02.27-.05.54-.06.81-.05.59-.09,1.18-.11,1.77-1.15.33-2.33.56-3.53.63-.23,0-.47.02-.69.02-.59,0-1.17-.04-1.72-.13-.08-.85-.22-1.7-.4-2.54.83.2,1.73.29,2.68.23,1.27-.07,2.52-.35,3.85-.79Z"/>
  <path class="cls-6" d="M73.41,47.89c-1.5.09-2.98.41-4.43.82-.94.26-1.89.57-2.7,1.12-.08.06-.17.12-.22.21-.04.07-.05.15-.07.22-.41,2.37-.19,4.93,1.06,6.98.22.37.5.73.9.9.17.07.36.1.54.13,2.63.39,5.33.12,7.97.48.11.02.24.03.32-.06.05-.06.06-.14.07-.22.1-.79.31-1.57.63-2.3.31-.73.73-1.41,1.01-2.15.51-1.37.52-2.91.06-4.29-.15-.43-.31-.96-.72-1.22-.48-.31-1.21-.4-1.76-.5-.88-.15-1.78-.18-2.68-.13Z"/>
  <path class="cls-9" d="M71.59,37.08c-.09.14-.17.29-.23.44-.32.72-.38,1.52-.49,2.3s-.28,1.58-.77,2.2c-.32.41-.78.72-1.03,1.19-.43.8-.03,1.69.6,2.25.47.42,1.07.65,1.68.78,1.85.4,3.86-.03,5.38-1.16.89-.66,1.41-1.51,1.97-2.43.29-.48.35-1.08.43-1.64.16-1.12.24-2.25.21-3.38-.02-.79.03-2.33-.8-2.78-.21-.11-.47-.12-.71-.11-.79.03-1.58.15-2.35.35-.39.1-.78.22-1.16.36-.13.05-.39.21-.53.2-.07,0-.28-.22-.16-.27-.81.38-1.55.96-2.03,1.71Z"/>
  <path class="cls-7" d="M99.77,96.16c-.34-.02-.38-.44-.62-.73-.38-.44-.95-.68-1.52-.82-1.41-.35-2.95-.21-4.27.4-.44.2-.86.44-1.25.74-.33.25-.75.72-1.03.1-.85,2.14-2.24,8.91-2.32,10.06-.04.52-.12,1.07-.03,1.58.09.53.25,1.06.39,1.58.52,1.87,1.04,3.74,1.66,5.58.2.61.42,1.22.65,1.83.48,1.25,2.34,7.94,2.86,10.02.05.19.1.37.22.52.12.15.31.24.49.31,1.15.43,2.5.33,3.57-.28.23-.14.47-.31.56-.56.06-.14.06-.28.07-.43.14-3.02.27-6.04.2-9.06-.04-1.48-.13-2.99-.47-4.42-.18-.76-.43-1.51-.8-2.22-.19-.36-.4-.72-.55-1.1-.11-.3-.26-.72-.19-1.05.05-.27,2.19-6.84,2.79-8.54.51-1.46,1.05-2.95,1.04-4.49-.27.43-.69.77-1.17.95-.11.04-.2.06-.28.05Z"/>
  <path class="cls-8" d="M68.39,90.18c-.23.31-.46.64-.48,1.02-.04.85.7,1.81,1.15,2.48.57.84,1.25,1.62,2.02,2.29,1.13,1,2.44,1.78,3.8,2.42,4.05,1.88,8.62,2.48,13.07,2.18s8.81-1.49,12.99-3.04c.98-.36,1.95-.74,2.87-1.24.21-.11.42-.24.55-.44.12-.2.15-.45.16-.68.19-2.65.39-5.31.58-7.96.15-2.12.49-4.26.3-6.39-.24-2.65-1.23-5.06-2.73-7.25-1.22-1.78-2.48-3.54-4.04-5.02-1.56-1.48-3.46-2.68-5.57-3.1-1.1,2.31-3.16,4.15-5.58,4.96-1.05.35-2.18.53-3.14,1.09-1.13.66-1.53,1.94-2.27,2.95-.96,1.31-12.56,14.21-13.68,15.73Z"/>
  <path class="cls-2" d="M73.08,47.53c-.19.62-.07,1.42-.11,2.03-.08,1.32-.46,2.71-.39,4.01.09,1.65-.03,3.27-.48,4.87-.48,1.71-1.28,3.42-1.03,5.18.18,1.25.92,2.41,1.97,3.1.8.52,1.77.79,2.47,1.44.36.33.63.75.88,1.17,1.36,2.22,2.54,4.55,3.5,6.97.16.4.32.8.58,1.14.29.37.69.63,1.11.83,1.3.64,2.78.81,4.23.78,5.46-.08,10.81-2.84,14.05-7.24.27-.36.53-.78.46-1.23-.05-.32-.27-.58-.48-.82-1.06-1.24-2.06-2.51-3.02-3.82-.4-.55-.99-1.16-1.19-1.82-.15-.51-.17-1.09-.3-1.61-.69-2.81-1.03-5.88-2.84-8.25-.95-1.25-2.23-2.19-3.52-3.08-3.37-2.32-7-4.41-10.99-5.3-1.1-.24-2.28-.39-3.32.03-.59.24-1.19.77-1.48,1.34-.04.09-.08.18-.11.27Z"/>
  <path class="cls-6" d="M74.84,54.46c0,.18,0,.37,0,.56.04.87.17,1.74.65,2.47.83,1.24,1.96,1.54,3.39,1.35,2.36-.31,4.65-1.48,6.09-3.38s1.96-4.53,1.12-6.76c-.14-.36-.31-.72-.59-.98-.03.41-.05.99-.37,1.28-.4.36-.65.12-1.1.04-.31-.06-.62-.08-.94-.09-.88-.02-1.76.09-2.63.27-.63.13-1.26.3-1.82.62-.48.29-.89.68-1.29,1.07-.38.37-.76.75-1.12,1.15-.2.22-.27.27-.51.05-.08-.07-.31-.34-.26-.46-.35.9-.59,1.85-.63,2.81Z"/>
  <path class="cls-1" d="M74.95,53.12c.34.61.64,1.25.88,1.91.21.57.39,1.17.67,1.71.07.14.15.27.28.36.17.12.39.12.59.12,1.7-.03,3.38-.61,4.74-1.62,1.36-1.02,2.39-2.47,2.89-4.08-.54-.11-.9-.6-1.21-1.05-1.01-1.48-2.05-3.02-2.42-4.78-.07.48-.47.84-.85,1.15-1.4,1.14-3.04,2.17-4.84,2.14-.68-.01-1.34-.18-2.02-.18-1.39-.01-2.11,1.02-1.33,2.25.27.43.67.5,1.13.67.72.27,1.13.75,1.5,1.41Z"/>
  <path class="cls-7" d="M84.25,43.5c-.32,1.14-.81,2.23-1.5,3.2-.35.48-.75.93-1.2,1.33-.45.4-1.21.44-1.8.36-.31.43-.19,1.07-.52,1.48-.17.19-.41.3-.65.39-.86.32-1.76.55-2.66.73-.23.06-.46.1-.68.14-1.37.28-2.77.52-4.14.26-.22-.04-.44-.1-.62-.24-.23-.19-.33-.51-.38-.81-.1-.57-.04-1.13-.04-1.69,0-.64-.05-1.28-.16-1.91-.5-.09-.88-.61-.79-1.11.07-.42.4-.73.73-1.01.04-.04.09-.08.11-.14.02-.05.02-.1.02-.15,0-.61.55-1.11.6-1.71.02-.3-.08-.59-.13-.88-.05-.27-.02-.52,0-.8.02-.5.1-.99.27-1.47.32-.96.91-1.82,1.65-2.5.72-.67,1.59-1.18,2.54-1.46.14-.04.3-.08.45-.11.36-.07.73-.13,1.1-.16,1.49-.15,3.03-.07,4.43.46,1.39.52,2.66,1.53,3.28,2.88.7,1.52.56,3.3.1,4.91Z"/>
  <path class="cls-2" d="M78.56,44.38c0,1.24-.13,2.49-.56,3.65-.43,1.14-1.16,2.17-2.08,2.97-.23.06-.46.1-.68.14-1.37.28-2.77.52-4.14.26-.22-.04-.44-.1-.62-.24-.23-.19-.33-.51-.38-.81-.1-.57-.04-1.13-.04-1.69,0-.64-.05-1.28-.16-1.91-.5-.09-.88-.61-.79-1.11.07-.42.4-.73.73-1.01.04-.04.09-.08.11-.14.02-.05.02-.1.02-.15,0-.61.55-1.11.6-1.71.02-.3-.08-.59-.13-.88-.05-.27-.02-.52,0-.8.02-.5.1-.99.27-1.47.32-.96.91-1.82,1.65-2.5.72-.67,1.59-1.18,2.54-1.46.14-.04.3-.08.45-.11.47.33.83.87,1.14,1.35.02.03.05.06.07.1.48.72.85,1.51,1.15,2.33.6,1.66.85,3.43.85,5.19Z"/>
  <path class="cls-9" d="M73.6,37.52c.17.15.15.42.17.64.07.98.92,1.7,1.75,2.23.82.54,1.74,1.07,2.1,1.98.25.61.2,1.3.32,1.95.13.65.55,1.34,1.21,1.39.39-.77,1.05-1.4,1.83-1.76.67-.31,1.61-.35,2.03.25.15.21.21.48.24.74.07.83-.29,1.68-.92,2.21-.71.6-1.66.77-2.53,1.09-.87.32-1.77.92-1.89,1.84-.09.62.22,1.25.69,1.66.47.42,1.07.65,1.68.78,1.85.4,3.86-.03,5.38-1.16.89-.66,1.41-1.51,1.97-2.43.29-.48.35-1.08.43-1.64.26-1.82.32-3.79-.03-5.59-.38-1.94-1.2-3.81-2.48-5.32-.52-.61-1.11-1.17-1.79-1.6-1.85-1.17-4.2-1.29-6.36-.95-1.57.24-3.13.72-4.41,1.66-.38.28-1.66,1.37-1.38,1.96.28.59,1.48-.41,1.99.05Z"/>
  <path class="cls-4" d="M73.5,36.2c.09.7.53,1.32,1.06,1.8s1.14.85,1.69,1.3c.58.47,1.08,1.02,1.68,1.47.59.45,1.3.79,2.05.77.64-.02,1.24-.32,1.83-.56.84-.35,1.71-.6,2.6-.75.65-.11,1.34-.18,1.88-.56.31-.21.55-.51.75-.82.53-.83.76-1.96.21-2.77-.66-.96-2.05-1.03-2.98-1.73-.71-.54-1.08-1.43-1.75-2.02-.79-.71-1.99-.92-2.98-.52-.69.27-1.26.8-1.99.99-.72.18-1.51.06-2.2.37-1.02.45-1.97,1.96-1.84,3.06Z"/>
  <path class="cls-5" d="M79.94,34.97c.02.08.07.15.16.19.05.02.11.02.17.02.11,0,.22,0,.33-.02.09-.01.18-.03.27-.07.19-.1.14-.24.13-.42-.03-.86.12-1.66.57-2.4.07-.11.14-.22.17-.34.11-.42-.25-.69-.65-.6-.26.06-.36.31-.48.53-.32.61-.54,1.27-.63,1.95-.03.25-.05.5-.05.75,0,.12-.02.29.01.42Z"/>
  <path class="cls-7" d="M94.66,64.5c-.22-.83-.5-1.66-1.02-2.34-.52-.68-1.32-1.2-2.17-1.19-.75,0-1.46.41-1.97.97-.5.56-.82,1.26-1.07,1.97-.35,1.03-.33,2.01-.29,3.08.04,1.13.08,2.26.12,3.39-.39-.08-8.07-3.67-10.1-4.9-.34-.2-.68-.41-1.07-.49-.82-.16-1.69.39-1.97,1.18-.27.74-.09,1.67.56,2.14.75.55,1.32,1.21,1.94,1.91.9,1,1.79,2.01,2.76,2.94,3.04,2.92,6.77,5.11,10.81,6.32,2.28.68,3.37-1.49,3.68-3.38.62-3.84.78-7.83-.21-11.59Z"/>
  <path class="cls-6" d="M87.29,57.09c-.24.84-.38,1.72-.43,2.58-.16,2.39.11,4.78.39,7.16.02.14.03.28.09.4.14.33.51.49.86.57,1.17.28,2.39-.04,3.5-.5,1.81-.75,3.46-1.89,4.8-3.32.47-.5.48-.73.21-1.33-.26-.55-.51-1.11-.77-1.66-.51-1.11-1.02-2.22-1.53-3.33-.33-.71-.66-1.43-1.11-2.07-.33-.47-.73-.89-1.18-1.25-.5-.4-1.08-.74-1.72-.81-1.39-.16-2.12,1.15-2.6,2.23-.2.44-.36.89-.49,1.35Z"/>
  <path class="cls-6" d="M53.47,43.16c-.02-.84.07-1.68.17-2.5.2-1.68.33-3.37.31-5.06,0-.34-.02-.69.08-1.02.2-.68.73-.47.89.1.28,1.04.04,2.2.54,3.16.42-1.21.36-2.55.72-3.78.11-.38.36-.81.75-.8.09,0,.19.03.28.02.17-.03.32-.19.49-.14.13.04.19.2.21.33.06.31.09.62.1.94.24,0,.44.2.52.42.08.22.06.47.04.71-.07.74-.18,1.47-.35,2.2-.12.52-.27,1.03-.36,1.55-.22,1.27-.09,2.56-.27,3.83-.13.92.3,2.03.63,2.88.09.23.19.49.11.72-.05.12-.14.22-.23.31-1.03.99-2.56,1.44-3.96,1.16-.16-.03-.33-.08-.41-.22-.06-.1-.06-.23-.06-.35.03-1.09.13-2.14-.14-3.2-.1-.39-.05-.83-.06-1.23Z"/>
  <path class="cls-2" d="M56.22,41.17c-.1.33-.14.68-.23,1.01-.11.36-.29.69-.36,1.06-.07.37,0,.8.31,1.01.24.16.56.15.82.04.58-.25.87-.91.92-1.54.04-.63-.11-1.25-.16-1.88-.03-.38-.29-.72-.71-.55-.3.12-.5.58-.59.86Z"/>
  <path class="cls-6" d="M79.27,65.82c-.5-.27-.98-.57-1.43-.9-.8-.58-1.12-1.42-1.5-2.3-.44-1.05-.78-2.14-.95-3.26-.04-.25-.07-.51-.19-.74-.12-.23-.35-.41-.6-.4-.22.01-.44.17-.65.11-.13-.04-.22-.15-.29-.27-.22-.36-.29-.78-.45-1.17-.16-.39-.45-.77-.86-.82.1-.36-.21-.76-.58-.81s-.74.21-.89.55c-.17.42-.06.9.07,1.33.48,1.67,1.04,3.32,1.67,4.94-.81-.34-1.19-1.28-1.91-1.8-.28-.2-.69-.32-.94-.1-.21.18-.21.51-.1.76.12.25.33.43.52.63.49.49.92,1.05,1.25,1.65.69,1.27,1.04,2.81,2.19,3.7.29.22.62.39.9.62.41.32.73.74,1,1.18.14.22.27.45.4.68.1.18.2.44.34.59.26.29.96-.01,1.26-.15.47-.21.9-.54,1.23-.94.62-.74.94-1.7,1.05-2.67,0-.04,0-.08,0-.12-.02-.04-.07-.07-.11-.09-.14-.07-.28-.14-.42-.22Z"/>
  <path class="cls-8" d="M93.3,131.67c-.12.92-.2,1.85-.22,2.78-.03,1.51.15,3.07.83,4.43.22.45.52.9.98,1.11.7.31,1.52-.07,2.11-.56,1.02-.85,1.73-2.08,1.96-3.39.15-.85.1-1.72,0-2.58-.07-.65-.17-1.31-.04-1.95.09-.45.29-.87.46-1.29.82-2.12.68-4.66-.66-6.48.02.21.04.43-.05.62-.33.75-.85-.12-1.17-.32-.42-.27-1.01-.52-1.52-.35-.29.1-.35.32-.57.49-.13.1-.52.05-.45-.22-.68,2.54-1.36,5.11-1.69,7.71Z"/>
  <path class="cls-6" d="M99.19,126.04c0,.15-.02.29-.07.43-.1.26-.33.43-.56.56-1.07.61-2.42.72-3.57.28-.19-.07-.37-.16-.49-.31-.12-.15-.17-.33-.22-.52-.52-2.08-2.38-8.77-2.86-10.02-.23-.6-.45-1.22-.65-1.83.8.3,1.67.39,2.52.31,1.37-.12,2.67-.64,3.89-1.27.6-.32,1.21-.68,1.74-1.12.35,1.43.43,2.94.47,4.42.06,3.02-.06,6.04-.2,9.06Z"/>
  <path class="cls-3" d="M93.97,130.51c-.01.56,0,1.12.11,1.66.06.28.2.6.48.63.25.03.46-.2.59-.41.51-.79.76-1.72.96-2.65.2-.92.37-1.85.5-2.78.01-.1.03-.21,0-.31-.03-.1-.1-.19-.17-.26-.25-.25-.59-.43-.94-.44-.97-.03-1.12.78-1.25,1.53-.17,1-.27,2.01-.3,3.03Z"/>
  <path class="cls-8" d="M99.41,119.01c-.52.27-1.07.52-1.63.72-1.29.47-2.59.7-3.84.7-.45,0-.89-.03-1.33-.1-.29-1-.56-1.93-.78-2.65,1.5.51,3.31.43,5.12-.23.84-.31,1.63-.7,2.42-1.19,0,.24.02.48.02.72.02.68.02,1.35.02,2.03Z"/>
  <path class="cls-8" d="M99.38,121.17c-.02.93-.06,1.84-.1,2.77-.37.18-.75.33-1.14.47-1.29.47-2.58.7-3.83.7-.13,0-.25,0-.38,0-.19-.72-.43-1.59-.68-2.49,1.26.19,2.66.04,4.07-.47.71-.26,1.38-.58,2.06-.97Z"/>
</svg>