<?xml version="1.0" encoding="UTF-8"?>
<svg id="Layer" xmlns="http://www.w3.org/2000/svg" viewBox="0 0 157.04 169.78">
  <defs>
    <style>
      .cls-1 {
        fill: #ffaf80;
      }

      .cls-1, .cls-2, .cls-3, .cls-4, .cls-5, .cls-6 {
        stroke-width: 0px;
      }

      .cls-2 {
        fill: #f2f2f2;
      }

      .cls-3 {
        fill: #adb0ff;
      }

      .cls-4 {
        fill: #ffc7a6;
      }

      .cls-5 {
        fill: #8f93ff;
      }

      .cls-6 {
        fill: #4d4d4d;
      }
    </style>
  </defs>
  <g>
    <path class="cls-2" d="M66.51,130.25c7.41,4.28,7.44,11.21.09,15.48-7.36,4.28-19.32,4.28-26.73,0-7.41-4.28-7.44-11.21-.09-15.48,7.36-4.28,19.33-4.28,26.73,0Z"/>
    <path class="cls-5" d="M48.98,132.19c.17.94-.91.35-1.34.27-.45-.09-.97-.12-1.38.12-.73.42-1.41.91-2.1,1.39-1.14.8-2.28,1.61-3.36,2.5-.3.25-.59.5-.86.77-.41.4-.78.84-1.07,1.33-.51.88-.54,1.93-.02,2.82.32.55,1.13.55,1.69.46,1.04-.17,2.03-.66,2.8-1.39.36-.34.67-.73,1.01-1.09.6-.62,1.32-1.14,2.14-1.41.78-.25,1.61-.27,2.41-.45.65-.15,1.19-.38,1.49-.99.32-.64.43-1.39.28-2.1-.2-.95-.85-1.79-1.71-2.22Z"/>
    <path class="cls-1" d="M53.71,101.21c-.66,1.15-2.11,1.66-3.42,1.54s-2.52-.77-3.64-1.48c-.76-.49-1.58-.42-2.08.37-.56.88-.38,2-.21,2.98.72,4.37,1.7,8.95,1.46,13.4-.15,2.84-.31,5.68-.46,8.52-.08,1.57-.17,3.14-.25,4.71-.03.47-.05.94-.2,1.39-.15.45-.42.85-.71,1.23-.62.82-1.31,1.59-2.08,2.27,2.12-.56,4.24-1.13,6.25-2.01.52-.23,1.1-.57,1.15-1.13.02-.28-.09-.54-.14-.82-.06-.35,0-.7.06-1.05.62-3.18,2.47-6.04,2.99-9.24.14-.84.18-1.68.2-2.53.02-.94,0-1.86-.11-2.78-.12-.88.18-1.85.39-2.71.49-2,1.06-3.85.85-5.91-.11-1.08.03-2.23.03-3.32,0-1.15-.02-2.3-.07-3.45Z"/>
    <path class="cls-3" d="M51.26,56.29c.12-.41.3-.8.48-1.19-.24-.12-.52-.15-.8-.17-.77-.06-1.55-.08-2.32-.06-2.19.06-4.44.4-6.45,1.28-1.91.83-3.75,1.93-5.83,2.29-.74.13-1.49.16-2.24.15-.65,0-1.27-.19-1.91-.21-1.73-.05-3.44.2-5.12.58-1.62.36-3.21.84-4.81,1.29-.8.22-1.6.44-2.41.63-.71.17-1.52.13-1.82.93-.1.28-.12.57-.12.87,0,.25.03.5.08.74.08.38.2.75.38,1.1.06.13.17.43.3.51.12.07.37,0,.5,0,.89-.05,1.79-.06,2.68-.06,1.77,0,3.55.09,5.32.09,2.86.01,5.77-.18,8.47-1.1.02,0,.04,0,.06,0,3.48.02,6.96-.1,10.44-.24,1.02-.04,2.08-.09,2.95-.63.98-.61,1.52-1.74,1.79-2.86.21-.86.36-1.84.25-2.73-.05-.4.01-.8.13-1.2Z"/>
    <path class="cls-3" d="M59.56,135.83c-.34.72-.67,1.44-.95,2.19-.48,1.28-1.1,3.82.79,4.3.43.11.89.07,1.32-.04,1.78-.42,3.28-1.85,3.79-3.6.31-1.08.27-2.26.68-3.31.38-.99,1.13-1.81,1.43-2.82.33-1.1.06-2.35-.68-3.23-.1-.12-.21-.23-.36-.29-.15-.05-.33-.02-.42.1-.18.26-.01.61-.06.89-.06.34-.34.09-.58.05-.14-.02-.29-.03-.43-.04-.42-.02-.79.08-1.19.13-.28.03-.49-.31-.33-.59-.56.92-2.67,5.56-2.99,6.24Z"/>
    <path class="cls-4" d="M67.03,117.11c-.14-1.15-.39-2.28-.71-3.39-.29-1.01-.82-2.05-.92-3.09-.24-2.44-.69-4.88-1.04-7.3-.53.83-.45.32-1.04-.03-.63-.38-1.4-.63-2.12-.73-.91-.13-1.88,0-2.68.45-.92.52-1.48,1.41-1.78,2.4-.14.47-.11.98-.27,1.44-.1.29-.38.49-.46.76-.2.7.54,2.08.8,2.73.75,1.86,1.72,3.61,2.59,5.41.54,1.12.79,2.37,1.06,3.57.57,2.49.95,5.02,1.19,7.56.14,1.45.19,2.86.02,4.3,0,.04,0,.07-.01.11-.19,1.56-.58,3.09-.65,4.66,0,.21.04.49.25.53.1.02.2-.03.28-.08,1.46-.82,2.48-2.23,3.32-3.68.4-.69.77-1.41.99-2.18.23-.79.26-1.63.38-2.44.25-1.75.55-3.49.75-5.24.22-1.91.31-3.85.09-5.76Z"/>
    <path class="cls-6" d="M43.31,90.38c-.19,3.34-.29,6.69-.05,10.03.17,2.33.6,4.69,1.24,6.94.2.7.24,1.83.76,2.36.51.52,1.39.6,2.08.64,2.37.14,4.76.18,7.11-.2,1.92-.31,3.8-.88,5.61-1.61,1.38-.56,2.73-1.21,4.03-1.94.88-.5,1.73-1.3,1.95-2.34.3-1.46.13-3.09.05-4.57-.24-4.42-.71-9.03-2.65-13.08-.58-1.21-1.27-2.35-1.96-3.49-.87-1.44-1.74-2.87-2.61-4.31-.21-.35-.54-.76-.94-.67-.2.05-.34.2-.49.34-1.05,1.05-2.51,1.69-4,1.74-2.1.07-4.1-.96-6.19-1.05-1.93-.09-2.51,2.25-2.95,3.81-.68,2.39-.84,4.92-.98,7.4Z"/>
    <path class="cls-2" d="M47.68,56.51s-.02.05-.04.07c-1.03,2.11-2.03,4.24-3.05,6.36-.67,1.4-1.35,2.82-1.61,4.35-.26,1.53-.06,3.2.9,4.43.12.15.25.29.31.47.05.15.05.32.05.48-.06,3.64-.22,7.31-.22,10.94,0,.25,0,.51.07.75.06.18.17.34.29.49.42.51,1.03.84,1.63,1.12,5.13,2.34,11.51,1.68,16.06-1.66.09-.07-.5-1.9-.55-2.1-.18-.74-.34-1.48-.45-2.23-.23-1.55-.24-2.7.47-4.11,1.77-3.55,3.55-7.1,5.32-10.65.28-.57.78-1.2.49-1.82-.3-.63-.87-1.09-1.41-1.5-3.85-2.93-8.2-5.33-12.95-6.29-1.55-.31-4.42-.73-5.3.91Z"/>
    <path class="cls-5" d="M53.94,55.52c-.03.24-.33.41-.5.55-.46.42-.9.86-1.34,1.31-.97.98-1.88,2.01-2.7,3.12-1.55,2.12-2.94,6.06-3.19,8.68-.26,2.72-.29,5.48-.45,8.2l-.55,9.27c0,.16-.2.23-.31.12l-1.09-1.04c-.13-.13-.27-.25-.35-.42-.11-.22-.11-.47-.11-.71.01-2.96.02-5.92.03-8.87,0-1.1,0-2.22-.24-3.3-.22-.97-.71-1.86-.85-2.85-.16-1.12-.13-2.44.44-3.45.48-.85.9-1.75,1.39-2.61.76-1.33,1.46-2.7,1.96-4.16.36-1.06.82-2.09,1.38-3.06.21-.36.46-.71.82-.91.3-.17.65-.21,1-.25.63-.06,4.74-.62,4.64.37Z"/>
    <path class="cls-3" d="M49.09,61.51s-.04.08-.06.11c-1.3,2.3-1.98,4.84-2.47,7.43-.29,1.51-.46,3.02-.62,4.54-.04-1.24-.08-2.49.08-3.72.15-1.09.14-2.21.29-3.31.26-1.99.45-4.38.49-6.4.48-.22,1.37-.28,1.94-.43.23-.06.4-.26.39-.49-.05-1.35-.76-1.91-1.01-3.45,2.54-.58,5.14-.9,7.75-.93-2.72,1.68-5.18,3.88-6.77,6.65Z"/>
    <path class="cls-1" d="M51.98,60.62c0,.07.01.15.06.21.04.05.11.07.17.08,2.27.59,4.78.14,6.7-1.19.4-.28.79-.61,1.04-1.04.03-.06.07-.12.06-.19,0-.1-.07-.18-.14-.26-1.01-1.16-1.95-2.42-2.42-3.88-.2-.61-.31-1.25-.55-1.86-.43,1.79-2,3.25-3.82,3.56-.22.04-.54.18-.75.14-.14-.03-.55-.34-.54-.51-.11,1.67.07,3.28.18,4.94Z"/>
    <path class="cls-5" d="M55.79,61.2c-1.45,2.1-1.61,4.8-1.66,7.35-.15,6.92.06,13.84.63,20.74.02.25.2.47.45.52,2.72.62,5.76.25,7.89-1.54.19-.16.38-.34.46-.57.12-.31.04-.65-.05-.97-.57-2.16-1.25-4.29-2.03-6.39-.15-.41-.31-.82-.34-1.25-.04-.71.29-1.38.61-2.02,1.15-2.34,2.21-4.72,3.17-7.14.45-1.13.99-2.3,1.15-3.48.13-1.01.87-2.03.75-3.05-.11-.93-.96-1.57-1.74-2.09-2.23-1.5-4.44-3.3-6.8-4.57-.15.4.07.72.02,1.09-.05.43-.38.8-.64,1.14-.6.77-1.31,1.44-1.86,2.24Z"/>
    <path class="cls-3" d="M60.69,57.58c-.34-.63-.73-1.23-1.17-1.8-.3-.39-.63-.77-1.03-1.06-.01.28.02.59-.04.86-.06.29-.23.6-.36.86-.27.57-.6,1.11-.94,1.65-.67,1.05-1.41,2.09-1.87,3.25-.33.82-.56,1.69-.71,2.56-.19,1.06-.27,2.13-.34,3.21-.23,3.51-.1,7.12-.1,10.64.23-4.62.87-9.5,3.63-13.21.08-.11.16-.22.18-.35.02-.12-.02-.25-.07-.37-.23-.61-.56-1.18-.97-1.68.11.14,4.17-1.08,5.09-1.12-.28-1.2-.73-2.36-1.31-3.44Z"/>
    <path class="cls-4" d="M58.53,54.07s.08-.04.12-.07c.59-.34,1.09-.99,1.49-1.52.43-.56.78-1.18,1.05-1.84.53-1.3.72-2.73.53-4.12-.08-.53-.21-1.07-.48-1.54-.28-.48-.68-.87-1.11-1.22-1.05-.86-2.32-1.51-3.67-1.56-.6-.02-1.19.08-1.77.21-1.37.33-2.7.9-3.77,1.82-1.47,1.26-2.52,3.37-1.85,5.31.06.18.14.36.11.54-.02.11-.07.21-.13.31-.36.65-.72,1.31-1.08,1.96-.08.15-.17.33-.12.49.09.32.55.34.75.6.1.12.12.29.15.45l.4,2.75c.02.16.05.33.15.45.13.16.34.21.54.25,1.56.29,3.19.18,4.69-.32.32-.11.65-.23.89-.47.65-.62.54-1.78,1.23-2.36.61.2,1.3.14,1.88-.14Z"/>
    <path class="cls-6" d="M62.59,47.13c-.26-1.42-.7-2.58-1.75-3.59-1.07-1.04-2.51-1.67-3.99-1.86-1.93-.25-3.97.2-5.51,1.41-.42.33-1.82,1.48-1.54,2.08.2.43,1.49.23,1.87.24.34.76.81,1.46,1.38,2.07.6.64,1.31,1.19,1.7,1.98.22.45.32.95.51,1.42.19.47.5.92.97,1.09.35-.63.76-1.27,1.4-1.59.64-.32,1.57-.18,1.88.47.3.62-.09,1.36-.59,1.84-.5.47-1.13.82-1.53,1.38-.3.42-.43.94-.53,1.45-.13.69-.2,1.38-.23,2.08-.01.24-.12.78-.01.99.12.24.49.19.72.15,1.91-.31,3.72-1.24,5.08-2.62.27-.28.59-.61.7-.99.13-.45.06-1.02.06-1.49,0-1.17-.05-2.34-.17-3.51-.1-1-.24-2-.42-2.99Z"/>
    <path class="cls-1" d="M12.3,63.61c-.4.3-.52.75-.4,1.21.08.3.21.59.28.89.05.22.09.45.13.67.02.14.01.46.15.54.11.06.38.03.5.04.23.02.46.03.69.04.9.03,1.81-.03,2.7-.18.22-.04.46-.09.6-.27.17-.22.12-.55-.01-.8-.26-.51-.72-.72-1.13-1.08-.36-.31-.43-.89-.82-1.22-.37-.31-.9-.35-1.38-.29-.29.04-.58.1-.85.2-.16.06-.33.13-.47.23Z"/>
    <path class="cls-4" d="M16.47,62.05c-.5.02-1-.02-1.51,0-2.09.13-3.94,1.47-6.02,1.66-.39.04-.79.03-1.16.13-.17.04-.34.11-.46.23-.13.12-.2.31-.15.47.05.17.2.29.37.34.17.05.35.04.52.03,1.47-.09,2.93-.17,4.4-.26.15,0,.31-.02.46.03.3.1.47.41.61.69.02.03.03.07.03.1,0,.05-.04.09-.07.13-.34.35-.66.72-.96,1.11-.33.43-.66.94-.58,1.48.01.08.03.17.09.23.1.1.25.1.39.08.57-.08,1.07-.41,1.52-.78.44-.37.85-.78,1.33-1.1.69-.45,1.52-.66,2.2-1.12.3-.2.57-.45.89-.62.3-.16.7-.14.89-.44.21-.32.33-.79.37-1.17.04-.43-.04-.88-.28-1.24-.33-.51-.71-.34-1.21-.23-.55.12-1.11.22-1.68.24Z"/>
    <path class="cls-4" d="M63.29,83.52c-.53-.18-1.04-.44-1.57-.64-1.66-.61-3.5-.46-5.23-.08-.24.05-.49.12-.68.27-.19.15-.32.42-.23.65-.3-.02-.59.19-.67.48s.07.62.34.75c-.2.16-.18.5-.01.7.17.2.44.29.69.32.26.04.52.04.77.12-.18.13-.36.31-.36.53,0,.19.14.36.3.45s.36.12.55.15c1.09.15,2.18.28,3.27.4,1.14.13,2.31.25,3.43.02,1.33-.27,2.51-1.02,3.65-1.75.1-.07.21-.14.29-.24.08-.11.12-.24.14-.38.16-1.02-.49-2.11-1.46-2.44-.08-.03-.16-.05-.23-.03-.07.01-.13.05-.18.09-.38.24-.79.62-1.22.75-.51.15-1.09.05-1.58-.11Z"/>
    <path class="cls-3" d="M79.03,76.11c-.3-1.53-1.43-2.74-2.51-3.86-1.49-1.56-2.99-3.11-4.48-4.67-1.68-1.75-3.36-3.5-5.24-5.02-.68-.54-1.62-1.17-2.52-.81-.82.32-1.27,1.26-1.56,2.03-.68,1.8-1.01,3.73-.96,5.65.01.46.06.95.35,1.29.42.49,1.18.5,1.81.34.3-.08.6-.18.9-.16.25.02.49.12.73.23,1.8.84,6.78,5.74,6.57,6.13-.15.29-.42.51-.63.74-.39.42-5.87,4.53-6.83,5.16-.13.09-.27.18-.36.32-.08.13-.11.29-.13.45-.13,1.15.25,2.35,1.03,3.22.06.07.13.14.22.17.11.04.24,0,.35-.04,2.9-.99,5.43-2.82,7.9-4.64,1.52-1.11,3.22-2.23,4.39-3.74.69-.89,1.21-1.61.97-2.8Z"/>
  </g>
  <g>
    <path class="cls-2" d="M104.54,108.33c7.41,4.28,7.44,11.21.09,15.48-7.36,4.28-19.32,4.28-26.73,0-7.41-4.28-7.44-11.21-.09-15.48,7.36-4.28,19.33-4.28,26.73,0Z"/>
    <path class="cls-5" d="M81.22,116.37c-.44.6-.87,1.21-1.23,1.87-.51.92-1.21,2.28-.66,3.32.24.45.7.75,1.19.88.49.13,1.01.09,1.51,0,1.4-.28,2.7-1.09,3.56-2.24.6-.79,1.01-1.74,1.76-2.38.88-.74,2.14-.98,2.88-1.86.49-.57.68-1.35.63-2.1-.05-.75-.33-1.47-.7-2.12-.34-.6-.8-1.19-1.45-1.43-.06.26,0,.65-.18.85-.18.21-.52.22-.77.16-.2-.05-.41-.08-.61-.1-.15-.01-.41.04-.54-.02-.15-.08-.41-.67-.26-.81-1.56,1.43-2.87,3.11-4.18,4.77-.32.4-.63.81-.94,1.22Z"/>
    <path class="cls-1" d="M92.56,77.22c-.03-.05-.07-.1-.15-.12-.79-.29-1.24-1.1-1.84-1.69-1.08-1.06-2.67-1.41-4.18-1.6-.33-.04-.67-.08-1-.02-1.33.25-2.04,1.69-2.32,2.87-.32,1.37-.26,2.81-.18,4.21.03.48.06.95.08,1.43.15,2.38.32,4.76.59,7.13.12,1.1.28,2.17.29,3.29,0,1.15-.03,2.29-.03,3.44,0,2.71.21,5.41.43,8.1.12,1.52.25,3.04.34,4.55.08,1.28.1,2.59-.29,3.83-.37,1.16-1.13,2.15-1.63,3.25-.13.28-.25.58-.23.9,1.07-.28,2.05-.83,2.99-1.41.98-.61,1.93-1.25,2.86-1.94.56-.42,1.12-.87,1.41-1.51.02-.05.04-.11.04-.16,0-.07-.04-.13-.08-.18-.19-.3-.36-.61-.49-.93-.14-.32-.1-.66-.07-1.01.06-.81.31-1.57.47-2.35.18-.85.42-1.68.54-2.54.25-1.7.28-3.43.28-5.15,0-1.83-.06-3.66.04-5.49.15-2.7.44-5.41,1.05-8.05.36-1.57.83-3.11,1.08-4.7.13-.8.2-1.62.17-2.43-.01-.38-.07-.75-.13-1.12-.03-.19.04-.44-.04-.59Z"/>
    <path class="cls-6" d="M99.54,31.46c.06,1.63-1.21,3.01-2.84,3.07-1.63.06-3.01-1.21-3.07-2.84-.06-1.63,1.21-3.01,2.84-3.07s3.01,1.21,3.07,2.84Z"/>
    <path class="cls-3" d="M93.99,107.48c-.59,1.38-1.2,2.8-1.24,4.3,0,.19,0,.39.05.57.13.47.55.81,1.02.94.47.13.97.08,1.43-.05,1.4-.37,2.58-1.36,3.4-2.55.26-.38.49-.79.61-1.23.18-.65.14-1.33.26-1.99.09-.48.25-.94.47-1.37.11-.21.27-.39.36-.62.23-.57.3-1.17.27-1.78-.03-.67-.2-1.33-.5-1.93-.05-.11-.12-.22-.22-.29.08.05-.42.68-.48.74-.26.29-.35-.07-.61-.17-.87-.35-1.93.14-2.62.69-.3.24-.44.6-.59.94-.25.59-1.34,3.11-1.63,3.78Z"/>
    <path class="cls-4" d="M101.58,86.48c-.06-.65-.1-1.31-.1-1.97,0-.83.18-1.7.31-2.53.13-.87.29-1.73.46-2.59.14-.67.28-1.34.44-2.01-.38-.45-.68-.96-1.08-1.4-.73-.83-1.77-1.38-2.87-1.54-1.1-.16-2.24.07-3.2.63-.83.48-1.52,1.19-2.01,2.01-.47.78-.7,1.67-.66,2.59.02.44.09.89.22,1.31.13.39.14.81.26,1.22.46,1.58.91,3.15,1.37,4.73.43,1.5.88,2.98,1.13,4.52.36,2.18.45,4.4.36,6.61-.05,1.24-.15,2.48-.3,3.72-.29,2.41-.73,4.8-.83,7.22.22.03.4-.15.55-.31,2.35-2.57,4.28-5.55,5.46-8.82,1.18-3.28,1.58-6.86.92-10.28-.2-1.03-.36-2.06-.45-3.1Z"/>
    <path class="cls-6" d="M82.61,83.07c.01.16.03.33.11.46.09.15.26.23.42.31,2.47,1.17,5.32,1.19,8.03.96,3.56-.31,7.15-1.07,10.22-2.88.22-.13.43-.26.59-.45.19-.23.3-.51.4-.79.4-1.11.8-2.22,1.1-3.36,1.09-4.06.91-8.41-.22-12.46-1.12-4.05-3.17-7.81-5.72-11.15-.84,1.25-2.21,2.09-3.67,2.45-1.46.36-3.01.27-4.48-.07-1.78-.41-3.28-.22-3.84,1.7-.56,1.88-1.35,3.67-1.84,5.58-1.05,4.1-1.41,8.34-1.4,12.56,0,2.38.12,4.77.3,7.15Z"/>
    <path class="cls-3" d="M85.91,35.73c-.63.81-.78,1.89-.88,2.91-.59,5.89-.26,11.86.95,17.65.93-.96,1.48-2.23,1.82-3.52.33-1.29.46-2.63.65-3.95.61-4.16,1.9-8.29,1.52-12.47-.05-.52-.12-1.06-.37-1.53-.19-.36-.48-.65-.85-.82-.4-.18-.61-.05-.95.19-.65.48-1.39.89-1.89,1.53Z"/>
    <path class="cls-5" d="M87.07,37.12c-.12.56-.19,1.14-.24,1.71-.1,1.3-.06,2.62-.22,3.92-.03.25-.07.51-.16.75-.12.31-.32.58-.53.84-.55.68-1.16,1.3-1.65,2.02-.49.72-.86,1.56-.84,2.43.03,1.51,1.33,2.43,1.51,3.8.24,1.78.32,3.58.26,5.38-.03.76-.24,1.59-.23,2.34,0,.68.78,1.26,1.31,1.59,1.21.76,2.64,1.11,4.07,1.18,1.43.07,2.86-.13,4.26-.41,1.01-.2,2.02-.43,2.96-.85.76-.33,1.46-.77,2.17-1.21.59-.36,1.53-.93,1.56-1.7.02-.49-.27-1.12-.36-1.6-.1-.55-.18-1.1-.22-1.65-.1-1.28-.03-2.57-.19-3.84-.07-.56-.19-1.12-.08-1.67.08-.42.3-.81.5-1.19.92-1.73,1.62-3.58,2.09-5.48.13-.51.25-1.09.08-1.6-.17-.49-.54-.9-.91-1.26-2.04-2.01-4.39-3.7-6.93-5.01-1.59-.82-3.32-1.51-5.11-1.39-.51.04-1.03.14-1.44.44-.26.18-.37-.06-.63.08-.13.07-.21.2-.29.32-.37.63-.61,1.33-.76,2.05Z"/>
    <path class="cls-1" d="M90.97,39.04s0,.08.02.11c.06.1.37.03.47.02.17-.02.35-.04.52-.07,1.43-.26,2.75-1.03,3.76-2.08.11-.11.21-.23.28-.36.22-.47-.19-.79-.39-1.18-.22-.44-.35-.91-.45-1.39-.16-.77-.24-1.56-.45-2.32-.09.85-.76,1.52-1.46,2.01-.74.51-1.55.92-2.4,1.19-.38.12-.78.22-1.18.2-.27-.02-.11,1.38-.09,1.65.02.28.02.57.05.85.03.29.23.18.44.12.12-.04.25-.07.38-.09.05,0,.11-.01.16,0,.05.02.09.05.13.09.15.15.24.36.27.57.02.23-.03.45-.04.68Z"/>
    <path class="cls-3" d="M89.52,40.34c-.52-1.37-.67-2.93.16-4.22,0,.22,0,.45.05.67.15.58.72.71,1.24.8-.36,0-1.47,2.7-1.45,2.75Z"/>
    <path class="cls-3" d="M93.14,37.15c-.77.27-1.6.36-2.41.44-.08.59-.13,1.18-.16,1.77-.01.3-.02.59-.02.89,0,.25-.08.59.25.43.93-.46,1.9-.83,2.85-1.26.71-.32,1.42-.68,2.05-1.15.47-.35.94-.81.99-1.4.03-.36-.11-.73-.37-.98-.12-.11-.26-.21-.3-.36-.07-.28-.14-.54-.31-.79-.17-.27-.43-.48-.58-.76.13.47.23,1.11.08,1.59-.12.38-.54.72-.85.96-.36.28-.78.49-1.21.64Z"/>
    <path class="cls-4" d="M94.81,32.94c0,.09.78-.13.85-.16.26-.13.45-.34.67-.52.45-.36.81-.89,1.04-1.42.18-.41.26-.86.31-1.31.18-1.47.05-3-.57-4.34-.62-1.34-1.77-2.47-3.2-2.86-.67-.19-1.37-.21-2.06-.13-1.52.17-2.98.83-4.07,1.9-1.15,1.13-1.86,2.72-1.84,4.34,0,.5.14,1,.17,1.5.03.64-.12,1.29-.09,1.93.02.49.15.97.28,1.44.21.79.44,1.58.66,2.37.1.34.2.7.46.95.38.36.98.37,1.5.3,1.47-.2,2.84-.83,4.19-1.44.53-.24,1.07-.49,1.49-.89.12-.11.24-.24.29-.4.14-.4-.12-.83-.08-1.25Z"/>
    <path class="cls-6" d="M87.71,25.71s.09.01.14.02c.28.06.41.25.61.43.34.3.74.53,1.16.72.79.34,1.64.56,2.35,1.04.28.19.53.41.69.7.2.36.24.79.36,1.18.16.55.47,1.06.88,1.45.22-.55.56-1.06.99-1.47.32-.3.74-.57,1.18-.5,1.19.18.51,1.85.1,2.48-.36.55-.87.99-1.44,1.32.48.08.98-.04,1.41-.26,1.21-.62,2.01-1.7,2.19-3.05.18-1.33.16-2.71-.19-4.02-.42-1.59-1.41-3.1-2.95-3.73-.95-.39-2.06-.57-3.1-.53-1.04.05-2.03.41-2.91.95-.79.49-1.54,1.07-2.08,1.84-.53.75-.89,1.62-.97,2.53.22-.42.55-.8.98-1,.18-.08.39-.13.6-.12Z"/>
    <path class="cls-4" d="M85.43,70.86c-.33.28-.59.64-.87.97-.37.44-.77.85-1.2,1.22-.58.51-1.24.98-1.54,1.69-.05.12-.09.27-.02.38.04.06.1.09.13.15.14.21-.07.54.08.74.09.12.26.13.4.08.14-.05.25-.15.37-.23.69-.44,1.59-.19,2.41-.23,1.16-.06,2.18-.74,3.08-1.47,1.7-1.38,3.15-3.04,4.88-4.39-.4-.91-1.15-1.66-2.05-2.07-.1-.04-.21-.09-.31-.06-.08.02-.14.07-.2.11-.69.53-1.4,1.01-2.14,1.46-.59.35-1.24.61-1.85.92-.41.21-.82.42-1.17.72Z"/>
    <path class="cls-3" d="M104.26,44.91c-.17-1.01-.51-1.98-1.02-2.87-.25-.44-.54-.86-.96-1.15-1.74-1.23-3.39,1.61-3.83,2.98-.41,1.28-.48,2.64-.54,3.98-.16,3.57-.27,7.13-.33,10.7-.26.31-8.42,9.57-9.16,10.47-.09.11-.18.22-.22.36-.05.17,0,.36.06.53.29.86.86,1.62,1.6,2.13.2.14.43.27.68.27.29,0,.55-.19.78-.36,3.53-2.68,6.69-5.83,9.48-9.27,1.61-1.99,2.39-4.51,2.83-6.99.47-2.64.72-5.4.76-8.08.01-.9,0-1.81-.15-2.69Z"/>
  </g>
  <g>
    <path class="cls-2" d="M138.88,118.73c7.79,4.5,7.83,11.79.09,16.28-7.74,4.5-20.32,4.5-28.11,0-7.79-4.5-7.83-11.79-.09-16.28,7.74-4.5,20.33-4.5,28.11,0Z"/>
    <path class="cls-1" d="M105.84,79.85c-.3.22-.6.44-.9.66-.15.11-.31.22-.42.38-.12.16-.18.36-.23.55-.16.58-.27,1.17-.34,1.77-.03.25-.05.51,0,.76.06.34.24.64.42.92.3.48.64.98,1.15,1.24.13.07.33.09.37-.05.25.29.7.28,1.08.25.17-.01.36-.04.47-.16.19-.21.07-.55-.13-.76-.19-.21-.45-.37-.55-.64-.08-.2-.04-.43.04-.63.08-.2.2-.39.3-.58.14-.27.24-.55.44-.78.15-.18.35-.31.53-.47.45-.39.81-.95.93-1.54.03-.13.01-.25.05-.38.04-.16.11-.32.17-.47.13-.31.3-.6.5-.87-.22-.33-.51-.63-.86-.81-.35-.19-.77-.26-1.16-.16-.08.02-.16.05-.23.1-.08.07-.14.17-.19.26-.15.28-.35.63-.63.8-.29.18-.54.4-.81.61Z"/>
    <path class="cls-4" d="M105.83,83.14c-.09.45-.17.89-.17,1.35,0,.13.03.29.15.34.06.02.12.02.18,0,.15-.04.28-.12.39-.23.63-.6.54-1.67,1.08-2.36.3-.39.8-.64.97-1.1.17-.45-.06-.99-.47-1.23-.42-.24-.97-.16-1.34.14-.39.32-.55.81-.49,1.29.04.27-.06.55-.11.81-.06.33-.13.65-.19.98Z"/>
    <path class="cls-1" d="M125.44,102.37c.03.07.06.14.12.19.07.06.16.07.25.08,1.9.21,3.88-.53,5.19-1.93.05-.06.11-.12.13-.19.03-.09,0-.19-.01-.28-.25-1.09-.62-2.15-.99-3.21-.54-1.53-1.08-3.07-1.61-4.6-.1-.29-.21-.58-.43-.79-.2-.19-.47-.29-.74-.35-1.03-.23-2.12-.02-3.06.44-.37.18-.73.41-.99.74-.21.27-.34.61-.44.94-.42,1.46-.31,3.18.45,4.51.81,1.44,1.46,2.94,2.14,4.45Z"/>
    <path class="cls-5" d="M126.98,119.28c-.61.64-1.14,1.33-1.55,2.12-.26.51-.43,1.03-.44,1.61,0,.4-.04.97.33,1.24.22.16.52.2.78.22.69.04,1.38-.17,2.02-.44.76-.32,1.49-.72,2.09-1.28.53-.5.95-1.11,1.51-1.58.97-.81,2.26-1.05,3.32-1.7.56-.34.91-.74.97-1.4.06-.69-.07-1.4-.37-2.03-.41-.83-1.14-1.5-2-1.85,0,.24-.02.48,0,.72.01.14.1.29.09.43,0,.42-.45.32-.72.3-.23-.02-.44.04-.58-.17-.06-.09-.15-.41-.02-.49-1.29.8-2.51,1.72-3.67,2.69-.61.51-1.21,1.04-1.76,1.62Z"/>
    <path class="cls-1" d="M129.58,115.87c.08.34.21.58.11.95-.1.38-.34.72-.59,1.02-.38.45-.82.88-.98,1.45-.02.07-.03.16.02.21.03.03.08.04.12.05.25.04.51-.06.75-.15,1.26-.52,2.43-1.24,3.63-1.88.77-.41,1.6-.85,1.98-1.63.07-.14.12-.3.1-.45-.04-.28-.29-.46-.48-.67-.31-.33-.49-.78-.58-1.22-.14-.71-.07-1.43-.07-2.14,0-.77.01-1.53.04-2.3.04-1,.11-2.01.01-3.01-.15-1.64-.72-3.2-1.3-4.74-.57-1.51-1.16-3.02-1.75-4.52.04.09-.24.35-.31.38-.27.11-.21.03-.42-.09-.45-.25-.67-.45-1.22-.51-.84-.09-1.75-.17-2.48.26-.69.4-1.09,1.19-1.21,1.98-.32,2.07.48,3.84,1.18,5.73.87,2.37,1.66,4.77,2.36,7.2.39,1.36.76,2.73,1.1,4.11Z"/>
    <path class="cls-3" d="M116.5,68.71c.82-5.33,2.7-10.55,2.44-15.93-.03-.65.04-1.66-.62-2.01-.3-.16-.64-.19-.98-.2-.5-.02-1,.02-1.5.1-1.1.19-1.92,1.24-2.31,2.23-.71,1.84-.69,3.91-.58,5.87.18,3.31-.02,6.74-1.45,9.8-1.01,2.18-4.71,10.12-4.61,10.25.61.77,1.47,1.34,2.42,1.6.08.02.17.04.24.01.09-.04.14-.13.19-.22,1.69-3.32,4.51-5.97,6.25-9.25.07.03.15.06.22.09.02-.21.04-.42.07-.63.02-.04.04-.07.05-.1.18-.38.35-.8.28-1.22-.02-.13-.07-.26-.11-.38Z"/>
    <path class="cls-3" d="M113.2,130.05c-.71.76-1.37,1.68-1.41,2.72-.02.48.11.99.47,1.31.38.34.93.4,1.44.38,1.15-.05,2.29-.42,3.25-1.06,1.24-.83,2.17-2.09,3.47-2.82.7-.39,1.51-.63,2.03-1.24.56-.64.57-1.7.47-2.51-.11-.87-.45-1.72-.99-2.42.11.14-.38.41-.47.4-.23,0-.55-.27-.78-.34-1.1-.34-2.4.03-3.02,1.03-.71,1.15-1.8,2.06-2.79,2.95-.57.52-1.15,1.04-1.67,1.6Z"/>
    <path class="cls-4" d="M129.18,92.68c.02-.52-.16-1.02-.42-1.47-.87-1.51-2.67-2.37-4.41-2.28-1.64.09-2.92.93-4.09,2.02-.51.47-.63.85-.83,1.52-.27.92-.6,1.82-.87,2.73-.58,1.91-.94,3.88-1.22,5.85-.27,1.85-.7,3.81-.5,5.69.11,1.01.39,2,.54,3.01.32,2.25.54,4.52.68,6.79.08,1.3.15,5.73.02,6.63-.25,1.7-.96,3.32-2.04,4.65-.4.49-.85.95-1.08,1.53,1.54-.7,3.08-1.4,4.62-2.1.69-.31,1.4-.64,1.87-1.23.36-.44.55-.98.74-1.52.61-1.73,1.21-3.47,1.62-5.26.47-2.08.67-4.23.58-6.36-.03-.69-.09-1.38-.15-2.07-.12-1.39-.35-2.85-.18-4.27.16-1.39.77-2.65,1.29-3.96,1.12-2.84,2.26-5.67,3.44-8.48.19-.46.39-.94.41-1.44Z"/>
    <path class="cls-6" d="M114.59,79.4c-.02,1.68.22,3.35.53,5.01.41,2.18.71,4.31,1.17,6.47.53,2.49.87,5.07.44,7.6-.03.15-.05.31,0,.45.04.14.15.25.25.35,1.78,1.74,4.38,2.48,6.87,2.38,2.49-.1,4.89-.98,7.11-2.11.63-.32,1.47-.7,1.85-1.33.67-1.11-.18-2.6-.11-3.79.15-2.42.78-4.78.95-7.2.42-5.86-1.89-11.67-5.41-16.38-.09-.12-.19-.25-.34-.27-.17-.03-.33.1-.47.21-.84.67-1.88,1.05-2.93,1.27-1.03.21-2.1.27-3.12.01-.72-.18-1.39-.51-2.09-.74-.7-.22-1.49-.33-2.17-.06-.6.23-.95.73-1.08,1.34-.15.68-.45,1.32-.66,1.99-.49,1.55-.76,3.18-.78,4.81Z"/>
    <path class="cls-5" d="M116.19,50.64c-.23,0-.47,0-.67.12-.24.15-.33.46-.39.74-.52,2.56.06,5.36-1.08,7.7-.3.61-.71,1.17-1,1.79-.82,1.7-.71,3.82.29,5.42.2.33.44.63.6.98.2.44.27.92.34,1.39.27,1.83.55,3.67.82,5.5.05.3.09.62.23.89.33.65,1.09.94,1.79,1.13,4.11,1.13,8.66.55,12.36-1.56.21-.12.42-.25.54-.46.09-.16.11-.35.13-.53.32-3.14.22-6.32.82-9.41.32-1.63.83-3.22,1.33-4.81.25-.81.5-1.62.72-2.44.17-.65.54-1.58.27-2.24-.13-.32-.41-.56-.68-.77-2.8-2.25-5.74-4.37-8.99-5.92-.32-.15-.67-.3-1.01-.2-.5.14-.63.66-.95.99-.44.45-1.1.93-1.68,1.17-1.15.48-2.56.53-3.79.52Z"/>
    <path class="cls-6" d="M116.17,38.76c-.27.43-.42.92-.53,1.42-.42,1.95-.17,3.99-.45,5.96-.07.48-.17.96-.27,1.43-.15.72-.3,1.43-.45,2.15-.14.65-.15,1.21-.1,1.87.09,1.28.39,2.55.99,3.69.14.27.3.52.47.77.1.15.51.51.53.68-.11-1.01.14-2.02.48-2.97.34-.95.78-1.87,1.07-2.84.11.71.38,1.39.79,1.97-.1-.14.05-.44.1-.58.08-.25.17-.49.27-.73.19-.48.43-.94.73-1.36.48-.65,1.15-1.19,1.94-1.37.25-.05.5-.07.76-.09.16-.01.31-.02.47-.01-.08,0-.41-2.26-.43-2.4-.28-1.61-.57-3.23-.87-4.84-.33-1.74-.79-3.46-1.09-5.19-1.32,0-2.57.65-3.56,1.52-.29.26-.57.54-.79.86-.01.02-.02.04-.03.05Z"/>
    <path class="cls-1" d="M119.39,53.1c.19,0,.38-.05.55-.14.06-.03.13-.07.19-.05.03,0,.05.03.08.04.08.06.16.12.22.19.17.22.15.53.13.82,0,.07,0,.14.02.2.06.13.19.07.3.07.15,0,.3-.01.45-.02.3-.03.6-.07.89-.13.59-.12,1.17-.31,1.71-.55,1.24-.56,2.34-1.42,3.21-2.46.03-.04.06-.08.05-.12,0-.04-.04-.06-.07-.09-.14-.13-.22-.31-.29-.49-.18-.45-.36-.9-.54-1.34-.49-1.21-.97-2.42-1.46-3.64,0,.21-.23.54-.31.74-.09.23-.19.37-.34.55-.34.4-.69.75-1.15,1.03-.84.51-1.81.75-2.78.91-.33.05-.69.11-.91.36-.46.53-.1,1.59-.11,2.24,0,.52-.02,1.04-.02,1.55,0,.07-.04.15-.03.21,0,.1.12.12.22.12Z"/>
    <path class="cls-3" d="M119.21,50.97c.04.36.21.7.38,1.01.2.36.46.7.74,1-.14.25-.35.47-.52.71-.17.23-.33.47-.47.72-.3.5-.54,1.03-.68,1.59.01-.05-.02-.16-.03-.21-.01-.08-.03-.17-.04-.25-.02-.16-.05-.33-.07-.49-.04-.33-.07-.65-.07-.98-.01-.64.07-1.28.24-1.9.06-.21.12-.41.18-.62.08-.26.16-.52.32-.74,0,.05,0,.11,0,.16Z"/>
    <path class="cls-3" d="M125.02,50.64c-1.26.96-2.69,1.69-4.21,2.17-.13.04-.38.06-.48.16-.1.09-.09,1.18-.05,1.55.07.75.26,1.48.56,2.17.15-.41.48-.72.81-1.01.51-.44,1.05-.84,1.62-1.19,1.01-.62,2.11-1.1,3.03-1.84.33-.27.65-.58.85-.95.18-.32.28-.7.23-1.06-.02-.15-.06-.29-.17-.39-.11-.11-.21-.17-.27-.32-.1-.23-.15-.49-.17-.75-.01-.13-.02-.27-.04-.4-.05-.23-.18-.44-.34-.62-.17-.18-.41-.34-.64-.27.31.48.42,1.09.3,1.65-.11.51-.62.81-1.02,1.11Z"/>
    <path class="cls-4" d="M125.71,47.12c.12-.09.24-.2.34-.29.37-.34.67-.75.9-1.19.23-.44.28-.97.34-1.46.16-1.27.22-2.57-.02-3.83-.24-1.26-.82-2.49-1.77-3.34-1.05-.94-2.51-1.38-3.92-1.25-1.4.13-2.74.81-3.73,1.81-.24.24-.47.51-.67.79-.07.1-.15.28-.27.3-.05,0-.35-.11-.32-.16-.35.59-.6,1.24-.74,1.92-.13.61-.17,1.24-.17,1.86,0,2.28.15,4.63.71,6.84.15.57.36,1.19.88,1.48.35.19.77.2,1.16.17,1.66-.1,3.28-.61,4.77-1.33.41-.2.82-.42,1.07-.8.28-.43.3-.98.3-1.49,0,.21.61.19.74.18.14-.02.27-.09.39-.18Z"/>
    <path class="cls-6" d="M118.38,39.22c.13.1.23.22.34.34,1.07,1.14,2.86,1.62,3.49,3.05.22.5.26,1.07.4,1.6s.41,1.08.91,1.32c.2-.66.62-1.24,1.17-1.65.35-.26.82-.45,1.23-.28.47.19.66.8.52,1.28-.14.49-.52.86-.93,1.16-.38.27-.79.49-1.09.84-.29.33-.54.67-.74,1.07-.39.76-.6,1.6-.79,2.42-.67,2.91-.99,6.19.46,8.93.14.27.3.52.47.77.1.15.51.51.53.68-.11-1.01.14-2.02.48-2.97.34-.95.78-1.87,1.07-2.84.11.71.38,1.39.79,1.97-.1-.14.05-.44.1-.58.08-.25.17-.49.27-.73.19-.48.43-.94.73-1.36.48-.65,1.15-1.19,1.94-1.37.25-.05.5-.07.76-.09.16-.01.31-.02.47-.01-.05,0-2.08-12.64-3.07-14.81-.29-.64-.58-1.03-1.1-1.48-1.05-.91-2.34-1.32-3.72-1.34-2.25-.04-4.51.9-6.06,2.54-.55.58-1.03,1.32-.98,2.12,0-.11.27-.32.34-.39.5-.45,1.47-.61,2.03-.18Z"/>
    <path class="cls-4" d="M136.87,85.55c-.06.31-.05.62-.07.93-.05.78-.23,1.55-.54,2.26-.19.44-.44.89-.42,1.37,0,.04,0,.08.03.12.06.09.2.08.3.04.39-.17.65-.54.85-.92.2-.38.36-.78.66-1.09-.06,1.18-1.23,2.08-1.3,3.27,0,.05,0,.1.02.14.07.13.26.1.39.04.78-.36,1.37-1.03,1.93-1.68.52-.6,1.04-1.2,1.56-1.8.22-.25.44-.52.53-.84.09-.31.04-.63,0-.95-.09-.68-.13-1.36-.14-2.05-.01-.84.02-1.72-.35-2.47-.11-.23-.27-.44-.49-.56-.19-.09-.41-.11-.62-.1-.37.02-.73.11-1.07.27-.25.12-.51.3-.57.57-.02.11-.02.22,0,.32.04.52.2,1.17-.03,1.67-.23.5-.54.9-.65,1.46Z"/>
    <path class="cls-3" d="M141.25,75.29c0-.18-.01-.36-.02-.54-.06-1.54-.57-2.95-1.03-4.41-1.46-4.6-2.04-9.35-4.75-13.48-.63-.95-1.38-1.88-2.38-2.47-.48-.28-1.01-.61-1.54-.32-.48.27-.85.68-1.18,1.11-.39.52-.7,1.1-.91,1.71-.42,1.19-.52,2.47-.48,3.73.03.82.17,1.74.83,2.22.32.23.71.32,1.06.5.55.29.94.81,1.3,1.33.79,1.13,1.51,2.3,2.15,3.51.9,1.67,1.76,3.49,2.01,5.4.09.69.15,1.39.23,2.09.16,1.49.31,2.99.47,4.48.08.75.36,2.98.41,3.35.05.38.18.46.56.54.95.19,1.96.03,2.81-.44.34-.19.26-.33.25-.66-.01-.39.12-2.7.16-3.47.06-1.39.1-2.8.06-4.19Z"/>
  </g>
</svg>