<?xml version="1.0" encoding="UTF-8"?>
<svg id="Layer" xmlns="http://www.w3.org/2000/svg" viewBox="0 0 157.04 169.78">
  <defs>
    <style>
      .cls-1 {
        fill: #ffaf80;
      }

      .cls-1, .cls-2, .cls-3, .cls-4, .cls-5, .cls-6, .cls-7, .cls-8, .cls-9, .cls-10, .cls-11, .cls-12, .cls-13, .cls-14, .cls-15, .cls-16, .cls-17, .cls-18, .cls-19, .cls-20 {
        stroke-width: 0px;
      }

      .cls-2 {
        fill: #dfcfb8;
      }

      .cls-3 {
        fill: #ffedd2;
      }

      .cls-4 {
        fill: #f2f2f2;
      }

      .cls-5 {
        fill: #adb0ff;
      }

      .cls-6 {
        fill: #616161;
      }

      .cls-7 {
        fill: #8f5d31;
      }

      .cls-8 {
        fill: #ffbf00;
      }

      .cls-9 {
        fill: #ffd557;
      }

      .cls-21 {
        isolation: isolate;
      }

      .cls-10 {
        fill: #e6ab77;
      }

      .cls-11 {
        fill: #666;
      }

      .cls-12 {
        fill: #ffa200;
      }

      .cls-13 {
        fill: #d4bc9b;
      }

      .cls-14 {
        fill: #c9ad87;
      }

      .cls-15 {
        fill: #ffc7a6;
      }

      .cls-16 {
        fill: #661b1b;
      }

      .cls-17 {
        fill: #33343a;
      }

      .cls-18 {
        fill: #8f93ff;
      }

      .cls-19 {
        fill: #3a3a3a;
      }

      .cls-20 {
        fill: #4d4d4d;
      }
    </style>
  </defs>
  <path class="cls-4" d="M71.46,120.23c7.8,4.5,7.84,11.8.09,16.3-7.75,4.5-20.35,4.5-28.15,0s-7.84-11.8-.09-16.3c7.75-4.5,20.35-4.5,28.15,0Z"/>
  <path class="cls-4" d="M92.36,106.42c9.98,5.76,10.04,15.11.12,20.87s-26.05,5.76-36.04,0c-9.98-5.76-10.04-15.11-.12-20.87,9.92-5.76,26.05-5.76,36.04,0Z"/>
  <g>
    <path class="cls-4" d="M99.87,114.54l23.52-13.67c.39-.22.34-.62-.11-.88l-25.3-14.61c-.45-.26-1.13-.29-1.52-.06l-23.52,13.67c-.39.22-.34.62.11.88l25.3,14.61c.45.26,1.13.29,1.52.06Z"/>
    <path class="cls-20" d="M98.94,110h0c-.42,0-.76-.33-.78-.74l-1.37-27.24h4.31l-1.37,27.24c-.02.42-.37.74-.78.74Z"/>
    <path class="cls-20" d="M115.41,100.63h0c-.41.06-.8-.21-.89-.62l-5.51-26.71,4.64,3.08,2.41,23.39c.04.42-.25.79-.66.85Z"/>
    <path class="cls-20" d="M82.15,99.92h0c.41.06.8-.21.89-.62l5.51-26.71-4.64,3.08-2.41,23.39c-.04.42.25.79.66.85Z"/>
    <g class="cls-21">
      <path class="cls-7" d="M114.47,79.53l-11.63,6.76c-2.14,1.24-5.61,1.24-7.76,0l-11.71-6.76c-1.08-.62-1.62-1.44-1.62-2.26v3.95c-.02.82.52,1.64,1.6,2.26l11.71,6.76c2.15,1.24,5.62,1.24,7.76,0l11.63-6.76c1.06-.62,1.59-1.42,1.59-2.23v-3.95c.01.81-.52,1.61-1.58,2.23Z"/>
      <path class="cls-10" d="M114.44,75.04c2.15,1.24,2.16,3.25.03,4.49l-11.63,6.76c-2.14,1.24-5.61,1.24-7.76,0l-11.71-6.76c-2.15-1.24-2.16-3.25-.02-4.49l11.63-6.76c2.14-1.24,5.61-1.24,7.76,0l11.71,6.76Z"/>
    </g>
    <g class="cls-21">
      <path class="cls-10" d="M115.58,69.6l.04-4.48c0-2.47-1.73-5.48-3.88-6.72l-11.71-6.76c-1.08-.62-2.06-.68-2.77-.27l3.41-1.99c.71-.41,1.69-.35,2.77.27l11.71,6.76c2.15,1.24,3.89,4.25,3.88,6.72l-.04,4.48c0,1.23-.44,2.09-1.13,2.5l-3.41,1.99c.7-.41,1.13-1.27,1.13-2.5Z"/>
      <path class="cls-7" d="M111.68,71.83c2.15,1.24,3.9.25,3.9-2.22l.04-4.48c0-2.47-1.73-5.48-3.88-6.72l-11.71-6.76c-2.15-1.24-3.9-.24-3.9,2.23l-.04,4.48c0,2.47,1.73,5.48,3.88,6.72l11.71,6.76Z"/>
    </g>
  </g>
  <g>
    <path class="cls-1" d="M76.66,57.57c-.05-.78-.17-1.58-.5-2.29-.34-.71-.92-1.33-1.67-1.57-.49-.16-1.04-.14-1.53.03-.18.06-.37.26-.55.28-.11.02-.56-.26-.57-.25-.22.13-.31.4-.37.64-.26.96-.51,1.91-.77,2.86-.27.95-.55,1.89-.83,2.83-.38,1.25-.61,2.73-1.29,3.86-.26.44-8.76,6.97-9.08,7.15-.36,0-.75-.11-1.09-.23-.76-.28-1.44-.71-2.19-1-.41-.16-.84-.28-1.28-.3-.45-.02-.9.07-1.33.19-1.5.4-2.91,1.13-4.1,2.11-.25.21-.52.49-.47.81.02.15.11.29.08.44-.02.1-.09.17-.15.25-.14.17-.26.36-.31.57-.04.21.02.46.19.59.08.06.19.1.23.19.03.08,0,.17.03.25.03.14.19.22.33.25.14.03.3.02.43.09.11.06.2.16.29.24.17.14.39.22.62.25.69.1,1.37-.16,2.05-.3,1.1-.22,2.23-.09,3.35-.03,1.05.06,2.13.03,3.1-.37.02,0,.04,0,.06,0,1.56-.06,7.93-2.2,9.47-3.12,1.53-.92,2.92-2.14,3.82-3.68.04-.06.07-.13.1-.2,1.68-2.42,3.33-4.95,3.82-7.84.15-.9.19-1.81.13-2.72Z"/>
    <path class="cls-15" d="M51.89,73.28c.66,0,1.25-.39,1.9-.54.96-.22,1.96.12,2.95.08.29-.01.59-.06.81-.26.22-.2.3-.52.3-.82,0-.29-.05-.59-.23-.81-.17-.21-.44-.33-.72-.37s-.55,0-.82.03c-1.43.21-2.82.64-4.16,1.19-.35.14-.8.39-.82.82-.03.45.41.67.8.68Z"/>
    <path class="cls-18" d="M59.03,107.18c-1.77,1.05-3.59,2.23-4.61,4.03-.27.48-.48,1-.51,1.54-.15,2.42,2.73,2.45,4.41,2,1.93-.52,3.42-1.82,4.88-3.12.69-.61,1.7-.78,2.59-.9.98-.13,1.98-.17,2.92-.49.4-.14.8-.34,1.08-.65.33-.36.49-.84.59-1.31.32-1.54.05-3.18-.74-4.54.08.14-.03.42-.11.53-.16.25-.27.3-.46.1-.38-.4-.81-.73-1.31-.98-1.18-.58-2.55-.49-3.72.07-.49.23-.81.72-1.2,1.08-.53.5-1.12.93-1.72,1.34-.69.46-1.4.87-2.11,1.3Z"/>
    <path class="cls-16" d="M70.09,74.89s8.57,11.87,18.81,16.7l.26-.18,1.3-11.67-8.97-5.8-4.38-.66-7.01,1.6Z"/>
    <path class="cls-20" d="M91.98,78.47c-.1-1.26-.19-2.53-.54-3.75-.34-1.22-.95-2.4-1.91-3.22-.71-.6-1.57-.98-2.44-1.32-.75-.29-1.5-.53-2.3-.57-.7-.04-1.28-.21-1.83-.67-.1-.09-1.15-1.16-.82-1.3-.79.36-1.56.77-2.32,1.19-3.99,2.22-7.83,4.7-11.51,7.4-1.69,1.24-3.83,2.65-4.79,4.58-1,2-.91,4.06-.88,6.25.08,4.41-.08,8.83-.22,13.23-.03.94-.06,1.88-.11,2.82-.02.38-.16.9-.07,1.25.17.66,1.03,1.26,1.6,1.54.75.37,1.59.51,2.43.51,1.31,0,2.64-.35,3.67-1.15.09-.07.18-.15.24-.24.1-.16.11-.37.11-.56.04-1.7,1.08-10.71,1.41-13.53.11-.94.22-1.88.35-2.81.09-.62.07-1.91.52-2.32.4-.35,1.29-.51,1.78-.69,2.12-.78,4.25-1.52,6.39-2.25,2.59-.88,5.19-1.78,7.83-2.5.78-.21,1.56-.41,2.35-.59.36-.08.77-.19.96-.51.13-.23.12-.52.1-.79Z"/>
    <path class="cls-5" d="M70.72,56.09c-.12.8.1,1.38.62,2.01,1.44,1.75,3.71,2.78,5.98,2.7-.16,0-.55-1.04-.6-1.19-.15-.4-.33-.9-.32-1.34,0-.34.14-.66.17-1.01.04-.54.08-1.08.14-1.62.1-1,.24-2,.28-3.01.01-.38.01-.77-.05-1.15-.06-.32-.17-.64-.29-.94-.21-.52-.48-1.03-.88-1.42-.67-.66-2.52-1.27-3.17-.29-.83,1.25-1.14,3.08-1.42,4.53-.17.91-.31,1.82-.44,2.73Z"/>
    <path class="cls-5" d="M82.3,118.13c-1.01,1.59-4.09,6.43-4.48,7.34-.42.98-.95,3.04.36,3.58.5.21,1.05.29,1.59.3,1.44.02,2.89-.39,4.09-1.18,1.2-.79,2.16-1.95,2.69-3.29.2-.49.34-1.01.64-1.45.41-.6,1.07-.98,1.56-1.52,1.09-1.19,1.21-2.99.97-4.58-.1-.65-.25-1.31-.59-1.88-.02.2-.18.82-.51.68-.16-.07-.33-.32-.48-.44-.19-.14-.39-.26-.6-.35-.57-.25-1.24-.35-1.85-.26-.29.04-.51.19-.78.27-.07.02-.6-.07-.48-.23-.77.96-1.46,1.97-2.12,3.01Z"/>
    <path class="cls-6" d="M104.11,71.28c-.85-1.93-2.03-3.7-3.27-5.41-.76-1.04-1.65-2.36-2.76-3.04-.65-.4-.9.33-1.21.85-.33.58-.62,1.19-1.02,1.73-.57.77-1.27,1.45-2.04,2.02-1.5,1.1-3.31,1.78-5.18,1.85-.67.03-1-.03-1.55-.45-.14-.11-1.17-.94-1.08-1.12-.37.73-.29,1.6-.14,2.41.29,1.57.83,3.1,1.58,4.51.35.65.77,1.12,1.25,1.66.38.42.24.79-.07,1.3-.59.97-1.6,1.59-2.4,2.37-1.17,1.14-2.34,2.27-3.52,3.39-1.08,1.03-2.19,2.08-2.96,3.36-.44.72-.76,1.53-.89,2.36-.32,1.4.04,3.12.26,4.47.79,4.81,1.8,9.59,2.59,14.4.4,2.43.74,4.87.98,7.32.1,1.01.26,1.54,1.27,1.96.83.34,1.8.34,2.68.19,1.19-.19,2.38-.61,3.23-1.46.16-.17.32-.35.39-.57.08-.23.07-.49.05-.73-.35-6.64-.7-13.28-1.68-19.86-.11-.76-.36-1.74-.18-2.51.15-.63.6-.88,1.11-1.29,1.07-.85,2.19-1.64,3.31-2.41,1.97-1.36,4-2.62,5.97-3.99,2.02-1.4,4.28-2.82,5.56-4.99,1.55-2.65.91-5.67-.27-8.34Z"/>
    <path class="cls-12" d="M70.12,74.63s0,.02-.01.03c-.02.07-.04.14-.03.21,0,0,0,.02,0,.02.01.01.03,0,.05,0,.14-.04.22-.14.36-.09.15.05.29.12.44.17.3.11.61.21.92.3.61.18,1.23.33,1.85.49,3.95,1.09,7.72,3.1,10.38,6.21,1.14,1.34,2.06,2.85,2.84,4.43.39.79.75,1.6,1.09,2.42.34.8.62,1.64.98,2.42.02.04.06.05.05.11-.01.05-.05.08-.08.12-.03.04-.06.08-.06.13.19,0,.38-.14.55-.22.2-.09,3.39-1.72,4.17-2.17,1.55-.9,3.06-1.87,4.51-2.92s2.86-2.16,4.2-3.35c.17-.15.33-.3.5-.45.92-.83,1.82-1.71,2.46-2.77,1.12-1.86.79-3.92.09-5.87-.88-2.43-1.92-4.82-3.32-6.99s-3.19-4.12-5.38-5.51c.42.74,1.18,1.94.91,2.82-.13.43-.59.86-.91,1.15-.72.65-1.61,1.11-2.5,1.46-1.33.53-2.78.93-4.17.61-.78-.18-1.49-.57-2.24-.86-.95-.37-1.96-.57-2.97-.59-1.37-.03-1.98.55-3.03,1.25-1.27.85-2.59,1.64-3.88,2.45-.05.03-.1.07-.15.1-1.29.81-2.57,1.63-3.86,2.44-.64.41-1.29.81-1.93,1.22-.32.2-1.79,1.19-1.8,1.22Z"/>
    <path class="cls-18" d="M101.42,66.8c-.01.19-.12.36-.23.51-.35.48-.79.89-1.24,1.28-1.85,1.85-4.74,3-7.26,3.53-1.62.34-3.29.42-4.94.29-1.37-.1-3.11-.07-4.06-1.18-1.3-1.53-4.79-6.3-5.48-6.85-.68-.54-1.51-.88-2.25-1.33-.74-.46-1.65-1.14-1.87-2.04-.23-.92-.21-2.04-.25-3-.09-2.27-.31-4.54-.39-6.81-.07-1.75-.48-4.85,1.4-5.76.84-.41,1.82-.42,2.75-.35,3.42.24,6.75,1.39,9.62,3.25.36.22.71.46,1.05.73,2.19,1.59,4.07,3.61,5.44,5.95.91,1.55,1.62,3.22,2.61,4.73,1.48,2.25,3.57,4.08,4.9,6.43.11.19.22.4.2.62Z"/>
    <path class="cls-12" d="M88.27,49.07c-.37.08-.73.2-1.08.35-1.37.6-2.66,1.68-3.72,3.13-.89,1.2-1.48,2.45-1.76,3.7-.39,1.7-.22,3.5-.06,5.24l-1,.09c-.16-1.82-.33-3.7.08-5.55.32-1.39.96-2.76,1.93-4.07,1.17-1.6,2.6-2.79,4.14-3.45.14-.06.28-.12.42-.17.36.22.71.46,1.05.73Z"/>
    <path class="cls-12" d="M75.06,60.1c-.41-2.92-.87-6.22.02-9.31.28-.99.66-1.78,1.16-2.42.62-.8,1.44-1.36,2.31-1.57l.23.97c-.65.16-1.27.59-1.75,1.21-.42.54-.74,1.22-.99,2.09-.83,2.89-.38,6.08,0,8.89l-.99.14Z"/>
    <path class="cls-12" d="M101.42,66.8c-.02.19-.12.36-.23.51-.35.47-.79.89-1.24,1.27-1.86,1.85-4.74,3-7.26,3.53-1.62.34-3.3.42-4.94.3-1.37-.11-3.11-.08-4.06-1.19-1.31-1.53-4.79-6.3-5.49-6.85-.68-.54-1.51-.88-2.24-1.33-.75-.45-1.66-1.14-1.87-2.04-.08-.3-.12-.61-.16-.93.45-.48,1.04-1.18,1.42-1.19.24,0,.47.29.69.4,1.39.69,3.25.76,4.77.66.12,0,.25-.02.37.02.12.03.23.12.33.2,1.2.95,2.56,1.69,4.01,2.18,1.48.49,3.18.71,4.57-.02.58-.3,1.06-.74,1.54-1.19.65-.61,1.35-1.31,1.62-2.2.3-.97.08-2.25-.06-3.23-.1-.71-.24-1.41-.41-2.1.32.46.63.92.92,1.41.91,1.55,1.62,3.23,2.61,4.73,1.48,2.25,3.57,4.08,4.9,6.43.11.19.21.4.19.62Z"/>
    <path class="cls-1" d="M77.79,53.45c.05.07.1.13.17.17.11.07.24.07.37.06,1.69-.08,3.27-1.01,4.35-2.31.74-.9,1.27-2.04,1.22-3.21,0-.17-.03-.35-.1-.5-.11-.22-.31-.38-.51-.53-1.38-.99-2.95-1.73-4.18-2.91.05,1.62-.64,3.25-1.84,4.34-.45.41-.99.75-1.58.89-.05.01-.1.02-.14.06-.04.04-.05.09-.05.15-.02.35,1.79,3.13,2.3,3.79Z"/>
    <path class="cls-15" d="M79.69,47.03c1.67.15,1.92-1.9,2.02-3.12.11-1.33.02-2.68-.28-3.97-.18-.78-.44-1.56-.89-2.23-.38-.56-.89-1.03-1.44-1.43-2-1.42-4.73-1.81-7-.88-.37.15-.73.34-1.06.56-1.24.81-2.21,2.04-2.68,3.45-.54,1.6-.35,3.46.18,5.04.23.69.55,1.39.47,2.11-.07.61-.41,1.16-.54,1.76-.04.18-.06.38.04.54.18.28.6.23.93.29.67.11,1.12.73,1.46,1.31s.71,1.23,1.34,1.48c.51.2,1.08.09,1.6-.05,2.13-.57,4.12-1.67,5.72-3.18.09-.09.19-.18.23-.3.04-.09.04-.2.04-.3,0-.36-.05-.73-.15-1.08Z"/>
    <path class="cls-20" d="M70.09,40.92c.24.97,1.18,1.61,2.15,1.87.96.26,1.97.22,2.96.37.26.04.52.09.74.23.66.43.65,1.48,1.28,1.96.3-.77.69-1.61,1.47-1.9.86-.31,1.92.39,1.97,1.31.03.67-.38,1.27-.76,1.82-.46.67-.9,1.36-1.3,2.07-.15.25-.29.52-.32.81-.03.26.05.52.13.78.12.39.33,1.33.66,1.58.35.26,1.05-.17,1.36-.36,1.66-1.02,3.1-2.39,4.2-3.98.11-.16.22-.33.27-.51.07-.26.04-.53,0-.8-.18-1.1-.46-2.18-.77-3.25-.57-1.97-1.21-3.94-2.35-5.65-1.14-1.7-2.84-3.12-4.85-3.49-2.23-.42-4.85.06-6.59,1.57-.76.65-1.36,1.49-1.76,2.4-.26.6-.98,2.14-.07,2.45.53.18,1.43.01,1.61.72Z"/>
    <g>
      <g class="cls-21">
        <path class="cls-19" d="M71.34,124l-.02,2.78c0,2.05-1.35,4.09-4.04,5.66-5.41,3.15-14.22,3.15-19.67,0-2.74-1.58-4.11-3.66-4.11-5.74l.02-2.78c0,2.07,1.36,4.15,4.11,5.74,5.45,3.15,14.26,3.15,19.67,0,2.69-1.56,4.04-3.61,4.04-5.66Z"/>
        <path class="cls-11" d="M67.24,118.26c5.45,3.15,5.48,8.25.06,11.39-5.41,3.15-14.22,3.15-19.67,0-5.45-3.15-5.48-8.25-.06-11.39,5.41-3.15,14.22-3.15,19.67,0Z"/>
      </g>
      <g class="cls-21">
        <path class="cls-19" d="M58.64,85.35v39.99c0,.18-.12.36-.35.49-.47.27-1.24.27-1.71,0-.24-.14-.36-.32-.36-.5v-39.99c0,.18.12.36.36.5.47.27,1.24.27,1.71,0,.23-.14.35-.31.35-.49Z"/>
        <path class="cls-11" d="M58.28,84.85c.47.27.48.72,0,.99-.47.27-1.24.27-1.71,0-.47-.27-.48-.72,0-.99s1.24-.27,1.71,0Z"/>
      </g>
      <g class="cls-21">
        <path class="cls-12" d="M71.34,87.66l-.02,5.55c0,2.05-1.35,4.09-4.04,5.66-5.41,3.15-14.22,3.15-19.67,0-2.74-1.58-4.11-3.66-4.11-5.74l.02-5.55c0,2.07,1.36,4.15,4.11,5.74,5.45,3.15,14.26,3.15,19.67,0,2.69-1.56,4.04-3.61,4.04-5.66Z"/>
        <path class="cls-17" d="M67.23,81.93c5.45,3.15,5.48,8.25.06,11.39-5.41,3.15-14.22,3.15-19.67,0-5.45-3.15-5.48-8.25-.06-11.39,5.41-3.15,14.22-3.15,19.67,0Z"/>
      </g>
      <g class="cls-21">
        <path class="cls-8" d="M73.19,84.73l-.02,2.06c0,2.32-1.53,4.64-4.58,6.41-6.13,3.56-16.11,3.56-22.29,0-3.11-1.79-4.66-4.15-4.65-6.5l.02-2.06c0,2.35,1.55,4.71,4.65,6.5,6.17,3.56,16.15,3.56,22.29,0,3.05-1.77,4.57-4.09,4.58-6.41Z"/>
        <path class="cls-9" d="M68.54,78.23c6.17,3.56,6.21,9.34.07,12.91s-16.11,3.56-22.29,0-6.21-9.34-.07-12.91c6.13-3.56,16.11-3.56,22.29,0Z"/>
        <path class="cls-8" d="M67.39,78.9c5.54,3.2,5.57,8.38.07,11.58-5.5,3.2-14.45,3.2-19.99,0-5.54-3.2-5.57-8.38-.07-11.58,5.5-3.2,14.45-3.2,19.99,0Z"/>
      </g>
      <g class="cls-21">
        <path class="cls-12" d="M68.34,83.92v2.18c-.02,1.61-1.07,3.21-3.18,4.44-4.25,2.47-11.16,2.47-15.44,0-2.15-1.24-3.23-2.87-3.22-4.5v-2.18c0,1.63,1.08,3.26,3.23,4.5,4.28,2.47,11.19,2.47,15.44,0,2.11-1.23,3.17-2.83,3.17-4.44Z"/>
        <path class="cls-9" d="M65.12,79.42c4.28,2.47,4.3,6.47.05,8.94-4.25,2.47-11.16,2.47-15.44,0s-4.3-6.47-.05-8.94c4.25-2.47,11.16-2.47,15.44,0Z"/>
        <path class="cls-12" d="M62.12,81.16c2.61,1.51,2.62,3.95.03,5.45-2.59,1.51-6.8,1.51-9.41,0-2.61-1.5-2.62-3.95-.03-5.45,2.59-1.51,6.8-1.51,9.41,0Z"/>
        <path class="cls-9" d="M61.26,81.66c2.13,1.23,2.14,3.23.03,4.46-2.12,1.23-5.56,1.23-7.69,0-2.13-1.23-2.14-3.23-.03-4.46,2.12-1.23,5.56-1.23,7.69,0Z"/>
      </g>
      <g>
        <path class="cls-14" d="M60.14,84.78c-1.45.84-3.81.83-5.27,0s-1.47-2.21-.02-3.04c1.45-.84,3.81-.83,5.27,0s1.47,2.21.02,3.04Z"/>
        <path class="cls-13" d="M63.44,70.85h-11.9c-1.1,3.68-.63,7.64,1.28,10.97l.4.7h.02c.18.44.57.86,1.17,1.2,1.72.99,4.49,1,6.19.01.6-.35.98-.77,1.16-1.22h0l.4-.7c1.91-3.33,2.37-7.29,1.28-10.97Z"/>
        <g class="cls-21">
          <path class="cls-2" d="M64.49,70.36v.92c-.01,1.03-.69,2.06-2.04,2.85-2.72,1.58-7.16,1.58-9.9,0-1.38-.8-2.07-1.84-2.07-2.89v-.92c0,1.04.69,2.09,2.07,2.89,2.74,1.58,7.17,1.58,9.9,0,1.35-.79,2.03-1.82,2.03-2.85Z"/>
          <path class="cls-3" d="M62.43,67.48c2.74,1.58,2.76,4.15.03,5.73s-7.16,1.58-9.9,0c-2.74-1.58-2.76-4.15-.03-5.73,2.72-1.58,7.16-1.58,9.9,0Z"/>
          <path class="cls-2" d="M61.92,67.77c2.46,1.42,2.47,3.72.03,5.14s-6.42,1.42-8.88,0c-2.46-1.42-2.47-3.72-.03-5.14,2.44-1.42,6.42-1.42,8.88,0Z"/>
          <path class="cls-13" d="M53.04,68.9c2.44-1.42,6.42-1.42,8.88,0,.98.57,1.58,1.28,1.78,2.02.3-1.11-.29-2.29-1.78-3.15-2.46-1.42-6.43-1.42-8.88,0-1.47.85-2.05,2.02-1.75,3.13.2-.73.78-1.43,1.75-1.99Z"/>
          <path class="cls-2" d="M53.04,68.37c2.44-1.42,6.42-1.42,8.88,0,1.1.64,1.71,1.45,1.83,2.29.15-1.03-.46-2.09-1.83-2.88-2.46-1.42-6.43-1.42-8.88,0-1.35.78-1.94,1.83-1.8,2.85.12-.82.72-1.63,1.8-2.26Z"/>
          <path class="cls-13" d="M62.6,72.47c-.19.16-.41.31-.65.45-2.44,1.42-6.42,1.42-8.88,0-.25-.15-.48-.3-.68-.47.19-.16.41-.3.65-.45,2.44-1.42,6.42-1.42,8.88,0,.25.15.48.3.68.47Z"/>
        </g>
      </g>
    </g>
    <path class="cls-15" d="M91.59,63.11c-.17-.67-.57-1.25-.84-1.89-.13-.31-.24-.65-.49-.87-.21-.18-.48-.25-.75-.27-1.08-.08-2.08.56-2.85,1.32-2.55,2.53-4.52,11.86-4.96,12.88-.03.08-.07.16-.1.24-.46-.02-14.84,2.19-15.28,2.15-.48-.05-.83-.37-1.18-.66-.41-.35-.85-.65-1.32-.9-.13-.07-.28-.14-.43-.15-.13,0-.26.04-.38.08-.86.28-1.71.57-2.57.85-.31.1-.62.2-.91.35-.26.12-.53.36-.45.64.06.2.29.29.49.34.44.1.9.11,1.34.03.45-.08.93-.26,1.35-.08-.9.77-1.97,1.34-3.11,1.67-.39.11-.79.19-1.14.39-.35.2-.65.53-.68.94-.35-.02-.68.26-.73.6-.05.34.19.7.52.79-.11.11-.07.3.03.41.11.11.26.16.41.19.44.11.9.17,1.35.18-.17.14-.12.44.05.59.17.15.4.18.63.2,1.63.13,3.3-.28,4.68-1.14.41-.25.79-.55,1.24-.73.17-.07.35-.13.53-.17.85.07,12.13-.02,16.82-.88.61-.11,1.22-.24,1.75-.56,1.41-.87,2.34-2.32,3.09-3.76.67-1.27,1.24-2.59,1.78-3.93.89-2.2,1.69-4.46,2.09-6.81.11-.67.19-1.36.03-2.02Z"/>
    <path class="cls-5" d="M85.48,56.32c-.39.76-.64,1.61-.82,2.42-.52,2.31-.84,4.65-1.15,6.99,0,.05-.01.1,0,.14.03.07.11.09.18.11,3.09.72,6.47.15,9.15-1.54.1-.07.21-.14.27-.24.04-.08.06-.18.07-.27.08-.69.16-1.38.24-2.07.15-1.32.3-2.65.06-3.96-.23-1.3-.91-2.59-2.06-3.25-1.61-.92-3.96-.88-5.22.58-.28.33-.52.7-.72,1.09Z"/>
  </g>
</svg>