<?xml version="1.0" encoding="UTF-8"?>
<svg id="Layer" xmlns="http://www.w3.org/2000/svg" viewBox="0 0 157.04 169.78">
  <defs>
    <style>
      .cls-1 {
        fill: #ffaf80;
      }

      .cls-1, .cls-2, .cls-3, .cls-4, .cls-5, .cls-6, .cls-7, .cls-8, .cls-9, .cls-10, .cls-11, .cls-12, .cls-13 {
        stroke-width: 0px;
      }

      .cls-2 {
        fill: #f2f2f2;
      }

      .cls-3 {
        fill: #adb0ff;
      }

      .cls-4 {
        fill: #616161;
      }

      .cls-5 {
        fill: #8f5d31;
      }

      .cls-6 {
        fill: #ffd557;
      }

      .cls-14 {
        isolation: isolate;
      }

      .cls-7 {
        fill: #e6ab77;
      }

      .cls-8 {
        fill: #ffa200;
      }

      .cls-9 {
        fill: #c78750;
      }

      .cls-10 {
        fill: #ffc7a6;
      }

      .cls-11 {
        fill: #8f93ff;
      }

      .cls-12 {
        fill: #fff;
      }

      .cls-13 {
        fill: #4d4d4d;
      }
    </style>
  </defs>
  <g>
    <path class="cls-2" d="M105.43,152.3L12.21,97.39c-.56-.32-.49-.89.16-1.27l36.41-21.02c.65-.37,1.63-.42,2.19-.09l93.22,54.91c.56.32.49.89-.16,1.27l-36.41,21.02c-.65.37-1.63.42-2.19.09Z"/>
    <g class="cls-14">
      <path class="cls-7" d="M55.93,50.22c-.34-.2-.81-.17-1.33.13l-34.12,19.7c-1.03.59-1.86,2.03-1.86,3.22l.06,22.79c0,.59.21,1,.54,1.2l8.46,4.92c-.33-.19-.54-.61-.54-1.2l-.06-22.79c0-1.18.83-2.62,1.86-3.22l34.12-19.7c.52-.3.99-.33,1.33-.13l-8.46-4.92Z"/>
      <path class="cls-5" d="M63.07,55.27c1.03-.59,1.87-.12,1.87,1.07l.06,22.79c0,1.18-.83,2.62-1.86,3.22l-34.12,19.7c-1.03.59-1.87.12-1.87-1.07l-.06-22.79c0-1.18.83-2.62,1.86-3.22l34.12-19.7Z"/>
    </g>
    <g class="cls-14">
      <path class="cls-7" d="M134.02,90.31l-68.24-38.88c-.52-.3-.99-.33-1.33-.13l-8.46,4.92c.34-.2.81-.17,1.33.13l68.24,38.88c1.03.59,1.86,2.03,1.86,3.22l-.06,22.79c0,.59-.21,1-.54,1.2l8.46-4.92c.33-.19.54-.61.54-1.2l.06-22.79c0-1.18-.83-2.62-1.86-3.22Z"/>
      <path class="cls-9" d="M57.32,56.36c-1.03-.59-1.87-.12-1.87,1.07l-.06,22.79c0,1.18.83,2.62,1.86,3.22l68.24,38.88c1.03.6,1.87.12,1.87-1.07l.06-22.79c0-1.18-.83-2.62-1.86-3.22L57.32,56.36Z"/>
    </g>
    <g class="cls-14">
      <path class="cls-9" d="M93.65,137.12L29.11,100.3c-.52-.3-.78-.69-.78-1.08l.03-5.09c0,.39.26.78.78,1.08l64.53,36.81c1.03.59,2.69.59,3.72,0l19.71-11.45c.51-.3.76-.68.76-1.07l-.03,5.09c0,.39-.26.77-.76,1.07l-19.71,11.45c-1.02.59-2.69.59-3.72,0Z"/>
      <path class="cls-5" d="M29.14,95.21c-1.03-.59-1.04-1.56-.01-2.15l19.71-11.45c1.02-.6,2.69-.6,3.72,0l64.53,36.81c1.03.59,1.04,1.56.01,2.15l-19.71,11.45c-1.02.59-2.69.59-3.72,0L29.14,95.21Z"/>
    </g>
    <g class="cls-14">
      <path class="cls-7" d="M115.74,108.34c-.32-.18-.32-.47,0-.66-6.76,3.93-13.52,7.86-20.28,11.78.33-.19.83-.18,1.15,0-6.8-3.93-57.98-33.23-64.78-37.16.32.19.32.48,0,.67,6.76-3.93,13.52-7.86,20.28-11.78-.32.18-.83.18-1.15,0,6.8,3.93,57.98,33.23,64.78,37.16Z"/>
      <path class="cls-9" d="M117.72,107.79l-64.78-37.16h0c-.63-.36-1.75-.58-2.83,0h0,0l-20.28,11.78c.05-.03.12-.05.2-.05-.08,0-.15.02-.2.05-.73.43-.76.94-.77,1.13l-.03,9.18c0,.66.59,1.03.78,1.15l64.78,37.16h0c.63.36,1.76.58,2.83,0,.09-.05.13-.13.13-.24,0,.11-.05.19-.13.24l20.28-11.78h0c.72-.43.76-.94.77-1.13l.03-9.18c0-.67-.59-1.03-.78-1.15ZM96.04,119.13c-1.05-.61-62.57-35.89-63.63-36.5l19.13-11.12,63.63,36.5c-1.05.61-18.08,10.51-19.13,11.12Z"/>
    </g>
    <g class="cls-14">
      <path class="cls-7" d="M133.5,96.78c-.34-.2-.81-.17-1.33.13l-34.12,19.7c-1.03.59-1.86,2.03-1.86,3.22l.06,22.79c0,.59.21,1,.54,1.2l8.46,4.92c-.33-.19-.54-.61-.54-1.2l-.06-22.79c0-1.18.83-2.62,1.86-3.22l34.12-19.7c.52-.3.99-.33,1.33-.13l-8.46-4.92Z"/>
      <path class="cls-5" d="M140.64,101.83c1.03-.59,1.87-.12,1.87,1.07l.06,22.79c0,1.18-.83,2.62-1.86,3.22l-34.12,19.7c-1.03.59-1.87.12-1.87-1.07l-.06-22.79c0-1.18.83-2.62,1.86-3.22l34.12-19.7Z"/>
    </g>
  </g>
  <g>
    <path class="cls-2" d="M50.98,129.04c-5.45,3.15-14.32,3.13-19.81-.04-5.49-3.17-5.51-8.29-.06-11.43s14.32-3.13,19.81.04c5.49,3.17,5.51,8.29.06,11.44Z"/>
    <path class="cls-1" d="M50.66,62.13c-.13-.71-.35-1.45-.91-1.9-.27-.22-.6-.35-.93-.43-1.26-.3-2.82.33-2.91,1.75-.11,1.67-.14,3.25-.57,4.88-.3,1.14-.62,2.67-1.69,3.3-.53.31-4.29,2.05-4.44,2.11-.27.11-.61.04-.87-.06-.32-.13-.59-.35-.92-.45-.43-.13-.9-.04-1.33.1-.33.1-.66.23-.99.35-.04.01-.07.03-.1.05-.09.08-.09.19-.18.27-.09.08-.17.15-.24.25-.13.2-.21.44-.19.68.01.2.09.39.12.59.04.28,0,.57,0,.86,0,.36.1.71.29,1.01.19.3.48.54.82.64.26.08.91-.02,1.02.3.03.07.01.15.05.22.06.11.21.12.34.1.21-.04.41-.14.59-.25.85-.49,1.61-1.12,2.26-1.85.04-.05.08-.1.12-.15,2.11.74,4.46.94,6.52.12,1.53-.61,2.47-2.15,2.88-3.68.11-.39.16-.79.22-1.19.06-.36.22-.68.29-1.04.22-1.06.42-2.13.67-3.19.09-.41.19-.82.23-1.24.07-.72,0-1.44-.14-2.15Z"/>
    <path class="cls-11" d="M33.13,120.54c-.22.45-.42.92-.57,1.4-.3.92-.7,3.07.38,3.65,1.16.62,2.74.36,3.83-.26,1.23-.7,2.14-1.87,2.89-3.07.82-1.32,1.55-2.79,2.84-3.66.64-.44,1.43-.72,1.88-1.36.4-.56.46-1.3.43-1.99-.03-1.06-.24-2.14-.81-3.02-.16-.25-.36-.49-.63-.6-.27-.12-.63-.08-.81.16-.09.12-.13.27-.2.4-.25.43-.81.06-1.17.03-.9-.09-1.71.04-2.55.33-.69.24-.97.85-1.38,1.43-1.04,1.49-2.05,3.01-3,4.56-.4.66-.79,1.32-1.13,2.01Z"/>
    <path class="cls-13" d="M56.56,84.52c-.17-.46,0-.9.02-1.37.08-1.29-.13-2.66-.89-3.74-.73-1.05-1.95-1.74-3.22-1.85-1.56-.13-2.5.62-3.66,1.47-1.27.93-2.83,1.6-4.19,2.4-2.77,1.63-5.5,3.34-8.07,5.27-1.25.94-2.46,1.93-3.61,2.99-.87.81-1.41,2.36-1.45,3.53-.08,2.14.25,4.28.7,6.38.36,1.71,4,13.48,4.56,15.19,2.29.07,4.58-1.01,5.99-2.81.09-.11.17-.23.21-.37.04-.18,0-.36-.06-.54-1.34-4.91-1.51-10.07-2.63-15.02,2.68-.91,5.32-1.92,7.84-3.19,3.11-1.58,6.04-3.56,8.43-6.11.16-.17.33-.36.42-.58.27-.65-.16-1.09-.37-1.66Z"/>
    <path class="cls-3" d="M47.37,56.38c-.85,1.23-1.45,2.61-2.04,3.99-.05.11-.1.22-.1.34,0,.12.04.23.08.34.11.28.21.57.34.84.7,1.5,2.08,2.66,3.68,3.08-.14-1.32.02-2.67.48-3.92.59-1.58,1.63-2.98,2.1-4.6.27-.93.28-2.44-.87-2.82-.84-.28-1.96.82-2.5,1.34-.44.43-.83.9-1.17,1.4Z"/>
    <path class="cls-3" d="M41.08,121.67c-1.18,1.37-2.41,2.7-3.31,4.27-.27.47-.52.98-.56,1.53-.04.45.1,1.14.54,1.38.4.22.98.33,1.43.38,1.14.14,2.32-.15,3.31-.71,1.25-.7,2.24-1.79,3.02-2.99.26-.4.51-.82.87-1.13.45-.39,1.04-.57,1.58-.82.66-.3,1.47-.88,1.7-1.6.31-.93.36-1.95.16-2.91-.22-1.09-.77-2.11-1.56-2.89.04.04-.03.23-.07.25-.1.05-.14-.03-.21-.08-.19-.11-.34-.28-.55-.38-.44-.2-.87-.11-1.24.19-1.92,1.55-3.42,3.53-5.02,5.4-.03.03-.06.07-.09.1Z"/>
    <path class="cls-4" d="M67.77,80.67c-.05-.11-.1-.23-.15-.34-.32-.7-.7-1.39-1.29-1.89-.62-.54-1.42-.82-2.21-1.08-.27-.09-.69-.2-.94,0-.21.17-.36.49-.58.69-.57.49-1.19.91-1.85,1.27-1.34.73-2.8,1.21-4.29,1.53-1.06.23-2.4.49-3.45.07-.59-.24-1.67-1.38-1.38-2.12-.94,2.48-.65,5.28-.55,7.87.02.42.02.87-.2,1.22-.15.24-.39.4-.63.55-.71.46-1.44.9-2.17,1.34-1.92,1.14-7.47,4.85-8.28,5.6-.35.33-.62.54-.71,1.02-.12.6-.15,1.17-.08,1.78.1.89.33,1.76.48,2.65.19,1.07,3.43,16.33,3.7,17.22.08.27.09.65.21.9.15.3.58.37.88.4.76.09,1.54.01,2.29-.14.63-.13,1.24-.3,1.84-.51.29-.1.57-.22.82-.4.09-.07.18-.15.21-.25.03-.09.01-.19,0-.29-.16-1.02-.4-5.12-.38-5.6.02-.96.03-1.92.02-2.88-.03-1.91-.17-3.82-.47-5.71-.19-1.19-.48-2.38-.87-3.52.21-.05.42-.09.63-.14,3.53-.78,7.06-1.55,10.52-2.58,1.72-.51,3.43-1.09,4.99-1.98s2.96-2.11,3.84-3.68c.92-1.66,1.21-3.62,1.2-5.49-.02-1.88-.41-3.76-1.14-5.49Z"/>
    <path class="cls-11" d="M50.14,55.44c-.06.14-.12.28-.17.41-.3.79-.49,1.63-.69,2.45-.35,1.41-.75,2.8-1.21,4.17-.21.62-.43,1.18-.71,1.78-.3.63-.58,1.27-.81,1.93-.56,1.65-.71,3.57.22,5.04.55.87,1.43,1.5,1.95,2.39.59,1,.66,2.23.47,3.37-.18,1.05-.56,2.05-.92,3.04-.12.32-.37.69-.33,1.03.05.45.49.95.76,1.3,1.13,1.44,2.71,2.5,4.42,3.17,1.71.67,3.54.96,5.37,1.04,3.17.14,6.52-.4,9.01-2.37.33-.27.66-.56.89-.93.27-.43.24-.67.07-1.13-1.22-3.34-2.78-6.57-3.5-10.05-.71-3.48-.46-7.36,1.67-10.2.2-.27.35-.56.53-.84.17-.26.29-.46.15-.79-.11-.26-.33-.47-.55-.66-.85-.76-1.7-1.52-2.63-2.18-2.02-1.43-4.35-2.35-6.71-3.12-1.16-.38-2.34-.73-3.55-.89-.74-.1-1.96-.24-2.57.3-.5.45-.88,1.1-1.16,1.74Z"/>
    <path class="cls-1" d="M52.89,59.58c.02.09.07.16.21.24.14.08.3.11.45.13,1.25.15,2.5-.32,3.62-.9.42-.22.83-.45,1.2-.75.33-.28.61-.6.88-.94.39-.48.77-1.02.83-1.63,0-.09.03-.22-.01-.31-.05-.11-.08-.09-.18-.16-.11-.08-.21-.19-.3-.3-.56-.7-.86-1.56-1.15-2.41-.04.29-.14.58-.29.84-.16.27-.38.5-.61.7-.38.33-.8.6-1.24.84-.82.45-1.72.8-2.65.76-.28-.01-.51-.32-.76-.09-.17.15-.1.36-.06.55.16.7.21,1.44.18,2.16-.01.31-.02.63-.08.94-.03.13-.05.24-.04.33Z"/>
    <path class="cls-10" d="M59.37,46.97c-.12-.65-.2-1.29-.44-1.93-.25-.67-.59-1.29-.97-1.9-.17-.27-.35-.54-.56-.77-.62-.69-1.5-1.09-2.4-1.3-.57-.13-1.15-.19-1.73-.18-1.71.04-3.29.81-4.04,2.39-.5,1.06-.72,2.32-.77,3.49-.02.56.02,1.13.07,1.69.02.23.13.57.09.79-.04.18-.2.27-.32.41-.18.23-.18.54-.15.83.05.48.17.96.43,1.36.16.25.37.47.62.62.2.13.36.15.48.37.27.5.47,1.02.79,1.5.63.95,1.45,1.78,2.42,2.38.37.22.76.42,1.17.55.29.09.58.16.88.2.21.03.43.05.64,0,.27-.05.51-.2.73-.35,2.22-1.52,3.43-4.38,2.98-7.03.3-.09.53-.35.66-.64.13-.29.17-.61.19-.92.03-.33.04-.66-.07-.97-.11-.3-.38-.57-.71-.59Z"/>
    <path class="cls-13" d="M49.92,47.27c-.39.22-.75.67-.87,1.08-.13.46,0,.96-.08,1.43-.38-.22-.67.26-.71.58-.08.55.06,1.18.57,1.48.25.15.55.2.77.39.25.21.36.57.52.84.22.38,1.26,2.38,1.01,2.58-.9.71-2.07,1.07-3.21.99-.11,0-.22-.02-.3-.08-.1-.08-.15-.21-.18-.33-.31-1.03-.56-2.08-.79-3.13-.57-2.62-.99-5.4-.15-7.94.34-1.03.89-2,1.67-2.75.59-.56,1.29-.99,2.04-1.3.71-.3,1.47-.19,2.22-.3.4-.06.72-.35,1.06-.55.62-.36,1.4-.43,2.1-.27.7.16,1.35.53,1.91.98,1.11.9,1.93,2.13,2.5,3.44.57,1.31.91,2.71,1.19,4.12.17.86.32,1.73.4,2.61.04.44.07.87.07,1.31,0,.31.08.75-.11,1-.5.66-1.32,1.07-2.15,1.07-.09,0-.19,0-.24-.08-.03-.05-.04-.11-.04-.17-.05-1.16-.08-2.32-.09-3.49,0-.2.02-.48.12-.66.04-.06.1-.11.16-.16.34-.27.62-.62.76-1.03.15-.45.13-1.05-.22-1.4-.34-.34-.97-.42-1.03.19-.02.18,0,.37-.06.54-.24-.6-.55-1.21-1.09-1.57-.28-.19-.61-.31-.94-.38-.66-.16-1.38-.18-2.01.07-.5.2-.92.56-1.43.73-.53.18-1.12.14-1.68.08-.5-.05-1.18-.2-1.65.03-.02,0-.04.02-.05.03Z"/>
    <path class="cls-10" d="M70.18,68.87c-.31-1.81-.86-3.6-1.79-5.19-.04.24-.2.82-.47.86-.23.04-.83-.27-1.09-.32-.46-.1-.92-.17-1.39-.13-1.13.1-2.13.92-2.6,1.95-.52,1.14-.31,2.25-.18,3.44.14,1.25,1.64,5.2,1.89,5.92.08.23.17.45.28.67-.33.02-9.63,1.08-10.3.9-.01,0-.02,0-.03,0-.08-.08-.16-.18-.22-.29-.12-.23-.2-.5-.37-.7-.24-.29-.62-.41-.97-.54-.81-.29-1.58-.69-2.3-1.16-.25-.16-.52-.35-.81-.31-.06,0-.13.03-.18.07-.07.06-.1.17-.1.27,0,.32.16.63.37.88s.47.45.69.69c.05.06.11.14.07.21-.03.06-.1.07-.17.08-.82.09-1.65.18-2.47.18-.79,0-1.66-.13-2.16-.74-.21-.26-.33-.59-.46-.9-.13-.31-.28-.63-.53-.85-.26-.22-.65-.32-.94-.15-.25.14-.37.48-.28.75.08.24.32.45.26.71-.02.09-.07.17-.11.25-.09.21-.05.46.06.66.11.2.29.36.47.5,1.01.79,2.28,1.13,3.5,1.53,1.67.54,3.3,1.25,5.03,1.58,1.69.32,9.77,1.34,12.13,1.38,1.46.03,3-.11,4.4-.53,1.1-.33,1.03-2.27,1.1-3.17.07-.99.08-1.98.07-2.98-.02-1.84-.09-3.69-.4-5.5Z"/>
    <path class="cls-3" d="M61.11,64.45c-.03,2.13.52,4.24,1.26,6.24.03.07.06.15.12.19.06.04.15.03.22.02,1.4-.17,2.8-.43,4.1-.98,1.3-.54,2.5-1.38,3.3-2.54.06-.09.12-.19.14-.3.02-.11,0-.22-.03-.32-.31-1.37-.64-2.74-1.2-4.03-.56-1.29-1.34-2.5-2.43-3.38-.77-.62-2.38-1.5-3.33-.77-.98.75-1.55,2.33-1.84,3.48-.2.78-.3,1.58-.31,2.39Z"/>
    <path class="cls-10" d="M33.46,74.29c0,.06,0,.12.02.18.06.14.24.17.35.27.14.12.15.33.17.51.02.18.07.39.24.47.15.07.35.02.49.1.15.09.18.29.31.41.17.17.45.14.68.21.21.07.37.22.58.3.17.07.37.07.54,0,.17-.07.31-.21.37-.38.07-.22,0-.45-.05-.68-.07-.35-.07-.71-.05-1.07.01-.24.04-.47.02-.71-.02-.23-.09-.47-.25-.65-.15-.18-.4-.29-.63-.23-.2.05-.36.2-.56.25-.08.02-.16.01-.22-.03-.04-.03-.07-.08-.11-.11-.08-.07-.21-.08-.32-.06-.11.02-.22.05-.33.03-.03,0-.06-.01-.08-.04-.05-.05-.02-.13,0-.2.1-.25.15-.51.14-.78,0-.19-.12-.34-.33-.28-.15.04-.24.24-.32.36-.26.41-.44.86-.55,1.33-.06.26-.1.53-.11.8Z"/>
    <path class="cls-10" d="M35.05,71.16c-.16.11-.29.32-.19.51.08.15.19.4.34.49.13.08.29.1.44.1.15,0,.31-.02.46,0,.21.04.4.16.6.25.19.1.41.18.63.13.09-.02.18-.07.24-.15.07-.1.08-.22.08-.34,0-.16-.02-.32-.09-.47-.06-.15-.18-.27-.32-.34-.15-.06-.33-.05-.49-.04-.46.03-.94.03-1.37-.16-.05-.02-.1-.05-.15-.05-.06,0-.12.03-.17.06Z"/>
  </g>
  <g>
    <path class="cls-2" d="M77.22,150.9c-6.56,3.79-17.24,3.77-23.84-.04-6.6-3.81-6.64-9.97-.07-13.76,6.56-3.79,17.24-3.77,23.84.04,6.6,3.81,6.64,9.97.07,13.76Z"/>
    <path class="cls-11" d="M51.92,141.56c-1.04,1.27-1.78,3.16-.44,4.5.89.9,2.39.78,3.49.43,1.45-.46,2.66-1.45,3.83-2.43,1.34-1.12,2.61-2.35,4.37-2.73.43-.09.87-.14,1.28-.3.28-.11.55-.29.77-.5.24-.23.44-.52.58-.82.21-.47.27-1,.29-1.51.04-1.22-.18-2.5-.9-3.49-.01-.02-.03-.04-.05-.04-.02,0-.04.01-.06.02-.17.13-.35.31-.55.4-.19.08-.3,0-.46-.12-.48-.33-1.03-.55-1.59-.66-.34-.07-.66.01-.98-.14-.41-.19-.44-.28-.85.01-.72.52-1.41,1.07-2.08,1.64-1.35,1.14-2.65,2.34-4.03,3.44-.74.59-1.51,1.16-2.18,1.84-.14.14-.28.29-.41.46Z"/>
    <path class="cls-13" d="M89.34,97.59c-.12-.26-1.33-1.88-.72-2.06-4.77,1.44-9.38,3.39-13.86,5.56-2.19,1.06-4.36,2.18-6.42,3.49-1.87,1.18-3.71,2.34-4.48,4.53-.33.92-.61,1.86-.85,2.81-.37,1.46-.63,2.94-.89,4.42-.28,1.56-.56,3.12-.83,4.69-.55,3.08-1.83,11.75-2,13-.14,1.08-.51,1.74.52,2.4,1.63,1.05,3.82,1.05,5.57.28.19-.08.39-.18.52-.34.12-.15.18-.34.23-.52,1.79-6.2,3.51-12.44,4.62-18.8.19-1.07.26-2.56.86-3.5.46-.72,1.85-.95,2.59-1.26,2.21-.92,4.39-1.93,6.57-2.93,2.76-1.27,5.51-2.54,8.27-3.81.13-.06.27-.13.34-.25.05-.08.05-.18.06-.27.09-1.16.18-2.31.27-3.47.1-1.33.2-2.72-.34-3.93Z"/>
    <path class="cls-1" d="M89.22,84.19c-.12-.3-.3-.59-.55-.8-.53-.45-1.18-.45-1.82-.33-.36.07-.38.08-.58-.18-.17-.22-.28-.34-.56-.05-1.25,1.29-2.01,2.96-2.76,4.59-1.23,2.69-2.42,5.38-3.73,8.03-.44.9-.91,1.8-1.77,2.38-.26.18-.57.32-.85.48-.35.2-.7.38-1.04.58-.73.43-1.41.94-2.08,1.45-.82.61-1.63,1.23-2.45,1.84-.13.1-.27.2-.34.35-.07.15-.05.35.09.44.08.05.18.06.24.13.04.05.04.11.06.16.09.3.47.42.78.38.87-.1,1.41-1.01,2.21-1.38-.36.46-.66.97-.88,1.52-.08.19-.11.45.07.54.08.04.18.02.27-.01.86-.26,1.61-.8,2.28-1.39.49-.43.95-.89,1.38-1.38.12-.14.25-.29.43-.35.31-.1.62.11.88.31-.47.87-.81,1.8-1.01,2.77-.02.09-.03.18,0,.26.08.22.4.21.62.13,1-.39,1.6-1.4,2.12-2.34.39-.7.78-1.43.9-2.22.08-.55.02-1.12.16-1.65.11-.42.34-.79.57-1.16.98-1.53,2.49-2.71,3.66-4.11,1.43-1.72,2.67-3.63,3.43-5.74.17-.48.32-.98.4-1.48.09-.59.09-1.21-.13-1.77Z"/>
    <path class="cls-3" d="M76.84,135.94c-1.36-.25-2.71.93-3.54,1.86-.64.73-1.19,1.53-1.79,2.29-.58.74-1.22,1.44-1.83,2.15-.61.72-1.19,1.45-1.75,2.21-.7.95-1.7,2.3-1.67,3.55.03,1.15,1.6,1.68,2.51,1.75,1.45.12,2.92-.26,4.16-1.01,1.25-.74,2.27-1.83,3.03-3.07.35-.58.66-1.2,1.17-1.64.37-.31.82-.51,1.2-.82.85-.69,1.2-1.85,1.13-2.94-.07-1.09-.51-2.12-1-3.09-.16-.32-.34-.65-.63-.87-.29-.22-.65-.31-1.01-.38Z"/>
    <path class="cls-4" d="M104.3,102.86c-.14-.06-.3-.02-.45,0-3.01.67-6.21.44-9.09-.65-1.88-.71-3.64-1.77-5.59-2.24-.46-.11-.87-.06-1.32-.08-.38-.02-.52-.27-.69-.6-1.42,1.64-1.8,4.29-1.36,6.35,0,.02.01.05.02.08.02.1.02.2-.03.28-.04.07-.11.11-.18.15-2.71,1.6-5.65,2.74-8.42,4.22-1.29.69-2.2,1.46-2.94,2.74-.63,1.09-.98,2.31-1.14,3.55-.22,1.71-.15,3.45-.13,5.17.05,3.46-.1,6.92-.32,10.38-.11,1.75-.25,3.49-.38,5.24-.04.52-.32,1.38-.03,1.84.33.53,1.23.71,1.79.78,1.71.22,3.48-.11,5-.93.21-.11.42-.24.56-.43.14-.18.21-.41.27-.62.44-1.48.85-2.97,1.23-4.47.55-2.14,1.04-4.3,1.29-6.5.24-2.13.25-4.28.17-6.42-.03-.8-.07-1.62.13-2.4.47-1.77,1.92-2.11,3.48-2.48,2.45-.58,4.95-1.01,7.36-1.75,2.72-.83,5.3-2.06,7.72-3.54.82-.5,1.64-1.05,2.21-1.81,1.07-1.42,1.12-3.34,1.13-5.12,0-.29-.04-.64-.3-.75Z"/>
    <path class="cls-1" d="M84.6,84.37c-.08.13-.17.28-.16.43,0,.1.05.19.1.28.7,1.37,1.99,2.42,3.46,2.84.09.02.18.05.27.02.08-.03.14-.09.19-.16.94-1.12,1.53-2.49,2.16-3.82.43-.9.88-1.8,1.2-2.75.32-.95.49-1.96.35-2.95-.06-.44-.2-.88-.45-1.24-.93-1.35-2.73-1.01-3.6.18-.39.54-.5,1.28-.73,1.89-.33.88-.74,1.72-1.19,2.55-.5.92-1.04,1.82-1.59,2.71Z"/>
    <path class="cls-3" d="M90.34,70.45c-.08.12-.15.25-.22.37-.73,1.23-1.44,2.47-2.07,3.76-.31.63-.59,1.27-.84,1.93-.22.57-.34,1.01-.18,1.61.15.57.46,1.1.89,1.51.82.78,2,1.06,3.12,1.2-.15-.02-.2-2.34-.21-2.58,0-.39-.07-.86.04-1.23.1-.36.27-.75.43-1.09.78-1.61,1.9-3.01,2.8-4.55.44-.75.75-1.52,1.04-2.33.14-.39.35-.76.61-1.09.12-.15.64-.85.85-.82-1.43-.2-2.95,0-4.14.81-.91.62-1.55,1.55-2.12,2.5Z"/>
    <path class="cls-11" d="M92.85,69.44c-.07.09-.13.18-.19.27-.94,1.36-1.67,2.86-2.18,4.43-.53,1.64-.76,3.3-.91,5.01-.55,6.29-1.09,12.97-4.82,18.06-.29.4-.61.82-.65,1.31-.02.36.12.72.28,1.05.87,1.74,2.54,3.06,4.43,3.51,1.35.32,2.76.22,4.14.36,3.91.39,7.54,2.72,11.47,2.51.14,0,.29-.02.41-.09.16-.1.25-.28.33-.46,1.87-4.3,2.91-8.93,4.8-13.22.96-2.17,1.86-4.21,2.46-6.52.6-2.35.99-4.75,1.15-7.16.08-1.13-.44-2.25-1.05-3.17-1.25-1.88-3.1-3.28-5.02-4.48-2.32-1.44-4.8-2.65-7.43-3.38-1.12-.31-2.25-.52-3.42-.48-.48.02-.8-.02-1.26.19-.45.2-.86.47-1.23.79-.5.43-.92.94-1.31,1.47Z"/>
    <path class="cls-1" d="M98.48,71.14c0,.67.02,1.33.04,2,.95.47,2.08.38,3.12.18,1.86-.35,3.73-1.03,5.09-2.36.07-.07.14-.14.14-.24,0-.08-.04-.16-.08-.23-.25-.44-.39-.94-.52-1.43-.22-.79-.43-1.58-.53-2.4-.11-.91-.06-1.83-.19-2.74-.3.38-.53.78-.9,1.09-.38.32-.83.6-1.27.82-.78.42-1.62.81-2.5.8-.53,0-1.09-.14-1.58.08-.43.2-.7.67-.78,1.14-.14.82-.06,1.69-.06,2.52,0,.25,0,.5,0,.76Z"/>
    <path class="cls-10" d="M106.21,55.18c-.81-.92-1.99-1.46-3.2-1.6s-2.45.08-3.59.51c-1.23.46-2.44,1.23-3,2.42-.17.36-.27.75-.38,1.14-.09.34-.26.69-.31,1.03-.11.77.07,1.55.26,2.29-.62.69-1.23,1.38-1.85,2.08-.03.04-.07.08-.08.13,0,.05.01.11.04.16.14.27.35.51.61.67.07.04.15.09.19.16.06.09.05.2.05.3-.04.84-.08,1.67-.12,2.51-.04.78.08,1.54.82,1.93.29.15.61.22.94.27,2.06.31,4.24-.22,5.93-1.44.26-.19.21-.66.26-.96.01-.08.03-.17.08-.23.05-.06.12-.08.19-.11,1.19-.48,2.23-1.33,2.97-2.38.8-1.14,1.48-2.35,1.66-3.76.24-1.9-.18-3.65-1.46-5.12Z"/>
    <path class="cls-13" d="M97.18,56.33c.4.39.96.56,1.51.63.55.06,1.11.03,1.66.06-.07.63-.55,1.12-.85,1.67-.34.62-.47,1.36-.36,2.06.72-.13,1.5.29,1.78.97.23.56.16,1.27.57,1.72.41-.75,1.08-1.4,1.92-1.58.84-.18,1.82.25,2.08,1.06.26.81-.2,1.69-.05,2.52.02.1.07.21.17.21.06,0,.1-.05.14-.09,1.86-2.01,2.87-4.79,2.71-7.53-.04-.73-.19-1.51-.71-2.02-.07-.07-.15-.14-.2-.22-.06-.11-.07-.23-.09-.35-.15-.89-.74-1.66-1.48-2.16-.75-.5-1.64-.75-2.53-.86-1.57-.19-3.19.04-4.65.66-1.11.47-2.89,2-1.62,3.23Z"/>
    <path class="cls-10" d="M111.38,85.54c-.46-.66-1.33-.92-2.14-.89-2.21.09-3.69,1.97-4.14,3.98-.17.76-.32,1.53-.46,2.3-.19.99-.38,1.98-.57,2.97-.26.13-.52.28-.76.4-.91.48-12.28,8.37-12.35,8.4-.66.31-1.33.5-2.06.56-.43.04-.86.04-1.3.04-.32,0-.65,0-.96.09-.25.08-.48.22-.71.37-1.49.95-2.99,1.91-4.28,3.12-.15.14-.31.3-.34.51-.01.07,0,.15-.04.21-.07.16-.28.18-.42.28-.19.15-.19.47-.03.65.16.19.42.25.66.23.24-.02.47-.12.69-.22-.11.27.11.58.38.67s.57.03.85-.04c1.33-.34,2.62-.88,3.8-1.58.05.18-.12.34-.27.45-.39.29-.79.57-1.18.86-.33.24-.66.48-.86.83-.06.11-.11.25-.03.36.06.09.18.11.28.11.63.03,1.24-.22,1.78-.54s1.04-.7,1.61-.99c.87-.43,1.86-.61,2.65-1.16.64-.45,1.1-1.11,1.74-1.55,4.96-2.16,9.81-4.63,14.12-7.89.69-.53,1.22-1.52,1.68-2.25.53-.84.99-1.73,1.4-2.64.56-1.26.99-2.58,1.3-3.93.25-1.12.66-2.69-.06-3.73Z"/>
    <path class="cls-3" d="M107.52,79.3c-.37.72-.69,1.47-.96,2.23-.74,2.05-1.18,4.19-1.8,6.27.43.62,1.18.91,1.91,1.1,2.07.54,4.28.51,6.33-.09.42-.12.5-.19.56-.63.42-2.91.84-5.85.61-8.78-.07-.88-.2-1.76-.57-2.56-.23-.5-.56-.96-.97-1.35-.21-.2-.46-.39-.74-.43-.19-.02-.38.02-.56.07-.56.18-.94.51-1.36.89-1.02.91-1.82,2.04-2.46,3.26Z"/>
  </g>
  <g class="cls-14">
    <g>
      <path class="cls-4" d="M33.77,51.14l-1.34-.78c.1.96.41,2.14,1.31,2.66l1.34.78c-.9-.52-1.21-1.7-1.31-2.66Z"/>
      <path class="cls-4" d="M38.46,36.58c-.13-.08-.31-.07-.52.05l-15.83,9.14c-.4.23-.72.79-.72,1.25l.03,8.86c0,.23.08.39.21.46l1.34.78c-.13-.08-.21-.24-.21-.46l-.03-8.86c0-.46.32-1.02.72-1.25l15.83-9.14c.2-.12.38-.13.52-.05l-1.34-.78Z"/>
    </g>
    <path class="cls-13" d="M39.29,37.41c.4-.23.73-.04.73.41l.03,8.86c0,.46-.32,1.02-.72,1.25l-2.64,1.53c-.19,2.66,1.44,3.99,1.52,4.06-3.45,1.62-4.27-.72-4.43-2.38l-10.28,5.93c-.4.23-.73.05-.73-.41l-.03-8.86c0-.46.32-1.02.72-1.25l15.83-9.14Z"/>
    <g>
      <path class="cls-2" d="M28.97,50.36c0,.49-.35,1.09-.77,1.33-.43.25-.77.05-.77-.44s.35-1.09.77-1.33c.43-.25.77-.05.77.44Z"/>
      <path class="cls-2" d="M31.25,49.05c0,.49-.35,1.09-.77,1.33-.43.25-.77.05-.77-.44s.35-1.09.77-1.33c.43-.25.77-.05.77.44Z"/>
      <path class="cls-2" d="M33.53,47.73c0,.49-.35,1.09-.77,1.33-.43.25-.77.05-.77-.44s.35-1.09.77-1.33c.43-.25.77-.05.77.44Z"/>
      <path class="cls-2" d="M35.81,46.41c0,.49-.35,1.09-.77,1.33-.43.25-.77.05-.77-.44s.35-1.09.77-1.33.77-.05.77.44Z"/>
    </g>
  </g>
  <g class="cls-14">
    <g>
      <path class="cls-4" d="M69.12,44.19l1.34-.78c-.1.96-.41,2.14-1.31,2.66l-1.34.78c.9-.52,1.21-1.7,1.31-2.66Z"/>
      <path class="cls-4" d="M64.42,29.62c.13-.08.31-.07.52.05l23.72,13.74c.4.23.72.79.72,1.25l-.03,8.86c0,.23-.08.39-.21.46l-1.34.78c.13-.08.21-.24.21-.46l.03-8.86c0-.46-.32-1.02-.72-1.25l-23.72-13.74c-.2-.12-.38-.13-.52-.05l1.34-.78Z"/>
    </g>
    <path class="cls-13" d="M63.6,30.46c-.4-.23-.73-.04-.73.41l-.03,8.86c0,.46.32,1.02.72,1.25l2.64,1.53c.19,2.66-1.44,3.99-1.52,4.06,3.45,1.62,4.27-.72,4.43-2.38l18.16,10.53c.4.23.73.05.73-.41l.03-8.86c0-.46-.32-1.02-.72-1.25l-23.72-13.74Z"/>
    <g>
      <g>
        <polygon class="cls-12" points="67.48 39.72 66.5 39.15 66.5 38.44 67.48 39 67.48 39.72"/>
        <polygon class="cls-12" points="70.77 41.61 67.76 39.87 67.76 39.16 70.77 40.9 70.77 41.61"/>
        <polygon class="cls-12" points="72.02 42.34 71.1 41.81 71.1 41.09 72.02 41.62 72.02 42.34"/>
        <polygon class="cls-12" points="73.36 43.11 72.44 42.58 72.44 41.87 73.36 42.4 73.36 43.11"/>
        <polygon class="cls-12" points="77.95 45.76 73.78 43.35 73.78 42.64 77.95 45.04 77.95 45.76"/>
        <polygon class="cls-12" points="84.03 49.27 78.34 45.99 78.34 45.27 84.03 48.56 84.03 49.27"/>
      </g>
      <g>
        <polygon class="cls-12" points="67.48 38.21 66.5 37.64 66.5 36.93 67.48 37.5 67.48 38.21"/>
        <polygon class="cls-12" points="71.37 40.46 70.39 39.89 70.39 39.18 71.37 39.75 71.37 40.46"/>
        <polygon class="cls-12" points="69.87 39.59 67.87 38.43 67.87 37.72 69.87 38.88 69.87 39.59"/>
        <polygon class="cls-12" points="74.29 42.14 71.75 40.67 71.75 39.96 74.29 41.43 74.29 42.14"/>
        <polygon class="cls-12" points="80.1 45.49 78.36 44.49 78.36 43.78 80.1 44.78 80.1 45.49"/>
        <polygon class="cls-12" points="77.79 44.16 74.69 42.37 74.69 41.66 77.79 43.45 77.79 44.16"/>
        <polygon class="cls-12" points="84.03 47.77 80.5 45.72 80.5 45.01 84.03 47.05 84.03 47.77"/>
      </g>
      <g>
        <polygon class="cls-12" points="67.99 37.08 66.5 36.22 66.5 35.5 67.99 36.37 67.99 37.08"/>
        <polygon class="cls-12" points="73.21 40.09 69.72 38.07 69.72 37.36 73.21 39.38 73.21 40.09"/>
        <polygon class="cls-12" points="81.27 44.74 77.14 42.36 77.14 41.64 81.27 44.03 81.27 44.74"/>
        <polygon class="cls-12" points="76.75 42.13 73.67 40.35 73.67 39.64 76.75 41.42 76.75 42.13"/>
        <polygon class="cls-12" points="84.03 46.34 82.95 45.71 82.95 45 84.03 45.63 84.03 46.34"/>
        <polygon class="cls-12" points="69.38 37.88 68.3 37.25 68.3 36.54 69.38 37.17 69.38 37.88"/>
        <polygon class="cls-12" points="82.51 45.46 81.61 44.94 81.61 44.23 82.51 44.74 82.51 45.46"/>
      </g>
      <g>
        <polygon class="cls-12" points="69.13 36.31 66.5 34.79 66.5 34.08 69.13 35.6 69.13 36.31"/>
        <polygon class="cls-12" points="84.03 44.91 79.08 42.05 79.08 41.34 84.03 44.2 84.03 44.91"/>
        <polygon class="cls-12" points="72.01 37.97 69.61 36.59 69.61 35.87 72.01 37.26 72.01 37.97"/>
        <polygon class="cls-12" points="74.55 39.44 72.47 38.23 72.47 37.52 74.55 38.72 74.55 39.44"/>
        <polygon class="cls-12" points="78.42 41.67 76.34 40.47 76.34 39.76 78.42 40.96 78.42 41.67"/>
        <polygon class="cls-12" points="75.95 40.24 75.04 39.72 75.04 39.01 75.95 39.53 75.95 40.24"/>
      </g>
      <g>
        <polygon class="cls-12" points="69.13 42.14 66.5 40.62 66.5 39.91 69.13 41.43 69.13 42.14"/>
        <polygon class="cls-12" points="84.03 50.74 79.08 47.89 79.08 47.17 84.03 50.03 84.03 50.74"/>
        <polygon class="cls-12" points="72.01 43.8 69.61 42.42 69.61 41.7 72.01 43.09 72.01 43.8"/>
        <polygon class="cls-12" points="74.55 45.27 72.47 44.06 72.47 43.35 74.55 44.55 74.55 45.27"/>
        <polygon class="cls-12" points="78.42 47.5 76.34 46.3 76.34 45.59 78.42 46.79 78.42 47.5"/>
        <polygon class="cls-12" points="75.95 46.08 75.04 45.55 75.04 44.84 75.95 45.36 75.95 46.08"/>
      </g>
    </g>
  </g>
  <g class="cls-14">
    <g>
      <path class="cls-6" d="M79.79,31.5l1.34-.78c-.1.96-.41,2.14-1.31,2.66l-1.34.78c.9-.52,1.21-1.7,1.31-2.66Z"/>
      <path class="cls-6" d="M75.09,16.93c.13-.08.31-.07.52.05l15.83,9.14c.4.23.72.79.72,1.25l-.03,8.86c0,.23-.08.39-.21.46l-1.34.78c.13-.08.21-.24.21-.46l.03-8.86c0-.46-.32-1.02-.72-1.25l-15.83-9.14c-.2-.12-.38-.13-.52-.05l1.34-.78Z"/>
    </g>
    <path class="cls-8" d="M74.27,17.77c-.4-.23-.73-.04-.73.41l-.03,8.86c0,.46.32,1.02.72,1.25l2.64,1.53c.19,2.66-1.44,3.99-1.52,4.06,3.45,1.62,4.27-.72,4.43-2.38l10.28,5.93c.4.23.73.05.73-.41l.03-8.86c0-.46-.32-1.02-.72-1.25l-15.83-9.14Z"/>
    <g>
      <path class="cls-2" d="M84.59,30.72c0,.49.35,1.09.77,1.33.43.25.77.05.77-.44s-.35-1.09-.77-1.33c-.43-.25-.77-.05-.77.44Z"/>
      <path class="cls-2" d="M82.31,29.4c0,.49.35,1.09.77,1.33.43.25.77.05.77-.44s-.35-1.09-.77-1.33c-.43-.25-.77-.05-.77.44Z"/>
      <path class="cls-2" d="M80.03,28.09c0,.49.35,1.09.77,1.33.43.25.77.05.77-.44s-.35-1.09-.77-1.33c-.43-.25-.77-.05-.77.44Z"/>
      <path class="cls-2" d="M77.75,26.77c0,.49.35,1.09.77,1.33.43.25.77.05.77-.44s-.35-1.09-.77-1.33c-.43-.25-.77-.05-.77.44Z"/>
    </g>
  </g>
</svg>