<?xml version="1.0" encoding="UTF-8"?>
<svg id="Layer" xmlns="http://www.w3.org/2000/svg" xmlns:xlink="http://www.w3.org/1999/xlink" viewBox="0 0 157.04 169.78">
  <defs>
    <style>
      .cls-1 {
        fill: url(#_Áåçûìÿííûé_ãðàäèåíò_15);
        mix-blend-mode: multiply;
      }

      .cls-1, .cls-2, .cls-3, .cls-4, .cls-5, .cls-6, .cls-7, .cls-8, .cls-9, .cls-10 {
        stroke-width: 0px;
      }

      .cls-2 {
        fill: #ffaf80;
      }

      .cls-3 {
        fill: #f2f2f2;
      }

      .cls-4 {
        fill: #adb0ff;
      }

      .cls-5 {
        fill: #616161;
      }

      .cls-6 {
        fill: #8f3131;
      }

      .cls-7 {
        fill: #ffc7a6;
      }

      .cls-8 {
        fill: #8f93ff;
      }

      .cls-11 {
        filter: url(#luminosity-noclip);
      }

      .cls-9 {
        fill: url(#_Áåçûìÿííûé_ãðàäèåíò_8);
      }

      .cls-12 {
        mask: url(#mask-1);
      }

      .cls-13 {
        mask: url(#mask);
      }

      .cls-10 {
        fill: #4d4d4d;
      }
    </style>
    <filter id="luminosity-noclip" x="71.56" y="36.9" width="31.13" height="19.38" color-interpolation-filters="sRGB" filterUnits="userSpaceOnUse">
      <feFlood flood-color="#fff" result="bg"/>
      <feBlend in="SourceGraphic" in2="bg"/>
    </filter>
    <filter id="luminosity-noclip-2" x="71.56" y="-8592" width="31.13" height="32766" color-interpolation-filters="sRGB" filterUnits="userSpaceOnUse">
      <feFlood flood-color="#fff" result="bg"/>
      <feBlend in="SourceGraphic" in2="bg"/>
    </filter>
    <mask id="mask-1" x="71.56" y="-8592" width="31.13" height="32766" maskUnits="userSpaceOnUse"/>
    <linearGradient id="_Áåçûìÿííûé_ãðàäèåíò_15" data-name="Áåçûìÿííûé ãðàäèåíò 15" x1="71.56" y1="46.59" x2="102.69" y2="46.59" gradientUnits="userSpaceOnUse">
      <stop offset="0" stop-color="#fff"/>
      <stop offset="1" stop-color="#4d4d4d"/>
    </linearGradient>
    <mask id="mask" x="71.56" y="36.9" width="31.13" height="19.38" maskUnits="userSpaceOnUse">
      <g class="cls-11">
        <g class="cls-12">
          <path class="cls-1" d="M102.69,46.48c0-3.26-2.3-7.24-5.15-8.88-1.54-.89-2.92-.9-3.86-.22h0s-22.12,16.8-22.12,16.8l.23,1.26,4.24.83,24.55-6.25h0c1.28-.34,2.11-1.59,2.11-3.55Z"/>
        </g>
      </g>
    </mask>
    <linearGradient id="_Áåçûìÿííûé_ãðàäèåíò_8" data-name="Áåçûìÿííûé ãðàäèåíò 8" x1="71.56" y1="46.59" x2="102.69" y2="46.59" gradientUnits="userSpaceOnUse">
      <stop offset="0" stop-color="#8f93ff"/>
      <stop offset="1" stop-color="#fff"/>
    </linearGradient>
  </defs>
  <g>
    <path class="cls-3" d="M120.29,116.1c5.71,3.3,5.74,8.64.07,11.94-5.67,3.3-14.9,3.3-20.62,0-5.71-3.3-5.74-8.64-.07-11.94,5.67-3.3,14.91-3.3,20.62,0Z"/>
    <path class="cls-8" d="M108.64,115.26c-.41.07-.82.15-1.23.27-.72.2-1.42.49-2.01.94-.6.45-1.31.68-1.95,1.08-.29.18-.41.23-.7,0-.09-.07-.44-.42-.37-.55-.66,1.43-.92,3-.75,4.58.14,1.26.85,2.1,2.17,2.07.7-.02,1.4-.21,1.95-.65.43-.34.74-.82,1.1-1.24,1.38-1.66,3.97-1.93,5.96-2.33.86-.17,1.75-.33,2.51-.78.79-.47,1.69-1.58,1.16-2.54-.16-.3-.43-.52-.72-.7-.81-.5-1.78-.67-2.73-.67s-1.89.17-2.83.3c-.51.07-1.02.14-1.53.23Z"/>
    <path class="cls-10" d="M106.78,98.36c.22-.3.32-.67.4-1.03.37-1.65.49-3.34.58-5.03.23-4.31.3-8.62.22-12.93-.05-2.5-.15-5-.34-7.5-.11-1.4-.26-2.85-.99-4.04-.12-.2-.27-.4-.47-.53-.21-.14-.47-.19-.72-.22-1.68-.26-3.48-.28-4.89-1.22-1.12-.75-2.55-1.52-3.13.2-.61,1.8-1.1,3.74-1.34,5.63-.25,1.97-.13,4.03.66,5.86.27.63.62,1.23.89,1.87.49,1.17.69,2.45.86,3.71.44,3.29.74,6.6.89,9.91.07,1.54.09,3.02-.09,4.56-.18,1.51-.58,2.99-.73,4.5-.36,3.61,1.01,7.14,1.97,10.65.49,1.81.87,3.64,1.28,5.47.02.09.04.19.11.24.05.04.11.06.18.07.95.18,1.95-.05,2.83-.47.88-.42,1.65-1.03,2.41-1.64.1-.08.19-.16.23-.27.03-.09.02-.19,0-.29-.19-1.48-.37-2.96-.56-4.44-.52-4.13-1.04-8.28-1.03-12.45.3-.14.58-.31.78-.58Z"/>
    <path class="cls-4" d="M106.12,124.45c-.07.73,0,1.48.42,1.97.4.46,1.05.64,1.65.59.6-.05,1.17-.31,1.71-.59.54-.29,1.06-.61,1.63-.81,1.33-.48,2.83-.3,4.18-.74.69-.23,1.32-.62,1.92-1.02.59-.39,1.17-.81,1.65-1.33.48-.52.85-1.16.95-1.86.04-.27-.08-.85-.27-1.05-.22-.23-.62-.33-.93-.35-1.38-.11-2.78.02-4.16.16-1.27.13-2.55.26-3.82.41-.55.06-1.09.15-1.63.27-.24.06-.51.21-.74.11-.07-.03-.38-.36-.28-.45-.93.86-1.61,1.98-1.96,3.2-.12.42-.25.97-.3,1.52Z"/>
    <path class="cls-5" d="M115.78,67.61c-.18-1.25-.38-2.51-.88-3.67-.27.85-.49,1.73-.77,2.56-.05.17-1.2,2.02-1.34,1.73-.14-.5-.34-.69-.82-.93-.87-.44-1.85-.6-2.76-.92-1.13-.4-2.16-1.05-3.28-1.5-2.42-.97-4.56-.24-5.59,2.2-.83,1.97-1.16,4.61-1.24,6.72-.06,1.55.14,3.11.76,4.54.51,1.18,1.29,2.22,2.17,3.15.56.6,1.31,1.2,1.69,1.93.37.71.69,1.73.85,2.48.42,1.94.58,3.93.72,5.91.17,2.36.4,4.66.25,7.03-.15,2.32-.46,4.68-.46,6.99,0,.6,0,1.2.04,1.79.18,3.84.52,7.67,1.03,11.47.13.95.27,1.9.42,2.85.07.47.02.61.43.81.3.15.76.16,1.1.17,1.56.06,3.09-.63,4.33-1.53.11-.08.22-.17.3-.28.18-.24.18-.57.18-.87-.04-3.63-.08-7.27.01-10.9.06-2.32.07-4.66.39-6.97.33-2.4,1.11-4.66,1.87-6.95.78-2.35,1.41-4.49,1.65-6.96.31-3.34.46-6.65.19-9.98-.29-3.64-.69-7.27-1.22-10.9Z"/>
    <path class="cls-2" d="M94.61,37.11c-.8,2.09-.92,4.53-.82,6.66.16,3.19.97,6.31,1.94,9.34.52,1.62,1.48,3.42,1.49,5.12.01,1.94-.05,3.88-.18,5.81-.07,1.07-.17,2.14-.28,3.2-.13,1.17-.35,1.62.74,2.26,2.14,1.26,4.66,1.72,7.14,1.87,2.39.15,4.83.03,7.1-.73.91-.3,1.79-.71,2.61-1.21.38-.23.96-.5,1.25-.85.36-.44.22-.76.16-1.36-.24-2.33-.48-4.65-.73-6.97-.28-2.57-.57-5.15-.87-7.72-.15-1.29-.3-2.57-.46-3.86-.12-1.01,0-2.51-.45-3.41-.17-.37-.43-.69-.7-1-.71-.83-1.49-1.52-2.18-2.37-.69-.85-1.4-1.7-2.15-2.51-1.47-1.59-3.12-3.06-5.04-4.09-.04-.02-.08-.04-.12-.06-.49-.26-1.01-.42-1.49-.69-.52-.29-1.05-.57-1.61-.75-.75-.25-1.58-.35-2.34-.12-.72.21-1.35.7-1.81,1.3-.51.65-.91,1.38-1.21,2.15Z"/>
    <path class="cls-6" d="M95.68,46.67c.26,3.29,1.16,6.5,1.94,9.7.31,1.28.61,2.56.77,3.86.2,1.66.16,3.34.13,5.02,1.23-3.89,2.47-7.91,2.1-11.97-.18-2-.75-3.95-1.31-5.88-.37-1.26-.82-2.53-1.11-3.81-.23-1-.35-2.08-.48-3.09-.07-.59-.05-1.21-.01-1.81.03-.36-.01-1.28.22-1.57-1.56,1.96-2.22,4.51-2.3,7.01-.03.85,0,1.69.06,2.52Z"/>
    <path class="cls-7" d="M98.55,59.13c-.03.06-.03.13-.02.2.01.2.03.41.04.61.05.58.12,1.16.14,1.73.02.62-.04,1.19-.17,1.77,0-1.07-.03-2.15-.16-3.21-.16-1.3-.46-2.58-.77-3.86-.78-3.2-1.68-6.41-1.94-9.7-.07-.84-.09-1.68-.06-2.52.07-2.09.54-4.2,1.6-5.98-.02.08-.04.17-.05.26-.02.14-.04.29-.09.43-.05.14-.11.26-.17.38-.32.67-.62,1.36-.82,2.08-.15.54-.24,1.15.02,1.64.15.28.4.49.67.65.11.06.25.14.26.26,0,.15-.17.24-.32.25-.15,0-.3-.06-.45-.03-.2.04-.34.22-.39.41-.09.32-.01.72,0,1.05.03.38.06.77.09,1.15.04.49.09,1.03.44,1.38.37.38,1.01.47,1.24.95.05.12,0,.28-.1.36-.22-.08-.35-.29-.53-.43-.18-.14-.47-.22-.62-.05-.11.13-.1.32-.02.48.07.15.2.27.28.42.23.44.1.96.11,1.46,0,.53.19,1.02.36,1.52.04.14.14.49.3.55.08.03.28-.04.37-.04.11,0,.23,0,.35,0,.17.02.38.1.38.27,0,.12-.13.2-.24.23-.11.03-.24.02-.35.06-.3.1-.42.47-.37.79.05.31.23.59.35.88.35.86.2,1.9.76,2.64.08.11.19.22.24.35.06.14.06.3-.04.41-.09.09-.26.11-.32.23Z"/>
    <path class="cls-7" d="M99.04,62.8c.09-.56.17-1.11.11-1.67-.03-.22-.08-.43-.05-.65.05-.32.26-.57.38-.86.33-.71.12-1.63-.48-2.13.25.23.68.08.86-.21.17-.29.16-.65.1-.98-.12-.71-.4-1.42-.23-2.11.07-.27.2-.53.25-.8.14-.78-.56-1.59-1.35-1.57-.03-.17.19-.29.36-.29.18,0,.38.05.53-.04.14-.07.21-.23.25-.38.21-.95-.63-1.78-.83-2.72-.14-.66.03-1.44-.43-1.94-.1-.11-.23-.2-.29-.33-.07-.14-.04-.32-.07-.48-.12-.5-.78-.61-1.3-.62.28-.06.57-.12.8-.28.24-.16.42-.44.38-.72-.05-.35-.41-.57-.5-.9-.09-.32.04-.74-.22-.93-.29-.21-.74.08-1.03-.11.19-.42.9-.16,1.13-.52.02-.05.05-.1.05-.17.06-.4-.04-.83-.13-1.22-.1-.41.05-.63.17-1.03.08-.27.05-.56.1-.83.03-.17.08-.33.15-.48-.03.32-.02.68-.04.86-.04.59-.07,1.22,0,1.81.13,1.01.25,2.09.47,3.09.3,1.28.75,2.55,1.12,3.81.56,1.93,1.13,3.87,1.31,5.88.33,3.75-.7,7.45-1.82,11.06.08-.51.17-1.03.25-1.54Z"/>
    <path class="cls-7" d="M101.77,26.39c-1.07,2.82-1.84,5.79-3.41,8.37-.12.2-.25.42-.22.65.02.15.1.28.2.4.57.72,1.51,1.02,2.39,1.27,1.82.5,3.66.9,5.52,1.21.07-1.01,1.02-1.77,2.02-1.97.99-.2,2.01.03,2.99.27.67.16,1.35.32,2.02.48.17.04.35.08.52.04.22-.05.39-.24.53-.42.43-.55.77-1.17,1.11-1.78.94-1.7,1.87-3.44,2.35-5.32.48-1.89.45-3.97-.47-5.68-.44-.82-1.07-1.53-1.73-2.18-1.14-1.14-2.43-2.17-3.94-2.72-1.59-.58-3.58-.51-5.1.29-1.53.81-2.69,2.73-3.48,4.2-.5.94-.92,1.92-1.3,2.91Z"/>
    <path class="cls-10" d="M105.17,19.58c-.23.19-.45.4-.65.62-1.64,1.78-2.37,4.18-3.23,6.44-.56,1.47-1.2,2.91-1.9,4.31-.39.77-.8,1.66-.48,2.45.2.48.64.83,1.13,1.02.49.19,1.02.24,1.54.27.79.05.58.71.59,1.28,0,.44.15.93.53,1.14.41.22.93.05,1.38.17.63.18,1.14.95,1.77.74.33-.11.51-.45.73-.72.22-.27.63-.49.9-.27.11.09.17.23.2.37.09.41.02.87.24,1.22.16.25.43.4.7.53.66.34,1.33.68,2,1.03.16.08.37.16.5.04.07-.07.09-.17.11-.27.18-1,.35-2,.53-3,.71.9,1.15,2.02,1.23,3.17.07.93-.04,2,.64,2.63.56.52,1.42.5,2.19.44-.07-.4-.02-.81.13-1.18,1.34-.17,2.66-.5,3.92-.97.12-.05.25-.1.33-.21.19-.28-.11-.63-.37-.85-1.24-1.08-2.02-2.68-2.1-4.32-.07-1.35.31-2.68.54-4.02.66-3.78.12-7.81-2.78-10.56-1.89-1.79-4.53-2.76-7.13-2.63-.75.04-1.51.17-2.19.5-.35.17-.67.38-.96.62Z"/>
    <path class="cls-2" d="M121.76,59.03c.06-1.2-.21-2.43-.86-3.44-.4-.61-.92-1.13-1.46-1.63-1.23-1.13-2.58-2.17-4.14-2.77-.05.5.19.99.44,1.43.64,1.11,1.43,2.14,2.06,3.26.72,1.29,1.22,2.7,1.5,4.15.1.53.18,1.06.4,1.55.12.27.42.84.76.86.36.02.53-.52.65-.78.36-.83.6-1.73.64-2.64Z"/>
    <path class="cls-7" d="M104.87,49.78c.11.92.42,1.94,1.25,2.37.46.24,1.01.25,1.51.41.87.29,1.49,1.03,2.09,1.72,2.14,2.51,4.46,4.86,6.78,7.2.55.55,1.11,1.12,1.79,1.49.42.22.69.38,1.18.26.48-.12.91-.42,1.21-.8.52-.66.77-1.59.5-2.39-.46-1.35-1.14-2.61-1.82-3.85-.72-1.33-1.45-2.66-2.17-3.99-1.01-1.85-2.02-3.7-3.02-5.55-.98-1.81-2.09-3.73-3.96-4.58-.71-.33-1.53-.47-2.29-.29-1.49.35-2.13,1.97-2.56,3.28-.49,1.52-.64,3.15-.46,4.73Z"/>
  </g>
  <g>
    <path class="cls-3" d="M67.11,133.62c7.86,4.54,7.9,11.89.09,16.43-7.81,4.54-20.5,4.54-28.36,0-7.86-4.54-7.9-11.89-.09-16.43,7.81-4.54,20.51-4.54,28.37,0Z"/>
    <path class="cls-8" d="M44.34,137.93c-1.32.25-2.67.47-3.9,1.05-.27.13-.53.29-.76.48-.1.08-.17.19-.3.18-.05,0-.31-.13-.26-.2-.13.2-.23.42-.33.63-.4.91-.75,1.86-.85,2.85-.08.84.02,1.72.41,2.48.34.67,1.16.95,1.87.8.57-.12,1.07-.48,1.44-.92.34-.41.59-.89.97-1.25.39-.37.89-.59,1.39-.8,2.09-.87,4.35-1.58,5.96-3.17.32-.32.63-.69.73-1.13.19-.82-.55-1.23-1.23-1.38-1.69-.37-3.45.04-5.15.36Z"/>
    <path class="cls-10" d="M49.41,95.81c-.09-.26-.28-.48-.47-.68-1.75-1.92-3.21-4.1-4.22-6.49-.58-1.37-1.03-2.82-1.81-4.08-.49-.78-1.14-1.52-1.94-1.99-.88-.52-1.8.29-2.61.7-.33.17-.66.34-.93.58-.22.2-.39.45-.55.71-1.19,1.86-2.04,3.94-2.49,6.1-.42,2-.21,4.12.4,6.08.35,1.11.87,2.17,1.19,3.29.3,1.06.42,2.16.54,3.25.33,3.11.66,6.22.99,9.34.31,2.96-.28,5.86-1.02,8.71-.95,3.65-.7,7.21-.17,10.93.21,1.44.42,2.89.74,4.31.17.77.37,1.53.59,2.29.17.57.31,1.54.69,2.01.74.89,2.7.11,3.5-.33.74-.42,1.4-.97,2.02-1.56.18-.17.25-.41.21-.65-.62-3.59-.89-7.25-.5-10.87.82-7.58,2.86-14.96,4.61-22.37.1-.42.2-.84.3-1.25.57-2.4.8-4.82.99-7.28.02-.25.03-.5-.04-.73Z"/>
    <g class="cls-13">
      <path class="cls-9" d="M102.69,46.48c0-3.26-2.3-7.24-5.15-8.88-1.54-.89-2.92-.9-3.86-.22h0s-22.12,16.8-22.12,16.8l.23,1.26,4.24.83,24.55-6.25h0c1.28-.34,2.11-1.59,2.11-3.55Z"/>
    </g>
    <path class="cls-2" d="M74.2,50.99c-.02-.08-.05-.15-.12-.21-.1-.08-.25-.08-.37-.01s-.2.17-.29.27c-.34.41-.68.83-1.02,1.24-.21.25-.46.53-.79.5.25-1.88.51-3.77.76-5.65.02-.15.04-.31-.02-.46-.04-.09-.1-.16-.16-.24-.16-.2-.33-.39-.49-.59-.03-.03-.06-.07-.1-.08-.04-.02-.09,0-.13.01-.31.12-.44.48-.53.81-.21.77-.37,1.56-.53,2.34-.28,1.4-.54,2.8-.94,4.17-.22.75-.42,1.49-1,2.04-.61.58-4.67,1.13-5.74,1.14-2.26,0-4.52-.24-6.78,0-1.95.21-3.9.7-5.85,1-4.07.61-8.14,1.22-12.21,1.83-.07.88.3,1.74.67,2.55.39.84.78,1.69,1.32,2.44.26.36.57.71.98.89.4.18.85.18,1.29.16.64-.02,1.29-.07,1.93-.18.51-.09.98-.31,1.5-.41,1.31-.23,2.61-.5,3.91-.76,1.46-.3,7.51-1.86,9.1-2.09,1.77-.25,3.5-.77,5.2-1.27,1.36-.4,2.71-.88,4.04-1.37.54-.2,1.08-.39,1.6-.63.53-.24.98-.57,1.47-.88.43-.27.81-.63,1.02-1.1.14-.3.19-.63.28-.95.21-.85.59-1.65,1.11-2.35.24-.32.51-.63.7-.98.19-.35.3-.78.19-1.16Z"/>
    <path class="cls-4" d="M55.61,143.09c-.15,1.49.41,4.14,2.48,3.26.55-.23,1.02-.63,1.55-.92,1.42-.77,3.1-.64,4.67-.68,1.61-.04,3.28-.35,4.7-1.15.12-.07.24-.14.36-.21.49-.31.96-.69,1.27-1.18.38-.59.52-1.26-.02-1.81-.3-.31-.72-.49-1.14-.61-1.12-.34-8.32-1.7-10.76-1.43-1.42.15-2.28,1.58-2.7,2.82-.16.47-.33,1.17-.4,1.91Z"/>
    <path class="cls-5" d="M62.88,138.46c-.31-4.98-.63-9.95-.94-14.93-.44-6.97-.84-14.08-2.87-20.83-2.28-7.57-4.64-15.12-7.47-22.51-2.23,2.86-6.13,4.32-9.69,3.62-1.2-.23-1.77-1.06-2.62-1.9-1.86,2.7-2.81,5.98-2.82,9.25,0,1.61.22,3.23.68,4.78.47,1.57,1.17,2.63,2.33,3.78,2.03,2.04,4.89,3.13,6.78,5.29,1.21,1.39,1.95,3.15,2.91,4.68.78,1.24,1.45,2.54,2.1,3.85.59,1.21,1.19,1.84,1.32,3.06.1,1,.02,2.01-.01,3.02-.09,3.37.16,6.75.75,10.07.34,1.9.79,3.77,1.34,5.62.54,1.79,1.19,3.56,1.43,5.41.04.31.28.56.59.57,2.08.11,4.2-.6,5.79-1.96.16-.14.32-.29.38-.5.03-.12.03-.26.02-.39Z"/>
    <path class="cls-8" d="M41.68,60.71c-1.1-.62-2.21-1.2-3.33-1.78-1.33-.7-2.66-1.39-4-2.09-1.23-.64-2.81-.94-4.09-.23-.79.44-1.35,1.23-1.66,2.08-.31.85-.4,1.77-.43,2.67-.11,3.52.69,6.83,2.03,10.06,1.37,3.28,2.89,6.46,4.77,9.48.31.5.69,1.06.61,1.67-.09.7-.89,5.46-1.13,7.12-.02.16-.05.33-.01.49.04.17.14.31.25.44.92,1.13,2.42,1.62,3.86,1.86,2.73.45,5.53.2,8.22-.42,2.69-.63,5.28-1.63,7.82-2.71.07-.03.14-.06.18-.13.03-.06.02-.13.01-.19-.51-3.44-1.02-6.87-1.53-10.31-.25-1.7-.5-3.4-.75-5.1-.23-1.55-.33-3.15-1.21-4.5-.58-.88-1.22-1.71-1.92-2.49-1.41-1.57-3.03-2.94-4.77-4.12-.95-.64-1.93-1.23-2.92-1.8Z"/>
    <path class="cls-7" d="M44.92,45.78c.22.69.45,1.41.31,2.12-.09.46-.33.9-.3,1.37.05.77.79,1.31,1.07,2.04.05.14.09.3.04.44-.09.28-.43.37-.7.5-.23.12-.51.35-.64.58-.13.24-.07.55-.08.82-.03.69-.14,1.38-.33,2.04-.14.47-.34.96-.76,1.23-.44.28-.99.23-1.51.25-.42.01-.83.08-1.23.18-.56.15-.59.19-.61.76-.02.9,0,1.8.09,2.69,0,.08.01.17-.03.24-.03.05-.08.09-.13.12-1.52.98-3.5.98-5.25.52-1.04-.27-2.07-.73-2.76-1.55-.07-.08-.13-.17-.17-.27-.04-.12-.03-.25-.03-.37.08-1.38.16-2.77.24-4.15,0-.09,0-.18-.02-.26-.03-.1-.11-.18-.19-.25-1.04-1.06-1.69-2.49-1.85-3.97-.08-.74,0-1.48.02-2.22.03-.88.12-1.77.34-2.63.32-1.22.96-2.4,1.95-3.18.72-.57,1.6-.9,2.49-1.14,3.07-.81,6.44-.39,8.99,1.59.64.5.78,1.76,1.02,2.5Z"/>
    <path class="cls-10" d="M32.02,42.33c-1.12,1.15-2.03,2.61-2.48,4.14-.51,1.71-1.18,7.68-1.32,8.89-.05.49.04.68.4,1.05.36.37.76.69,1.19.98,1.73,1.17,3.83,1.67,5.88,1.83,1.2.1,2.43.08,3.59-.23.42-.11.99-.31,1.25-.69.26-.39.26-1.11.32-1.58.1-.73.17-1.46.2-2.2.03-.69.34-1.71-.51-2-.24-.08-.5-.11-.71-.25-.34-.21-.5-.66-.45-1.06.06-.4.3-.76.61-1.02.58-.51,1.35-.69,1.98-1.12.63-.43,1.2-.95,1.64-1.58,1.22-1.74,1.18-3.87-.4-5.36-2.28-2.15-5.77-2.64-8.65-1.51-1.01.4-1.84.98-2.53,1.7Z"/>
    <path class="cls-7" d="M81.67,55.67c-.01-.09-.04-.18-.11-.24-.09-.09-.24-.09-.36-.05-.12.05-.21.13-.31.22-.35.33-.68.68-1,1.05-.12.14-.25.29-.42.36-.17.07-.4.03-.49-.13-.07-.14-.02-.3.04-.45.17-.43.36-.85.57-1.26.4-.79.9-1.57.97-2.46.01-.18-.01-.4-.17-.48-.2-.1-.41.08-.56.25.06-.44.13-.88.19-1.32.02-.14.04-.29-.01-.42-.1-.25-.43-.34-.68-.25-.25.09-.44.31-.58.53-.15.23-.27.47-.46.66-.05.05-.13.09-.18.05.09-.37.18-.75.28-1.12.04-.17.08-.34.03-.51-.05-.16-.22-.31-.38-.26-.08.02-.15.09-.2.15-.23.26-.33.57-.48.87-.17.35-.36.69-.54,1.03-.37.7-.74,1.4-1.11,2.11-.08.16-.17.32-.25.48-.09-.09-.08-.23-.07-.36.07-.49.1-.98.11-1.47,0-.14,0-.28-.06-.4-.06-.12-.21-.21-.34-.17-.06.02-.11.07-.15.11-.31.37-.31.92-.59,1.32-.14.2-.35.35-.51.54-.34.39-.46.91-.56,1.41-.11.58-.19,1.17-.25,1.75-.06.55-.14,1.03-.52,1.46-.16.18-.36.34-.56.48-.81.35-1.61.75-2.44,1.06-1.99.75-4.13,1.01-6.23,1.32-.6.09-1.18.22-1.76.36-.75.19-1.4.69-2.12.95-3.04,1.1-6.25,1.72-9.48,1.83-.44.01-.88.02-1.32,0-.42-.02-.83-.13-1.24-.14-.6-.02-1.19.45-1.42.98-.21.49-.19,1.04-.07,1.56.13.55.38,1.07.41,1.63.02.41-.07.81-.21,1.2-.12.33-.34.56-.19.9.14.32.36.65.63.87.28.23.62.39.96.53.55.22,1.12.37,1.71.47.31.05.63.08.93.02.28-.06.44-.24.69-.35.67-.28,1.36-.52,2.03-.82,1.61-.7,3.18-1.5,4.75-2.3,1.18-.6,2.36-1.19,3.57-1.74,1.89-.16,3.73-.84,5.5-1.58,2.02-.84,4.02-1.77,5.97-2.76.87-.44,1.71-.9,2.56-1.37,1.09-.61,2.38-1.26,3.08-2.33.11-.16.25-.3.39-.44.66-.64,1.34-1.25,2.05-1.83.24-.2.48-.39.67-.64.18-.25.3-.56.26-.87Z"/>
    <path class="cls-4" d="M41.49,62.84c-.35.04-.69.1-1.03.19-.47.12-.95.28-1.35.56-1.44,1.01-2.12,3.12-1.76,4.81.25,1.15.97,2.16,1.88,2.91.91.75,1.99,1.25,3.1,1.64,2.68.93,5.54,1.22,8.38,1.19.1,0,.2,0,.29-.05.1-.05.17-.15.23-.25.89-1.42,1.4-3.09,1.36-4.77-.03-1.29-.38-2.57-1.04-3.68-.35-.58-.55-.83-1.19-.97-.78-.17-1.56-.38-2.34-.57-.77-.19-1.55-.38-2.32-.57-.85-.21-1.71-.42-2.58-.49-.54-.04-1.08-.03-1.62.03Z"/>
  </g>
</svg>