<?xml version="1.0" encoding="UTF-8"?>
<svg id="Layer" xmlns="http://www.w3.org/2000/svg" viewBox="0 0 157.04 169.78">
  <defs>
    <style>
      .cls-1 {
        fill: #ffaf80;
      }

      .cls-1, .cls-2, .cls-3, .cls-4, .cls-5, .cls-6, .cls-7, .cls-8 {
        stroke-width: 0px;
      }

      .cls-2 {
        fill: #f2f2f2;
      }

      .cls-3 {
        fill: #adb0ff;
      }

      .cls-4 {
        fill: #616161;
      }

      .cls-5 {
        fill: #ffd557;
      }

      .cls-6 {
        fill: #ffc7a6;
      }

      .cls-7 {
        fill: #8f93ff;
      }

      .cls-8 {
        fill: #4d4d4d;
      }
    </style>
  </defs>
  <g>
    <path class="cls-2" d="M88.76,141.01c-6.48,3.74-17.02,3.72-23.54-.04-6.52-3.76-6.55-9.85-.07-13.59,6.48-3.74,17.02-3.72,23.54.04,6.52,3.76,6.55,9.85.07,13.59Z"/>
    <path class="cls-1" d="M71.63,46.19c-.11-.25-.33-.43-.56-.58-.47-.29-.99-.48-1.5-.67-1.02-.37-2.04-.73-3.06-1.1-1.72-.62-3.45-1.23-5.17-1.85.26-.39,2.48-7.36,3.59-10.35.16-.29.33-.58.5-.86.21-.34.52-.56.81-.82.26-.22.43-.54.56-.85.16-.37.27-.76.38-1.15.28-.94.55-1.87.83-2.81.06-.22.13-.44.09-.67s-.2-.45-.43-.47c-.12-.01-.24.03-.34.1-.38.24-.51.72-.59,1.16s-.13.91-.43,1.25c-.06.07-.14.13-.22.11-.07-.02-.11-.09-.14-.15-.22-.46-.27-.98-.3-1.49-.08-1.52-.01-3.05-.14-4.57-.02-.24-.06-.51-.25-.66-.1-.08-.22-.11-.32-.18-.15-.11-.22-.29-.34-.43-.12-.14-.36-.21-.48-.07-.07.08-.06.19-.06.29.05,1.05.12,2.11-.04,3.15-.18,1.16-.64,2.25-1.07,3.33-.18.45-.35.9-.45,1.38-.09.45-.13.89-.09,1.35.03.33.21.68.18,1-.05.76-6.04,8.93-7.1,11.43-.18.42-.35.86-.35,1.31,0,1.05.63,1.93,1.35,2.63,2.22,2.2,4.85,4.15,7.64,5.56,1.23.62,2.5,1.14,3.8,1.57.22.07.46.15.69.11.33-.05.59-.31.8-.57,1.1-1.31,1.87-2.89,2.21-4.56.06-.3.11-.61,0-.89Z"/>
    <path class="cls-7" d="M75.81,125.03c-.11.19-.25.38-.29.42-.24.25-.59.35-.94.3-.2-.03-.39-.18-.58-.25-.27-.09-.57-.1-.81-.25-.1-.06-.55-.51-.38-.66-1.98,1.62-3.96,3.23-5.95,4.85-.77.63-1.55,1.26-2.14,2.06-.32.43-.59.92-.62,1.45-.06,1.04.27,1.89,1.38,2.16.66.16,1.36.04,2-.16,1.22-.39,2.35-1.07,3.26-1.98.75-.74,1.38-1.65,2.35-2.06.53-.22,1.12-.27,1.69-.38.57-.11,1.16-.3,1.54-.74.36-.41.49-.98.56-1.53.16-1.3.03-2.77-.92-3.68.05.05-.04.25-.16.45Z"/>
    <path class="cls-8" d="M78.06,80.5c-.21-.65-.6-1.24-.98-1.81-.56-.84-1.13-1.69-1.9-2.34-3.63-3.05-6.49,2.07-7.24,5.12-1.23,4.99-1.42,10.18-.89,15.28.33,3.27.92,6.55,1.69,9.72.78,3.17,1.03,6.49,1.26,9.71.17,2.36.34,4.72.51,7.08.04.59.08,1.18.13,1.77.02.35-.06.96.09,1.28.36.76,1.91.86,2.62.81.99-.07,1.95-.47,2.76-1.04.12-.08.23-.17.31-.29.08-.13.12-.28.15-.43.98-4.34,1.5-8.79,1.55-13.24.01-1.3-.01-2.62-.29-3.89-.33-1.53-1.01-3.07-1.08-4.64-.08-1.89.37-3.94.53-5.83.34-3.93.62-7.86.84-11.8.05-.91.1-1.81.15-2.72.05-.92.09-1.87-.2-2.75Z"/>
    <path class="cls-3" d="M71.58,45.67l-3.15-1.31c-.1-.04-.2-.08-.31-.07-.08.01-.15.05-.22.1-1.23.77-2.09,2.06-2.47,3.46-.21.77-.28,1.57-.24,2.37.02.39.07.78.14,1.16.05.28.08.77.33.96.04.03.1.05.15.07,1.58.56,2.8,1.82,3.8,3.16.23.3.45.62.73.88.05.04.1.09.16.07.05-.01.08-.07.11-.12.74-1.61,2.13-2.82,3.02-4.34.27-.47.5-.96.74-1.44.17-.34.32-.81.57-1.1.29-.34.8-.61,1.19-.83.21-.12.43-.23.65-.34.1-.05.53-.3.63-.26-1.94-.81-3.89-1.62-5.83-2.42Z"/>
    <path class="cls-3" d="M80.71,133.38c-.77,1.46-1.53,2.92-2.17,4.44-.23.55-.45,1.11-.51,1.71-.08.72.09,1.47.65,1.97.35.31.83.46,1.3.46.47,0,.93-.11,1.37-.28,1.85-.7,3.34-2.28,3.94-4.17.15-.48.25-.99.53-1.41.32-.48.83-.79,1.16-1.26.25-.35.38-.77.47-1.18.26-1.18.2-2.44-.17-3.59.02.06-.21.18-.26.19-.15.01-.15-.03-.23-.14-.17-.23-.18-.49-.43-.67-.14-.09-.3-.14-.46-.18-.46-.11-.94-.15-1.42-.13-.28.01-.58.06-.83.16-.09.04-.2.14-.3.12-.03,0-.21-.1-.17-.16-.88,1.1-1.54,2.35-2.2,3.59-.09.17-.18.35-.28.52Z"/>
    <path class="cls-4" d="M87.7,106.01c-.06-3.04.76-5.92,1.2-8.89.94-6.45,1.47-13.68-2.45-19.31-.72-1.03-1.55-1.99-2.38-2.94-.04-.05-.08-.09-.14-.11-.06-.01-.12.02-.18.05-.64.35-.76.32-1.44.25-.49-.05-.97.06-1.42.25-.9.4-1.63,1.1-2.52,1.52-1.19.59-2.59,1.29-3.84.51-.57-.35-2.06-1.91-1.9-2.65-.52,2.51-.6,5.11-.25,7.64.13.93.19,2.58.82,3.32.52.6,1.67.9,2.4,1.08,1.21,6.98,2.44,13.98,4.49,20.76.53,1.74,2.11,9.09,2.41,10.99.35,2.23.25,4.65.13,6.91-.06,1.13-.17,2.25-.32,3.37-.08.56-.16,1.12-.26,1.67-.03.16-.15.45-.1.61.06.21.36.35.53.43.84.4,1.8.53,2.74.46.93-.07,1.84-.34,2.7-.71.05-.02.11-.05.14-.09.15-.22.15-.85.18-1.12.06-.53.12-1.06.19-1.59.15-1.1.34-2.19.51-3.28.41-2.56.72-5.18.66-7.77-.06-2.88-1.01-5.64-1.58-8.43-.2-.99-.3-1.97-.32-2.93Z"/>
    <path class="cls-7" d="M90.19,57.23c.26-1.01.27-2.04.9-2.89-2.88-1.98-5.99-3.63-9.26-4.89-1.84-.71-3.72-1.3-5.54-2.04-.63-.26-1.26-.53-1.92-.65s-1.39-.06-1.96.31c-.59.38-.92,1.04-1.23,1.68-1.63,3.43-2.95,7-3.96,10.65-.3,1.1-.61,2.22-.65,3.36-.07,2.05.66,3.97,1.01,5.95.39,2.18.65,4.38.74,6.59.1,2.42-.69,4.76-.61,7.16,6.06,3.62,14.22,3.35,20.03-.67.25-.18.52-.39.56-.7.02-.18-.04-.37-.11-.54-.32-.8-.7-1.57-1.14-2.31-.39-.66-.83-1.3-1.08-2.02-.48-1.39-.22-2.91.1-4.34,1.1-4.96,2.84-9.74,4.11-14.65Z"/>
    <path class="cls-1" d="M75.72,46.83c0,.26-.05.53-.1.79-.21,1-.42,1.99-.66,2.99-.12.5-.24.99-.36,1.49-.08.3-.41.97-.1,1.17.62.41,1.41.47,2.16.44,2.52-.1,4.98-1.16,6.78-2.92.04-.04.09-.09.11-.14.05-.12,0-.26-.06-.38-.83-1.88-.75-4.02-.65-6.08-.05.24-.26.43-.49.53-.23.09-.49.1-.74.11-1.39.02-2.78-.18-4.1-.63-.48-.17-.96-.37-1.46-.46-.35-.07-.77-.06-1.01.2-.23.24-.23.61-.22.94.02.59.24,1.04.66,1.46.06.07.13.13.17.21.05.09.06.19.06.3Z"/>
    <path class="cls-6" d="M82.71,45.72c1.05.01,1.99-.62,2.81-1.21.71-.51,1.02-1.5,1.22-2.33.45-1.84.19-3.84-.71-5.51-.62-1.14-1.56-2.16-2.79-2.56-.56-.18-1.16-.23-1.76-.22-2.59.03-4.96,1.37-6.28,3.61-.85,1.44-1.16,3.12-1.44,4.77-.09.53-.19,1.06-.28,1.59-.04.25-.09.49-.07.74.04.61.44,1.15.94,1.49.51.34,1.11.5,1.71.6,1.06.17,2.14.16,3.2.09.54-.04,1.11-.1,1.53-.44.22-.18.4-.42.65-.55.38-.19.84-.09,1.27-.08Z"/>
    <path class="cls-8" d="M80.7,34.8c.21.08.42.17.62.28.32.16.62.35.9.57.43.34.79.78,1.11,1.23.26.37.51.77.6,1.21.09.45.02.91-.11,1.35-.17.6-.4,1.17-.61,1.74-.32.89-.6,1.89-.22,2.76.4-.44.82-.89,1.38-1.08.33-.11.68-.08,1,.05.56.23.58,1.11.2,1.49-.18.18-.4.3-.62.41-.39.2-.8.39-1.22.52-.33.1-.68.17-.98.34-.65.37-.98,1.09-1.15,1.77-.16.62-.26,1.25-.32,1.89-.03.32-.04.65-.04.97,0,.16,0,.21.14.3.12.08.26.13.4.17.41.12.83.17,1.25.19,1.54.09,3.13-.11,4.47-.86.54-.3,1.06-.74,1.2-1.34-.21,0-.41-.1-.54-.26-.26-.32-.14-.79-.07-1.16.32-1.63.75-3.24.91-4.89.16-1.65.05-3.37-.65-4.87-.61-1.31-1.64-2.37-2.78-3.24-.55-.42-1.18-.71-1.83-.93-.69-.23-1.43-.3-2.15-.22-1.33.14-2.58.68-3.64,1.5-.19.15-.37.31-.53.49.13-.15.5-.25.68-.31.26-.09.53-.16.8-.2.49-.07,1.08-.09,1.56.04.08.02.16.05.24.08Z"/>
    <path class="cls-6" d="M64.83,19.85c.04-.11.09-.22.18-.3.09-.08.22-.11.32-.05.07.05.1.13.12.21.29.97-.14,1.99-.36,2.97.27-.28.56-.58.93-.69.04-.01.09-.02.13,0,.04.02.07.06.1.1.18.33-.02.73-.25,1.03-.55.71-1.31,1.28-1.64,2.12-.16.41-.2.85-.39,1.25-.18.4-.58.75-1.01.69-.09-.01-.18-.05-.23-.12-.03-.05-.04-.11-.05-.16-.14-.88.32-1.57.55-2.4.29-1.01.61-2.01.96-2.99.2-.56.41-1.11.64-1.66Z"/>
    <path class="cls-6" d="M103.52,67.63c-.76-1.84-2.01-3.45-3.42-4.87-1.41-1.42-2.98-2.66-4.5-3.94-.62-.53-1.25-1.07-2.01-1.37-.96-.38-2.05-.33-3.03.01-.44.15-.87.37-1.2.7-.57.56-.81,1.43-.67,2.22.19,1.06.76,2.19,1.73,2.71.6.31,1.15.79,1.7,1.19.56.41,2.63,2.04,3.13,2.41-.85.53-1.62,1.19-2.44,1.78-.71.52-5.07,2.71-6.58,3.1-.03,0-.06.01-.09.02-.31-.04-.62-.08-.93-.04-.46.06-.88.29-1.3.51-1.18.61-2.41,1.09-3.65,1.58-.69.27-1.38.54-2.1.71-1.27.3-2.6.3-3.85.67-.26.08-.55.21-.6.48-.06.35.33.6.68.69.6.16,1.23.19,1.83.09-.44.44-.72,1.03-.8,1.65,0,.07-.01.14.02.2.04.06.1.09.17.11.57.17,1.13-.24,1.6-.6.85-.66,1.76-1.26,2.75-1.67,2.43-1.01,5.25-.87,7.71-1.71,5.14-1.04,10.31-2.18,15-4.49,1-.49,1.26-1.1.84-2.13Z"/>
    <path class="cls-3" d="M86.02,58.05c.19,1.17.66,2.28,1.23,3.32.67,1.23,1.5,2.4,2.55,3.33.4.35.98-.03,1.38-.21,1.96-.9,3.57-2.55,4.43-4.53.19-.44.35-1.04.04-1.46-1.06-1.43-2.43-2.6-3.79-3.74-.57-.48-1.15-.96-1.81-1.29-.67-.33-1.44-.5-2.16-.31-1.17.3-1.72,1.21-1.97,2.26-.19.8-.01,1.83.12,2.64Z"/>
    <path class="cls-1" d="M81.22,73.61c.23-.02.44-.09.66-.15.44-.11.9-.14,1.36-.11.4.03.8.12,1.19.05.5-.1.95-.54.96-1.05,0-.24-.08-.47-.2-.67-.07-.11-.15-.22-.25-.3-.32-.26-.79-.22-1.17-.06-.38.16-.71.41-1.09.58-.49.21-1.04.25-1.56.36-.33.07-.82.28-.78.7.04.46.47.7.89.66Z"/>
  </g>
  <g>
    <path class="cls-5" d="M96.24,42.09l-.07-.19c-.86-2.18-2.53-3.94-4.66-4.92l-.69-.32.15-.06c2.45-.94,4.37-2.9,5.27-5.36h0v.02c.91,2.45,2.82,4.4,5.26,5.34l.16.06-.7.32c-2.12.97-3.78,2.72-4.64,4.89l-.08.21Z"/>
    <path class="cls-5" d="M103.71,33.18l-.04-.11c-.48-1.23-1.42-2.22-2.62-2.77l-.39-.18.08-.03c1.38-.53,2.46-1.63,2.96-3.02h0c.51,1.39,1.58,2.49,2.96,3.02l.09.03-.39.18c-1.19.55-2.13,1.53-2.61,2.75l-.05.12Z"/>
    <path class="cls-5" d="M103.71,44.15l-.03-.07c-.33-.83-.96-1.5-1.77-1.87l-.26-.12.06-.02c.93-.36,1.66-1.1,2-2.04h0c.34.94,1.07,1.68,2,2.04l.06.02-.26.12c-.8.37-1.44,1.03-1.76,1.86l-.03.08Z"/>
  </g>
  <path class="cls-5" d="M47.72,45.14l-.04-.11c-.48-1.23-1.42-2.22-2.62-2.77l-.39-.18.08-.03c1.38-.53,2.46-1.63,2.96-3.02h0c.51,1.39,1.58,2.49,2.96,3.02l.09.03-.39.18c-1.19.55-2.13,1.53-2.61,2.75l-.05.12Z"/>
  <path class="cls-5" d="M51.63,50.62l-.03-.07c-.33-.83-.96-1.5-1.77-1.87l-.26-.12.06-.02c.93-.36,1.66-1.1,2-2.04h0s0,0,0,0c.34.93,1.07,1.67,2,2.03l.06.02-.26.12c-.8.37-1.44,1.03-1.76,1.86l-.03.08Z"/>
</svg>