<?xml version="1.0" encoding="UTF-8"?>
<svg id="Layer" xmlns="http://www.w3.org/2000/svg" viewBox="0 0 157.04 169.78">
  <defs>
    <style>
      .cls-1 {
        fill: #ffaf80;
      }

      .cls-1, .cls-2, .cls-3, .cls-4, .cls-5, .cls-6, .cls-7, .cls-8, .cls-9, .cls-10, .cls-11, .cls-12, .cls-13, .cls-14, .cls-15, .cls-16 {
        stroke-width: 0px;
      }

      .cls-2 {
        fill: #c28652;
      }

      .cls-3 {
        fill: #f2f2f2;
      }

      .cls-4 {
        fill: #adb0ff;
      }

      .cls-5 {
        fill: #616161;
      }

      .cls-6 {
        fill: #8f5d31;
      }

      .cls-7 {
        fill: #8f8f8f;
      }

      .cls-17 {
        isolation: isolate;
      }

      .cls-8 {
        fill: #e6ab77;
      }

      .cls-9 {
        fill: #d9d9d9;
      }

      .cls-10 {
        fill: #666;
      }

      .cls-11 {
        fill: #e6e6e6;
      }

      .cls-12 {
        fill: #ffc7a6;
      }

      .cls-13 {
        fill: #8f93ff;
      }

      .cls-14 {
        fill: #fff;
      }

      .cls-15 {
        fill: #ccceff;
      }

      .cls-16 {
        fill: #4d4d4d;
      }
    </style>
  </defs>
  <path class="cls-3" d="M114.17,132.24c-6.19,3.58-16.27,3.56-22.5-.04-6.23-3.6-6.27-9.42-.07-12.99,6.19-3.58,16.27-3.56,22.5.04,6.23,3.6,6.27,9.42.07,12.99Z"/>
  <g>
    <path class="cls-13" d="M97.41,118.93c-.12.09-.23.19-.35.28-.85.68-1.72,1.34-2.58,2.02-.46.36-.92.73-1.3,1.19s-.66,1-.71,1.58c-.07.88.25,1.62,1.04,2.07.57.32,1.25.46,1.9.39.6-.07,1.17-.31,1.71-.59.71-.36,1.39-.78,2.02-1.27.96-.74,1.85-1.66,3.01-2.03.53-.17,1.09-.21,1.62-.38,1.14-.37,2.08-1.37,2.27-2.56.16-.97-.15-1.95-.48-2.87-.01.12-.03.25-.11.34-.25.28-.47-.2-.57-.35-.61-.82-1.56-1.4-2.58-1.43-1.1-.03-1.76.93-2.52,1.59-.78.69-1.57,1.36-2.37,2.01Z"/>
    <path class="cls-16" d="M106.83,95.38c-.07-.44-.12-.89-.05-1.31.29-1.81.42-3.67.62-5.5.12-1.15.25-2.31.35-3.46.02-.18.03-.37-.03-.55-.07-.19-.22-.33-.35-.48-.67-.77-.8-1.83-.86-2.8-.08-1.34-.14-2.68-.17-4.02-.04-1.93-.18-3.79-.13-5.72,0-.24,0-.51-.18-.66-.17-.14-.42-.12-.63-.08-1.42.28-2.66,1.16-4.05,1.53-2.29.62-4.92-.29-6.34-2.19.08,4.34.94,8.61,1.88,12.83.02.07.03.14.05.21.67,3.01,1.27,6.03,1.7,9.08.42,2.97.08,5.91.17,8.89.1,3.21.18,12.79.17,14.38,0,.71-.41,1.87.12,2.46.67.76,2.1.92,3.04.86,1.26-.09,2.46-.58,3.59-1.14.14-.07.28-.14.36-.26.07-.11.09-.25.11-.38.5-4.11,1.13-8.23,1.23-12.37.04-1.83,0-3.65-.13-5.47-.07-.91-.15-1.82-.26-2.73-.04-.36-.12-.74-.18-1.12Z"/>
    <path class="cls-1" d="M81.85,55.55c-.04.18-.08.36-.02.54.04.14.14.25.23.36,1.04,1.16,2.47,1.97,4.01,2.24.14.02.28.04.41,0,.15-.05.25-.17.34-.3.21-.31.34-.67.47-1.03.33-.92.65-1.84.98-2.76.29-.82.58-1.64.69-2.5.11-.86.03-1.77-.4-2.52-.43-.75-1.24-1.32-2.1-1.31-.5,0-.99.2-1.42.46-.82.49-1.5,1.27-1.82,2.18-.32.9-.43,1.86-.76,2.77-.23.62-.47,1.23-.62,1.87Z"/>
    <path class="cls-4" d="M100.52,128.35c-.08.19-.14.38-.19.58-.12.46-.19,1.12.05,1.55.2.36.63.67,1,.84.69.32,1.49.33,2.25.23,1.65-.21,3.21-.93,4.47-2.01.64-.54,1.2-1.18,1.65-1.88.22-.35.41-.66.52-1.06.13-.45.28-.91.57-1.29.33-.45.82-.76,1.18-1.19.53-.62.77-1.43.91-2.23.19-1.07.21-2.25-.4-3.14.13.19-.9.73-1.05.73-.36,0-.56-.46-.82-.64-.64-.45-1.46-.59-2.25-.59-.31,0-.57,0-.83.17-.24.16-.44.38-.64.59-2.34,2.53-4.35,5.37-5.97,8.41-.16.3-.32.6-.45.92Z"/>
    <path class="cls-5" d="M115.5,67.03c-.05-.1-.09-.19-.14-.29-.6-1.2-1.45-2.33-2.65-2.92-.73-.36-1.14.81-1.52,1.26-.66.8-1.38,1.56-2.2,2.2-1.41,1.1-3.09,1.79-4.81,2.31-.55.17-1.11.32-1.58.64-1.42.97-1.83,3.09-1.57,4.68.22,1.36,1.79,2.53,2.89,3.16.18.1.37.2.48.37.13.19.14.43.15.66.14,2.74,1.92,13.11,2.24,15.59.37,2.89.98,5.68,1.05,8.62.09,3.67-1.62,14.72-1.74,15.11-.12.4-.45,1.05-.4,1.48.06.54,1.09.98,1.54,1.15.69.26,1.43.36,2.16.36,1.22,0,2.47-.22,3.54-.81.09-.05.19-.11.25-.2.3-.41.29-1.26.39-1.75.13-.67.26-1.34.4-2.01.62-3.14,1.31-6.26,1.51-9.46.12-1.9.09-3.81-.1-5.71-.29-2.88-.6-5.76-.62-8.66,0-1.33.24-2.51.41-3.82.37-2.92.71-5.81,1.1-8.73.15-1.14.4-2.23.49-3.39.1-1.34.15-2.7.07-4.04-.12-2-.51-4.01-1.37-5.83Z"/>
    <path class="cls-4" d="M82.31,46.87c-.01.13-.02.26-.03.39-.15,2.05-.2,4.11-.44,6.15-.11.94,0,1.43.57,2.22.51.71,1.05,1.41,1.73,1.97.85.69,1.96,1.14,3.04.95.37-.92.69-1.85.95-2.81.72-2.65,1.01-5.39,1.3-8.12.03-.27.05-.55-.06-.79-.14-.31-.46-.49-.66-.75-.53-.67-.35-1.64-.29-2.42.08-1.01.14-2.03.02-3.04-.09-.79-.34-1.64-1-2.08-.47-.24-.57-.67-.79-1.14-.82.12-1.53.66-2.02,1.33-1.69,2.33-2.1,5.32-2.32,8.14Z"/>
    <path class="cls-13" d="M115.56,67.42c-.04.12-.12.21-.2.3-1.18,1.31-2.37,2.64-3.78,3.69-2.29,1.71-5.06,2.62-7.85,3.22-1.36.28-2.74.51-4.12.45-.28,0-.57-.03-.85-.07-.05,0-.09,0-.15-.01-1.97-.29-3.93-1.28-4.55-3.24l-9.16-28.94c-.24-.77-.55-1.61-.55-2.41,0-.55.01-1.1.07-1.65.04-.32.08-.64.15-.96.2-.98.6-1.93,1.3-2.65.99-1.01,2.46-1.41,3.87-1.38,1.41.04,2.78.46,4.11.91,4.54,1.54,9.14,3.53,12.29,7.13.86.99,1.27,2.33,1.69,3.56.15.44.22.93.33,1.38,1.71,6.94,4.59,13.5,7.3,20.1.07.18.15.39.09.58Z"/>
    <path class="cls-15" d="M101.79,53.08c-3.22,1.61-6.86-.49-6.86-.49l.21,2.71s3.64,2.09,6.86.49l-.21-2.71Z"/>
    <path class="cls-4" d="M99.61,75.08c-.28,0-.57-.03-.85-.07-.4-.78-.78-1.57-1.14-2.36-1.56-3.44-2.75-7.08-3.9-10.59-1.12-3.44-2.28-7-2.91-10.65-.6-3.45-.72-6.96-.36-10.44l.72.07c-.34,3.42-.23,6.86.36,10.25.62,3.59,1.77,7.13,2.89,10.54,1.14,3.5,2.32,7.11,3.86,10.52.42.92.87,1.84,1.33,2.73Z"/>
    <path class="cls-1" d="M91.15,42.7s.03.07.05.1c.13.15.42-.02.56-.08.47-.18.9-.43,1.29-.75.69-.55,1.24-1.26,1.72-1.99.49-.76.92-1.57,1.14-2.45.13-.51.18-1.03.22-1.55,0-.04,0-.08-.01-.11-.02-.04-.07-.06-.11-.07-1.06-.37-1.95-1.12-2.69-1.97-.74-.85-1.35-1.8-2.02-2.7.04.05-.17.55-.19.63-.06.23-.12.46-.16.69-.08.39-.11.89-.3,1.24-.23.4-.74.58-.98.97-.25.4-.16.91-.03,1.37.11.41.3.9.17,1.32-.11.35-.58.68-.87.89-.3.21-.5.54-.55.9-.05.41.3.88.49,1.23.2.39.44.76.65,1.14.07.14.04.29.25.23.17-.06.3-.2.45-.3.08-.05.16-.1.26-.09.08,0,.15.05.22.11.2.17.35.41.39.67.03.17.02.34.05.51,0,.03,0,.05.02.08Z"/>
    <path class="cls-15" d="M90.15,43.97c-.15-.29-.36-.53-.53-.81-.16-.28-.3-.57-.43-.86-.25-.59-.43-1.21-.45-1.85,0-.05,0-.1,0-.15,0-.22.02-.45.11-.66-.02.45.25.89.63,1.15.37.26.84.35,1.3.35-.16.14-.25.31-.3.51-.09.36-.14.72-.2,1.08-.06.41-.1.83-.13,1.24Z"/>
    <path class="cls-15" d="M93.19,37.02c-.41.83-.92,1.62-1.43,2.39-.3.47-.61.93-.97,1.35-.08.1-.17.19-.22.31-.04.1-.05.22-.05.33,0,.37.13.73.27,1.07.27.67.61,1.3.95,1.93.22-.57.62-1.06,1.03-1.51.88-.99,1.85-1.91,2.61-3.01.76-1.09,1.29-2.4,1.16-3.72-.03-.33-.13-.68-.41-.85-.11-.06-.24-.09-.36-.12-.35-.09-.72-.24-.91-.56-.16-.27-.14-.55-.43-.72-.31-.18-.7-.31-1.05-.2-.02,0-.05.02-.07.04-.02.02-.01.05,0,.08.02.14.1.25.17.38.5.93.15,1.91-.29,2.79Z"/>
    <path class="cls-12" d="M90.38,24.79c-.87-1.24-2.02-2.35-3.46-2.85-.87-.3-1.82-.36-2.74-.32-1.08.05-2.15.25-3.14.69-1.61.71-2.93,2.06-3.6,3.69-.44,1.06-.6,2.23-.48,3.38.11,1.11.57,2.07,1.01,3.08.4.92.89,1.85,1.72,2.39.29.19.62.32.88.55.71.61.76,1.67.77,2.6,0,.49.07,1.08.52,1.27.42.18.9-.13,1.35-.09.47.9,1.05,1.75,1.73,2.51.09.1.19.21.31.28.39.22.87.01,1.27-.2,1.38-.73,2.79-1.47,3.83-2.63.28-.31.54-.65.65-1.05.3-1.05-.41-2.09-.71-3.15.02.07.67-.36.73-.41,1.21-1.07,1.43-3.09,1.29-4.62-.17-1.84-.87-3.62-1.93-5.13Z"/>
    <path class="cls-16" d="M77.6,30.88c.49.14,1.02,0,1.5-.19.96-.37,1.86-.9,2.65-1.56-.14.24-.2.54-.17.82.24-.21.51-.38.8-.51.06-.03.14-.05.2-.02.07.04.08.13.09.21.02.49-.05.98-.03,1.47.02.49.14,1,.49,1.35.33.34.82.48,1.3.51.48.03.95-.04,1.43-.06.8-.02,1.56.13,2.32.38.05-.12-.02-.29-.04-.42-.03-.2-.02-.42,0-.62.04-.4.16-.79.36-1.13.36-.59,1-1.02,1.69-1.03.53,0,1.06.24,1.43.62s.59.9.67,1.43c.24-1.87.29-3.8-.18-5.63-.46-1.83-1.47-3.57-3.01-4.67-.41-.29-.91-.52-1.4-.62-.22-.05-.31.02-.51.06-.26.05-.53-.05-.77-.13-.64-.22-1.29-.43-1.96-.53-1.53-.22-3.12.17-4.43.99-1.31.81-2.35,2.03-3.06,3.41-.54,1.06-.89,2.25-.86,3.44,0,.51.04,1.26.33,1.71.25.39.72.59,1.15.71Z"/>
    <path class="cls-12" d="M101.26,64.21c.01.36.02.74.24,1.03.1.12.23.22.36.31,1.31.9,2.77,1.58,4.3,2.01.61-2.02,1.31-4.03,1.68-6.11.37-2.08.38-4.27-.35-6.25-.16-.43-.37-.87-.72-1.17-.41-.35-.98-.47-1.52-.51-1.24-.08-2.53.26-3.45,1.09-.99.9-1.11,1.98-1.09,3.23.03,1.3.11,2.56.29,3.85.12.83.23,1.67.26,2.51Z"/>
    <path class="cls-4" d="M99.69,46.57c-.12.71-.12,1.43-.12,2.15.04,4.52.36,9.04.96,13.51.09.71.21,1.46.63,2.04.32.45.79.76,1.25,1.06.94.61,1.89,1.22,2.84,1.82.39.25.8.5,1.26.48.29,0,.78-.95.9-1.17.23-.43.25-.95.35-1.42.27-1.21.53-2.42.76-3.63.42-2.18.49-4.57.5-6.79,0-2.34-.22-4.7-.8-6.97-.21-.8-.34-1.62-.66-2.38-.34-.8-.71-1.6-1.27-2.26-.68-.8-1.8-1.49-2.88-1.4-1.13.09-2.06,1.1-2.6,2.02-.45.77-.8,1.64-1.02,2.51-.04.14-.07.29-.09.43Z"/>
  </g>
  <path class="cls-3" d="M84.42,157.25l-60.21-34.85c-.69-.4-.6-1.1.19-1.56l28.18-16.02c.8-.46,2-.51,2.69-.11l60.21,34.85c.69.4.6,1.1-.19,1.56l-28.18,16.02c-.8.46-2,.51-2.69.11Z"/>
  <g>
    <path class="cls-6" d="M51.96,60.76l1.34,51.3c.02.4.34.71.74.71h0c.4,0,.73-.32.74-.72l1.07-51.29h-3.89Z"/>
    <g class="cls-17">
      <polygon class="cls-6" points="101.79 89.22 101.79 95.59 81.96 107.12 81.96 100.74 101.79 89.22"/>
      <polygon class="cls-2" points="81.96 100.74 81.96 107.12 35.26 80.15 35.26 73.78 81.96 100.74"/>
      <polygon class="cls-7" points="101.79 89.22 81.96 100.74 35.26 73.78 55.09 62.26 101.79 89.22"/>
    </g>
    <path class="cls-6" d="M81.15,99.17l1.34,51.3c.02.4.34.71.74.71h0c.4,0,.73-.32.74-.72l1.07-51.29h-3.89Z"/>
    <path class="cls-6" d="M99.85,88.38l1.34,51.3c.02.4.34.71.74.71h0c.4,0,.73-.32.74-.72l1.07-51.29h-3.89Z"/>
    <path class="cls-2" d="M33.26,71.55l1.34,51.3c.02.4.34.71.74.71h0c.4,0,.73-.32.74-.72l1.07-51.29h-3.89Z"/>
    <g class="cls-17">
      <polygon class="cls-6" points="109.17 89.61 109.17 91.51 84.94 105.59 84.95 103.69 109.17 89.61"/>
      <polygon class="cls-2" points="84.95 103.69 84.94 105.59 27.88 72.65 27.89 70.74 84.95 103.69"/>
      <polygon class="cls-8" points="109.17 89.61 84.95 103.69 27.89 70.74 52.11 56.66 109.17 89.61"/>
    </g>
  </g>
  <polygon class="cls-14" points="81.94 98.43 52.83 81.66 72.36 70.39 101.47 87.15 81.94 98.43"/>
  <g>
    <path class="cls-10" d="M68.77,87.9l-11.09-6.41,13-7.51,11.09,6.41-13,7.51ZM58.12,81.5l10.66,6.15,12.56-7.25-10.66-6.15-12.56,7.25Z"/>
    <g>
      <g>
        <path class="cls-10" d="M72.13,77.3l-2.61-1.5,1.05-.61,2.61,1.5-1.05.61ZM69.96,75.8l2.17,1.25.62-.36-2.17-1.25-.62.36Z"/>
        <path class="cls-10" d="M70.5,78.24l-2.61-1.5,1.05-.61,2.61,1.5-1.05.61ZM68.33,76.74l2.17,1.25.62-.36-2.17-1.25-.62.36Z"/>
        <path class="cls-10" d="M68.87,79.18l-2.61-1.5,1.05-.61,2.61,1.5-1.05.61ZM66.7,77.68l2.17,1.25.62-.36-2.17-1.25-.62.36Z"/>
        <path class="cls-10" d="M67.24,80.12l-2.61-1.5,1.05-.61,2.61,1.5-1.05.61ZM65.07,78.62l2.17,1.25.62-.36-2.17-1.25-.62.36Z"/>
        <path class="cls-10" d="M65.61,81.06l-2.61-1.5,1.05-.61,2.61,1.5-1.05.61ZM63.44,79.56l2.17,1.25.62-.36-2.17-1.25-.62.36Z"/>
        <path class="cls-10" d="M63.98,82l-2.61-1.5,1.05-.61,2.61,1.5-1.05.61ZM61.81,80.5l2.17,1.25.62-.36-2.17-1.25-.62.36Z"/>
        <path class="cls-10" d="M62.35,82.95l-2.61-1.5,1.05-.61,2.61,1.5-1.05.61ZM60.18,81.44l2.17,1.25.62-.36-2.17-1.25-.62.36Z"/>
      </g>
      <g>
        <path class="cls-10" d="M75.39,79.18l-2.6-1.5,1.05-.61,2.6,1.5-1.05.61ZM73.22,77.68l2.17,1.25.62-.36-2.17-1.25-.62.36Z"/>
        <path class="cls-10" d="M73.76,80.12l-2.6-1.5,1.05-.61,2.6,1.5-1.05.61ZM71.59,78.62l2.17,1.25.62-.36-2.17-1.25-.62.36Z"/>
        <path class="cls-10" d="M72.13,81.06l-2.6-1.5,1.05-.61,2.6,1.5-1.05.61ZM69.96,79.56l2.17,1.25.62-.36-2.17-1.25-.62.36Z"/>
        <path class="cls-10" d="M70.5,82.01l-2.6-1.5,1.05-.61,2.6,1.5-1.05.61ZM68.33,80.5l2.17,1.25.62-.36-2.17-1.25-.62.36Z"/>
        <path class="cls-10" d="M68.87,82.95l-2.6-1.5,1.05-.61,2.6,1.5-1.05.61ZM66.7,81.44l2.17,1.25.62-.36-2.17-1.25-.62.36Z"/>
        <path class="cls-10" d="M67.24,83.89l-2.6-1.5,1.05-.61,2.6,1.5-1.05.61ZM65.07,82.38l2.17,1.25.62-.36-2.17-1.25-.62.36Z"/>
        <path class="cls-10" d="M65.61,84.83l-2.6-1.5,1.05-.61,2.61,1.5-1.05.61ZM63.44,83.32l2.17,1.25.62-.36-2.17-1.25-.62.36Z"/>
      </g>
      <g>
        <path class="cls-10" d="M78.65,81.07l-2.61-1.5,1.05-.61,2.61,1.5-1.05.61ZM76.48,79.56l2.17,1.25.62-.36-2.17-1.25-.62.36Z"/>
        <path class="cls-10" d="M77.02,82.01l-2.61-1.5,1.05-.61,2.61,1.5-1.05.61ZM74.85,80.5l2.17,1.25.62-.36-2.17-1.25-.62.36Z"/>
        <path class="cls-10" d="M75.39,82.95l-2.61-1.5,1.05-.61,2.61,1.5-1.05.61ZM73.22,81.44l2.17,1.25.62-.36-2.17-1.25-.62.36Z"/>
        <path class="cls-10" d="M73.76,83.89l-2.61-1.5,1.05-.61,2.61,1.5-1.05.61ZM71.59,82.39l2.17,1.25.62-.36-2.17-1.25-.62.36Z"/>
        <path class="cls-10" d="M72.13,84.83l-2.61-1.5,1.05-.61,2.61,1.5-1.05.61ZM69.96,83.33l2.17,1.25.62-.36-2.17-1.25-.62.36Z"/>
        <path class="cls-10" d="M70.5,85.77l-2.61-1.5,1.05-.61,2.61,1.5-1.05.61ZM68.33,84.27l2.17,1.25.62-.36-2.17-1.25-.62.36Z"/>
        <path class="cls-10" d="M68.87,86.71l-2.61-1.5,1.05-.61,2.61,1.5-1.05.61ZM66.71,85.21l2.17,1.25.62-.36-2.17-1.25-.62.36Z"/>
      </g>
    </g>
  </g>
  <g>
    <path class="cls-10" d="M82.14,95.8l-11.09-6.41,13-7.51,11.09,6.41-13,7.51ZM71.48,89.39l10.66,6.15,12.56-7.25-10.66-6.15-12.56,7.25Z"/>
    <g>
      <g>
        <path class="cls-10" d="M85.49,85.2l-2.61-1.5,1.05-.61,2.61,1.5-1.05.61ZM83.32,83.69l2.17,1.25.62-.36-2.17-1.25-.62.36Z"/>
        <path class="cls-10" d="M83.86,86.14l-2.61-1.5,1.05-.61,2.61,1.5-1.05.61ZM81.7,84.63l2.17,1.25.62-.36-2.17-1.25-.62.36Z"/>
        <path class="cls-10" d="M82.24,87.08l-2.61-1.5,1.05-.61,2.61,1.5-1.05.61ZM80.07,85.57l2.17,1.25.62-.36-2.17-1.25-.62.36Z"/>
        <path class="cls-10" d="M80.61,88.02l-2.61-1.5,1.05-.61,2.61,1.5-1.05.61ZM78.44,86.51l2.17,1.25.62-.36-2.17-1.25-.62.36Z"/>
        <path class="cls-10" d="M78.98,88.96l-2.61-1.5,1.05-.61,2.61,1.5-1.05.61ZM76.81,87.46l2.17,1.25.62-.36-2.17-1.25-.62.36Z"/>
        <path class="cls-10" d="M77.35,89.9l-2.61-1.5,1.05-.61,2.61,1.5-1.05.61ZM75.18,88.4l2.17,1.25.62-.36-2.17-1.25-.62.36Z"/>
        <path class="cls-10" d="M75.72,90.84l-2.61-1.5,1.05-.61,2.61,1.5-1.05.61ZM73.55,89.34l2.17,1.25.62-.36-2.17-1.25-.62.36Z"/>
      </g>
      <g>
        <path class="cls-10" d="M88.76,87.08l-2.6-1.5,1.05-.61,2.6,1.5-1.05.61ZM86.59,85.57l2.17,1.25.62-.36-2.17-1.25-.62.36Z"/>
        <path class="cls-10" d="M87.13,88.02l-2.6-1.5,1.05-.61,2.6,1.5-1.05.61ZM84.96,86.52l2.17,1.25.62-.36-2.17-1.25-.62.36Z"/>
        <path class="cls-10" d="M85.5,88.96l-2.6-1.5,1.05-.61,2.6,1.5-1.05.61ZM83.33,87.46l2.17,1.25.62-.36-2.17-1.25-.62.36Z"/>
        <path class="cls-10" d="M83.87,89.9l-2.6-1.5,1.05-.61,2.6,1.5-1.05.61ZM81.7,88.4l2.17,1.25.62-.36-2.17-1.25-.62.36Z"/>
        <path class="cls-10" d="M82.24,90.84l-2.6-1.5,1.05-.61,2.6,1.5-1.05.61ZM80.07,89.34l2.17,1.25.62-.36-2.17-1.25-.62.36Z"/>
        <path class="cls-10" d="M80.61,91.78l-2.6-1.5,1.05-.61,2.6,1.5-1.05.61ZM78.44,90.28l2.17,1.25.62-.36-2.17-1.25-.62.36Z"/>
        <path class="cls-10" d="M78.98,92.72l-2.6-1.5,1.05-.61,2.6,1.5-1.05.61ZM76.81,91.22l2.17,1.25.62-.36-2.17-1.25-.62.36Z"/>
      </g>
      <g>
        <path class="cls-10" d="M92.02,88.96l-2.61-1.5,1.05-.61,2.61,1.5-1.05.61ZM89.85,87.46l2.17,1.25.62-.36-2.17-1.25-.62.36Z"/>
        <path class="cls-10" d="M90.39,89.9l-2.61-1.5,1.05-.61,2.61,1.5-1.05.61ZM88.22,88.4l2.17,1.25.62-.36-2.17-1.25-.62.36Z"/>
        <path class="cls-10" d="M88.76,90.84l-2.61-1.5,1.05-.61,2.61,1.5-1.05.61ZM86.59,89.34l2.17,1.25.62-.36-2.17-1.25-.62.36Z"/>
        <path class="cls-10" d="M87.13,91.78l-2.61-1.5,1.05-.61,2.61,1.5-1.05.61ZM84.96,90.28l2.17,1.25.62-.36-2.17-1.25-.62.36Z"/>
        <path class="cls-10" d="M85.5,92.72l-2.61-1.5,1.05-.61,2.61,1.5-1.05.61ZM83.33,91.22l2.17,1.25.62-.36-2.17-1.25-.62.36Z"/>
        <path class="cls-10" d="M83.87,93.66l-2.61-1.5,1.05-.61,2.61,1.5-1.05.61ZM81.7,92.16l2.17,1.25.62-.36-2.17-1.25-.62.36Z"/>
        <path class="cls-10" d="M82.24,94.61l-2.61-1.5,1.05-.61,2.61,1.5-1.05.61ZM80.07,93.1l2.17,1.25.62-.36-2.17-1.25-.62.36Z"/>
      </g>
    </g>
  </g>
  <polygon class="cls-16" points="65.9 90.11 63.71 88.85 85.45 76.3 87.64 77.56 65.9 90.11"/>
  <g>
    <path class="cls-1" d="M85.05,56.91s-.04-.02-.06-.03c-1.09-.5-2.36-.63-3.53-.35-.32.08-.73.19-.96.45-.21.23-.33.59-.49.86-.4.71-.8,1.41-1.18,2.13-1.09,2.03-2.09,4.11-3.24,6.11-.52.9-1.01,1.99-1.89,2.57-.86.57-1.84.97-2.63,1.65-.09.08-.18.16-.24.27-.12.23-.08.5-.03.75.08.4.15.82.06,1.22-.04.19-.12.37-.16.56-.11.52.05,1.06.29,1.53.12.23.3.48.56.49.16,0,.3-.09.44-.16.39-.17.83-.14,1.26-.17.6-.05,1.21-.28,1.61-.73.17-.19.29-.41.44-.61.43-.56,1.08-.92,1.57-1.43.58-.6.92-1.39,1.14-2.19.24-.87.38-1.43,1.08-2.06,2.54-2.27,5.07-4.61,7.05-7.39.25-.35.49-.72.57-1.14.09-.48-.19-.79-.48-1.14-.18-.22-.35-.44-.53-.65-.09-.11-.18-.22-.28-.3-.11-.09-.23-.16-.36-.22Z"/>
    <path class="cls-16" d="M71.48,80.86l-1.06,1.06-.23-1.41,2.98-11.27c.09-.36.46-.57.82-.48h0c.36.09.57.46.47.82l-2.98,11.27Z"/>
    <path class="cls-15" d="M87.74,57.76c.5-.98.95-2.03.9-3.13,0-.08-.03-.18-.11-.18-.05,0-.09.04-.12.08-.34.36-.87.44-1.36.46-.74.04-1.49,0-2.23-.14-.49-.09-.99-.22-1.42-.46-.76-.43-1.38-1.29-1.35-2.19,0-.21.05-.41.01-.62,0-.03-.02-.06-.05-.06-.01,0-.03,0-.04.02-.13.1-.19.26-.25.42-.06.17-.12.34-.17.52-.27.99-.16,2.1-.7,2.97-.16.25-.36.47-.55.71s-.36.49-.44.77c-.2.77.33,1.37.81,1.89.57.61,1.23,1.13,1.98,1.5.66.33,1.39.54,2.12.59.37.03.74.01,1.1-.04.22-.03.47-.07.62-.27.08-.11.09-.23.1-.36.02-.16.07-.3.14-.46.28-.69.66-1.34,1-2Z"/>
    <path class="cls-12" d="M103.17,68.08c-.67-.87-1.57-1.56-2.59-1.98-.46-.19-.99-.33-1.42-.04-.47.32-.9.82-1.31,1.22-1.88,1.83-7.79,7.28-8.87,8.15-.92.74-2.02,1.3-3.12,1.72-.92.36-1.85.72-2.77,1.08-.55.21-1.11.43-1.62.73-.49.29-.94.65-1.39,1.01-.89.72-1.77,1.43-2.66,2.15-.16.13-.32.27-.41.45-.09.19-.07.44.1.56-.25.1-.35.44-.24.68.11.25.38.4.65.43.27.04.54-.02.8-.08.28.34.82.26,1.22.08.14-.06.28-.14.43-.14.12,0,.24.05.35.09.3.08.61.03.91-.04.76-.17,1.5-.45,2.22-.74,1.34-.55,2.64-1.18,3.89-1.9.52-.3,1.04-.63,1.52-1,.63-.49,1.22-1.01,1.88-1.44.77-.5,1.53-1.01,2.29-1.52,1.52-1.03,3.02-2.09,4.51-3.16,1.58-1.13,3.16-2.26,4.76-3.38.27-.19.54-.38.81-.56.4-.28.75-.41.72-.94-.03-.48-.26-.92-.54-1.3-.03-.04-.07-.09-.1-.13Z"/>
    <path class="cls-15" d="M99,65.32c-.28.3-.58.63-.61,1.04-.02.21.04.41.11.61.72,2.08,2.8,3.61,5.01,3.67.32,0,.64-.01.94-.11.34-.11.55-.28.8-.53.53-.52,1.05-1.05,1.55-1.6.29-.32.58-.65.78-1.03.47-.86.47-1.9.43-2.88,0-.07-.04-.17-.11-.15-.04.01-.05.05-.06.09-.07.26-.11.48-.32.67-.15.14-.43.35-.65.35-.36.09-.74.07-1.11.02-.26,0-.55-.09-.81-.14-.95-.22-1.87-.61-2.68-1.16-.4-.27-.77-.59-1.1-.95-.16-.18-.32-.37-.46-.56-.17-.23-.24-.47-.33-.74,0-.02-.02-.04-.03-.06-.04-.03-.1-.02-.13.02-.03.04-.04.09-.05.14-.09.66.23,1.42-.07,2.05-.2.44-.79.89-1.12,1.25Z"/>
    <path class="cls-12" d="M74.13,72.15c-.54.39-1.12.77-1.54,1.29-.17.2-.31.43-.4.69-.05.14-.07.28-.08.42,0,.06,0,.13.02.18.05.12.19.18.32.21.41.07.82-.11,1.18-.32,1-.57,1.86-1.35,2.8-2.01.22-.15.45-.31.57-.55.08-.14.11-.31.13-.47.04-.32.04-.65-.07-.95-.03-.07-.07-.15-.12-.2-.32-.3-.98-.15-1.27.13-.29.28-.47.67-.76.96-.24.23-.5.43-.77.63Z"/>
  </g>
  <g class="cls-17">
    <polygon class="cls-2" points="34.57 71.26 43.07 76.18 61.58 65.5 53.09 60.58 34.57 71.26"/>
    <polygon class="cls-11" points="37.02 48.51 37.08 70.87 43.43 74.56 43.37 52.2 37.02 48.51"/>
    <polygon class="cls-9" points="43.37 52.2 43.43 74.56 59.6 65.22 59.54 42.86 43.37 52.2"/>
    <g>
      <polygon class="cls-3" points="48.73 53.42 45.13 55.5 45.13 53.58 48.73 51.5 48.73 53.42"/>
      <polygon class="cls-3" points="48.73 56.09 45.13 58.17 45.13 56.25 48.73 54.17 48.73 56.09"/>
      <polygon class="cls-3" points="48.73 58.76 45.13 60.85 45.13 58.93 48.73 56.84 48.73 58.76"/>
      <polygon class="cls-3" points="48.73 61.44 45.13 63.52 45.13 61.6 48.73 59.52 48.73 61.44"/>
      <polygon class="cls-3" points="48.73 64.11 45.13 66.19 45.13 64.27 48.73 62.19 48.73 64.11"/>
      <polygon class="cls-3" points="48.73 66.78 45.13 68.86 45.13 66.95 48.73 64.86 48.73 66.78"/>
      <polygon class="cls-3" points="48.73 69.45 45.13 71.54 45.13 69.62 48.73 67.54 48.73 69.45"/>
    </g>
    <g>
      <polygon class="cls-3" points="53.57 50.61 49.97 52.69 49.97 50.77 53.57 48.69 53.57 50.61"/>
      <polygon class="cls-3" points="53.57 53.28 49.97 55.36 49.97 53.45 53.57 51.36 53.57 53.28"/>
      <polygon class="cls-3" points="53.57 55.95 49.97 58.04 49.97 56.12 53.57 54.04 53.57 55.95"/>
      <polygon class="cls-3" points="53.57 58.63 49.97 60.71 49.97 58.79 53.57 56.71 53.57 58.63"/>
      <polygon class="cls-3" points="53.57 61.3 49.97 63.38 49.97 61.46 53.57 59.38 53.57 61.3"/>
      <polygon class="cls-3" points="53.57 63.97 49.97 66.06 49.97 64.14 53.57 62.05 53.57 63.97"/>
      <polygon class="cls-3" points="53.57 66.65 49.97 68.73 49.97 66.81 53.57 64.73 53.57 66.65"/>
    </g>
    <g>
      <polygon class="cls-3" points="58.41 47.8 54.81 49.88 54.81 47.96 58.41 45.88 58.41 47.8"/>
      <polygon class="cls-3" points="58.41 50.47 54.81 52.56 54.81 50.64 58.41 48.55 58.41 50.47"/>
      <polygon class="cls-3" points="58.41 53.15 54.81 55.23 54.81 53.31 58.41 51.23 58.41 53.15"/>
      <polygon class="cls-3" points="58.41 55.82 54.81 57.9 54.81 55.98 58.41 53.9 58.41 55.82"/>
      <polygon class="cls-3" points="58.41 58.49 54.81 60.57 54.81 58.66 58.41 56.57 58.41 58.49"/>
      <polygon class="cls-3" points="58.41 61.16 54.81 63.25 54.81 61.33 58.41 59.25 58.41 61.16"/>
      <polygon class="cls-3" points="58.41 63.84 54.81 65.92 54.81 64 58.41 61.92 58.41 63.84"/>
    </g>
    <polygon class="cls-3" points="37.02 48.51 43.37 52.2 59.54 42.86 53.19 39.17 37.02 48.51"/>
  </g>
</svg>