<?xml version="1.0" encoding="UTF-8"?>
<svg xmlns="http://www.w3.org/2000/svg" viewBox="0 0 157.04 169.78">
  <defs>
    <style>
      .cls-1 {
        fill: #ccc;
      }

      .cls-1, .cls-2, .cls-3, .cls-4, .cls-5, .cls-6, .cls-7, .cls-8, .cls-9, .cls-10, .cls-11, .cls-12, .cls-13, .cls-14 {
        stroke-width: 0px;
      }

      .cls-2 {
        fill: #909497;
      }

      .cls-3 {
        fill: #ffaf80;
      }

      .cls-4 {
        fill: #f2f2f2;
      }

      .cls-5 {
        fill: #adb0ff;
      }

      .cls-6 {
        fill: #616161;
      }

      .cls-7 {
        fill: #ffbf00;
      }

      .cls-8 {
        fill: #ffd557;
      }

      .cls-15 {
        isolation: isolate;
      }

      .cls-9 {
        fill: #ffa200;
      }

      .cls-10 {
        fill: #ffc7a6;
      }

      .cls-16 {
        mix-blend-mode: screen;
      }

      .cls-11 {
        fill: #33343a;
      }

      .cls-12 {
        fill: #ffe085;
      }

      .cls-13 {
        fill: #8f93ff;
      }

      .cls-14 {
        fill: #4d4d4d;
      }
    </style>
  </defs>
  <g class="cls-15">
    <g id="Layer">
      <g>
        <path class="cls-4" d="M95.15,152.81c-7.52,4.34-19.75,4.32-27.31-.05-7.57-4.37-7.6-11.43-.09-15.77s19.75-4.32,27.31.05c7.57,4.37,7.6,11.43.09,15.77Z"/>
        <path class="cls-3" d="M75.63,53.75c-.43-.8-1.41-1.26-2.3-1.08s-1.62.98-1.71,1.89l-.4.56c-.01.59-.12,1.17-.29,1.74-.16.52-.33,1.16-.63,1.61-.27.41-.83.75-1.21,1.05-.43.34-12.77,7-13.06,7.07-.23.05-.52-.02-.75-.06-.26-.04-.51-.11-.77-.13-1-.06-2.03.07-2.91.55-.12.07-.24.14-.33.24-.09.09-.15.21-.19.33-.24.6-.14,1.29.07,1.9.21.61.52,1.19.7,1.81.14.46.25,1,.68,1.22.23.12.51.12.77.08.45-.07.88-.23,1.29-.4.65-.28,1.3-.62,1.75-1.17.44-.54,1.36-.74,2.01-.94.81-.25,10.51-2.91,14.28-4.7.16-.08.32-.15.45-.27.15-.14.25-.33.34-.52.38-.83.6-1.73.68-2.64.18-.42.37-.84.54-1.27.64-1.6,1.21-3.27,1.31-4.99.04-.64,0-1.32-.3-1.89Z"/>
        <path class="cls-13" d="M78.54,132.67c-.09-.06-.19-.15-.29-.18-.54-.14-1.14-.09-1.63.2-.57.34-1.04.81-1.54,1.23-.7.59-4.75,4.28-5.99,5.62-.51.55-1.01,1.11-1.32,1.79-.29.63-.48,1.61-.02,2.2.43.54,1.15.76,1.81.82.67.06,1.35.02,2-.14.7-.17,1.37-.46,1.99-.82.46-.27.91-.58,1.27-.97.39-.41.68-.91,1.03-1.35.57-.7,1.4-1.35,2.18-1.81.82-.48,1.77-.64,2.46-1.34.33-.34.55-.59.71-1.06.19-.55.26-1.13.21-1.71-.04-.45-.17-.9-.39-1.3-.44-.78-1.21-1.3-1.96-1.78-.03.15-.19.63-.39.66-.04,0-.09-.02-.15-.06Z"/>
        <path class="cls-14" d="M80.61,89.45c-1.05-.11-2.32-.98-2.95-1.79-.76-.97-1.23-2.11-1.83-3.17-.6-1.07-1.54-1.94-2.77-1.25-2.01,1.11-2,3.46-1.97,5.5,0,.62.02,1.23.03,1.85.02,1.17.36,9.57.61,12.6.23,2.84.65,5.76.65,8.6.17,2.25.24,4.48.36,6.72.2,3.57.76,15.89.89,16.25.36.96,2.22.98,3.03.96,1.52-.04,3.11-.27,4.37-1.13.12-.08.24-.18.3-.31.07-.15.05-.31.03-.47-.23-2.05.06-11.99.09-14.9.01-1.46-.06-2.92-.29-4.36-.19-1.18-.08-2.55.07-3.74.24-1.93.47-3.86.66-5.79.39-3.86.66-7.74.57-11.61-.02-.74-.04-1.47-.09-2.21-.03-.59-.14-1.29-.67-1.57-.33-.17-.73-.12-1.1-.16Z"/>
        <path class="cls-5" d="M70.39,48.21c-.16.48-.31.97-.47,1.45-.48,1.54-.96,3.08-1.44,4.62-.02.07-.05.15-.03.23.01.08.06.14.11.2,1.2,1.57,2.8,2.55,4.75,2.97.17-3.59,1.86-6.91,2.8-10.39.29-1.09.43-2.12.38-3.25-.02-.35.19-2.61.58-2.61-1.95.02-3.71,1.29-4.84,2.88-.83,1.18-1.38,2.52-1.84,3.89Z"/>
        <path class="cls-5" d="M93.07,140.73c-.14.04-.24-.11-.39-.13-.17-.02-.22.07-.39.1-.33.07-.61-.2-.86-.37-.38-.27-.79-.51-1.25-.6-.99-.2-1.4.21-1.99.94-.68.85-1.33,1.72-1.96,2.6-.7,1-1.37,2.02-1.99,3.07-.57.95-1.11,1.93-1.43,3-.47,1.59-.6,3.74,1.44,4.04,1.6.24,3.27-.32,4.52-1.35,1.25-1.02,2.12-2.47,2.62-4.01.15-.46.27-.93.54-1.32.4-.58,1.06-.86,1.43-1.47.38-.63.61-1.36.65-2.1.05-.94-.2-1.9-.71-2.7-.03.09-.13.26-.24.29Z"/>
        <path class="cls-6" d="M95.43,125.25c-.11-2.91-.71-5.79-1.6-8.56-.42-1.32-1-2.57-1.25-3.93-.81-4.34.05-9.05.39-13.41.36-4.53.54-9.15-.56-13.6-.96,2.2-3.27,3.74-5.67,3.78-1.9.03-3.71-.78-5.39-1.67-.82-.43-1.63-.89-2.53-1.1-.9-.21-1.92-.13-2.64.44-1.47,1.15-.89,3.35-.25,4.78.76,1.69,2.29,3.04,4.1,3.48.16.04.33.08.44.19.09.1.13.23.16.36.79,3.18,1.47,6.39,2.04,9.62.64,3.62,1.07,7.29,1.69,10.92.63,3.68,1.28,7.36,1.8,11.06.6,4.27.72,8.57.88,12.87.04,1.02-.28,1.58.85,2,1.87.7,4.05.52,5.78-.48.11-.06.22-.13.28-.24.07-.11.07-.25.08-.38.18-5.4,1.62-10.73,1.42-16.15Z"/>
        <path class="cls-9" d="M87.33,35.1c-.07.07-.04,3.45-.02,5.25,0,.49-.52.79-.94.54l-2.87-1.69,1.03-6.01,2.79,1.9Z"/>
        <path class="cls-13" d="M72.39,46.56c-.81,2.64-1.19,5.4-1.43,8.13-.33,3.78-.31,7.57-.22,11.36.07,3.31-.07,17.84.19,21.79.03.45.07.9.26,1.31.29.6.87,1,1.45,1.32,3.78,2.1,8.33,2.13,12.65,2.01,2.25-.06,4.57-.17,6.59-1.17.34-.17.67-.36.91-.66.43-.54.45-1.3.45-1.99.07-11.11,2.32-22.08,3.58-33.13.23-2,.22-3.76-.99-5.47-.68-.95-1.56-1.74-2.47-2.47-3.71-2.95-8.11-5.03-12.75-6-.97-.2-2.06-.42-3.05-.27-.85.13-1.81.04-2.59.49-.75.43-1.19,1.24-1.55,2.03-.4.88-.74,1.79-1.02,2.71Z"/>
        <path class="cls-3" d="M78.16,47.97s.02.07.05.1c.03.03.07.04.1.04,1.02.23,2.1.07,3.08-.29.98-.36,1.88-.91,2.75-1.48,1.03-.67,2.05-1.39,2.84-2.34.06-.08.13-.16.14-.26,0-.09-.03-.17-.06-.25-1.19-2.88-1.53-6.02-1.88-9.1-1.23,2.53-3.69,4.43-6.45,4.99-.14.03-.28.05-.4.11-.14.07-.25.17-.35.28-.35.37-.6.82-.75,1.31-.16.55-.08,1,0,1.57.18,1.2.4,2.38.61,3.57.1.57.21,1.14.31,1.71,0,.01,0,.02,0,.04Z"/>
        <path class="cls-10" d="M83.07,39.03c0,.16,1-.16,1.08-.21.57-.31.64-.73.92-1.26.31-.61.58-1.23.81-1.88.46-1.29.91-2.79.83-4.16-.08-1.46-.28-2.84-.88-4.19-.37-.83-.86-1.63-1.59-2.17-.33-.25-.71-.43-1.09-.58-1.94-.76-4.19-.6-6.04.35-1.31.68-2.35,1.72-3.13,2.96-.82,1.29-.9,2.92-.85,4.41.03.87.11,1.73.15,2.6.03.68.14,1.55-.12,2.19-.1.24-.25.47-.32.72-.07.25-.05.56.15.73.14.12.33.14.49.23.43.23.52.79.57,1.27.11.99.24,1.98.41,2.97.04.27.1.55.27.75.22.26.58.33.92.37,1.84.21,3.71-.25,5.37-1.05.47-.22.93-.48,1.27-.87.75-.84.78-2.08.77-3.2Z"/>
        <path class="cls-14" d="M73.6,27.97c.39.44.96.67,1.53.81,1.26.31,2.61.28,3.86-.1-.09.23-.15.48-.18.73.49.05.97.1,1.46.15-.38.63-.65,1.34-.77,2.07-.05.26-.06.57.13.75.13.13.32.16.5.21.19.05.38.12.55.21.16.08.3.2.46.26.36.14.65.33.88.66.24.34.37.73.47,1.13.03.1.05.21.11.3.1.18.3.26.48.14.13-.09.18-.28.26-.42.22-.38.53-.71.9-.95.15-.1.31-.18.49-.2.29-.03.57.14.75.37s.25.53.28.82c.08.83-.2,1.65-.48,2.43,1.35-1.99,2.18-4.3,2.62-6.67.14-.74.25-1.51.14-2.26s-.44-1.5-1.04-1.96c-.31-.24-.68-.39-1-.61-.38-.26-.5-.61-.7-1.01-.67-1.3-2.15-2.03-3.61-2.12-1.46-.1-2.89.35-4.25.89-1.13.45-2.26,1-3.16,1.84-.73.68-1.51,1.58-.67,2.54Z"/>
        <path class="cls-8" d="M80.53,16.67l3.12.19c.21.01.43,0,.63-.05h0c.67-.15,1.37-.03,1.96.33l.02.02c.3.19.55.45.73.75h0c.2.34.49.62.84.82l.88.49-4.99.94-1.51-2.51-1.68-.97Z"/>
        <path class="cls-9" d="M82.21,17.64l1.88.28c.21.03.43,0,.63-.07l.37-.14c.48-.18,1.03-.05,1.38.33l.36.4c.19.21.44.35.71.4l.61.11c.55.1.97.55,1.02,1.1l.12,1.2c.05.52.43.95.94,1.08h0c.73.19,1.13.98.85,1.68l-.27.68c-.13.33-.12.7.04,1.02l.21.41c.22.44.16.97-.15,1.35l-.2.25c-.28.34-.36.81-.21,1.23l.14.38c.15.42.08.88-.2,1.22l-3.11,3.82-.87-9.94-5.68-.81.59-5.1.85-.89Z"/>
        <path class="cls-8" d="M79.03,34.07c2.39.79,4.87,1.87,6.72,3.58.22.2.58.11.68-.17.17-.48.43-1.05.49-1.19.34-.73.68-1.46,1-2.2.54-1.26,1.12-2.7,1.16-4.09.05-1.8-.54-3.58-1.56-5.05-.96-1.38-2.52-2.99-4.28-3.1-.62-.04-1.24.04-1.85.15-.99.17-1.97.37-2.94.61-1.79.44-3.78,1.03-4.89,2.54-.46.63-.73,1.37-.98,2.1-.24.68-.4,1.39-.54,2.1-.12.6-.5,1.77-.05,2.23.86.88,2.3,1.09,3.42,1.45,1.2.38,2.43.64,3.63,1.03Z"/>
        <path class="cls-9" d="M80.78,23.63s3.16-.17,7.29,1l-4.57-4.48-2.25,1.52-.47,1.96Z"/>
        <polygon class="cls-7" points="80.78 23.63 79.1 22.66 80.53 16.67 82.21 17.64 80.78 23.63"/>
        <path class="cls-12" d="M72.18,26.92l-.75,2.94c-.2.77.05,1.6.67,2.11,1.35,1.11,4.7,2.7,13,3.33l.77-1.44s-8.38-11.65-13.1-7.86c-.29.23-.49.56-.58.92Z"/>
        <g>
          <path class="cls-9" d="M87.17,33.92c0,.86-.6,1.9-1.35,2.33-.75.43-1.35.09-1.35-.77s.6-1.9,1.35-2.33c.75-.43,1.35-.09,1.35.77Z"/>
          <path class="cls-7" d="M86.86,34.4c0,.52-.37,1.15-.82,1.41-.45.26-.82.05-.82-.47s.37-1.15.82-1.41c.45-.26.82-.05.82.47Z"/>
        </g>
        <g class="cls-15">
          <path class="cls-7" d="M92.63,105.25l-1.12-.41c-.33-1.18-.92-2.1-1.74-2.62-.12-.08-.25-.14-.38-.2l1.12.41c.13.06.26.13.38.2.82.52,1.41,1.44,1.74,2.62Z"/>
          <polygon class="cls-11" points="89.32 104.34 88.21 103.93 89.39 102.03 90.51 102.43 89.32 104.34"/>
          <polygon class="cls-9" points="89.32 104.34 88.21 103.93 88.34 101.78 89.45 102.18 89.32 104.34"/>
          <path class="cls-9" d="M95.01,84.12l1.12.41s-.03-.01-.05-.02c-.1-.03-.2-.04-.31-.03l-1.12-.41c.11,0,.21,0,.31.03.02,0,.03,0,.05.02Z"/>
          <path class="cls-1" d="M89.07,102.19c.13,0,.26,0,.38,0l-.13,2.15,1.19-1.9c.13.06.26.13.38.2l-7.05,20.52-1.77,4.91c-.98,2.71-2.25,5.32-3.49,7.89.57-2.77,1.09-5.6,1.97-8.34l1.6-4.96,6.92-20.46Z"/>
          <path class="cls-4" d="M87.95,101.78l-6.92,20.46-1.6,4.96c-.88,2.74-1.4,5.57-1.97,8.34l1.12.41c.57-2.77,1.09-5.6,1.97-8.34l1.6-4.96,6.92-20.46-1.12-.41Z"/>
          <path class="cls-11" d="M87.95,101.78c.13,0,.26,0,.38,0l1.12.41c-.13,0-.25,0-.38,0-.34-.12-.78-.28-1.12-.41Z"/>
          <polygon class="cls-7" points="89.96 100 88.84 99.6 89.96 95.82 91.08 96.23 89.96 100"/>
          <path class="cls-7" d="M91.08,96.23l-1.12-.41c.78-2.63,1.8-5.21,3.01-7.64l1.12.41c-1.21,2.44-2.22,5.01-3.01,7.64Z"/>
          <path class="cls-8" d="M94.08,88.59l-1.12-.41c-.32-.49-.37-1.35-.07-2.24.36-1.06,1.1-1.81,1.76-1.87l1.12.41c-.66.05-1.39.81-1.76,1.87-.3.89-.26,1.75.07,2.24Z"/>
          <path class="cls-8" d="M85.63,101.85l-1.12-.41c1.23-1.08,2.56-1.73,3.81-1.84.17-.01.34-.02.51,0l1.12.41c-.17,0-.34,0-.51,0-1.26.1-2.58.76-3.81,1.84Z"/>
          <polygon class="cls-7" points="86.11 103.54 84.99 103.13 84.51 101.44 85.63 101.85 86.11 103.54"/>
          <path class="cls-9" d="M95.77,84.48c.11,0,.21,0,.31.03.72.22.97,1.38.55,2.61-.29.85-.82,1.51-1.37,1.76-.54,2.6-1.32,5.2-2.31,7.71l-1.49,3.78c1.22.6,2.09,1.86,2.55,3.52l-1.39,1.35c-.33-1.18-.92-2.1-1.74-2.62-.12-.08-.25-.14-.38-.2l-1.19,1.9.13-2.15c-.13,0-.25,0-.38,0-.02,0-.04,0-.06,0-.96.08-1.96.56-2.9,1.35l-.48-1.69c1.23-1.08,2.56-1.73,3.81-1.84.17-.01.34-.02.51,0l1.12-3.77c.78-2.63,1.8-5.21,3.01-7.64-.32-.49-.37-1.35-.07-2.24.36-1.06,1.1-1.81,1.76-1.87Z"/>
        </g>
        <path class="cls-10" d="M103.66,72.47c0-.06,0-.13,0-.2-.19-2.43-.97-4.77-1.76-7.08-.52-1.53-1.04-3.06-1.77-4.5-.36-.71-.81-1.43-1.53-1.76-.54-.25-1.15-.25-1.74-.21-.64.05-1.32.16-1.8.59-.4.36-.6.9-.72,1.43-.41,1.88.23,3.38,1.02,5.03.89,1.87,1.76,3.75,2.64,5.62-.28.8-.37,1.72-.52,2.6-.04.23-.07.46-.11.69-.16,1.04-.31,2.07-.46,3.11-.21,1.4-1.32,8.96-1.39,9.41-.07.43-.11.86-.32,1.23-.36.65-.91,1.18-1.47,1.65-.71.6-1.47,1.16-2.03,1.91-.35.47-.61.99-.9,1.5-.56.96-1.28,1.86-1.56,2.94-.06.21-.08.47.08.63.21.21.57.05.81-.13.61-.46,1.01-1.07,1.37-1.73.02-.04.05-.08.09-.11.03-.02.06-.02.08-.03.18-.03.36-.02.54.03.03,0,.05.02.07.04.03.03.03.08.03.13,0,.83.02,1.66.02,2.49,0,.05,0,.11.03.15.04.05.1.07.16.07.3.03.58-.16.82-.35.24-.19.5-.4.8-.41.18,0,.36.05.54.08.3.05.61,0,.87-.13.11-.06.21-.13.33-.18.1-.05.2-.09.29-.14.46-.27.68-.83.74-1.36.08-.67.68-3.37.9-4.07.32-.54,3.28-9.43,4.15-11.57.43-1.05.83-2.12,1.11-3.23.35-1.41.75-2.67.58-4.15Z"/>
        <path class="cls-5" d="M89.9,58.1c.3,2.93,1.19,5.75,1.78,8.64,3.47.03,6.86-1.52,9.4-3.89.09-.08.18-.17.2-.28.02-.1,0-.21-.04-.3-.86-2.77-1.73-5.54-2.86-8.2-.87-2.04-2.24-4.87-4.56-5.57-2.3-.69-3.53,3.66-3.81,5.24-.25,1.44-.26,2.92-.11,4.38Z"/>
        <path class="cls-10" d="M50.11,68.5c.05.17.15.33.18.51.02.18-.03.35-.05.53-.03.22,0,.47.15.63.12.12.29.17.38.31.11.16.07.36.09.55.04.37.33.69.68.78.07.02.14.03.2.08.07.06.08.16.1.25.09.4.49.68.9.69.41.01.8-.2,1.06-.51.08-.09.15-.2.18-.32.04-.16,0-.33-.07-.49-.06-.15-.14-.29-.23-.42-.04-.05-.08-.11-.09-.17-.01-.07.01-.14.04-.21.06-.14.13-.27.16-.41.03-.14,0-.31-.1-.41-.1-.08-.25-.11-.31-.22-.08-.15.04-.32.08-.48.06-.24-.08-.51-.31-.59-.09-.03-.21-.07-.21-.16,0-.03.02-.06.03-.09.12-.28,0-.6-.18-.84-.27-.35-.67-.6-1.11-.67-.39-.06-.95.02-1.25.32-.31.32-.47.91-.34,1.33Z"/>
        <path class="cls-10" d="M55.33,66.94c-.25-.68-1.05-.98-1.72-.92-.07,0-.14.02-.2.05-.05.02-.09.06-.13.09-.21.19-.33.46-.5.69-.2.25-.41.49-.63.72-.13.13-.26.27-.32.44-.03.1-.04.2-.04.31,0,.25.03.5.06.74.03.26.07.52.12.78.02.13.06.26.13.37.07.11.2.19.33.18.09,0,.18-.07.25-.13.4-.34.6-.87.72-1.38.07-.26.14-.56.37-.69.25-.15.57-.05.87-.09.26-.03.49-.19.63-.41.13-.22.16-.5.07-.75Z"/>
        <g>
          <g class="cls-15">
            <polygon class="cls-8" points="55.02 90.68 56.78 89.65 49.22 94.46 47.45 95.49 55.02 90.68"/>
            <path class="cls-8" d="M34.61,45.21l1.76-1.02c.8,0,1.69.08,2.62.24,3.35.55,6.85,1.89,10.36,3.91l-1.76,1.02c-3.5-2.02-7.01-3.36-10.36-3.91-.93-.15-1.82-.24-2.62-.24Z"/>
            <path class="cls-9" d="M60.54,60.18l-1.07,21.23c-.22,4.29-1.79,7.58-4.45,9.26l1.76-1.02c2.65-1.68,4.23-4.97,4.45-9.26l1.07-21.23-1.76,1.02Z"/>
            <path class="cls-8" d="M47.59,49.36l1.76-1.02c3.5,2.02,7.01,4.73,10.34,8.04.93.92,1.82,1.86,2.61,2.78l-1.76,1.02c-.79-.93-1.68-1.86-2.61-2.78-3.34-3.3-6.84-6.02-10.34-8.04Z"/>
            <path class="cls-7" d="M47.59,49.36c3.5,2.02,7.01,4.73,10.34,8.04.93.92,1.82,1.86,2.61,2.78l-1.07,21.23c-.22,4.29-1.79,7.58-4.45,9.26l-7.57,4.81-7.52-13.52c-2.63-4.74-4.18-9.82-4.38-14.35l-.95-22.4c.8,0,1.69.08,2.62.24,3.35.55,6.85,1.89,10.36,3.91Z"/>
            <path class="cls-8" d="M47.58,51.97c3.07,1.77,6.14,4.15,9.06,7.04.81.81,1.59,1.63,2.29,2.44l-.94,18.59c-.19,3.76-1.57,6.63-3.89,8.11l-6.63,4.21-6.58-11.84c-2.31-4.15-3.66-8.6-3.83-12.57l-.83-19.62c.7,0,1.48.07,2.29.21,2.93.49,6,1.66,9.07,3.43Z"/>
            <path class="cls-12" d="M45.97,55c2.63,1.52,5.26,3.56,7.77,6.04.7.69,1.37,1.4,1.96,2.09l-.81,15.95c-.16,3.23-1.35,5.69-3.34,6.96l-5.69,3.61-5.65-10.16c-1.98-3.56-3.14-7.38-3.29-10.78l-.71-16.83c.6,0,1.27.06,1.97.18,2.51.42,5.15,1.42,7.78,2.94Z"/>
          </g>
          <g class="cls-16">
            <path class="cls-2" d="M60.54,60.18l-.02.5c-10.13,2.6-16.67,6.28-20.56,9.15-1.47,1.08-2.67,2.12-3.62,3.06-.43-1.78-.69-3.52-.77-5.19,4.33-3.57,11.25-7.75,21.92-10.74.15.14.3.29.45.44.93.92,1.82,1.86,2.61,2.78Z"/>
          </g>
          <g class="cls-16">
            <path class="cls-2" d="M60.33,64.32l-.23,4.6c-9.07,2.55-15.03,5.95-18.68,8.65-1.01.74-1.88,1.46-2.64,2.14-.67-1.42-1.25-2.86-1.72-4.3,4.51-3.72,11.84-8.1,23.28-11.09Z"/>
          </g>
        </g>
      </g>
    </g>
  </g>
</svg>