<?xml version="1.0" encoding="UTF-8"?>
<svg id="Layer" xmlns="http://www.w3.org/2000/svg" viewBox="0 0 157.04 169.78">
  <defs>
    <style>
      .cls-1 {
        fill: #27282d;
      }

      .cls-1, .cls-2, .cls-3, .cls-4, .cls-5, .cls-6, .cls-7, .cls-8, .cls-9, .cls-10, .cls-11, .cls-12, .cls-13, .cls-14 {
        stroke-width: 0px;
      }

      .cls-2 {
        fill: #ffaf80;
      }

      .cls-3 {
        fill: #f2f2f2;
      }

      .cls-4 {
        fill: #737373;
      }

      .cls-5 {
        fill: #adb0ff;
      }

      .cls-6 {
        fill: #616161;
      }

      .cls-7 {
        fill: #8f5d31;
      }

      .cls-15 {
        isolation: isolate;
      }

      .cls-8 {
        fill: #e6ab77;
      }

      .cls-9 {
        fill: #1b1c1f;
      }

      .cls-10 {
        fill: #ffc7a6;
      }

      .cls-11 {
        fill: #33343a;
      }

      .cls-12 {
        fill: #8f93ff;
      }

      .cls-13 {
        fill: #595959;
      }

      .cls-14 {
        fill: #4d4d4d;
      }
    </style>
  </defs>
  <polygon class="cls-3" points="95.86 153.57 23.23 111.59 49.46 96.45 122.08 138.43 95.86 153.57"/>
  <path class="cls-3" d="M86.79,116.53c-5.04,2.91-13.24,2.89-18.31-.03-5.07-2.93-5.1-7.66-.06-10.57,5.04-2.91,13.24-2.89,18.31.03,5.07,2.93,5.1,7.66.06,10.57Z"/>
  <g>
    <polygon class="cls-3" points="69.07 127.17 56.65 119.99 71.75 111.27 84.17 118.45 69.07 127.17"/>
    <g class="cls-15">
      <path class="cls-13" d="M71.65,109.52l-5.09,2.94c-.18.11-.35.11-.47.05l10.31,5.99c.12.07.28.06.47-.05l5.09-2.94-10.31-5.99Z"/>
      <g>
        <path class="cls-3" d="M72.77,110.71l.17.1c.59.34.52.94-.17,1.33l-5.84,3.37-2.3-1.33,5.84-3.37c.68-.39,1.71-.44,2.3-.1Z"/>
        <path class="cls-3" d="M75.66,112.57l.17.1c.59.34.52.94-.17,1.33l-5.84,3.37-2.3-1.33,5.84-3.37c.68-.39,1.71-.44,2.3-.1Z"/>
        <path class="cls-3" d="M78.56,114.42l.17.1c.59.34.52.94-.17,1.33l-5.84,3.37-2.3-1.33,5.84-3.37c.68-.39,1.71-.44,2.3-.1Z"/>
      </g>
      <polygon class="cls-13" points="69.3 125.49 58.98 119.5 58.97 115.33 69.28 121.33 69.3 125.49"/>
      <path class="cls-4" d="M65.71,111.67c-.12-.07-.28-.06-.47.05l-6.27,3.62,10.31,5.99,6.27-3.62c.18-.11.35-.11.47-.05l-10.31-5.99Z"/>
      <path class="cls-11" d="M75.56,117.7c.36-.21.65-.04.66.37,0,.42.3.58.66.37l5.09-2.94v2.66s-12.67,7.32-12.67,7.32v-4.16s6.26-3.62,6.26-3.62Z"/>
    </g>
  </g>
  <g>
    <path class="cls-3" d="M102.64,111.09l22.71-13.2c.38-.22.33-.6-.11-.85l-24.43-14.1c-.43-.25-1.09-.28-1.47-.06l-22.71,13.2c-.38.22-.33.6.11.85l24.43,14.1c.43.25,1.09.28,1.47.06Z"/>
    <path class="cls-14" d="M101.74,106.7h0c-.4,0-.74-.32-.76-.72l-1.33-26.3h4.16l-1.33,26.3c-.02.4-.35.72-.76.72Z"/>
    <path class="cls-14" d="M117.64,97.65h0c-.4.06-.77-.2-.86-.59l-5.32-25.79,4.49,2.98,2.33,22.59c.04.4-.24.76-.64.83Z"/>
    <path class="cls-14" d="M85.52,96.97h0c.4.06.77-.2.86-.59l5.32-25.79-4.49,2.98-2.33,22.59c-.04.4.24.76.64.83Z"/>
    <g class="cls-15">
      <path class="cls-7" d="M116.73,77.28l-11.23,6.53c-2.06,1.2-5.42,1.2-7.49,0l-11.3-6.53c-1.04-.6-1.57-1.39-1.56-2.18v3.81c-.02.79.5,1.58,1.55,2.18l11.3,6.53c2.08,1.2,5.43,1.2,7.49,0l11.23-6.53c1.02-.6,1.54-1.37,1.54-2.15v-3.81c.01.78-.5,1.56-1.53,2.15Z"/>
      <path class="cls-8" d="M116.71,72.94c2.08,1.2,2.09,3.14.02,4.34l-11.23,6.53c-2.06,1.2-5.42,1.2-7.49,0l-11.3-6.53c-2.08-1.2-2.08-3.14-.02-4.34l11.23-6.53c2.06-1.2,5.41-1.2,7.49,0l11.3,6.53Z"/>
    </g>
    <g class="cls-15">
      <path class="cls-8" d="M117.81,67.69l.04-4.33c0-2.39-1.67-5.29-3.75-6.49l-11.3-6.53c-1.04-.6-1.99-.66-2.67-.26l3.3-1.92c.68-.4,1.63-.34,2.67.26l11.3,6.53c2.08,1.2,3.75,4.1,3.75,6.49l-.04,4.33c0,1.18-.42,2.02-1.1,2.41l-3.3,1.92c.67-.39,1.09-1.23,1.1-2.41Z"/>
      <path class="cls-7" d="M114.04,69.84c2.08,1.2,3.76.24,3.77-2.15l.04-4.33c0-2.39-1.67-5.29-3.75-6.49l-11.3-6.53c-2.08-1.2-3.76-.23-3.77,2.15l-.04,4.33c0,2.39,1.67,5.29,3.75,6.49l11.3,6.53Z"/>
    </g>
  </g>
  <g>
    <path class="cls-12" d="M79.19,102.31c-.15.32-.33.56-.67.68-.6.21-1.09-.28-1.45-.67-.03-.03-.06-.06-.1-.06-.03,0-.05.02-.07.03-2.44,1.73-4.89,3.46-7.1,5.47-.68.62-1.35,1.28-1.78,2.1-.26.49-.42,1.04-.42,1.6-.02,2.44,3.48,1.37,4.72.76,1.03-.51,1.96-1.22,2.83-1.98.92-.8,1.86-1.69,3.05-1.92.45-.08.92-.07,1.36-.22.51-.18.92-.6,1.16-1.09.24-.49.31-1.05.29-1.59-.06-1.2-.62-2.37-1.53-3.16-.05-.05-.12-.1-.19-.07-.05.02-.07.07-.1.12Z"/>
    <path class="cls-14" d="M95.96,69.95c-.38-1.3-1.21-2.51-2.42-3.1-1.4-.68-3.14-.41-4.46.42l-.84-.28c-2,1.91-13.54,10.46-16.23,13.92-1.52,1.95-1.73,4.22-1.54,6.61.17,2.07.71,4.1,1.25,6.1.81,3.02,1.62,6.05,2.44,9.07.12.44.28,1.11.71,1.36.43.25,1.19.23,1.66.2,1.12-.07,2.22-.53,3.03-1.32.51-.5.13-3.17.06-3.93-.13-1.47-.28-2.94-.43-4.41-.2-1.94-.39-3.88-.63-5.82-.09-.78-.2-1.56-.39-2.32,5.79-1.62,11.08-4.68,16.28-7.73.31-.18.63-.37.85-.65.49-.62.24-1.32.45-2.01.22-.72.43-1.32.49-2.1.09-1.35.1-2.73-.28-4.02Z"/>
    <path class="cls-5" d="M85.82,44.6c-.3.27-3.08,3.02-3.18,3.31-.1.27,0,.73.03,1,.09.63.33,1.23.61,1.8.44.9,1,1.75,1.77,2.39s1.76,1.05,2.75.97c.05,0,.1-.01.12-.04.02-.03.03-.07.03-.1,0-.21-.07-.4-.11-.6-.23-1.13.56-2.15,1.18-3.01.67-.91,1.41-1.79,1.96-2.78.58-1.05.95-2.21,1.06-3.41.06-.6-.07-1.25-.5-1.69-.19-.2-.48-.24-.66-.4-.09-.08-.36-.86-.19-.92-.83.31-1.58.82-2.29,1.36-.89.67-1.75,1.37-2.57,2.12Z"/>
    <path class="cls-5" d="M87.85,107.72c-.19-.49-.45-.96-.71-1.42-.15-.27-.41-.62-.69-.38-.23.2-.51-.26-.7-.37-.83-.5-1.96-.77-2.72-.05-1.51,1.42-3.01,2.85-4.49,4.31-.83.81-1.66,1.63-2.45,2.48-.79.84-1.55,1.96-1.39,3.19.1.75.42,1.16,1.13,1.41.51.18,1.06.23,1.61.21,2.33-.07,4.53-1.27,6.22-2.88.33-.32.65-.65.93-1.02.39-.51.71-1.02,1.2-1.45.45-.39,1.06-.42,1.54-.79.67-.52.88-1.47.75-2.31-.05-.32-.14-.62-.25-.92Z"/>
    <path class="cls-6" d="M106.24,70.65c-.91-2.67-2.03-5.38-4.1-7.29-.51,2.04-2.32,3.49-4.18,4.46-.95.5-2.02.92-3.08.75-.63-.1-1.21-.39-1.81-.59-1.06-.35-1.86-.6-2.51-1.61-.12,0-.19.12-.24.23-1.1,2.81-1.43,6.87.22,9.55-1.36.79-2.73,1.58-4.09,2.37-2.57,1.49-5.17,3-7.29,5.08-1.44,1.41-1.72,3.23-1.47,5.17.08.65.23,1.29.34,1.94.23,1.32.61,2.61.99,3.89.52,1.73.79,3.56,1.12,5.33.36,1.95,1.09,6.37,1.11,6.63.02.23-.07.5.05.71.2.36.8.47,1.17.51,1.04.11,2.11-.06,3.07-.46.56-.24,1.38-.64,1.47-1.29.11-.9.25-1.8.36-2.7.21-1.79.33-3.6.18-5.41-.19-2.3-.8-4.55-1.44-6.77-.15-.52-.3-1.04-.47-1.56,4.8-1.34,9.41-3.27,14.01-5.19,2.78-1.16,5.79-2.55,7.07-5.27,1.23-2.63.47-5.73-.46-8.48Z"/>
    <path class="cls-12" d="M105.47,51.6c.11-1.02.2-2.1-.22-3.04-.28-.62-.75-1.12-1.23-1.6-1.3-1.29-2.69-2.49-4.15-3.58-1.03-.77-2.11-1.49-3.33-1.88-.41-.13-.84-.22-1.27-.2-1.26.08-1.93,1.19-3.07,1.51-1.23.35-2.78.09-4.04.09-.07,0-.15,0-.21.04-.06.04-.09.12-.11.19-1.15,3.43-.73,7.28-2.22,10.58-.5,1.11-1.23,2.27-.91,3.45.3,1.09,1.36,1.86,1.9,2.84.6,1.09.96,2.31,1.17,3.54.33,1.99.27,4.02.3,6.03.01,1,1.15,1.98,1.92,2.49,1.51,1.01,3.32,1.5,5.13,1.6,1.81.1,3.63-.18,5.39-.63,1.74-.44,3.44-1.03,5.07-1.77.15-.07.31-.15.4-.29.25-.44-.18-1.5-.26-1.97-.14-.79-.27-1.58-.4-2.38-.2-1.27-.36-2.55-.51-3.83-.05-.49-.19-.97-.21-1.46-.03-.64.1-1.33.15-1.97.21-2.59.43-5.18.71-7.77Z"/>
    <path class="cls-14" d="M85.56,31.82c-.05.12-.1.25-.15.38-.34.95-.53,2.09-.43,3.09.1,1.01.48,1.96.66,2.95.19,1.03.13,1.98-.25,2.96-.32.81-.62,1.66-.54,2.53.08.89.55,1.73.56,2.63,0,.53-.16,1.04-.19,1.57-.03.48.06.97.35,1.36.28.38.78.63,1.24.53.51-.11.86-.59,1.09-1.06.23-.47.4-.99.77-1.35.45-.44,1.1-.59,1.62-.93,1.18-.78,1.48-2.41,2.46-3.44.37-.39.83-.68,1.33-.85.24-.06.52-.23.76-.25.27-.03.53.13.77.23.3-1.25.58-2.61.06-3.78-.43-.95-1.35-1.68-1.53-2.7-.17-.95.36-1.92.21-2.87-.12-.76-.64-1.35-1.14-1.89-.47-.52-1.31-1.16-.95-1.93-.83-.02-1.64.22-2.43.46-.77.23-1.54.46-2.27.77-.14.06-.19,0-.26-.13-.03-.06-.12-.32-.05-.37-.75.52-1.32,1.27-1.68,2.11Z"/>
    <path class="cls-2" d="M91.54,47.15c.07.06.15.1.27.13,1,.22,2.13-.22,3.03-.62,1.25-.55,2.5-1.29,3.16-2.48.08-.14.15-.29.16-.46.02-.39-.27-.5-.55-.65-.31-.17-.52-.5-.71-.79-.65-1.04-1.22-2.13-1.69-3.26.03.45-.17.89-.43,1.26-.64.95-1.66,1.63-2.78,1.88-.37.08-.76.12-1.12.24-.07.02-.14.05-.19.11-.06.07-.08.17-.08.26-.06.7.24,1.31.37,1.98.1.58.21,1.16.31,1.75.05.27.08.5.24.64Z"/>
    <path class="cls-10" d="M94.27,40.52c1.18-.13,2.21-.93,2.73-1.98.3-.6.3-1.49.32-2.15.02-.73-.03-1.46-.16-2.17-.27-1.51-.92-3.01-2.15-3.93-.89-.67-2.03-.96-3.14-.95-1.11.01-2.21.31-3.23.76-.53.23-1.05.5-1.49.87-.85.72-1.34,1.75-1.7,2.78-.19.54-.31,1-.28,1.57.03.62.16,1.23.37,1.81.04.12.09.24.08.36,0,.14-.08.26-.15.37-.39.66-.67,1.39-.83,2.14-.02.11-.04.22,0,.33.07.21.33.29.55.31.22.02.47.02.63.17.31.93.66,1.84,1.04,2.74.12.28.24.56.45.77.36.37.93.48,1.44.42.52-.06,1-.27,1.49-.45,1.3-.48,2.73-.83,3.7-1.83.14-.15.27-.31.33-.5.15-.45-.1-.95,0-1.42Z"/>
    <path class="cls-14" d="M86.91,33.23c.08.12.1.26.14.39.15.65.38,1.3.8,1.81.83.99,2.3,1.33,3.02,2.41.18.26.3.56.48.82.18.26.43.49.74.54.2-.74.67-1.41,1.31-1.84.31-.21.67-.37,1.04-.33.55.06.82.58.87,1.07.07.71-.31,1.31-.77,1.82-.49.55-1.07,1.08-1.21,1.81-.15.77.26,1.55.23,2.34-.02.47-.2.91-.37,1.34-.32.81-.62,1.66-.54,2.53.08.89.55,1.73.56,2.63,0,.53-.16,1.04-.19,1.57-.03.48.06.97.35,1.36s.78.63,1.24.53c.51-.11.86-.59,1.09-1.06.23-.47.4-.99.77-1.35.45-.44,1.1-.59,1.62-.93,1.18-.78,1.48-2.41,2.46-3.44.37-.39.83-.68,1.33-.85.24-.06.52-.23.76-.25.27-.03.53.13.77.23.3-1.25.58-2.61.06-3.78-.43-.95-1.35-1.68-1.53-2.7-.17-.95.36-1.92.21-2.87-.24-1.49-2.01-2.32-2.42-3.77-.16-.56-.09-1.17-.2-1.74-.12-.62-.44-1.19-.84-1.68-.97-1.18-2.44-1.89-3.95-2.13-1.51-.24-3.07-.03-4.53.41-1.09.33-2.16.79-3.03,1.53-.7.6-1.26,1.4-1.49,2.3-.31,1.2.78.61,1.24,1.31Z"/>
  </g>
  <path class="cls-11" d="M89.78,141.39c-2.24,0-4.48-.58-6.48-1.73l-46.84-27.04c-.93-.54-1.48-1.5-1.48-2.57,0-1.07.55-2.03,1.48-2.57l10.08-5.82c2.06-1.19,3.35-3.41,3.35-5.79v-24.08h2.08v24.08c0,3.12-1.68,6.03-4.39,7.6l-10.08,5.82c-.4.23-.44.61-.44.77s.04.54.44.77l46.84,27.04c3.36,1.94,7.53,1.94,10.89,0l6.45-3.72c2.05-1.18,3.33-3.39,3.35-5.76l.21-39.44h2.08s-.21,39.45-.21,39.45c-.02,3.1-1.7,6-4.39,7.55l-6.45,3.72c-2,1.15-4.24,1.73-6.48,1.73Z"/>
  <g>
    <g class="cls-15">
      <polygon class="cls-13" points="112.25 96.64 40.83 55.15 49.08 50.38 120.5 91.88 112.25 96.64"/>
      <polygon class="cls-3" points="111.34 94.35 44.87 55.73 51.61 51.84 118.08 90.46 111.34 94.35"/>
      <path class="cls-11" d="M111.49,96.72L40.07,55.22c.19.11.46.1.75-.07l71.42,41.5c-.29.17-.56.19-.75.07Z"/>
      <polygon class="cls-13" points="99.97 108.05 28.55 66.56 28.53 59.8 99.95 101.3 99.97 108.05"/>
      <path class="cls-4" d="M39.45,53.86c-.19-.11-.46-.1-.75.07l-10.17,5.87,71.42,41.5,10.17-5.87c.29-.17.56-.19.75-.07L39.45,53.86Z"/>
      <path class="cls-11" d="M110.12,95.43c.59-.34,1.06-.07,1.06.61,0,.67.48.94,1.06.61l8.26-4.77v4.31s-20.53,11.86-20.53,11.86l-.02-6.75,10.17-5.87Z"/>
    </g>
    <g>
      <polygon class="cls-11" points="109.14 93.07 108.16 92.5 112.43 90.04 113.4 90.6 109.14 93.07"/>
      <g>
        <polygon class="cls-11" points="104.63 90.45 103.65 89.89 107.92 87.42 108.89 87.99 104.63 90.45"/>
        <polygon class="cls-11" points="106.11 91.31 105.14 90.74 109.4 88.28 110.38 88.84 106.11 91.31"/>
      </g>
      <g>
        <polygon class="cls-11" points="100.28 87.91 99.31 87.35 103.57 84.89 104.55 85.45 100.28 87.91"/>
        <polygon class="cls-11" points="101.77 88.77 100.79 88.21 105.06 85.75 106.03 86.31 101.77 88.77"/>
        <polygon class="cls-11" points="98.74 87.02 97.77 86.46 102.03 84 103.01 84.56 98.74 87.02"/>
      </g>
      <g>
        <polygon class="cls-11" points="94.9 84.79 93.93 84.23 98.2 81.77 99.17 82.33 94.9 84.79"/>
        <polygon class="cls-11" points="96.39 85.65 95.41 85.09 99.68 82.63 100.66 83.19 96.39 85.65"/>
      </g>
      <g>
        <polygon class="cls-11" points="90.5 82.23 89.52 81.67 93.79 79.21 94.77 79.77 90.5 82.23"/>
        <polygon class="cls-11" points="91.98 83.09 91.01 82.53 95.28 80.06 96.25 80.63 91.98 83.09"/>
        <polygon class="cls-11" points="88.96 81.34 87.98 80.78 92.25 78.31 93.22 78.88 88.96 81.34"/>
      </g>
      <g>
        <polygon class="cls-11" points="85.09 79.12 84.11 78.56 88.38 76.09 89.36 76.66 85.09 79.12"/>
        <polygon class="cls-11" points="86.57 79.98 85.6 79.42 89.87 76.95 90.84 77.52 86.57 79.98"/>
      </g>
      <g>
        <polygon class="cls-11" points="80.75 76.57 79.78 76.01 84.04 73.54 85.02 74.11 80.75 76.57"/>
        <polygon class="cls-11" points="82.24 77.43 81.26 76.86 85.53 74.4 86.5 74.96 82.24 77.43"/>
        <polygon class="cls-11" points="79.21 75.68 78.23 75.12 82.5 72.65 83.48 73.22 79.21 75.68"/>
      </g>
      <g>
        <polygon class="cls-11" points="75.21 73.37 74.23 72.81 78.5 70.35 79.48 70.91 75.21 73.37"/>
        <polygon class="cls-11" points="76.69 74.23 75.72 73.67 79.99 71.21 80.96 71.77 76.69 74.23"/>
      </g>
      <g>
        <polygon class="cls-11" points="71.01 70.92 70.04 70.36 74.3 67.9 75.28 68.46 71.01 70.92"/>
        <polygon class="cls-11" points="72.5 71.78 71.52 71.22 75.79 68.75 76.76 69.32 72.5 71.78"/>
        <polygon class="cls-11" points="69.47 70.03 68.49 69.47 72.76 67.01 73.74 67.57 69.47 70.03"/>
      </g>
      <g>
        <polygon class="cls-11" points="65.57 67.74 64.59 67.18 68.86 64.71 69.84 65.28 65.57 67.74"/>
        <polygon class="cls-11" points="67.05 68.6 66.08 68.03 70.35 65.57 71.32 66.13 67.05 68.6"/>
      </g>
      <g>
        <polygon class="cls-11" points="61.04 65.13 60.07 64.57 64.33 62.1 65.31 62.67 61.04 65.13"/>
        <polygon class="cls-11" points="62.53 65.99 61.55 65.42 65.82 62.96 66.79 63.52 62.53 65.99"/>
        <polygon class="cls-11" points="59.5 64.24 58.52 63.68 62.79 61.21 63.77 61.78 59.5 64.24"/>
      </g>
      <g>
        <polygon class="cls-11" points="55.07 61.66 54.09 61.09 58.36 58.63 59.33 59.19 55.07 61.66"/>
        <polygon class="cls-11" points="56.55 62.52 55.58 61.95 59.84 59.49 60.82 60.05 56.55 62.52"/>
      </g>
      <g>
        <polygon class="cls-11" points="50.41 58.95 49.44 58.38 53.7 55.92 54.68 56.48 50.41 58.95"/>
        <polygon class="cls-11" points="51.9 59.8 50.92 59.24 55.19 56.78 56.16 57.34 51.9 59.8"/>
        <polygon class="cls-11" points="48.87 58.06 47.9 57.49 52.16 55.03 53.14 55.59 48.87 58.06"/>
      </g>
    </g>
    <g>
      <g class="cls-15">
        <polygon class="cls-1" points="80.6 78.2 80.6 79.02 79.1 79.89 79.1 79.07 80.6 78.2"/>
        <polygon class="cls-9" points="79.1 79.07 79.1 79.89 60.83 69.35 60.84 68.53 79.1 79.07"/>
        <polygon class="cls-13" points="80.6 78.2 79.1 79.07 60.84 68.53 62.33 67.66 80.6 78.2"/>
      </g>
      <g class="cls-15">
        <path class="cls-13" d="M77,77.41c-.72-2.56-3.49-5.89-6.19-7.45l-9.88-5.71c-1.54-.89-2.72-1.01-3.32-.46l-.68.62c.6-.54,1.78-.43,3.32.46l9.88,5.71c2.7,1.56,5.47,4.89,6.19,7.45l.99,3.5.68-.62-.99-3.5Z"/>
        <path class="cls-11" d="M70.13,70.58c2.7,1.56,5.47,4.89,6.19,7.45l.99,3.5-19.65-11.34-.99-3.5c-.72-2.56.88-3.37,3.58-1.81l9.88,5.71Z"/>
      </g>
    </g>
  </g>
  <g>
    <path class="cls-2" d="M85.68,53.54c-.01.05-.04.11-.07.17-.3.68-.69,1.37-.88,2.06-1,.82-2,1.64-3.01,2.45-.11.19-.26.36-.41.53-1.48,1.62-3.09,3.19-4.96,4.3-.12.13-.2.25-.23.44-.05.35-.12.69-.25,1.01-.17.42-.45.8-.86,1.01-.27.14-.59.17-.86.29-.17.07-.32.17-.5.24-.17.06-.38.08-.54,0-.06-.03-.11-.08-.14-.14-.02-.05-.02-.08-.02-.13-.01-.29.07-.57.24-.8.15-.2.38-.38.39-.63,0-.04,0-.08-.03-.1-.04-.03-.09-.01-.13,0-.37.16-.5.48-.74.77-.08.11-.2.17-.3.27-.15.16-.26.36-.37.55-.15.29-.27.62-.44.9-.17.29-.42.55-.74.65-.13.04-.29.06-.36.18-.04.06-.05.14-.06.21-.03.26-.09.53-.28.71-.18.18-.53.22-.68,0-.06-.08-.08-.18-.08-.28-.06-.56.18-1.16-.07-1.67-.11.43-.35.82-.69,1.1-.1.08-.24.16-.35.09-.08-.05-.11-.15-.12-.24-.16-1.07.47-2.09.56-3.15-.34.53-.77,1.01-1.28,1.4-.19.14-.46.28-.65.13-.2-.17-.09-.5.04-.72.34-.57.7-1.13,1.07-1.67.05-.08.11-.16.18-.22.11-.09.23-.14.35-.2,1.07-.42,2.18-.73,3.31-.9.46-.07.92-.14,1.34-.33.38-.17.96-1.79,1.18-2.22.44-.88.92-1.73,1.47-2.54.44-.66.93-1.28,1.47-1.87.79-.86,1.71-1.56,2.49-2.42.85-.93,1.67-1.91,2.4-2.93.16-.23.32-.46.48-.68.03-.05.06-.08.09-.13.1.58.32,1.12.58,1.64.44.9,1,1.76,1.76,2.39.2.17.41.32.64.44Z"/>
    <path class="cls-10" d="M105.72,56.72c-.21-.87-.97-1.55-1.84-1.76-.87-.2-1.82.05-2.52.61-.47.37-.82.86-1.07,1.41-.18.4-.43.81-.49,1.24-.1.66-.07,1.33-.16,1.99-.1.7-1.22,4.75-1.27,4.92-1.06.13-13.19,1.33-13.74,1.31-1.26-.04-2.51-.13-3.76-.25-.7-.07-1.4-.15-2.1-.25-.29-.04-.59-.08-.89-.06-.22.02-.43.08-.64.14-.48.14-.96.27-1.44.41-.12.04-.25.07-.36.14-.07.05-.14.12-.2.19l-1.62,1.83c-.08.09-.16.2-.14.31.03.16.23.22.4.21.23-.02.45-.1.63-.24-.21.59-.31,1.23-.29,1.86,0,.11.01.22.07.3.07.1.21.15.33.17.6.09,1.17-.24,1.64-.63.47-.38.89-.84,1.45-1.07.92-.38,1.95-.06,2.91.2,1.1.31,2.27.55,3.39.31.48-.1.95-.3,1.45-.34,1.22-.1,2.46.47,3.62.79,3.92,1.08,8.05,1,12.11.92.65-.01,1.27-.41,1.57-1,.41-.8.78-1.67,1.11-2.52.3-.76.53-1.54.74-2.33.66-2.49,1.05-5.05,1.18-7.62.02-.41.03-.83-.07-1.22Z"/>
    <path class="cls-5" d="M99.98,50.77c-.38,1.37-.5,2.79-.62,4.2-.1,1.21-.2,2.42-.05,3.62,1.27.39,2.64.39,3.93.11,1.3-.28,2.52-.84,3.64-1.54.06-.04.12-.08.16-.13.06-.08.07-.19.07-.28.11-1.91-.38-3.8-.87-5.65-.37-1.41-.8-2.84-2.18-3.57-.31-.17-.66-.29-1.02-.29-.43,0-.84.17-1.19.42-1.04.73-1.55,1.92-1.88,3.11Z"/>
  </g>
  <g>
    <path class="cls-11" d="M35.13,40.45v6.74c-.13-.03-.28-.05-.42-.05-.97,0-1.75.78-1.75,1.75s.78,1.75,1.75,1.75,1.75-.78,1.75-1.75v-7.23l5.49-1.2v4.73c-.14-.03-.28-.05-.43-.05-.97,0-1.75.78-1.75,1.75s.78,1.75,1.75,1.75,1.75-.78,1.75-1.75v-8.21l-8.14,1.77Z"/>
    <path class="cls-11" d="M49.51,34.16v8.4c-.17-.04-.34-.07-.53-.07-1.2,0-2.18.97-2.18,2.18s.97,2.18,2.18,2.18,2.18-.97,2.18-2.18v-9l6.84-1.49v5.89c-.17-.04-.35-.07-.53-.07-1.2,0-2.18.97-2.18,2.18s.97,2.18,2.18,2.18,2.18-.97,2.18-2.18v-10.22l-10.13,2.21Z"/>
    <path class="cls-11" d="M62.46,41.33v5.33c-.11-.03-.22-.04-.34-.04-.76,0-1.38.62-1.38,1.38s.62,1.38,1.38,1.38,1.38-.62,1.38-1.38v-5.72l4.34-.95v3.74c-.11-.03-.22-.04-.34-.04-.76,0-1.38.62-1.38,1.38s.62,1.38,1.38,1.38,1.38-.62,1.38-1.38v-6.49l-6.43,1.4Z"/>
  </g>
</svg>