<?xml version="1.0" encoding="UTF-8"?>
<svg id="Layer" xmlns="http://www.w3.org/2000/svg" viewBox="0 0 157.04 169.78">
  <defs>
    <style>
      .cls-1 {
        fill: #ccc;
      }

      .cls-1, .cls-2, .cls-3, .cls-4, .cls-5, .cls-6, .cls-7, .cls-8, .cls-9, .cls-10, .cls-11, .cls-12, .cls-13 {
        stroke-width: 0px;
      }

      .cls-2 {
        fill: #ffaf80;
      }

      .cls-3 {
        fill: #f2f2f2;
      }

      .cls-4 {
        fill: #adb0ff;
      }

      .cls-5 {
        fill: #616161;
      }

      .cls-6 {
        fill: #ffbf00;
      }

      .cls-7 {
        fill: #ffd557;
      }

      .cls-14 {
        isolation: isolate;
      }

      .cls-8 {
        fill: #6c71f0;
      }

      .cls-9 {
        fill: #ffa200;
      }

      .cls-10 {
        fill: #ffc7a6;
      }

      .cls-11 {
        fill: #8f93ff;
      }

      .cls-12 {
        fill: #fff;
      }

      .cls-13 {
        fill: #4d4d4d;
      }
    </style>
  </defs>
  <g>
    <path class="cls-3" d="M117.46,117.21c6.66,3.84,6.69,10.08.08,13.92-6.61,3.84-17.37,3.84-24.03,0-6.66-3.84-6.69-10.08-.08-13.92,6.61-3.84,17.37-3.85,24.03,0Z"/>
    <path class="cls-11" d="M94.93,119.76c-.12.08-.24.17-.35.26-.48.37-.95.78-1.25,1.31-.4.71-.75,1.68-.32,2.45.17.31.45.54.76.71,1.12.62,2.51.37,3.71-.06.87-.31,1.72-.72,2.47-1.26.43-.31.83-.67,1.28-.94.78-.46,1.7-.65,2.61-.65.61,0,1.23.09,1.82-.07,1.21-.33,1.95-1.65,1.93-2.9-.02-1.25-.66-2.42-1.45-3.39-.23.54-.69.68-1.16.34-.42-.31-1.07-.72-1.62-.74-.24,0-.4.16-.6.28-.29.19-.59.37-.89.55-1.19.74-2.38,1.46-3.6,2.14-1.13.63-2.29,1.22-3.34,1.97Z"/>
    <path class="cls-13" d="M107.35,96.96c-.14-.55-.31-1.08-.51-1.61-1.26-3.26-1.85-6.75-2-10.23-.1-2.33-.02-4.67.2-6.99.25-2.61.71-5.22.51-7.83-.04-.53-.11-1.07-.35-1.55-.36-.72-1.08-1.2-1.83-1.46-1.32-.45-2.48-.22-3.81-.24-.49,0-.94-.18-1.36-.44-.21-.13-1.26-.89-1.15-1.2-.97,2.77-1.01,5.74-.95,8.64.05,2.95.27,5.94.51,8.89.07.9.15,1.81.25,2.71.04.41.08.81.12,1.22.19,1.87.4,3.74.69,5.6.27,1.72.59,3.4.87,5.13.59,3.63,1.42,16.11,1.48,18.67,0,.11,0,.22.04.32.11.27.43.38.71.44,1.95.42,4.04.11,5.78-.85.16-.09.33-.2.42-.36.07-.13.07-.29.07-.44.05-3.21.52-6.4.75-9.61.21-2.86.27-5.97-.45-8.81Z"/>
    <path class="cls-4" d="M103.73,37.08c-.69.14-1.25,1.06-1.61,1.59-.52.78-3.11,5.82-3.77,7.6-.41,1.09-.78,2.2-1.13,3.32-.34,1.08-.75,2.15-1.12,3.23-.03.08-.06.17-.12.23-.04.04-.09.07-.15.1-.35.2-.72.36-1.11.48-.11.04-.23.07-.33.13-.15.08-.26.21-.36.35-.56.77-.64,1.79-.58,2.74.07,1.02.31,2.09,1.02,2.84.05.05.1.1.16.12.08.04.18.03.26.03,1.79-.09,3.55-.6,5.11-1.49.04-.02.08-.05.1-.08.02-.03.02-.07.01-.11-.02-.35-.08-.69-.18-1.02-.07-.22-.16-.49-.12-.73.04-.24.24-.49.35-.7.28-.53.54-1.07.78-1.62.49-1.1.91-2.23,1.3-3.37.34-1.02.66-2.04.97-3.07.57-1.93,1.12-3.89,1.36-5.9.09-.78.59-4.93-.84-4.65Z"/>
    <path class="cls-4" d="M108.58,121.86c-.94,2.2-1.68,4.52-1.75,6.93-.02.88.18,2.07,1.2,2.29.73.16,1.71-.06,2.41-.3.74-.26,1.42-.69,1.95-1.27.91-1,1.35-2.35,1.49-3.7.06-.58.08-1.17.23-1.74.29-1.07,1.06-2.01,1.13-3.12.05-.73-.23-1.45-.49-2.13.03.08-.37-.06-.4-.08-.11-.08-.17-.19-.25-.3-.23-.32-.43-.62-.77-.83-.24-.15-.51-.24-.78-.3-.66-.15-1.66-.16-2.16.37-.49.53-.63,1.31-.86,1.96-.17.49-.39.97-.61,1.44-.12.26-.23.52-.35.78Z"/>
    <path class="cls-5" d="M116.62,106.89c-.07-1.08-.25-2.08-.48-3.13-.51-2.35-1.15-4.75-1.43-7.17-.28-2.4-.08-4.82.38-7.17.37-1.87,1.04-3.76,1.25-5.65.19-1.74.21-3.58.05-5.34-.2-2.23-.67-4.43-1.25-6.6-.28-1.06-.6-2.11-.92-3.16-.27-.89-.25-1.45-1.32-1.56-.58-.06-1.17-.13-1.74,0-.41.08-.8.26-1.18.44-2.11,1.01-4.22,2.21-6.46,2.72-.62.14-1.24.23-1.89.24-.79.02-1.59-.07-2.32-.37-.74-.3-1.4-.82-1.87-1.47-.21,2.13-.18,4.29.3,6.38.37,1.64,1.03,3.23,2.02,4.6.37.52.96.81,1.29,1.33.46.71.63,1.83.87,2.64,1.05,3.53,1.84,7.14,3.03,10.64.75,2.19,1.5,4.36,2.25,6.55.76,2.23,1.52,4.59,1.62,6.95.11,2.6.16,5.2.16,7.8,0,1.51-.02,3.02-.06,4.53,0,.11,0,.24.07.33.04.05.11.09.17.12,1.13.58,2.45.71,3.7.49.55-.1,1.08-.26,1.6-.47.42-.17,1.07-.36,1.23-.79.21-.55.2-1.31.28-1.9.09-.63.17-1.27.25-1.9.31-2.53.51-5.09.44-7.64-.01-.48-.03-.96-.06-1.44Z"/>
    <path class="cls-12" d="M117.58,43.51c-1.36-2.77-3.23-5.29-5.38-7.52-.69-.71-1.41-1.4-2.27-1.89.19.11-.09.9-.18,1.04-.19.29-.47.52-.8.62-.36.11-.76.08-1.1.24-.29.14-.49.41-.75.6-.49.36-.88.05-1.39-.03-1-.16-1.96.53-2.51,1.38-.54.85-.78,1.86-1.12,2.81-.43,1.2-1.05,2.33-1.82,3.34-.9,1.18-2.09,2.12-2.95,3.34-.42.58-.76,1.23-.89,1.94-.12.59-.1,1.6.15,2.15.11.25.33.41.46.66.14.27.13.6.12.9-.11,2.56-1.18,13.08-1.2,15.85,0,.23,0,.47.09.68.11.24.32.41.53.57,1.79,1.31,4.04,1.83,6.24,1.99,2.56.19,5.18-.05,7.56-1,1.16-.46,2.25-1.08,3.24-1.83.16-.12.32-.25.41-.43.11-.22.1-.48.09-.73-.13-2.7.07-5.42.58-8.08.21-1.08.23-2.09.38-3.14.18-1.32.89-2.61,1.34-3.86.34-.95.55-3.61,1.83-3.74.21-.02.44,0,.6-.12.13-.11.17-.29.2-.46.29-1.77-.66-3.73-1.43-5.29Z"/>
    <path class="cls-11" d="M101.56,44.66c-.94,1.24-1.95,2.48-2.39,3.96-.21.7-.29,1.43-.36,2.15-.38,3.6-.79,7.19-1.23,10.79-.23,1.93-.88,8.62-.91,10.05,0,.16,0,.33-.05.49,0,.02-.01.04-.03.04-.01,0-.03,0-.04,0-.07-.03-.12-.1-.17-.16-.24-.3-.47-.61-.71-.91-.18-.23-.41-.46-.4-.76.03-.63.14-1.29.21-1.92.46-4.08.75-8.18.85-12.29.02-.87.07-1.78.03-2.64-.07-1.66-.51-3.43.17-5.05.33-.79,1.06-1.48,1.62-2.13.61-.71,1.23-1.42,1.78-2.18.97-1.32,1.74-2.78,2.36-4.29.46-1.12.88-2.34,1.86-3.05.53-.39,1.19-.59,1.85-.64-.15.01-.41.64-.47.77-.14.33-.18.65-.27.99-.17.65-.46,1.31-.74,1.91-.82,1.75-1.79,3.34-2.96,4.87Z"/>
    <path class="cls-4" d="M99.19,50.26c-.33,1.35-.64,3.37-.83,4.69-.12.8-.18.88-.21,1.71.05-1.33.03-2.4-.03-3.72-.06-1.36-.11-2.75.26-4.08.64-2.3,2.46-4.16,2.97-6.5l.6.43c.57-1.65.93-3.38,1.07-5.13,1.63-.75,3.28-1.52,5.04-1.88-1.66,1.51-2.56,3.66-3.8,5.52-1.21,1.81-2.79,3.38-3.79,5.32-.59,1.14-.97,2.38-1.27,3.63Z"/>
    <path class="cls-13" d="M99.6,26.01c-.12.28-.21.58-.27.88-.1.55-.07,1.11-.02,1.67.05.51.25.97.32,1.48.08.64-.13,1.1-.53,1.56-.38.44-.7,1-.76,1.59-.03.24,0,.48.08.7.14.33.43.58.64.87.31.42.47.96.43,1.48-.04.61-.48,1.6.45,1.76.5.09.72-.3,1.04-.58.37-.32.84-.51,1.31-.64.64-.18,1.32-.25,1.95-.45.94-.3,1.78-.9,2.37-1.69.19-.26.37-.55.38-.87.01-.3-.11-.59-.27-.84-.12-.19-.26-.38-.46-.48-.19-.1-.42-.12-.62-.2-.49-.17-.65-.96-.81-1.41-.21-.63-.34-1.28-.37-1.94-.04-.8.05-1.59.06-2.39,0-.74-.06-1.48-.2-2.2-.05-.27-.2-.52-.2-.79-.01-.32.1-.68.22-.97-.68.03-1.33.31-1.92.65-.73.41-1.42.9-1.98,1.52-.35.39-.65.84-.86,1.32Z"/>
    <path class="cls-2" d="M105.93,40.36c.05.24-.12.47-.12.72,0,.19.06.38.21.49.09.07.2.1.3.13.69.17,1.42.12,2.11-.03.88-.19,1.71-.53,2.53-.9.58-.26,1.16-.53,1.66-.91.38-.28.74-.68.78-1.18.03-.43-.39-.85-.57-1.23-.69-1.41-1.37-2.81-2.06-4.22.11.84-.5,1.63-1.23,2.08-.64.4-1.4.62-2.16.63-.23,0-.46-.01-.68.04-.37.09-.56.39-.87.56-.18.1-.4.15-.61.13-.1-.01-.53-.11-.57-.21.4,1.09.8,2.17,1.09,3.3.04.17.13.39.17.59Z"/>
    <path class="cls-11" d="M107.75,44.87c-1.19,1.18-2.52,2.3-3.26,3.81-.62,1.28-.77,2.73-.9,4.14-.36,3.84-.72,7.68-.94,11.53-.11,1.94-.18,3.89-.2,5.83,0,1.09,0,2.18,0,3.27,0,.86.94,1.17,1.72,1.32.7.13,1.42.1,2.14.06,2.05-.12,4.12-.35,6.04-1.08,1.69-.65,3.6-1.83,4.45-3.5.43-.85-.22-2.39-.42-3.32-.26-1.26-.52-2.52-.79-3.77-.25-1.22-.63-2.38-.43-3.62.19-1.22.5-2.41.78-3.61.44-1.88.83-3.76,1.21-5.65.1-.51.1-1.61.45-2,.37-.41,1.19-.01,1.35-.68.12-.54.02-1.11-.13-1.64-.3-1.07-.83-1.98-1.37-2.94-.74-1.32-1.54-2.61-2.39-3.87-.67-.99-1.37-1.96-2.23-2.79.05.31.17.66.17.98,0,.28-.12.51-.25.77-.31.6-.69,1.16-1.05,1.74-1.12,1.82-2.46,3.5-3.97,5.01Z"/>
    <path class="cls-4" d="M108.07,42.64c-.74.87-1.45,1.76-2.07,2.72-.27.42-.53.86-.76,1.3-1.06,2.02-1.71,4.26-1.89,6.54-.2,2.49-.43,5-.46,7.5.2-2.43,1.1-4.83,1.87-7.13.41-1.21.9-2.41,1.64-3.46.73-1.05,1.73-1.95,2.92-2.4-.15-.68-.51-1.3-1.02-1.77.74-.53,1.56-.96,2.42-1.27.19-.07,2.15-.45,2.14-.42.89-2.79,1.59-6.21.17-8.92-.65,1.95-1.88,3.64-3.19,5.22-.58.7-1.18,1.39-1.77,2.09Z"/>
    <path class="cls-10" d="M112.87,30.55c.11-.8,0-1.61-.16-2.4-.26-1.19-.67-2.36-1.37-3.36s-1.68-1.83-2.84-2.19c-1.22-.39-2.57-.24-3.77.23s-2.24,1.25-3.18,2.13c-.33.31-.65.63-.92,1-.89,1.19-1.29,2.83-.69,4.24.19.45.49.87.57,1.35.07.43-.03.86-.14,1.28-.11.42-.23.84-.35,1.25-.07.24-.14.49-.13.74,0,.25.12.51.34.64.42.24,1.08-.09,1.4.28.07.08.11.18.14.28.33.91.47,1.89.91,2.75.19.37.67.41,1.05.4.6-.02,1.17-.22,1.72-.44,1.74-.72,3.33-1.78,4.7-3.08.04-.03.07-.07.09-.12.02-.06,0-.12,0-.18-.1-.45-.2-.89-.31-1.34.04.15,1.52-.76,1.64-.84.79-.52,1.17-1.72,1.3-2.61Z"/>
    <path class="cls-13" d="M101.23,26.44c.3.79.93,1.43,1.67,1.83.74.4,1.59.58,2.43.64.71.05,1.56.08,1.95.68.2.32.22.72.34,1.08.24.72.97,1.24,1.72,1.24.12-.57.24-1.16.6-1.62.36-.46,1.02-.74,1.54-.47.4.21.61.69.58,1.14-.03.45-.26.86-.55,1.21-.36.43-.89.73-1.2,1.19-.36.53-.78,1-1.2,1.49-.42.5-.8,1.07-.87,1.72-.03.24,0,.48.08.7.14.33.43.58.64.87.31.42.47.96.43,1.48-.04.61-.48,1.6.45,1.76.5.09.72-.3,1.04-.58.37-.32.84-.51,1.31-.64.64-.18,1.32-.25,1.95-.45.94-.3,1.78-.9,2.37-1.69.19-.26.37-.55.38-.87.01-.3-.11-.59-.27-.84-.12-.19-.26-.38-.46-.48-.19-.1-.42-.12-.62-.2-.49-.17-.65-.96-.81-1.41-.21-.63-.34-1.28-.37-1.94-.04-.8.05-1.59.06-2.39.03-2.67-.91-5.34-2.61-7.41-.38-.46-.81-.9-1.36-1.14-.64-.28-1.36-.25-2.05-.13-.27.05-.53.11-.8.08-.24-.02-.46-.11-.7-.17-.91-.23-1.88.07-2.73.47-1.08.51-2.07,1.22-2.91,2.06-.55.54-1.93,1.81-1.61,2.71.24.67,1.1.33,1.54.11Z"/>
    <path class="cls-12" d="M101.73,31.55c1.69.44,3.54.79,5.21.11,1.18-.48,2.16-1.34,3.28-1.97.27-.15.56-.3.87-.35.12-.02.25-.03.37-.01.26.03.52.13.71.31.18.17.36.64.12.83-.05.04-.11.06-.17.04-.08-.02-.13-.1-.18-.18-.06-.12-.13-.23-.23-.32-.1-.09-.24-.14-.36-.18-.49-.15-1.07.02-1.41.41-.25.29-.37.69-.62.99-.38.46-1,.64-1.58.79-.61.16-1.21.31-1.82.47-.14.04-.3.08-.41.18-.1.09-.09.24-.09.37.01.46.03.93-.06,1.38-.04.19-.06.38-.22.51-.15.12-.33.17-.51.22-.47.12-.98.06-1.43-.12-.52-.21-.98-.56-1.37-.96-.29-.29-.54-.62-.87-.86-.1-.07-.22-.14-.34-.13-.09.01-.17.07-.26.11-.23.11-.25-.05-.31-.22-.08-.21-.14-.43-.17-.66-.09-.54-.07-1.09.06-1.62.01-.05.03-.1.06-.13.07-.08.13-.03.17.05.03.07.05.15.08.22.11.25.36.35.59.45.29.11.58.2.88.28Z"/>
    <path class="cls-10" d="M100.59,32.6s-.02.07-.03.11c-.04.15-.11.36-.29.28-.13-.06-.17-.18-.2-.31-.12-.5-.2-1.01-.14-1.52,0-.08.02-.16.08-.22.14-.14.32.11.39.21.13.19.21.39.24.62.04.27,0,.56-.05.83Z"/>
    <path class="cls-10" d="M103.1,32.09c-.39-.06-.77-.14-1.16-.23-.21-.05-.47-.16-.61.08-.08.14-.07.4-.06.56,0,.19.04.37.1.55.07.21.18.41.32.58.4.52.92.85,1.54,1.06.35.11.8.27,1.12,0,.15-.13.15-.45.15-.64.01-.3.01-.59,0-.89,0-.2-.02-.4-.09-.58-.06-.17-.19-.24-.36-.3-.31-.1-.63-.14-.95-.19Z"/>
    <path class="cls-4" d="M119.69,49.9c-.02-.2-.05-.4-.08-.59-.19-1.23-.43-2.69-1.12-3.73-.49-.74-1.15-1.41-1.98-1.71-1.63-.58-3.31,1.42-3.82,2.73-.35.91-.61,1.86-.75,2.82-.18,1.17-.19,2.35-.21,3.53,0,.55-.02,1.09-.03,1.64-.03,1.95.02,6.83-.14,7.14-.14.27-2.81.67-3.76.85-.61.96-.83,2.14-.67,3.27.09.62.29,1.22.58,1.77.2.38.52,1.1.98,1.18.64.11,3.4.03,4.09,0,.54-.02,1.08-.03,1.6-.16.99-.25,1.89-.61,2.39-1.56.88-1.68,1.27-3.57,1.65-5.43.54-2.66,1.17-5.4,1.35-8.14.08-1.2.07-2.41-.07-3.6Z"/>
    <g class="cls-14">
      <path class="cls-3" d="M94.03,68.67l-2.91-7.15c-.1-.24-.39-.57-.65-.74l-13.37-8.67c-.15-.1-.26-.12-.31-.08l-.52.49s.16-.02.31.08l13.37,8.67c.26.17.56.5.65.74l2.91,7.15c.04.1.04.17,0,.2l.52-.49s.03-.1,0-.2Z"/>
      <path class="cls-1" d="M89.95,61.28c.26.17.56.5.65.74l2.91,7.15c.1.24-.04.29-.3.12l-13.37-8.67c-.26-.17-.55-.5-.65-.74l-2.91-7.15c-.1-.24.04-.29.3-.12l13.37,8.67Z"/>
    </g>
    <path class="cls-10" d="M110.1,64.94c-.17-.56-.47-1.08-.87-1.5-.3-.32-.43-.3-.86-.31-.4,0-5.02-.25-6.91-.52-1.82-.26-3.67-.31-5.51-.45-.11,0-.22-.01-.34-.02-.71-.02-1.41.08-2.11.18-.35.05-1.97.17-1.96.25,0,.01,0,.02,0,.04.08.21.16.43.24.64.06.16.14.39.31.46.08.03.15.04.23.09.1.05.19.11.29.17.11.06.22.14.24.26.03.27-.36.33-.54.34-.3.02-.6-.05-.88-.15-.39-.15-.75-.38-1.14-.56-.63-.3-1.31-.48-2.01-.52-.1,0-.22,0-.27.09-.02.03-.02.07-.03.11-.04.09-.15.12-.23.17-.14.09-.23.26-.21.43.04.3.35.49.44.77.02.08.03.16.05.24.08.3.36.48.63.64.46.27.93.54,1.4.8,1.02.57,2.09,1.11,3.25,1.28.32.05.64.06.96.02.35-.05.61-.18.91-.35.3-.16.62-.29.92-.45l1.09-.57c.27-.14.54-.28.83-.38.42-.14.87-.17,1.32-.15.02,0,.04,0,.07,0,.72.1,1.43.3,2.13.49.22.06,4.35,1.1,6.23,1.39.47.07.94.15,1.41.19.37.03.53-.07.71-.4.39-.73.46-1.68.28-2.48-.02-.09-.04-.17-.07-.26Z"/>
    <path class="cls-2" d="M95.38,54.37c-.27-.18-.58-.29-.87-.44-.56-.3-1.3-.85-1.64-1.4-.35-.57-.2-1.26-.38-1.87-.22-.74-.62-1.43-1.11-2.03-.16-.19-.33-.38-.54-.5-.22-.13-.47-.18-.71-.23-.27-.05-.56-.1-.81.02-.28.13-.42.44-.64.66-.25.24-.6.36-.94.43s-.69.1-1.03.2c-.22.07-.43.17-.57.34-.21.26-.12.73-.03,1.03.12.41.4.76.64,1.11.32.46.59.94.93,1.38.39.49.86.92,1.39,1.25.21.13.45.25.69.32.57.95,1.14,1.82,1.95,2.6.81.78,1.73,1.44,2.74,1.95.31.16.69.24.98-.01.28-.25.41-.64.5-.99.19-.71.23-1.46.14-2.18-.08-.61-.13-1.25-.69-1.64Z"/>
    <path class="cls-13" d="M92.43,47.76l-8.26,6.67-.47,1.5,1.45-.41,8.22-6.57c.35-.28.38-.8.07-1.12h0c-.27-.28-.71-.3-1.02-.06Z"/>
    <path class="cls-10" d="M85.96,50.96c.07.08.15.16.25.21.1.05.22.06.31,0,.05-.04.09-.1.14-.14.14-.11.34-.04.49.04.15.08.32.18.49.14.11-.03.21-.12.32-.14.08-.01.16.01.23,0,.16-.03.26-.2.29-.36.03-.16.03-.33.1-.48.03-.06.07-.11.13-.14.06-.03.12-.02.18-.04.15-.04.25-.18.3-.33.06-.14.09-.3.17-.43.2-.31.63-.37,1-.38.16,0,.33,0,.47-.08.16-.09.27-.27.25-.45-.02-.22-.18-.4-.36-.51s-.4-.17-.6-.27c-.35-.16-.69-.42-1.06-.35-.34.06-.56.37-.76.65-.06.08-.13.17-.23.16-.04,0-.07-.02-.11-.04-.26-.13-.56-.23-.83-.12-.22.09-.35.31-.48.5-.02.03-.05.06-.08.08-.05.02-.11,0-.16,0-.14-.01-.28.08-.35.21-.08.13-.09.27-.13.4-.42-.16-.81-.03-.79.5.02.54.46,1,.81,1.37Z"/>
    <path class="cls-10" d="M88.33,50.85c.07.08.18.11.29.12.55.1,1.13.02,1.69.07.12.01.24.03.32.12.04.05.06.1.09.16.08.22.17.43.25.65.04.11.09.23.19.3.15.1.35.06.51-.03.34-.2.54-.6.57-.99.03-.43-.07-1.17-.55-1.32-.21-.07-.44-.11-.65-.14-.43-.07-.87-.09-1.31-.06-.27.02-.53.05-.78.14-.31.12-.99.58-.61.98Z"/>
  </g>
  <g>
    <g class="cls-14">
      <polygon class="cls-3" points="82.26 119.3 65.23 129.2 48.1 119.31 65.13 109.42 82.26 119.3"/>
      <polygon class="cls-9" points="77.96 103.46 77.92 119.02 65.18 126.42 65.22 110.86 77.96 103.46"/>
      <polygon class="cls-6" points="65.22 110.86 65.18 126.42 52.36 119.02 52.4 103.46 65.22 110.86"/>
      <polygon class="cls-7" points="77.96 103.46 65.22 110.86 52.4 103.46 65.14 96.05 77.96 103.46"/>
    </g>
    <g>
      <polygon class="cls-3" points="47.62 131.85 32.08 140.86 27.58 138.2 43.12 129.19 47.62 131.85"/>
      <g class="cls-14">
        <polygon class="cls-8" points="45.24 89.39 45.2 131.96 32.45 139.37 32.5 96.79 45.24 89.39"/>
        <polygon class="cls-11" points="32.5 96.79 32.45 139.37 29.75 137.77 29.79 95.2 32.5 96.79"/>
        <polygon class="cls-4" points="45.24 89.39 32.5 96.79 29.79 95.2 42.53 87.8 45.24 89.39"/>
      </g>
    </g>
    <g>
      <polygon class="cls-3" points="55.19 152.06 84.83 134.88 77.74 130.85 48.1 148.03 55.19 152.06"/>
      <g class="cls-14">
        <polygon class="cls-8" points="55.71 150.42 82.79 134.73 82.84 129.88 55.75 145.57 55.71 150.42"/>
        <polygon class="cls-4" points="55.75 145.57 82.84 129.88 77.18 126.68 50.1 142.37 55.75 145.57"/>
        <polygon class="cls-11" points="55.71 150.42 55.75 145.57 50.1 142.37 50.06 147.22 55.71 150.42"/>
      </g>
    </g>
  </g>
</svg>