<?xml version="1.0" encoding="UTF-8"?>
<svg id="Layer" xmlns="http://www.w3.org/2000/svg" viewBox="0 0 157.04 169.78">
  <defs>
    <style>
      .cls-1 {
        fill: #ffaf80;
      }

      .cls-1, .cls-2, .cls-3, .cls-4, .cls-5, .cls-6, .cls-7, .cls-8, .cls-9, .cls-10 {
        stroke-width: 0px;
      }

      .cls-2 {
        fill: #f2f2f2;
      }

      .cls-3 {
        fill: #fcdf3b;
      }

      .cls-4 {
        fill: #adb0ff;
      }

      .cls-5 {
        fill: #616161;
      }

      .cls-11 {
        isolation: isolate;
      }

      .cls-6 {
        fill: #ffc7a6;
      }

      .cls-7 {
        fill: #8f93ff;
      }

      .cls-8 {
        fill: #bfbfbf;
      }

      .cls-9 {
        fill: #fcc01c;
      }

      .cls-10 {
        fill: #4d4d4d;
      }
    </style>
  </defs>
  <g>
    <path class="cls-2" d="M98.21,125.06c7.56,4.37,7.6,11.44.09,15.81s-19.73,4.37-27.29,0c-7.56-4.37-7.6-11.44-.09-15.81,7.51-4.37,19.73-4.37,27.29,0Z"/>
    <path class="cls-1" d="M60.73,47.18c.89.52,1.92.77,2.93.98,2.6.52,5.26.81,7.91.67.62-.03,1.24-.09,1.85-.24.28-.07.57-.17.75-.39.09-.12.15-.26.2-.4.52-1.35,1.04-2.8.71-4.21-.07-.32-.19-.63-.39-.88-.28-.36-.71-.58-1.14-.74-1.13-.4-2.37-.37-3.57-.35-1.59.02-3.18.01-4.76-.03-.96-.03-1.93-.07-2.89.08-.95.14-1.9.49-2.61,1.14-.66.6-1.11,1.52-1,2.43.05.42.48.72.79,1,.38.35.78.68,1.23.94Z"/>
    <path class="cls-7" d="M71.97,130.65c-.95.87-1.9,1.75-2.63,2.81-.33.48-.62,1.02-.72,1.59-.23,1.32.51,2.35,1.84,2.53,1.24.17,2.5-.3,3.52-1.03,1.02-.73,1.84-1.7,2.65-2.66.38-.45.77-.91,1.31-1.13.5-.2,1.06-.18,1.57-.33,1.13-.33,1.88-1.5,1.95-2.67.08-1.17-.41-2.32-1.1-3.28-.42-.59-1.17-.75-1.88-.82-.65-.06-1.57-.06-2.04.5-.33.39-.53.82-.91,1.19-.55.53-1.13,1.04-1.69,1.56-.63.58-1.26,1.16-1.89,1.74Z"/>
    <path class="cls-10" d="M82.31,77.52c-.97-.4-1.77-1.12-2.62-1.75-.84-.63-1.81-1.2-2.86-1.21-.46,0-.79.25-1.18-.03-.14-.1-.56-.67-.43-.85-1.54,2.24-2.16,4.94-2.63,7.58-1.72,9.67.84,19.21,1.45,28.84,0,.06,0,.13.01.19.11,1.71.76,12.87.82,16.75,0,.3.02.62.21.84.1.12.24.19.38.26,1.63.75,3.68.51,5.09-.6.07-.06.15-.12.19-.21.04-.11.02-.23,0-.34-.11-.76.07-1.53.23-2.29.71-3.39,1.06-6.85,1.03-10.31-.02-2.09-.27-4.17-.18-6.26.09-2.21.41-4.41.79-6.59.43-2.46.95-4.91,1.34-7.39.37-2.33.33-4.62.52-6.92.27-3.33.54-6.65.81-9.98-.79.7-2.01.68-2.98.28Z"/>
    <path class="cls-4" d="M78.39,41.53c-1.22-.33-2.48-.51-3.74-.51-.95,0-1.89.09-2.83.18-.1,0-.21.02-.3.08-.12.08-.18.22-.23.36-.54,1.55-.75,3.22-.5,4.84.25,1.62.97,3.18,2.12,4.35.06.06.12.12.2.13.07,0,.13-.02.19-.05,1.01-.44,2.11-.6,3.19-.84,1.07-.24,2.17-.59,2.99-1.32.67-.6,1.1-1.42,1.41-2.26.22-.61.38-1.24.46-1.89.06-.47.07-.96-.09-1.4-.21-.58-.59-.73-1.12-.91-.27-.09-.52-.31-.79-.43-.31-.14-.63-.24-.96-.33Z"/>
    <path class="cls-4" d="M98.32,121.79c-.11.25-.32.71-.61.79-.29.09-.6-.1-.88-.13-.51-.06-1.01-.02-1.52.05-.2.02-.31,0-.47-.12-.11-.08-.48-.42-.42-.57-1,2.52-1.88,5.12-2.33,7.79-.18,1.08-.29,2.16-.3,3.26-.01,1.17.24,2.55,1.57,2.83.73.16,1.49-.07,2.16-.41.79-.4,1.5-.98,1.97-1.73.5-.8.71-1.76.79-2.7.06-.65.07-1.3.1-1.95.03-.59.03-1.22.35-1.74.17-.27.37-.51.52-.79.26-.49.34-1.06.32-1.61-.05-1.1-.5-2.17-1.25-2.97Z"/>
    <path class="cls-5" d="M99.37,113.75c-.05-1.58-.19-3.17-.7-4.67-.26-.77-.61-1.5-.96-2.24-.56-1.17-1.43-2.45-1.74-3.7-1.13-4.44.11-9.11.56-13.57.46-4.58-.01-9.01-1.83-13.27-.59-1.39-1.31-2.73-2.14-4-.76-1.17-1.64-2.29-2.82-3.03-.26-.16-.59-.31-.86-.16-.15.08-.24.23-.33.38-.75,1.34-1.1,2.71-2.04,3.97-.92,1.25-2.14,2.28-3.54,2.95-1.47.7-2.47.58-3.79-.34-1.09-.76-1.88-1.89-2.59-2.99-.09-.14-.25-.29-.38-.2-.08.05-.09.16-.1.25-.19,2.3.15,4.64.96,6.8.7,1.87,1.87,4.55,3.83,5.34.28.11.59.21.78.45.16.19.21.44.27.69.31,1.47.63,2.94.98,4.4.84,3.55,1.85,7.08,3.4,10.39,1.57,3.33,3.58,6.45,4.72,9.99.9,2.8,1.36,5.75,1.79,8.66.14.94.28,1.88.42,2.82.06.4.03,1.05.21,1.41.17.33.64.36,1,.37,1.58.08,3.18-.46,4.38-1.48.09-.08.19-.17.24-.28.04-.1.04-.21.04-.31.02-2.87.32-5.72.23-8.59Z"/>
    <path class="cls-10" d="M93.57,48.96c.04,1.3-.14,2.63.14,3.9.31,1.43,1.18,2.68,1.61,4.07.91,2.89-.03,6.33,1.65,8.85.33.5.77.94,1.33,1.17.56.22,1.24.18,1.69-.2-.27,1.4-1.44,2.54-2.81,2.95-1.37.41-2.88.17-4.16-.46-2.34-1.16-3.97-3.65-4.08-6.25-.1-2.22.81-4.44.45-6.64-.2-1.22-.78-2.33-1.33-3.44-.71-1.43-1.4-2.89-1.86-4.42-.43-1.41-.66-2.95-.24-4.36.42-1.42,1.62-2.68,3.09-2.79.29-.02.6,0,.86.13.97.47,1.99,1.79,2.47,2.76.73,1.46,1.13,3.1,1.18,4.73Z"/>
    <path class="cls-7" d="M76.23,43.62c-.25.69-.41,1.43-.57,2.02-.46,1.68-.98,3.34-1.58,4.97-.36.99-.71,2.01-1.13,2.96-.41.92-1.09,1.79-1.22,2.8-.15,1.21.22,2.4.73,3.49.42.9.95,1.46,1.1,2.48.38,2.57.41,5.21.33,7.81-.04,1.53-.14,3.05-.25,4.57-.08,1.06-.64,2.98-.11,3.95.35.64,1.96.93,2.62,1.13,2.02.6,4.14.87,6.25.83,4.18-.08,8.35-1.39,11.74-3.84.21-.15.43-.34.46-.59.02-.19-.08-.37-.17-.54-.55-1-1.1-1.99-1.65-2.99-.32-.59-.65-1.19-.8-1.85-.14-.63-.11-1.29-.05-1.94.16-1.68.55-3.33.92-4.98,1.07-4.78,2.03-9.58,2.89-14.39.14-.76-.07-.97-.62-1.5-.44-.42-.94-.79-1.45-1.12-1.07-.69-2.24-1.23-3.38-1.79-1.78-.88-3.52-1.84-5.36-2.58-1.84-.74-3.81-1.24-5.8-1.13-.6.03-1.21.13-1.7.46-.57.39-.93,1.04-1.19,1.76Z"/>
    <path class="cls-10" d="M78.44,28.46c-.69,1.38-.73,3.04-1.35,4.47-.53,1.24-1.5,2.35-1.57,3.7-.02.48.03,1.12.23,1.56.2.44.58.81.83,1.23.33.58.49,1.24.79,1.84.25.5.72,1.05,1.31,1.11.29.03.57-.06.85-.14.93-.26,1.93-.38,2.86-.1.31.1.61.24.94.26.17.01.21-.36.25-.49.07-.24.64-2.52.71-2.86.17-.78.31-1.56.38-2.35.09-1.02.09-2.05-.05-3.06-.12-.89-.34-1.76-.55-2.63-.14-.57-.35-1.17-.44-1.75-.08-.57-.07-1.16-.15-1.73-.1-.76-.18-1.42-.01-2.19-.64.11-1.26.29-1.86.52-1.14.44-2.23,1.13-2.89,2.16-.1.15-.18.3-.26.45Z"/>
    <path class="cls-1" d="M80.06,46.15c.26.19.81.25,1.05.28.03,0,.07,0,.1.01,1.36.14,2.75-.1,4-.65,1.25-.55,2.36-1.4,3.26-2.43.19-.22.46-.55.42-.87-.03-.3-.27-.63-.36-.93-.3-1-.55-2.01-.73-3.04-.12-.7-.22-1.4-.19-2.11.02.38-.25.7-.52.97-.71.71-1.53,1.32-2.45,1.73-.92.41-1.94.6-2.94.47-.33-.04-.73-.1-.95.15-.14.16-.16.39-.16.61-.02.97-.73,5.51-.64,5.69.02.04.06.08.11.12Z"/>
    <path class="cls-6" d="M86.28,38.75s.92-.07,1.01-.09c.33-.08.63-.22.94-.36.52-.24.81-.78,1.12-1.25.77-1.15,1.39-2.42,1.61-3.79.2-1.23.07-2.51-.42-3.66-.49-1.15-1.33-2.14-2.4-2.77-.79-.46-1.68-.72-2.59-.86-.81-.12-1.63-.15-2.44-.02-1.51.25-2.9,1.07-3.87,2.25-1.1,1.35-1.22,3.17-1.39,4.84-.04.43-.09.87-.31,1.23-.23.39-.63.65-.99.93-.11.08-.22.18-.27.31-.07.2.03.41.17.57.14.15.32.27.44.44.21.27.24.64.27.98.05.59.1,1.18.15,1.77.04.42.08.86.23,1.25.15.4.43.77.83.92.17.07.34.09.52.11,2.13.26,4.33-.05,6.31-.89.21-.09.43-.19.59-.36.37-.4.29-1.03.47-1.55Z"/>
    <path class="cls-10" d="M80.58,28.23c.48.34.96.69,1.43,1.03.77.56,1.58,1.16,1.93,2.05.36.93.14,1.97.27,2.95.13.96.67,2.13,1.53,2.65.25-.46.31-.84.71-1.22.45-.43.95-.8,1.48-1.11.3-.17.66-.33.97-.18.4.2.41.78.22,1.19-.4.85-1.33,1.29-2.13,1.8-.68.43-1.31.97-1.7,1.67-.4.7-.54,1.57-.23,2.32.18.45.51.82.76,1.23.24.4.55.71.62,1.19.06.38,0,.77.12,1.13.17.5.68.83,1.2.93.52.1,1.06,0,1.58-.11.52-.11,1.04-.25,1.57-.23.44.01.84.14,1.26.25.4.11.6.28.93.55.03.02.06.05.09.05.07,0,.1-.07.12-.13.83-2.52,1.36-5.26.73-7.88-.21-.86-.56-1.68-.78-2.54-.63-2.45.07-5.09-1.09-7.41-.62-1.23-1.74-2.16-3.01-2.71-1.26-.55-2.66-.74-4.03-.75-1.4,0-2.83.18-4.07.81-1.25.63-2.12,1.65-2.34,3.06.24-.3.56-.54.91-.69.43-.2.59-.17.96.11Z"/>
    <path class="cls-6" d="M65.77,41.78c-.74-.08-1.46-.25-2.17-.48-.43-.15-.86-.32-1.32-.35-.71-.04-1.4.28-1.93.75-.54.46-.94,1.05-1.35,1.64-.2.29-.4.58-.6.87-.09.14-.19.28-.23.44-.06.24.02.49.15.69.13.2.32.37.5.53.53.46,1.09.9,1.72,1.21.63.31,1.35.47,2.04.34.81-.15,1.49-.68,2.25-.97,1.07-.41,2.25-.34,3.37-.6.13-.03.26-.07.36-.15.15-.14.18-.36.19-.56.03-.63-.03-1.26-.18-1.87-.1-.41-.24-.81-.52-1.13-.67-.78-1.44-.26-2.28-.35Z"/>
    <g>
      <g class="cls-11">
        <path class="cls-3" d="M71.13,38.63c-.09-.11-.26-.16-.48-.12l-.43.08c-.44.08-.91.48-1.06.89l-1.73,4.83c-.07.21-.05.38.04.49l.82.98c-.09-.11-.11-.28-.04-.49l1.73-4.83c.15-.41.62-.81,1.06-.89l.43-.08c.22-.04.39.01.48.12l-.82-.98Z"/>
        <path class="cls-6" d="M70.78,43.46c.12-.02.23-.09.32-.17.25-.22.47-.49.62-.79.14-.27.24-.59.19-.89-.03-.2-.11-.38-.19-.56-.07-.15-.14-.29-.25-.41-.28-.28-.73-.29-1.12-.36-.27-.04-.53-.12-.8-.18-.42-.09-.84-.14-1.26-.19-.07,0-.15-.02-.21,0-.1.03-.16.13-.21.22-.13.3-.07.65.11.93.18.27.46.46.76.59.23.09.47.15.71.2.21.04.46.04.6.23.23.3.07.65.2.98.09.22.29.44.54.4Z"/>
        <path class="cls-9" d="M71.47,39.49c.44-.08.67.19.52.61l-1.73,4.83c-.15.41-.62.81-1.06.89l-.43.08c-.44.08-.67-.19-.52-.61l1.73-4.83c.15-.41.62-.81,1.06-.89l.43-.08Z"/>
      </g>
      <path class="cls-9" d="M73.19,39s-.04,0-.07.01c-.29-.08-.6-.28-.88-.61-.85-1.01-1.18-2.85-.73-4.1.15-.41.37-.71.62-.89.01,0,.03,0,.04,0,.44-.08.87-.05,1.26.06,0,0,0,0,0,0,1.02.28,1.84,1.13,2.04,2.24.2,1.13-.29,2.22-1.17,2.83-.33.23-.71.4-1.13.47Z"/>
      <path class="cls-10" d="M67.74,40.11l.43.51c.17.2.43.29.69.23l3.38-.82c.16-.04.28-.15.34-.3l.6-1.65-5.43,2.03Z"/>
      <path class="cls-8" d="M73.89,38.19c.47-1.32.12-3.26-.79-4.33-.45-.54-.96-.76-1.42-.68l-1.69.25c-1.45.22-2.92.28-4.38.17l-3.71-.26,1.91,9.27.14-.1c2.62-1.74,5.61-2.84,8.74-3.2.49-.04.93-.42,1.18-1.13Z"/>
      <path class="cls-2" d="M73.86,35.31c-3.32.22-6.63.72-9.87,1.49l-.32.08-1.14-.51-.62-3.02,3.71.26c1.46.1,2.93.05,4.38-.17l1.69-.25c.45-.08.96.14,1.42.68.33.39.59.9.76,1.45Z"/>
      <path class="cls-10" d="M64.82,41.17c-.74,2.06-2.49,2.36-3.91.68-1.42-1.68-1.97-4.71-1.23-6.76.74-2.06,2.49-2.36,3.91-.68,1.42,1.68,1.97,4.71,1.23,6.76Z"/>
      <path class="cls-8" d="M64.53,40.83c-.66,1.82-2.21,2.09-3.46.6-1.26-1.49-1.74-4.17-1.09-5.99.66-1.82,2.21-2.09,3.46-.6,1.26,1.49,1.74,4.17,1.09,5.99Z"/>
      <path class="cls-5" d="M64.71,40.14l-3.55-.23-.42-2.82,3.39-1.17c.61,1.27.84,2.89.58,4.22Z"/>
      <path class="cls-10" d="M61.8,39.39c-.22.61-.73.7-1.15.2-.42-.5-.58-1.39-.36-1.99.22-.61.73-.7,1.15-.2.42.5.58,1.39.36,1.99Z"/>
    </g>
    <path class="cls-6" d="M66.62,41.04c-.08.15-.22.26-.33.4-.17.22-.25.52-.19.79.02.1.06.2.04.3-.01.09-.06.16-.1.24-.11.21-.19.48-.07.69.09.15.26.23.36.37.19.26.09.62.12.94.06.52.53.92,1.03,1.06.51.13,1.04.05,1.55-.09.42-.11.84-.26,1.15-.56.2-.2.35-.51.21-.76-.02-.04-.05-.07-.06-.11-.03-.09.02-.18.07-.26.09-.17.16-.38.05-.54-.07-.1-.2-.19-.17-.31.02-.07.09-.11.14-.15.18-.15.22-.43.1-.63-.03-.05-.07-.09-.08-.14-.06-.18.15-.34.18-.53.03-.15-.07-.3-.19-.39-.12-.09-.27-.14-.4-.21-.53-.26-.93-.76-1.47-.99-.37-.15-.89-.21-1.28-.11-.17.04-.36.17-.46.32-.13.2-.1.46-.21.67Z"/>
    <path class="cls-6" d="M98.22,61.47c1.77,1.35,3.59,2.56,5.62,3.48.75.34,1.52.66,2.29.96.4.16.81.31,1.24.36.43.05.88-.01,1.23-.26.97-.69.8-2.21.43-3.17-.33-.86-.87-1.64-1.46-2.35-1.28-1.56-2.81-2.89-4.33-4.21-1.09-.94-2.19-1.9-3.49-2.52-.67-.32-1.42-.55-2.14-.39-.74.16-1.36.72-1.72,1.39-.46.83-.76,1.98-.54,2.91.1.45.29.87.52,1.26.43.73,1,1.38,1.63,1.94.23.21.47.41.72.6Z"/>
    <path class="cls-6" d="M118.38,41.6s-.03-.09-.07-.12c-.04-.02-.09-.02-.13,0-1.01.18-1.88.82-2.62,1.53-.74.71-1.41,1.51-2.24,2.11-.11.08-.25.16-.38.12-.05-.54.23-1.05.44-1.55.13-.33.23-.7.18-1.05-.04-.25-.23-.71-.57-.63-.1.03-.17.13-.22.22-.87,1.51-1.8,2.99-2.8,4.43-.23.33-.46.66-.63,1.02-.45.95-.25,1.83-.35,2.83-.1.93-.2,1.9-.42,2.81-.17.7-.4,1.38-.69,2.04-.32.74-.71,1.45-1.17,2.11-.5.73-1.07,1.4-1.62,2.09-.28.36-.56.73-.72,1.15-.26.67-.22,1.42-.05,2.12.37,1.5,1.42,2.89,2.89,3.36.25.08.52.14.78.1.39-.06.72-.33.99-.62.41-.46.71-1.01.98-1.57.66-1.39,1.14-2.87,1.42-4.39.12-.62.2-1.25.27-1.88.13-1.05.23-2.1.32-3.16.15-1.86.68-3.42,1.6-5.04.45-.79,1.07-1.46,1.61-2.19.64-.85,1.18-1.78,1.72-2.7.24-.4.48-.83.53-1.29,0-.08.01-.17.05-.24.04-.07.11-.12.18-.17.46-.33.85-.88.72-1.44Z"/>
    <path class="cls-4" d="M90.61,49.53c-.07,1.14.16,2.27.47,3.36.5,1.75,1.22,3.43,2.13,5.01.36.62.72,1.33,1.16,1.89.39.49,1.24.29,1.77.14,1.44-.41,2.72-1.31,3.64-2.49.47-.6.84-1.26,1.1-1.97.12-.34.3-.76.32-1.12.02-.38-.28-.56-.51-.85-.43-.56-3.16-3.71-4.14-4.68-1.11-1.1-2.38-2.2-3.93-2.42-.23-.03-.47-.04-.69.04-1.09.39-1.26,2.13-1.32,3.1Z"/>
  </g>
  <g>
    <path class="cls-10" d="M54.88,36.67l-10.16-3.5c-.88-.3-1.35-1.27-1.05-2.15h0c.3-.88,1.27-1.35,2.15-1.05l10.16,3.5c.88.3,1.35,1.27,1.05,2.15h0c-.3.88-1.27,1.35-2.15,1.05Z"/>
    <path class="cls-10" d="M45.82,49.26l10.16-3.5c.88-.3,1.35-1.27,1.05-2.15h0c-.3-.88-1.27-1.35-2.15-1.05l-10.16,3.5c-.88.3-1.35,1.27-1.05,2.15h0c.3.88,1.27,1.35,2.15,1.05Z"/>
    <path class="cls-10" d="M51.81,41.16h-10.75c-.93,0-1.69-.76-1.69-1.69h0c0-.93.76-1.69,1.69-1.69h10.75c.93,0,1.69.76,1.69,1.69h0c0,.93-.76,1.69-1.69,1.69Z"/>
  </g>
</svg>